<svg id="Layer_1" data-name="Layer 1" xmlns="http://www.w3.org/2000/svg" xmlns:xlink="http://www.w3.org/1999/xlink" viewBox="0 0 1790.26 376.21"><defs><style>.cls-1{fill:url(#linear-gradient);}.cls-2{fill:url(#linear-gradient-2);}.cls-3{fill:url(#linear-gradient-3);}.cls-4{fill:url(#linear-gradient-4);}.cls-5{fill:url(#linear-gradient-5);}.cls-6{fill:url(#linear-gradient-6);}.cls-7{fill:url(#linear-gradient-7);}.cls-8{fill:url(#linear-gradient-8);}.cls-9{fill:url(#linear-gradient-9);}.cls-10{fill:url(#linear-gradient-10);}.cls-11{fill:url(#linear-gradient-11);}.cls-12{fill:url(#linear-gradient-12);}.cls-13{fill:url(#linear-gradient-13);}.cls-14{fill:url(#linear-gradient-14);}.cls-15{fill:url(#linear-gradient-15);}.cls-16{fill:url(#linear-gradient-16);}.cls-17{fill:url(#linear-gradient-17);}.cls-18{fill:url(#linear-gradient-18);}.cls-19{fill:url(#linear-gradient-19);}.cls-20{fill:url(#linear-gradient-20);}.cls-21{fill:url(#linear-gradient-21);}.cls-22{fill:url(#linear-gradient-22);}</style><linearGradient id="linear-gradient" x1="242.06" y1="200.29" x2="280" y2="200.29" gradientUnits="userSpaceOnUse"><stop offset="0" stop-color="#fdd100"/><stop offset="1" stop-color="#fb7e1a"/></linearGradient><linearGradient id="linear-gradient-2" x1="516.06" y1="82.29" x2="554" y2="82.29" xlink:href="#linear-gradient"/><linearGradient id="linear-gradient-3" x1="91.06" y1="83.16" x2="163" y2="83.16" gradientUnits="userSpaceOnUse"><stop offset="0" stop-color="#fb0a87"/><stop offset="1" stop-color="#a408b0"/></linearGradient><linearGradient id="linear-gradient-4" x1="555.06" y1="292.16" x2="627" y2="292.16" xlink:href="#linear-gradient-3"/><linearGradient id="linear-gradient-5" x1="78.06" y1="273.96" x2="125" y2="273.96" gradientUnits="userSpaceOnUse"><stop offset="0" stop-color="#fb0a87"/><stop offset="1" stop-color="#fb7e1a"/></linearGradient><linearGradient id="linear-gradient-6" x1="355.06" y1="213.9" x2="417.32" y2="213.9" gradientUnits="userSpaceOnUse"><stop offset="0" stop-color="#02a0d0"/><stop offset="1" stop-color="#10d683"/></linearGradient><linearGradient id="linear-gradient-7" x1="800.06" y1="228.9" x2="862.32" y2="228.9" xlink:href="#linear-gradient-6"/><linearGradient id="linear-gradient-8" x1="163.78" y1="413.32" x2="204.74" y2="413.32" xlink:href="#linear-gradient"/><linearGradient id="linear-gradient-9" x1="333.34" y1="80.42" x2="372" y2="80.42" xlink:href="#linear-gradient-3"/><linearGradient id="linear-gradient-10" x1="352.65" y1="313.82" x2="377.87" y2="313.82" xlink:href="#linear-gradient-5"/><linearGradient id="linear-gradient-11" x1="654.65" y1="179.57" x2="725" y2="179.57" xlink:href="#linear-gradient-5"/><linearGradient id="linear-gradient-12" x1="969.06" y1="217.91" x2="1045.29" y2="217.91" gradientTransform="matrix(-1, 0, 0, 1, 2746.38, 0)" xlink:href="#linear-gradient"/><linearGradient id="linear-gradient-13" x1="1345.06" y1="102.91" x2="1421.29" y2="102.91" gradientTransform="matrix(-1, 0, 0, 1, 2746.38, 0)" xlink:href="#linear-gradient"/><linearGradient id="linear-gradient-14" x1="1006.01" y1="87.96" x2="1077.95" y2="87.96" gradientTransform="matrix(-1, 0, 0, 1, 2746.38, 0)" xlink:href="#linear-gradient-3"/><linearGradient id="linear-gradient-15" x1="1355.06" y1="292.16" x2="1427" y2="292.16" gradientTransform="matrix(-1, 0, 0, 1, 2746.38, 0)" xlink:href="#linear-gradient-3"/><linearGradient id="linear-gradient-16" x1="878.06" y1="273.96" x2="925" y2="273.96" gradientTransform="matrix(-1, 0, 0, 1, 2746.38, 0)" xlink:href="#linear-gradient-5"/><linearGradient id="linear-gradient-17" x1="1155.06" y1="213.9" x2="1217.32" y2="213.9" gradientTransform="matrix(-1, 0, 0, 1, 2746.38, 0)" xlink:href="#linear-gradient-6"/><linearGradient id="linear-gradient-18" x1="1600.06" y1="228.9" x2="1662.32" y2="228.9" gradientTransform="matrix(-1, 0, 0, 1, 2746.38, 0)" xlink:href="#linear-gradient-6"/><linearGradient id="linear-gradient-19" x1="980.55" y1="409.7" x2="1021.51" y2="409.7" gradientTransform="matrix(-1, 0, 0, 1, 2746.38, 0)" xlink:href="#linear-gradient"/><linearGradient id="linear-gradient-20" x1="1169.34" y1="108.42" x2="1208" y2="108.42" gradientTransform="matrix(-1, 0, 0, 1, 2746.38, 0)" xlink:href="#linear-gradient-3"/><linearGradient id="linear-gradient-21" x1="1121.65" y1="348.82" x2="1146.87" y2="348.82" gradientTransform="matrix(-1, 0, 0, 1, 2746.38, 0)" xlink:href="#linear-gradient-5"/><linearGradient id="linear-gradient-22" x1="1703.58" y1="79.83" x2="1757.87" y2="79.83" gradientTransform="matrix(-1, 0, 0, 1, 2746.38, 0)" xlink:href="#linear-gradient-5"/></defs><title>ark-background</title><path class="cls-1" d="M278.74,204.31l-11.1-16.18a7.81,7.81,0,0,0-7.91-3.17,7.7,7.7,0,0,0-5.25,3.23l-.48.71-10.64,15.17a7.09,7.09,0,0,0-1.23,5.07,7.6,7.6,0,0,0,7.68,6.63,7.81,7.81,0,0,0,6.41-3.26l4.88-7-.06-.07,0-.06,4.84,7.06a7.78,7.78,0,0,0,6.42,3.31,7.89,7.89,0,0,0,4.21-1.21A7.19,7.19,0,0,0,278.74,204.31Z" transform="translate(-78.06 -53.82)"/><path class="cls-2" d="M552.74,86.31l-11.1-16.18A7.81,7.81,0,0,0,533.73,67a7.7,7.7,0,0,0-5.25,3.23l-.48.71L517.36,86.07a7.09,7.09,0,0,0-1.23,5.07,7.6,7.6,0,0,0,7.68,6.63,7.81,7.81,0,0,0,6.41-3.26l4.88-7L535,87.4l0-.06,4.84,7.06a7.78,7.78,0,0,0,6.42,3.31,7.89,7.89,0,0,0,4.21-1.21A7.19,7.19,0,0,0,552.74,86.31Z" transform="translate(-78.06 -53.82)"/><path class="cls-3" d="M160.6,90.77l-21-30.67a14.8,14.8,0,0,0-15-6,14.55,14.55,0,0,0-10,6.12l-.92,1.34L93.52,90.32a13.46,13.46,0,0,0-2.33,9.61c.73,7.06,7,12.57,14.56,12.57a14.83,14.83,0,0,0,12.15-6.17L127.16,93l-.11-.14.07-.12,9.19,13.39a14.7,14.7,0,0,0,12.16,6.28,14.88,14.88,0,0,0,8-2.3A13.6,13.6,0,0,0,160.6,90.77Z" transform="translate(-78.06 -53.82)"/><path class="cls-4" d="M624.6,299.77l-21-30.67a14.8,14.8,0,0,0-15-6,14.55,14.55,0,0,0-10,6.12l-.92,1.34-20.17,28.77a13.46,13.46,0,0,0-2.33,9.61c.73,7.06,7,12.57,14.56,12.57a14.83,14.83,0,0,0,12.15-6.17L591.16,302l-.11-.14.07-.12,9.19,13.39a14.7,14.7,0,0,0,12.16,6.28,14.88,14.88,0,0,0,8-2.3A13.6,13.6,0,0,0,624.6,299.77Z" transform="translate(-78.06 -53.82)"/><path class="cls-5" d="M123.44,278.93l-13.73-20A9.68,9.68,0,0,0,99.93,255a9.54,9.54,0,0,0-6.5,4l-.6.88L79.67,278.64a8.72,8.72,0,0,0-1.52,6.26,9.39,9.39,0,0,0,9.5,8.21,9.65,9.65,0,0,0,7.92-4l6.05-8.71-.08-.09,0-.08,6,8.74a9.63,9.63,0,0,0,7.94,4.1,9.79,9.79,0,0,0,5.21-1.5A8.89,8.89,0,0,0,123.44,278.93Z" transform="translate(-78.06 -53.82)"/><path class="cls-6" d="M415.25,220.48,397,193.94a12.84,12.84,0,0,0-13-5.2,12.6,12.6,0,0,0-8.62,5.29l-.79,1.17-17.46,24.89a11.69,11.69,0,0,0-2,8.32,12.47,12.47,0,0,0,12.61,10.88A12.84,12.84,0,0,0,378.29,234l8-11.55-.11-.13.07-.1,8,11.59a12.74,12.74,0,0,0,10.53,5.44,13,13,0,0,0,6.9-2A11.79,11.79,0,0,0,415.25,220.48Z" transform="translate(-78.06 -53.82)"/><path class="cls-7" d="M860.25,235.48,842,208.94a12.84,12.84,0,0,0-13-5.2,12.6,12.6,0,0,0-8.62,5.29l-.79,1.17-17.46,24.89a11.69,11.69,0,0,0-2,8.32,12.47,12.47,0,0,0,12.61,10.88A12.84,12.84,0,0,0,823.29,249l8-11.55-.11-.13.07-.1,8,11.59a12.74,12.74,0,0,0,10.53,5.44,13,13,0,0,0,6.9-2A11.79,11.79,0,0,0,860.25,235.48Z" transform="translate(-78.06 -53.82)"/><path class="cls-8" d="M203.37,417.65l-12-17.46a8.42,8.42,0,0,0-8.53-3.42,8.25,8.25,0,0,0-5.67,3.48l-.53.77L165.18,417.4a7.62,7.62,0,0,0-1.33,5.47,8.2,8.2,0,0,0,8.29,7.16,8.45,8.45,0,0,0,6.92-3.52l5.27-7.6-.06-.08,0-.06,5.23,7.62a8.36,8.36,0,0,0,6.93,3.57,8.52,8.52,0,0,0,4.54-1.3A7.75,7.75,0,0,0,203.37,417.65Z" transform="translate(-78.06 -53.82)"/><path class="cls-9" d="M370.71,84.51,359.4,68a7.94,7.94,0,0,0-8-3.23A7.81,7.81,0,0,0,346,68.09l-.5.72L334.66,84.27a7.24,7.24,0,0,0-1.25,5.16,7.73,7.73,0,0,0,7.83,6.76,8,8,0,0,0,6.52-3.32l5-7.17-.06-.08,0-.06,4.94,7.19a7.89,7.89,0,0,0,6.53,3.38,8,8,0,0,0,4.29-1.23A7.32,7.32,0,0,0,370.71,84.51Z" transform="translate(-78.06 -53.82)"/><path class="cls-10" d="M377,316.49l-7.38-10.76a5.46,5.46,0,0,0-8.75,0l-.32.47-7.07,10.09a4.71,4.71,0,0,0-.82,3.37,5.05,5.05,0,0,0,5.11,4.41,5.21,5.21,0,0,0,4.26-2.17l3.24-4.68,0-.05,0,0,3.22,4.7a5.23,5.23,0,0,0,7.06,1.39A4.76,4.76,0,0,0,377,316.49Z" transform="translate(-78.06 -53.82)"/><path class="cls-11" d="M722.66,187l-20.58-30a14.5,14.5,0,0,0-14.66-5.88,14.23,14.23,0,0,0-9.74,6l-.9,1.31-19.73,28.14a13.16,13.16,0,0,0-2.28,9.39A14.08,14.08,0,0,0,669,208.27a14.5,14.5,0,0,0,11.88-6l9.06-13-.11-.14.07-.11,9,13.09a14.37,14.37,0,0,0,11.89,6.14,14.63,14.63,0,0,0,7.81-2.25A13.31,13.31,0,0,0,722.66,187Z" transform="translate(-78.06 -53.82)"/><path class="cls-12" d="M1703.63,226l22.3-32.5a15.72,15.72,0,0,1,15.89-6.37,15.47,15.47,0,0,1,10.55,6.49l1,1.42,21.37,30.49a14.2,14.2,0,0,1,2.47,10.18c-.77,7.48-7.38,13.32-15.43,13.32a15.72,15.72,0,0,1-12.87-6.54l-9.81-14.15.12-.15-.08-.12-9.73,14.19a15.59,15.59,0,0,1-12.89,6.65,15.87,15.87,0,0,1-8.46-2.43A14.44,14.44,0,0,1,1703.63,226Z" transform="translate(-78.06 -53.82)"/><path class="cls-13" d="M1327.63,111l22.3-32.5a15.72,15.72,0,0,1,15.89-6.37,15.47,15.47,0,0,1,10.55,6.49l1,1.42,21.37,30.49a14.2,14.2,0,0,1,2.47,10.18c-.77,7.48-7.38,13.32-15.43,13.32a15.72,15.72,0,0,1-12.87-6.54l-9.81-14.15.12-.15-.08-.12-9.73,14.19a15.59,15.59,0,0,1-12.89,6.65,15.87,15.87,0,0,1-8.46-2.43A14.44,14.44,0,0,1,1327.63,111Z" transform="translate(-78.06 -53.82)"/><path class="cls-14" d="M1670.83,95.57l21-30.67a14.84,14.84,0,0,1,15-6,14.59,14.59,0,0,1,10,6.12l.92,1.35,20.17,28.76a13.46,13.46,0,0,1,2.33,9.61,14.4,14.4,0,0,1-14.56,12.58,14.81,14.81,0,0,1-12.15-6.18l-9.26-13.35.12-.14-.08-.11-9.18,13.38A14.71,14.71,0,0,1,1683,117.2a15,15,0,0,1-8-2.3A13.61,13.61,0,0,1,1670.83,95.57Z" transform="translate(-78.06 -53.82)"/><path class="cls-15" d="M1321.78,299.77l21-30.67a14.8,14.8,0,0,1,15-6,14.55,14.55,0,0,1,10,6.12l.92,1.34,20.17,28.77a13.46,13.46,0,0,1,2.33,9.61c-.73,7.06-7,12.57-14.56,12.57a14.83,14.83,0,0,1-12.15-6.17L1355.22,302l.12-.14-.08-.12-9.19,13.39a14.7,14.7,0,0,1-12.16,6.28,14.88,14.88,0,0,1-8-2.3A13.6,13.6,0,0,1,1321.78,299.77Z" transform="translate(-78.06 -53.82)"/><path class="cls-16" d="M1823,278.93l13.73-20a9.66,9.66,0,0,1,9.78-3.93,9.52,9.52,0,0,1,6.49,4l.61.88,13.15,18.77a8.78,8.78,0,0,1,1.53,6.26,9.4,9.4,0,0,1-9.5,8.21,9.66,9.66,0,0,1-7.93-4l-6-8.71.08-.09,0-.08-6,8.74a9.63,9.63,0,0,1-7.94,4.1,9.73,9.73,0,0,1-5.2-1.5A8.88,8.88,0,0,1,1823,278.93Z" transform="translate(-78.06 -53.82)"/><path class="cls-17" d="M1531.14,220.48l18.21-26.54a12.81,12.81,0,0,1,13-5.2,12.6,12.6,0,0,1,8.62,5.29l.8,1.17,17.45,24.89a11.64,11.64,0,0,1,2,8.32,12.45,12.45,0,0,1-12.6,10.88,12.85,12.85,0,0,1-10.52-5.34l-8-11.55a1,1,0,0,1,.1-.13l-.07-.1-7.95,11.59a12.74,12.74,0,0,1-10.52,5.44,13,13,0,0,1-6.91-2A11.78,11.78,0,0,1,1531.14,220.48Z" transform="translate(-78.06 -53.82)"/><path class="cls-18" d="M1086.14,235.48l18.21-26.54a12.81,12.81,0,0,1,13-5.2,12.6,12.6,0,0,1,8.62,5.29l.8,1.17,17.45,24.89a11.64,11.64,0,0,1,2,8.32,12.45,12.45,0,0,1-12.6,10.88,12.85,12.85,0,0,1-10.52-5.34l-8-11.55a1,1,0,0,1,.1-.13l-.07-.1-7.95,11.59a12.74,12.74,0,0,1-10.52,5.44,13,13,0,0,1-6.91-2A11.78,11.78,0,0,1,1086.14,235.48Z" transform="translate(-78.06 -53.82)"/><path class="cls-19" d="M1726.24,414l12-17.46a8.44,8.44,0,0,1,8.54-3.43,8.29,8.29,0,0,1,5.66,3.49l.53.76,11.48,16.38a7.66,7.66,0,0,1,1.33,5.48,8.19,8.19,0,0,1-8.29,7.16,8.45,8.45,0,0,1-6.92-3.52l-5.27-7.6.07-.08,0-.07-5.23,7.63A8.52,8.52,0,0,1,1728.6,425,7.74,7.74,0,0,1,1726.24,414Z" transform="translate(-78.06 -53.82)"/><path class="cls-20" d="M1539.67,112.51,1551,96a8,8,0,0,1,8-3.23,7.79,7.79,0,0,1,5.35,3.29l.5.72,10.84,15.46a7.24,7.24,0,0,1,1.25,5.16,7.73,7.73,0,0,1-7.82,6.76,8,8,0,0,1-6.53-3.32l-5-7.17.06-.08,0-.06-4.93,7.19a7.92,7.92,0,0,1-6.54,3.38,8.09,8.09,0,0,1-4.29-1.23A7.33,7.33,0,0,1,1539.67,112.51Z" transform="translate(-78.06 -53.82)"/><path class="cls-21" d="M1600.35,351.49l7.38-10.76a5.2,5.2,0,0,1,5.26-2.1,5.11,5.11,0,0,1,3.49,2.14l.32.47,7.07,10.09a4.71,4.71,0,0,1,.82,3.37,5,5,0,0,1-5.1,4.41,5.18,5.18,0,0,1-4.26-2.17l-3.25-4.68,0-.05,0,0-3.22,4.7a5.14,5.14,0,0,1-4.26,2.2,5.2,5.2,0,0,1-2.8-.81A4.77,4.77,0,0,1,1600.35,351.49Z" transform="translate(-78.06 -53.82)"/><path class="cls-22" d="M990.32,85.57l15.88-23.14a11.19,11.19,0,0,1,11.32-4.54,11,11,0,0,1,7.51,4.62l.7,1L1041,85.23a10.21,10.21,0,0,1,1.76,7.26,10.87,10.87,0,0,1-11,9.48,11.17,11.17,0,0,1-9.17-4.65l-7-10.08.09-.11-.06-.08-6.93,10.1a11.11,11.11,0,0,1-9.18,4.74,11.31,11.31,0,0,1-6-1.73A10.28,10.28,0,0,1,990.32,85.57Z" transform="translate(-78.06 -53.82)"/></svg>