<?xml version="1.0" encoding="utf-8"?>
<!-- Generator: Adobe Illustrator 22.0.0, SVG Export Plug-In . SVG Version: 6.00 Build 0)  -->
<svg version="1.1" id="Layer_1" xmlns="http://www.w3.org/2000/svg" xmlns:xlink="http://www.w3.org/1999/xlink" x="0px" y="0px"
	 viewBox="0 0 1920 321.8" style="enable-background:new 0 0 1920 321.8;" xml:space="preserve">
<style type="text/css">
	.st0{fill:#7E52A9;}
	.st1{fill:#0099C0;}
	.st2{fill:#00C0B3;}
</style>
<path class="st0" d="M2344.4,423.7l-27.5-342.4c0,0-241.1,140.5-493.7,104.6s-653.8-122.7-864-83.8s-249.6,47-662.7-36.1
	C148.6,36.2,53.3,61.2-8,105.6v352.3L2344.4,423.7z"/>
<path class="st1" d="M2294,205c0,0-552.3-160.4-1021.9-37.9c-103.9,27.1-147.3,36.9-303.3,1.8c-197-44.3-568.4,101.2-706.9,22.6
	s-328.4-63.2-328.4-63.2L-55.8,412l2390.6-20.8L2294,205z"/>
<path class="st2" d="M2287.1,177.1c0,0-175.5-112-551.7,33.4s-656.8-3.6-656.8-3.6s-266.3-62.3-505.1,43.4s-589.9-33.4-589.9-33.4
	l-7.2,142.7l2322.6-9.9L2287.1,177.1z"/>
</svg>
