<?xml version="1.0" encoding="utf-8"?>
<!-- Generator: Adobe Illustrator 22.0.0, SVG Export Plug-In . SVG Version: 6.00 Build 0)  -->
<svg version="1.1" id="Layer_1" xmlns="http://www.w3.org/2000/svg" xmlns:xlink="http://www.w3.org/1999/xlink" x="0px" y="0px"
	 viewBox="0 0 1920 321.8" style="enable-background:new 0 0 1920 321.8;" xml:space="preserve">
<style type="text/css">
	.st0{fill:#FFCF0B;}
	.st1{fill:#FE693F;}
	.st2{fill:#E22B71;}
	.st3{fill:#F2517D;}
</style>
<g>
	
		<image style="overflow:visible;opacity:0.2;enable-background:new    ;" width="2090" height="490" xlink:href="7538692003379510.png"  transform="matrix(1 0 0 1 -102 -189)">
	</image>
	<g>
		<path class="st0" d="M-49-104.6l23,312.7c0,0,201.9-128.3,413.5-95.5s547.5,112,723.5,76.6s209-42.9,555,33
			c123.8,27.2,203.6,4.3,255-36.2v-321.7L-49-104.6z"/>
	</g>
</g>
<g>
	
		<image style="overflow:visible;opacity:0.2;enable-background:new    ;" width="2131" height="386" xlink:href="7538692003379511.png"  transform="matrix(1 0 0 1 -94 -147)">
	</image>
	<g>
		<path class="st1" d="M-6.8,95.2c0,0,462.5,146.5,855.8,34.6c87-24.8,123.3-33.7,254-1.7c165,40.4,476-92.4,592-20.6
			s275,57.8,275,57.8l-9-259.1l-2002,19L-6.8,95.2z"/>
	</g>
</g>
<g>
	
		<image style="overflow:visible;opacity:0.2;enable-background:new    ;" width="2065" height="364" xlink:href="7538692003379517.png"  transform="matrix(1 0 0 1 -64 -100)">
	</image>
	<g>
		<path class="st2" d="M-1,152.3c0,0,147,121.7,462-36.3C694.8-1.3,884.5,57.6,966.8,95.8c56.8,26.4,118.1,41.5,180.7,43.5
			c80.8,2.6,186.5-9.2,286.5-66.6c200-114.8,494,36.3,494,36.3l6-155.1L-11-35.2L-1,152.3z"/>
	</g>
</g>
<g>
	
		<image style="overflow:visible;opacity:0.2;enable-background:new    ;" width="1482" height="297" xlink:href="7538692003379512.png"  transform="matrix(1 0 0 1 19 -108)">
	</image>
	<g>
		<path class="st3" d="M72-2.3c0,0,39,172.4,481,111.1s249-41.6,534-43.6c285-2.1,347-101.8,347-101.8L74-54.3L72-2.3z"/>
	</g>
</g>
</svg>
