<svg id="Layer_1" data-name="Layer 1" xmlns="http://www.w3.org/2000/svg" viewBox="0 0 953.52 197.99"><defs><style>.cls-1{fill:#ffc70b;}.cls-2{fill:#6d0ece;}.cls-3{fill:#e84b38;}</style></defs><title>logo</title><path class="cls-1" d="M525.38,529.2s-47.71-60.59-99.22-17.76l-.6.51c-.4.34-.81.67-1.21,1-.22.19-.38.39-.58.59a47,47,0,0,0,32.3,81.51,47.39,47.39,0,0,0,39.32-20.82h0Z" transform="translate(-407.13 -397.09)"/><path class="cls-2" d="M808.8,443.25,856,540.78q3,5.94,3,8.91,0,6.3-10.14,11.36-5.94,3-10,3a8.31,8.31,0,0,1-5-1.57,10.37,10.37,0,0,1-3.15-3.32q-1-1.74-2.7-5.24L818.93,535H770.52l-9.08,18.88q-1.76,3.5-2.71,5.06a12.6,12.6,0,0,1-3.15,3.24,8,8,0,0,1-5,1.66c-2.68,0-6-1-10-3Q730.5,556,730.5,549.69q0-3,3-8.91l47.19-97.7a16.08,16.08,0,0,1,14.16-8.91Q804.26,434.17,808.8,443.25ZM794.64,485.2l-11.53,23.95h23.24Z" transform="translate(-407.13 -397.09)"/><path class="cls-2" d="M944.79,481a31.23,31.23,0,0,1-3.32,14.15q-3.33,6.64-9.61,6.64a13.7,13.7,0,0,1-6-1.39A13.3,13.3,0,0,0,920,499a16.25,16.25,0,0,0-10.57,3.33,10,10,0,0,0-4.11,8v36.7a51.94,51.94,0,0,1-.26,6,13.38,13.38,0,0,1-1.66,4.55,7.83,7.83,0,0,1-4.72,3.58,30.51,30.51,0,0,1-8.91,1,27.36,27.36,0,0,1-7.43-.88,12.82,12.82,0,0,1-4.55-2.09,7.65,7.65,0,0,1-2.27-3.59,15.08,15.08,0,0,1-.87-4c-.06-1.1-.09-2.77-.09-5V485.37a51.75,51.75,0,0,1,.26-6,14,14,0,0,1,1.57-4.54,7.37,7.37,0,0,1,4.64-3.59,30.46,30.46,0,0,1,8.91-1.05,29,29,0,0,1,8.56,1.05A8.18,8.18,0,0,1,903,474.1a12,12,0,0,1,1.57,3.06,10.36,10.36,0,0,1,.35,2.8,28.39,28.39,0,0,1,2.53-3q1.66-1.75,7.08-4.72a22.66,22.66,0,0,1,11-3,36.48,36.48,0,0,1,5.42.43,42.75,42.75,0,0,1,6.11,1.49,11.67,11.67,0,0,1,5.51,3.59A9.13,9.13,0,0,1,944.79,481Z" transform="translate(-407.13 -397.09)"/><path class="cls-2" d="M1012,516.14l23.24,19.22c1.52,1.28,2.65,2.27,3.41,3a12.43,12.43,0,0,1,2.19,2.79,6.7,6.7,0,0,1,1,3.49q0,4.2-5.41,11.37-5.94,7.34-11.19,7.34-3.66,0-9.26-4.55l-.7-.52-1.75-1.23q-4-3.3-12.4-11.61t-12.76-11.81v13.46a49.32,49.32,0,0,1-.27,6,13.86,13.86,0,0,1-1.57,4.55,7.43,7.43,0,0,1-4.63,3.58,30.46,30.46,0,0,1-8.91,1,29.76,29.76,0,0,1-8.74-1,7.28,7.28,0,0,1-4.63-3.68,14.88,14.88,0,0,1-1.57-4.63,49.09,49.09,0,0,1-.27-6V442.21a49.32,49.32,0,0,1,.27-6,14.88,14.88,0,0,1,1.57-4.63,7.27,7.27,0,0,1,4.63-3.67,30.46,30.46,0,0,1,8.91-1.05,27.5,27.5,0,0,1,7.43.87,12.75,12.75,0,0,1,4.54,2.1,7.6,7.6,0,0,1,2.28,3.58,15.92,15.92,0,0,1,.87,4q.09,1.67.09,5v55.41q3.14-2.62,9.52-8.91t9.52-8.92l2.11-1.4q6.11-4.72,9.61-4.72c3.5,0,7.1,2.28,10.83,6.82q5.77,7.35,5.77,11.36t-6.47,9.44Z" transform="translate(-407.13 -397.09)"/><path class="cls-2" d="M1071.79,457.77a29.76,29.76,0,0,1-8.74-1.06,7.32,7.32,0,0,1-4.63-3.67,14.88,14.88,0,0,1-1.57-4.63,70.05,70.05,0,0,1,0-12.06,14.18,14.18,0,0,1,1.57-4.55,7.42,7.42,0,0,1,4.63-3.57,30.54,30.54,0,0,1,8.92-1.05,29.81,29.81,0,0,1,8.74,1.05,7.35,7.35,0,0,1,4.63,3.67,15.24,15.24,0,0,1,1.57,4.63,69.94,69.94,0,0,1,0,12.05,14.26,14.26,0,0,1-1.57,4.55,7.43,7.43,0,0,1-4.63,3.58A30.58,30.58,0,0,1,1071.79,457.77Zm-15.2,27.79a49.84,49.84,0,0,1,.26-6,14,14,0,0,1,1.57-4.54,7.45,7.45,0,0,1,4.63-3.59,30.93,30.93,0,0,1,8.92-1,27.55,27.55,0,0,1,7.43.87,12.84,12.84,0,0,1,4.54,2.1,7.69,7.69,0,0,1,2.27,3.58,16,16,0,0,1,.87,4q.09,1.66.09,5v61.17a51.94,51.94,0,0,1-.26,6,14.35,14.35,0,0,1-1.57,4.55,7.46,7.46,0,0,1-4.63,3.58,30.63,30.63,0,0,1-8.92,1,29.81,29.81,0,0,1-8.74-1,7.31,7.31,0,0,1-4.63-3.68,14.89,14.89,0,0,1-1.57-4.54,49.48,49.48,0,0,1-.26-6.12Z" transform="translate(-407.13 -397.09)"/><path class="cls-2" d="M1233.79,457.77a29.64,29.64,0,0,1-8.73-1.06,7.32,7.32,0,0,1-4.63-3.67,14.93,14.93,0,0,1-1.58-4.63,70.05,70.05,0,0,1,0-12.06,14.23,14.23,0,0,1,1.58-4.55,7.42,7.42,0,0,1,4.63-3.57,30.49,30.49,0,0,1,8.92-1.05,29.78,29.78,0,0,1,8.73,1.05,7.32,7.32,0,0,1,4.63,3.67,14.71,14.71,0,0,1,1.57,4.63,69.94,69.94,0,0,1,0,12.05,13.79,13.79,0,0,1-1.57,4.55,7.4,7.4,0,0,1-4.63,3.58A30.54,30.54,0,0,1,1233.79,457.77Zm-15.2,27.79a52,52,0,0,1,.26-6,14,14,0,0,1,1.58-4.54,7.45,7.45,0,0,1,4.63-3.59,30.88,30.88,0,0,1,8.92-1,27.42,27.42,0,0,1,7.42.87,12.67,12.67,0,0,1,4.54,2.1,7.71,7.71,0,0,1,2.28,3.58,16,16,0,0,1,.87,4c.05,1.11.08,2.77.08,5v61.17a49.76,49.76,0,0,1-.26,6,13.86,13.86,0,0,1-1.57,4.55,7.43,7.43,0,0,1-4.63,3.58,30.58,30.58,0,0,1-8.92,1,29.69,29.69,0,0,1-8.73-1,7.31,7.31,0,0,1-4.63-3.68,15,15,0,0,1-1.58-4.54,51.59,51.59,0,0,1-.26-6.12Z" transform="translate(-407.13 -397.09)"/><path class="cls-2" d="M1182.43,427.18a29.71,29.71,0,0,1,8.74,1.05,7.3,7.3,0,0,1,4.63,3.67,15,15,0,0,1,1.58,4.63,51.94,51.94,0,0,1,.26,6V546.89a51.7,51.7,0,0,1-.26,6,13.38,13.38,0,0,1-1.66,4.55,7.76,7.76,0,0,1-4.72,3.58,30.49,30.49,0,0,1-8.92,1.05q-13.27,0-14.68-8.56-7.34,8.38-20.44,8.39-15.74,0-28.66-13.72a45.67,45.67,0,0,1-12.93-32.42q0-17.83,13-31.64t28.58-13.8q12.93,0,20.1,8.73v-36.7a49.88,49.88,0,0,1,.26-6,14.18,14.18,0,0,1,1.57-4.55,7.45,7.45,0,0,1,4.63-3.57A30.51,30.51,0,0,1,1182.43,427.18Zm-41.94,99.61a14.68,14.68,0,0,0,11,4.72,13.92,13.92,0,0,0,10.75-4.72,15.23,15.23,0,0,0,4.28-10.48,16,16,0,0,0-4.11-10.48,13.69,13.69,0,0,0-11.09-4.9,14.14,14.14,0,0,0-11.19,4.81,15.7,15.7,0,0,0-4.19,10.57A14.75,14.75,0,0,0,1140.49,526.79Z" transform="translate(-407.13 -397.09)"/><path class="cls-2" d="M1345.44,470.17a29.76,29.76,0,0,1,8.74,1.05,7.31,7.31,0,0,1,4.64,3.67,15.15,15.15,0,0,1,1.57,4.63,52,52,0,0,1,.26,6v61.16a51.94,51.94,0,0,1-.26,6,14.22,14.22,0,0,1-1.57,4.54,7.4,7.4,0,0,1-4.64,3.59,30.46,30.46,0,0,1-8.91,1c-5.25,0-8.94-.79-11.1-2.36a9.47,9.47,0,0,1-3.76-6.91q-6.47,9.27-21,9.27-15.72,0-28.66-13.81a45.76,45.76,0,0,1-12.94-32.33q0-18,13-31.72t28.58-13.72a27.25,27.25,0,0,1,10.84,2.09,24,24,0,0,1,6.81,3.94,24.78,24.78,0,0,1,3.15,3.58,10.07,10.07,0,0,1,3.75-7.34Q1337.23,470.18,1345.44,470.17Zm-31.28,61.17a13.69,13.69,0,0,0,10.57-4.72,15.23,15.23,0,0,0,4.29-10.48,16.1,16.1,0,0,0-4.11-10.49,13.75,13.75,0,0,0-11.1-4.89,14.08,14.08,0,0,0-11.1,4.89,15.88,15.88,0,0,0-4.29,10.66,14.51,14.51,0,0,0,4.55,10.4A15.07,15.07,0,0,0,1314.16,531.34Z" transform="translate(-407.13 -397.09)"/><text x="-407.13" y="-397.09"></text><rect class="cls-1" x="442.21" y="388.84" width="94.16" height="215.03" rx="43.5" ry="43.5" transform="translate(-46.84 -585.66) rotate(33.92)"/><path class="cls-3" d="M633.61,521.75,565.5,418.27a49.09,49.09,0,0,0-80.75.37L418.2,519.75a48.15,48.15,0,0,1,5.57-6.19c.2-.2.36-.4.58-.59.4-.35.81-.68,1.21-1l.6-.51C475,470.83,520.41,523.19,525,528.73l.26-.39L555,573.5a47.07,47.07,0,1,0,78.64-51.75Z" transform="translate(-407.13 -397.09)"/></svg>