<?xml version="1.0" encoding="utf-8"?>
<!-- Generator: Adobe Illustrator 22.0.0, SVG Export Plug-In . SVG Version: 6.00 Build 0)  -->
<svg version="1.1" id="Layer_1" xmlns="http://www.w3.org/2000/svg" xmlns:xlink="http://www.w3.org/1999/xlink" x="0px" y="0px"
	 viewBox="0 0 953.5 198" style="enable-background:new 0 0 953.5 198;" xml:space="preserve">
<style type="text/css">
	.st0{fill:url(#SVGID_1_);}
	.st1{fill:#C4C4C4;}
	.st2{fill:#A5A4A4;}
</style>
<linearGradient id="SVGID_1_" gradientUnits="userSpaceOnUse" x1="44.2597" y1="144.3645" x2="106.2495" y2="72.5661">
	<stop  offset="0" style="stop-color:#FFFFFF"/>
	<stop  offset="1" style="stop-color:#000000"/>
</linearGradient>
<path class="st0" d="M140.2,8l5.9,4c19.9,13.4,25.2,40.4,11.8,60.4L86.5,178.7c-13.4,19.9-40.4,25.2-60.4,11.8l-5.9-4
	C0.3,173.1-5,146,8.4,126.1L79.9,19.9C93.3-0.1,120.3-5.4,140.2,8z"/>
<title>logo</title>
<path class="st1" d="M401.7,46.2l47.2,97.5c2,4,3,6.9,3,8.9c0,4.2-3.4,8-10.1,11.4c-4,2-7.3,3-10,3c-1.8,0-3.5-0.5-5-1.6
	c-1.3-0.9-2.4-2-3.2-3.3c-0.7-1.2-1.6-2.9-2.7-5.2l-9.1-18.9h-48.4l-9.1,18.9c-1.2,2.3-2.1,4-2.7,5.1c-0.8,1.3-1.9,2.4-3.2,3.2
	c-1.4,1.1-3.2,1.7-5,1.7c-2.7,0-6-1-10-3c-6.7-3.2-10.1-6.9-10.1-11.1c0-2,1-5,3-8.9L373.6,46c2.7-5.4,8.1-8.8,14.2-8.9
	C394,37.1,398.6,40.1,401.7,46.2z M387.5,88.1l-11.5,24h23.2L387.5,88.1z"/>
<path class="st1" d="M537.7,83.9c0,4.9-1.1,9.8-3.3,14.1c-2.2,4.4-5.4,6.6-9.6,6.6c-2.1,0-4.1-0.5-6-1.4c-1.8-0.9-3.8-1.4-5.9-1.4
	c-3.8-0.2-7.5,1-10.6,3.3c-2.6,1.9-4.1,4.8-4.1,8v36.7c0,2-0.1,4-0.3,6c-0.3,1.6-0.8,3.1-1.7,4.5c-1,1.8-2.7,3.1-4.7,3.6
	c-2.9,0.8-5.9,1.1-8.9,1c-2.5,0-5-0.2-7.4-0.9c-1.6-0.4-3.2-1.1-4.5-2.1c-1.1-1-1.9-2.2-2.3-3.6c-0.5-1.3-0.8-2.6-0.9-4
	c-0.1-1.1-0.1-2.8-0.1-5V88.3c0-2,0.1-4,0.3-6c0.3-1.6,0.8-3.1,1.6-4.5c1-1.8,2.7-3.1,4.6-3.6c2.9-0.8,5.9-1.1,8.9-1
	c2.9-0.1,5.8,0.3,8.6,1c1.8,0.4,3.4,1.4,4.5,2.9c0.7,0.9,1.2,2,1.6,3.1c0.2,0.9,0.4,1.9,0.3,2.8c0.8-1.1,1.6-2.1,2.5-3
	c1.1-1.2,3.5-2.7,7.1-4.7c3.4-1.9,7.1-3,11-3c1.8,0,3.6,0.2,5.4,0.4c2.1,0.3,4.1,0.8,6.1,1.5c2.1,0.6,4.1,1.9,5.5,3.6
	C536.9,79.4,537.7,81.6,537.7,83.9z"/>
<path class="st1" d="M604.9,119.1l23.2,19.2c1.5,1.3,2.7,2.3,3.4,3c0.9,0.8,1.6,1.8,2.2,2.8c0.6,1,1,2.3,1,3.5
	c0,2.8-1.8,6.6-5.4,11.4c-4,4.9-7.7,7.3-11.2,7.3c-2.4,0-5.5-1.5-9.3-4.5l-0.7-0.5l-1.8-1.2c-2.7-2.2-6.8-6.1-12.4-11.6
	c-5.6-5.5-9.9-9.5-12.8-11.8V150c0,2-0.1,4-0.3,6c-0.3,1.6-0.8,3.1-1.6,4.5c-1,1.8-2.7,3.1-4.6,3.6c-2.9,0.8-5.9,1.1-8.9,1
	c-2.9,0.1-5.9-0.2-8.7-1c-2-0.5-3.7-1.9-4.6-3.7c-0.8-1.4-1.3-3-1.6-4.6c-0.2-2-0.3-4-0.3-6V45.1c0-2,0.1-4,0.3-6
	c0.3-1.6,0.8-3.2,1.6-4.6c1-1.8,2.6-3.2,4.6-3.7c2.9-0.8,5.9-1.1,8.9-1c2.5,0,5,0.2,7.4,0.9c1.6,0.4,3.2,1.1,4.5,2.1
	c1.1,1,1.9,2.2,2.3,3.6c0.5,1.3,0.8,2.6,0.9,4c0.1,1.1,0.1,2.8,0.1,5v55.4c2.1-1.7,5.3-4.7,9.5-8.9c4.3-4.2,7.4-7.2,9.5-8.9l2.1-1.4
	c4.1-3.1,7.3-4.7,9.6-4.7c3.5,0,7.1,2.3,10.8,6.8c3.8,4.9,5.8,8.7,5.8,11.4c0,2.7-2.2,5.8-6.5,9.4L604.9,119.1z"/>
<path class="st1" d="M664.7,60.7c-2.9,0.1-5.9-0.3-8.7-1.1c-2-0.5-3.7-1.9-4.6-3.7c-0.8-1.4-1.3-3-1.6-4.6c-0.3-4-0.3-8,0-12.1
	c0.3-1.6,0.8-3.1,1.6-4.5c1-1.8,2.7-3.1,4.6-3.6c2.9-0.8,5.9-1.1,8.9-1c2.9-0.1,5.9,0.3,8.7,1c2,0.5,3.7,1.9,4.6,3.7
	c0.8,1.4,1.3,3,1.6,4.6c0.3,4,0.3,8,0,12c-0.3,1.6-0.8,3.1-1.6,4.5c-1,1.8-2.7,3.1-4.6,3.6C670.7,60.4,667.7,60.8,664.7,60.7z
	 M649.5,88.5c0-2,0.1-4,0.3-6c0.3-1.6,0.8-3.1,1.6-4.5c1-1.8,2.7-3.1,4.6-3.6c2.9-0.8,5.9-1.1,8.9-1c2.5,0,5,0.2,7.4,0.9
	c1.6,0.4,3.2,1.1,4.5,2.1c1.1,1,1.9,2.2,2.3,3.6c0.5,1.3,0.8,2.6,0.9,4c0.1,1.1,0.1,2.8,0.1,5v61.2c0,2-0.1,4-0.3,6
	c-0.3,1.6-0.8,3.1-1.6,4.5c-1,1.8-2.7,3.1-4.6,3.6c-2.9,0.8-5.9,1.1-8.9,1c-2.9,0.1-5.9-0.2-8.7-1c-2-0.5-3.7-1.9-4.6-3.7
	c-0.8-1.4-1.3-3-1.6-4.5c-0.2-2-0.3-4.1-0.3-6.1L649.5,88.5z"/>
<path class="st1" d="M826.7,60.7c-2.9,0.1-5.9-0.3-8.7-1.1c-2-0.5-3.7-1.9-4.6-3.7c-0.8-1.4-1.3-3-1.6-4.6c-0.3-4-0.3-8,0-12.1
	c0.3-1.6,0.8-3.1,1.6-4.5c1-1.8,2.7-3.1,4.6-3.6c2.9-0.8,5.9-1.1,8.9-1c2.9-0.1,5.9,0.3,8.7,1c2,0.5,3.7,1.9,4.6,3.7
	c0.8,1.4,1.3,3,1.6,4.6c0.3,4,0.3,8,0,12c-0.3,1.6-0.8,3.1-1.6,4.5c-1,1.8-2.7,3.1-4.6,3.6C832.7,60.4,829.7,60.8,826.7,60.7z
	 M811.5,88.5c0-2,0.1-4,0.3-6c0.3-1.6,0.8-3.1,1.6-4.5c1-1.8,2.7-3.1,4.6-3.6c2.9-0.8,5.9-1.1,8.9-1c2.5,0,5,0.2,7.4,0.9
	c1.6,0.4,3.2,1.1,4.5,2.1c1.1,1,1.9,2.2,2.3,3.6c0.5,1.3,0.8,2.6,0.9,4c0.1,1.1,0.1,2.8,0.1,5v61.2c0,2-0.1,4-0.3,6
	c-0.3,1.6-0.8,3.1-1.6,4.5c-1,1.8-2.7,3.1-4.6,3.6c-2.9,0.8-5.9,1.1-8.9,1c-2.9,0.1-5.9-0.2-8.7-1c-2-0.5-3.7-1.9-4.6-3.7
	c-0.8-1.4-1.3-3-1.6-4.5c-0.2-2-0.3-4.1-0.3-6.1L811.5,88.5z"/>
<path class="st1" d="M775.3,30.1c2.9-0.1,5.9,0.3,8.7,1c2,0.5,3.7,1.8,4.6,3.7c0.8,1.4,1.3,3,1.6,4.6c0.2,2,0.3,4,0.3,6v104.4
	c0,2-0.1,4-0.3,6c-0.3,1.6-0.8,3.1-1.7,4.5c-1,1.8-2.7,3.1-4.7,3.6c-2.9,0.8-5.9,1.1-8.9,1c-8.8,0-13.7-2.9-14.7-8.6
	c-4.9,5.6-11.7,8.4-20.4,8.4c-10.5,0-20-4.6-28.7-13.7c-8.4-8.7-13.1-20.3-12.9-32.4c0-11.9,4.3-22.4,13-31.6s18.2-13.8,28.6-13.8
	c8.6,0,15.3,2.9,20.1,8.7V45.3c0-2,0.1-4,0.3-6c0.3-1.6,0.8-3.1,1.6-4.5c1-1.8,2.7-3.1,4.6-3.6C769.3,30.4,772.3,30,775.3,30.1z
	 M733.4,129.7c2.8,3.1,6.8,4.8,11,4.7c4.1,0.1,8-1.6,10.8-4.7c2.7-2.8,4.3-6.6,4.3-10.5c-0.1-3.9-1.5-7.6-4.1-10.5
	c-2.7-3.3-6.8-5.1-11.1-4.9c-4.3-0.2-8.4,1.6-11.2,4.8c-2.7,2.9-4.2,6.6-4.2,10.6C728.9,123.2,730.5,127,733.4,129.7L733.4,129.7z"
	/>
<path class="st1" d="M938.3,73.1c2.9-0.1,5.9,0.3,8.7,1c2,0.5,3.7,1.8,4.6,3.7c0.8,1.4,1.3,3,1.6,4.6c0.2,2,0.3,4,0.3,6v61.2
	c0,2-0.1,4-0.3,6c-0.3,1.6-0.8,3.1-1.6,4.5c-1,1.8-2.7,3.1-4.6,3.6c-2.9,0.8-5.9,1.1-8.9,1c-5.2,0-8.9-0.8-11.1-2.4
	c-2.2-1.6-3.6-4.2-3.8-6.9c-4.3,6.2-11.3,9.3-21,9.3c-10.5,0-20-4.6-28.7-13.8c-8.4-8.7-13.1-20.3-12.9-32.3c0-12,4.3-22.6,13-31.7
	c8.7-9.1,18.2-13.7,28.6-13.7c3.7-0.1,7.4,0.7,10.8,2.1c2.5,0.9,4.8,2.3,6.8,3.9c1.2,1.1,2.2,2.3,3.2,3.6c0.1-2.9,1.5-5.5,3.8-7.3
	C929,73.9,932.8,73.1,938.3,73.1z M907,134.3c4,0.1,7.9-1.7,10.6-4.7c2.7-2.8,4.3-6.6,4.3-10.5c-0.1-3.9-1.5-7.6-4.1-10.5
	c-2.7-3.3-6.8-5.1-11.1-4.9c-4.2-0.1-8.3,1.7-11.1,4.9c-2.7,2.9-4.2,6.7-4.3,10.7c0,3.9,1.7,7.7,4.6,10.4
	C898.8,132.7,902.8,134.3,907,134.3L907,134.3z"/>
<path class="st2" d="M226.5,124.7L158.4,21.2C142.8-1,112.2-6.5,90,9c-4.9,3.4-9.1,7.6-12.4,12.5L11.1,122.7
	c1.7-2.2,3.5-4.3,5.6-6.2c0.2-0.2,0.4-0.4,0.6-0.6c0.4-0.3,0.8-0.7,1.2-1l0.6-0.5c48.8-40.6,94.2,11.7,98.8,17.3l0.3-0.4l29.7,45.2
	c14.3,21.7,43.4,27.8,65.2,13.6c21.7-14.3,27.8-43.4,13.6-65.2C226.6,124.7,226.5,124.7,226.5,124.7L226.5,124.7z"/>
</svg>
