<?xml version="1.0" encoding="utf-8"?>
<!-- Generator: Adobe Illustrator 22.0.0, SVG Export Plug-In . SVG Version: 6.00 Build 0)  -->
<svg version="1.1" id="Layer_1" xmlns="http://www.w3.org/2000/svg" xmlns:xlink="http://www.w3.org/1999/xlink" x="0px" y="0px"
	 viewBox="0 0 600 600" style="enable-background:new 0 0 600 600;" xml:space="preserve">
<style type="text/css">
	.st0{fill:#BA428D;}
	.st1{fill:#A73983;}
	.st2{fill:#DC519B;}
	.st3{fill:#CA4791;}
	.st4{fill:#FFFFFF;}
	.st5{fill:#E7E7E7;}
	.st6{fill:#B0D133;}
	.st7{fill:#5B6D13;}
	.st8{fill:#501627;}
	.st9{fill:#F56A82;}
	.st10{fill:#C3D8E5;}
	.st11{fill:#FFE000;}
</style>
<path class="st0" d="M104.1,390.9l-13.2-14.4c0,0-34.9,37.9-18.3,102.3c14.6,56.9,50.7,25.4,38.9-8.6
	C99.8,436.3,104.1,390.9,104.1,390.9z"/>
<path class="st1" d="M111.5,470.2c-11.7-33.9-7.4-79.3-7.4-79.3l-19.9-5.1c-6.6,21.8,14.9,65.2,17.7,77.4
	c2.8,12.2,6.3,24.8,1.4,35.1c-4.9,10.3-20.7,3.6-20.7,3.6C99.1,523.7,121.1,497.7,111.5,470.2z"/>
<path class="st1" d="M341.8,417.8L329,403c0,0,41.6-30.4,103.7-6.7c54.8,20.9,19.5,53.2-12.9,37.7
	C387.4,418.6,341.8,417.8,341.8,417.8z"/>
<path class="st0" d="M419.8,434.1c8.2,3.6,16.4,4.8,23.4,3.6c9.5-1.7,12.5-12.9,1.8-15.9c-4-1.1-13.4-3.7-19.6-2.4
	C415,421.6,409.1,429.4,419.8,434.1z"/>
<path class="st0" d="M182.1,498.4c0,0-6.5,82-18.4,87.6c-11.9,5.6-7.7,9.1,21,9.1c28.7,0,34.2-2.8,35.6-26.6
	c1.4-23.8-7.2-61.9-7.2-61.9L182.1,498.4z"/>
<path class="st0" d="M298.7,585.9c-11.9-5.6-18.4-87.6-18.4-87.6l-31,8.2c0,0-8.6,38.1-7.2,61.9c1.4,23.8,7,26.6,35.6,26.6
	C306.4,595,310.6,591.5,298.7,585.9z"/>
<path class="st1" d="M214.4,562.5c-4.5,24.1-22.7,34.6-50,31.5c4.4,0.7,11.1,1,20.3,1c28.7,0,34.2-2.8,35.6-26.6
	c1.4-23.8-7.2-61.9-7.2-61.9l-31-8.2c0,0,5.1,5,15.9,9.7C208.9,512.9,219,538.4,214.4,562.5z"/>
<path class="st1" d="M281.2,546.7c2.1,23.5,18.2,49.3-14,48.1l0,0c3.1,0.2,6.6,0.2,10.5,0.2c28.7,0,32.9-3.5,21-9.1
	c-11.9-5.6-18.4-87.6-18.4-87.6l-31,8.2c0,0,8.5,2.8,15.7,2.8C272.1,509.4,279.1,523.2,281.2,546.7z"/>
<path class="st2" d="M373.8,325.6c5.2,6.7,13,10.8,13,10.8c-2.8-32.9-45.7-70.2-45.7-70.2c14.4,4.9,14.6,0.3,14.6,0.3
	c-41.9-42.4-90.7-39.8-90.7-39.8c5-0.4,8.4-6.7,8.4-6.7c-20.8-6.9-38.1,3.6-38.1,3.6s-20.5-5.4-28-15.7c0,0-6.5,13,5.6,19.6
	c0,0-25.2-10.3-57.8,4.7c0,0,9.3,6.5,19.6,6.5c0,0-45.7,0.9-80.1,52.2c0,0,7,2,14.1-2.6c-8.3,8.6-22.8,26.9-26.7,52.9
	c0,0,5.5-1,9.6-7.3c-5,12.4-13.6,42.8-1.7,83.5c0,0,3.6-0.3,4.5-18c0,0,10,66.9,47.7,95.5c0,0,4.6-8.4-0.8-21
	c0,0,24.6,23.1,27.4,38.4c0,0,5.4-9.4,1.7-19.4c0,0,20.7,15,64.1,15c43.3,0,68.2-17.1,68.2-17.1c-2.4,8.5,5.2,17.1,5.2,17.1
	c0.7-14.2,19.7-34,19.7-34c-7.3,6.6-0.8,20.3-0.8,20.3c13.6-11.6,23.1-34.2,27.3-46c-0.9,8.2,4.2,13.8,4.2,13.8
	c18.2-19.6,17.3-67.2,17.3-67.2c1.2,11.8,11.3,21.8,11.3,21.8C395.1,372.7,373.8,325.6,373.8,325.6z"/>
<path class="st3" d="M141.3,474.1c0,0,24.6,23.1,27.4,38.4c0,0,5.4-9.4,1.7-19.4c0,0,20.7,15,64.1,15c43.3,0,68.2-17.1,68.2-17.1
	c-2.4,8.5,5.2,17.1,5.2,17.1c0.7-14.2,19.7-34,19.7-34c-7.3,6.6-0.8,20.3-0.8,20.3c13.6-11.6,23.1-34.2,27.3-46
	c-0.9,8.2,4.2,13.8,4.2,13.8c18.2-19.6,17.3-67.2,17.3-67.2c1.2,11.8,11.3,21.8,11.3,21.8c8.4-44-13-91.1-13-91.1
	c5.2,6.7,13,10.8,13,10.8c-2.8-32.9-45.7-70.2-45.7-70.2c14.4,4.9,14.6,0.3,14.6,0.3c-41.9-42.4-90.7-39.8-90.7-39.8s5-0.6,11.2,6.3
	c6.1,6.9,13.6,16.6,28.8,21.6c15.2,5,52.8,24.3,63.8,55.6c0,0-9-2.7-13.1-8.2c0,0,33.3,67,8.7,129.4c0,0-6-6.4-4.9-15
	c0,0-25.8,74.3-114.6,81.9C173.3,504.4,141.3,474.1,141.3,474.1z"/>
<g>
	<g>
		
			<ellipse transform="matrix(0.1231 -0.9924 0.9924 0.1231 -149.5769 463.5536)" class="st4" cx="187.5" cy="316.4" rx="33.6" ry="33.6"/>
		<path class="st5" d="M221,314.5c-0.1-1.9-0.4-3.7-0.8-5.5c0.1,0.5,0.1,1,0.1,1.6c1.1,18.5-13.1,34.4-31.6,35.4
			c-16.6,1-31.2-10.4-34.7-26.2c1.8,17.7,17.3,31.1,35.3,30.1C207.9,348.9,222.1,333,221,314.5z"/>
		<path class="st6" d="M199.5,312.5c0.4,7.2-5.1,13.5-12.4,13.9c-7.2,0.4-13.5-5.1-13.9-12.4c-0.4-7.2,5.1-13.5,12.4-13.9
			C192.8,299.8,199,305.3,199.5,312.5z"/>
		<path class="st7" d="M193.6,312.9c0.2,4-2.8,7.4-6.8,7.7c-4,0.2-7.4-2.8-7.7-6.8c-0.2-4,2.8-7.4,6.8-7.7
			C189.9,305.8,193.3,308.9,193.6,312.9z"/>
		<path class="st4" d="M195.3,307.4c0.1,2.3-1.6,4.2-3.9,4.4c-2.3,0.1-4.2-1.6-4.4-3.9c-0.1-2.3,1.6-4.2,3.9-4.4
			C193.2,303.4,195.2,305.1,195.3,307.4z"/>
	</g>
	<g>
		<path class="st4" d="M314.2,314.5c1.1,18.5-13.1,34.4-31.6,35.4c-18.5,1.1-34.4-13.1-35.4-31.6c-1.1-18.5,13.1-34.4,31.6-35.4
			C297.3,281.8,313.1,296,314.2,314.5z"/>
		<path class="st5" d="M314.2,314.5c-0.1-1.9-0.4-3.7-0.8-5.5c0.1,0.5,0.1,1,0.1,1.6c1.1,18.5-13.1,34.4-31.6,35.4
			c-16.6,1-31.2-10.4-34.7-26.2c1.8,17.7,17.3,31.1,35.3,30.1C301.1,348.9,315.3,333,314.2,314.5z"/>
		<path class="st6" d="M292.6,312.5c0.4,7.2-5.1,13.5-12.4,13.9c-7.2,0.4-13.5-5.1-13.9-12.4c-0.4-7.2,5.1-13.5,12.4-13.9
			C286,299.8,292.2,305.3,292.6,312.5z"/>
		<path class="st7" d="M286.7,312.9c0.2,4-2.8,7.4-6.8,7.7c-4,0.2-7.4-2.8-7.7-6.8c-0.2-4,2.8-7.4,6.8-7.7
			C283.1,305.8,286.5,308.9,286.7,312.9z"/>
		<path class="st4" d="M288.5,307.4c0.1,2.3-1.6,4.2-3.9,4.4c-2.3,0.1-4.2-1.6-4.4-3.9c-0.1-2.3,1.6-4.2,3.9-4.4
			C286.4,303.4,288.4,305.1,288.5,307.4z"/>
	</g>
</g>
<g>
	<path class="st8" d="M218.7,393.5c0,0,17,13.4,33.4,2.9c16.4-10.4,24.5,27-8.9,30.8C209.8,430.9,200.7,406.1,218.7,393.5z"/>
	<path class="st9" d="M224.2,425.8c0,0,8.7-29.2,37.1-6.7C261.3,419,249.5,434.1,224.2,425.8z"/>
</g>
<g>
	<path class="st10" d="M403.5,398.6c-12.6-2-10-7.9-10.4-12.5c-0.5-4.6,5.6-11.5,34.1-10.2c28.5,1.3,36,9,36.1,15.6
		s-7.2,9.6-15.8,9.5c0,0-4.1,63.1-3.2,66.2c0.9,3.1,65.8,83.2,61.8,101.9c-4,18.7-41.4,14.7-77.3,14.1s-99.3-2.6-101.4-21.3
		c-2.2-18.7,76.2-94.5,78.5-99.4C408.2,457.8,403.5,398.6,403.5,398.6z"/>
	<g>
		<path class="st11" d="M345.9,557.1c-1.4,5.3,21.4,10.7,68,11.6c46.6,0.9,66.7,0.8,70.7-4.7c4-5.6-7.5-23-19.7-40.3
			c-12.1-17.2-16-29.5-24.2-30.6c-8.2-1.1-8,10.3-13.6,9.3c-5.6-0.9-8.8-5.3-14.3-3.2c-5.5,2.1-7.5,7.1-13.9,6.1
			c-6.4-1-10.3-5.8-17.6,1C374,513.2,348.5,547.2,345.9,557.1z"/>
		<circle class="st11" cx="417.7" cy="456.3" r="8.4"/>
		<circle class="st11" cx="417.8" cy="429.5" r="5.3"/>
		<circle class="st11" cx="429.7" cy="396.1" r="3.8"/>
		<circle class="st11" cx="426.5" cy="365" r="2.3"/>
	</g>
</g>
<path class="st1" d="M453,432.9c0.3-0.2,0.9-0.1,1.2-0.2c3-0.3,4.8-3.7,3.4-6.7l0,0c-5.7-12.8-20.6-18-31.6-11
	C413,423.6,419.8,451.2,453,432.9z"/>
<circle class="st11" cx="397.5" cy="189.5" r="11.5"/>
<circle class="st11" cx="318" cy="132" r="23"/>
<circle class="st11" cx="433" cy="307" r="7"/>
<circle class="st11" cx="429" cy="257" r="9"/>
<circle class="st11" cx="450" cy="138.6" r="13.7"/>
</svg>
