<?xml version="1.0" encoding="utf-8"?>
<!-- Generator: Adobe Illustrator 22.0.0, SVG Export Plug-In . SVG Version: 6.00 Build 0)  -->
<svg version="1.1" id="Layer_1" xmlns="http://www.w3.org/2000/svg" xmlns:xlink="http://www.w3.org/1999/xlink" x="0px" y="0px"
	 viewBox="0 0 600 600" style="enable-background:new 0 0 600 600;" xml:space="preserve">
<style type="text/css">
	.st0{fill:#498B89;}
	.st1{fill:#54A2A2;}
	.st2{fill:#BA7044;}
	.st3{fill:#00464D;}
	.st4{fill:#CB8456;}
	.st5{opacity:0.5;}
	.st6{opacity:0.3;fill:#BA7044;enable-background:new    ;}
	.st7{fill:#65C8D0;}
	.st8{fill:#60B7B9;}
	.st9{fill:#501627;}
	.st10{fill:#F56A82;}
	.st11{fill:#FFFFFF;}
	.st12{fill:#E7E7E7;}
	.st13{fill:#DC519B;}
	.st14{fill:#4F1837;}
	.st15{fill:#D0D2D3;}
	.st16{fill:#C1C1C1;}
</style>
<path class="st0" d="M415.4,368.3l7.4-17.9c0,0,45.4,23.4,51.9,88.9c5.8,57.8-38.5,40.9-39.1,5.4C435,409,415.4,368.3,415.4,368.3z"
	/>
<path class="st1" d="M435.6,444.6c0.4,8.9,3,16.7,7.2,22.3c5.7,7.7,17,5.4,14.9-5.5c-0.8-4.1-2.6-13.5-6.6-18.4
	C444.5,434.8,435,433.1,435.6,444.6z"/>
<g>
	<g>
		<g>
			<path class="st2" d="M423.9,574.4l60.6-359.2l-20.2-4.1l-82.5,355.1c-2.6,11.7,4.9,23.4,16.8,25.8
				C410.4,594.2,421.8,586.3,423.9,574.4z M402.9,571.3c-6.9-1.4-11.4-8.1-10-15c1.4-6.9,8.1-11.4,15-10c6.9,1.4,11.4,8.1,10,15
				C416.5,568.1,409.8,572.6,402.9,571.3z"/>
		</g>
	</g>
	<g>
		<path class="st3" d="M423.7,575l13.1-78.6l-37.2-6.9l-18.1,77.1c-2.5,11.1,5.2,22.2,17,24.6l0,0
			C410.5,593.7,421.8,586.3,423.7,575z M402.9,571.3c-6.9-1.4-11.4-8.1-10-15c1.4-6.9,8.1-11.4,15-10c6.9,1.4,11.4,8.1,10,15
			C416.5,568.2,409.8,572.6,402.9,571.3z"/>
	</g>
	
		<ellipse transform="matrix(0.1949 -0.9808 0.9808 0.1949 234.5662 602.9177)" class="st4" cx="484.5" cy="158.6" rx="99.6" ry="71.4"/>
	<g class="st5">
		<path class="st2" d="M472.5,250.4c-20.7-1.4-31.8-13.6-37.6-23.8c-6.4-11.3-7.5-22.4-7.6-22.8c-0.2-2.7,1.8-5,4.4-5.4
			c2.7-0.2,5,1.8,5.4,4.4l0,0c0.1,1.5,4.2,37.2,38.5,37.9c2.7,0,4.8,2.3,4.8,4.9c0,2.7-2.3,4.8-4.9,4.8
			C474.4,250.5,473.4,250.4,472.5,250.4z"/>
	</g>
	
		<ellipse transform="matrix(0.1949 -0.9808 0.9808 0.1949 234.5662 602.9178)" class="st6" cx="484.5" cy="158.6" rx="72.4" ry="45.6"/>
</g>
<path class="st1" d="M151.6,393.8l-13.1-14.3c0,0-34.6,37.6-18.1,101.4c14.5,56.3,50.1,25.1,38.5-8.4
	C147.4,438.8,151.6,393.8,151.6,393.8z"/>
<path class="st0" d="M159,472.3c-11.6-33.6-7.4-78.6-7.4-78.6l-19.8-5c-6.5,21.6,14.8,64.6,17.6,76.7c2.7,12.1,6.3,24.6,1.4,34.8
	s-20.5,3.6-20.5,3.6C146.7,525.3,168.4,499.7,159,472.3z"/>
<path class="st1" d="M229,500.2c0,0-6.4,81.2-18.2,86.8c-11.7,5.5-7.6,9,20.7,9c28.4,0,33.9-2.7,35.3-26.3
	c1.4-23.6-7.1-61.3-7.1-61.3L229,500.2z"/>
<path class="st1" d="M344.4,587c-11.7-5.5-18.2-86.8-18.2-86.8l-30.7,8.1c0,0-8.6,37.7-7.1,61.3c1.4,23.6,6.9,26.3,35.3,26.3
	C352,596,356.2,592.5,344.4,587z"/>
<path class="st0" d="M260.9,563.7c-4.5,23.9-22.5,34.3-49.5,31.2c4.4,0.7,11,1,20.1,1c28.4,0,33.9-2.7,35.3-26.3
	c1.4-23.6-7.1-61.3-7.1-61.3l-30.7-8.1c0,0,5,4.9,15.8,9.7C255.4,514.6,265.4,539.9,260.9,563.7z"/>
<path class="st0" d="M327.1,548.2c2.1,23.3,18,48.8-13.8,47.6l0,0c3.1,0.1,6.5,0.2,10.4,0.2c28.4,0,32.6-3.5,20.7-9
	c-11.7-5.5-18.2-86.8-18.2-86.8l-30.7,8.1c0,0,8.4,2.9,15.6,2.9C318.1,511.2,325,524.8,327.1,548.2z"/>
<path class="st7" d="M418.8,329.1c5.2,6.7,12.8,10.6,12.8,10.6c-2.7-32.6-45.3-69.6-45.3-69.6c14.3,4.9,14.5,0.3,14.5,0.3
	c-41.6-42-89.9-39.4-89.9-39.4c4.9-0.4,8.3-6.6,8.3-6.6c-20.5-6.8-37.7,3.5-37.7,3.5s-20.4-5.4-27.8-15.6c0,0-6.5,12.9,5.5,19.4
	c0,0-24.9-10.2-57.3,4.6c0,0,9.2,6.5,19.4,6.5c0,0-45.2,0.9-79.4,51.7c0,0,6.9,2,14-2.5c-8.2,8.6-22.6,26.7-26.4,52.4
	c0,0,5.5-1,9.5-7.2c-4.9,12.3-13.5,42.5-1.6,82.7c0,0,3.6-0.2,4.5-17.8c0,0,9.9,66.3,47.3,94.7c0,0,4.6-8.3-0.9-20.7
	c0,0,24.4,22.8,27.1,38.1c0,0,5.4-9.3,1.6-19.2c0,0,20.5,14.8,63.4,14.8c42.9,0,67.6-16.9,67.6-16.9c-2.4,8.4,5.2,16.9,5.2,16.9
	c0.7-14,19.5-33.7,19.5-33.7c-7.1,6.5-0.9,20.1-0.9,20.1c13.5-11.4,22.8-33.9,27.1-45.5c-0.9,8.1,4.2,13.7,4.2,13.7
	c18-19.4,17.1-66.6,17.1-66.6c1.2,11.7,11.2,21.5,11.2,21.5C440,375.8,418.8,329.1,418.8,329.1z"/>
<path class="st8" d="M188.5,476.2c0,0,24.4,22.8,27.1,38.1c0,0,5.4-9.3,1.6-19.2c0,0,20.5,14.8,63.4,14.8s67.6-16.9,67.6-16.9
	c-2.4,8.4,5.2,16.9,5.2,16.9c0.7-14,19.5-33.7,19.5-33.7c-7.1,6.5-0.9,20.1-0.9,20.1c13.5-11.4,22.8-33.9,27.1-45.5
	c-0.9,8.1,4.2,13.7,4.2,13.7c18-19.4,17.1-66.6,17.1-66.6c1.2,11.7,11.2,21.5,11.2,21.5c8.3-43.7-12.8-90.3-12.8-90.3
	c5.2,6.7,12.8,10.6,12.8,10.6c-2.7-32.6-45.3-69.6-45.3-69.6c14.3,4.9,14.5,0.3,14.5,0.3C359.2,228.4,311,231,311,231
	s5-0.5,11.1,6.3c6,6.8,13.4,16.3,28.5,21.4c15,4.9,52.3,24,63.2,55.1c0,0-8.9-2.7-12.9-8.1c0,0,32.9,66.4,8.6,128.3
	c0,0-5.9-6.3-4.8-14.9c0,0-25.6,73.6-113.6,81.1C220.2,506.2,188.5,476.2,188.5,476.2z"/>
<g>
	<path class="st9" d="M282.7,416.8c26.6,0.3,44.5-3.1,51-10.3c6.5-7.2,30.3,3.1,16.1,26.7c-14.2,23.7-47.3,25.9-67.2,25.6
		c-19.9-0.3-68.4-20.7-58.5-44.4C234.2,390.2,259,416.5,282.7,416.8z"/>
	<path class="st10" d="M253.1,450.9c0,0,27.8-28.4,80.5-2.3C333.7,448.7,296.3,471.1,253.1,450.9z"/>
	<path class="st11" d="M253.1,408.3c0,0-0.9,15.5,2.3,16.8c3.2,1.3,4.5-5.5,4.5-5.5s21.9,7.7,54.4,2.9c0,0,0.3,5.2,2.9,5.5
		c2.5,0.3,5.9-15.3,5.9-15.3s-11.2,4.3-34,4.3C272.8,416.8,253.1,408.3,253.1,408.3z"/>
</g>
<g>
	<path class="st11" d="M346.1,322.8c2,35-24.8,65.1-59.8,67c-35,2-65.1-24.8-67-59.8c-2-35,24.8-65.1,59.8-67S344,287.8,346.1,322.8
		z"/>
	<path class="st12" d="M346.1,322.8c-0.2-3.5-0.7-7-1.4-10.3c0.1,1,0.2,2,0.2,3c2,35-24.8,65.1-59.8,67
		c-31.5,1.8-58.9-19.6-65.6-49.5c3.5,33.6,32.8,58.8,66.8,56.8C321.3,387.8,348.1,357.8,346.1,322.8z"/>
	<path class="st13" d="M305.3,325c0.8,13.7-9.7,25.5-23.4,26.2c-13.7,0.8-25.5-9.7-26.2-23.4c-0.8-13.7,9.7-25.5,23.4-26.2
		C292.8,300.8,304.5,311.3,305.3,325z"/>
	<path class="st14" d="M294.2,325.6c0.4,7.6-5.4,14-12.9,14.5c-7.6,0.4-14-5.4-14.5-12.9c-0.4-7.6,5.4-14,12.9-14.5
		C287.3,312.4,293.7,318.1,294.2,325.6z"/>
	<path class="st11" d="M297.5,315.3c0.2,4.3-3.1,8-7.4,8.2c-4.3,0.2-8-3.1-8.2-7.4c-0.2-4.3,3.1-8,7.4-8.2
		C293.5,307.6,297.1,310.9,297.5,315.3z"/>
</g>
<g>
	<g>
		<path class="st11" d="M225.8,186.5c0,0-85.9-9-50.3-73.8c0,0,15.2-25.9,39.8-13.4c0,0-6.1-63.7,61.5-54.3
			c54,7.6,39.8,56.5,39.8,56.5s37.5-40.1,73.8-1.9c38.5,40.6-50.7,73.1-58.6,74.9c0,0-14.2-7.2-41.8,0.5
			C234,190.8,225.8,186.5,225.8,186.5z"/>
	</g>
	<g>
		<path class="st15" d="M239.9,185.3c0-0.4,0-1-0.1-1.5c-0.1-0.5-0.2-1.1-0.4-1.7c-0.2-1.1-0.5-2.2-0.9-3.4c-0.7-2.2-1.7-4.5-3-6.4
			c-1.3-2.1-2.9-4-4.6-5.6c-1.7-1.7-3.9-3.1-6.1-4.5c2.4,0.9,4.7,1.9,7,3.2s4.2,3,6.1,5s3.5,4.1,4.7,6.4c0.6,1.2,1.3,2.4,1.9,3.7
			c0.2,0.6,0.5,1.3,0.7,2c0.2,0.6,0.4,1.3,0.6,2.1L239.9,185.3z"/>
	</g>
	<g>
		<path class="st15" d="M300,172.1c-0.2-0.9-0.4-1.5-0.5-2.1c-0.1-0.6-0.2-1.4-0.4-2.1c-0.1-1.4-0.2-2.7-0.2-4.1
			c0-2.7,0.4-5.4,1.1-7.9c0.6-2.6,1.6-5,2.9-7.2c1.2-2.2,2.9-4.4,4.5-6.2c-1.3,2.1-2.5,4.5-3.1,6.8c-0.7,2.2-1.2,4.7-1.4,7.1
			c-0.1,2.4,0,4.7,0.4,7.1c0.2,1.2,0.5,2.2,0.9,3.4c0.2,0.5,0.4,1.1,0.5,1.6c0.2,0.5,0.4,1.1,0.6,1.4L300,172.1z"/>
	</g>
	<g>
		<path class="st15" d="M317,171.8c0-0.2,0-0.4,0.1-0.5V171l0.1-0.4l0.2-0.7l0.4-1.4c0.4-1,0.5-1.9,0.9-2.7c0.6-1.9,1.3-3.6,2.1-5.3
			c1.5-3.5,3.1-7,5.2-10.1c2-3.2,4.2-6.2,7-8.8c2.7-2.6,5.7-4.9,9.2-6.2c-3.1,1.9-5.8,4.4-8,7.2c-2.1,2.9-4,6.1-5.4,9.3
			s-2.6,6.7-3.6,10.2c-0.4,1.7-0.9,3.5-1.2,5.2c-0.2,0.9-0.4,1.7-0.4,2.6l-0.2,1.3l-0.1,0.6v0.4v0.1c0,0,0-0.1,0-0.2H317L317,171.8
			L317,171.8z"/>
	</g>
	<g>
		<path class="st15" d="M265,181.1c0.1-3,0.1-6.2,0-9.4c-0.1-3.1-0.2-6.4-0.4-9.5c-0.4-6.4-0.6-12.8-1.1-19.2
			c1.4,6.2,2.9,12.6,4.1,18.8c0.6,3.1,1.3,6.2,1.9,9.4s1.2,6.2,1.5,9.7L265,181.1z"/>
	</g>
	<path class="st15" d="M176.7,123.5c-0.1-2.1-30,39.8,35.9,57.2c0,0-8.7-13.4,0.7-17.4C213.3,163.4,178.9,166.9,176.7,123.5z"/>
	<path class="st15" d="M287.2,55.6c0,0-65.1-24.6-64.7,42.5c0,0,2.9-2.4,11.6-0.4C234,97.5,223.5,43.9,287.2,55.6z"/>
	<path class="st15" d="M384.6,102.8c0,0-27-33.3-63.2,3.4c0,0,2.4,6.7,3.9,10.6C325.3,116.7,344.6,74.8,384.6,102.8z"/>
	<g>
		<path class="st11" d="M225.8,186.5l-4.4,55.7c0,0,18.8-4.5,47,5.1c25.8,8.7,65.8-8,65.8-8s2.5-18,0.4-34.7
			c-2.1-16.7-3.6-30.7-3.6-30.7s-22.8-5.1-52.9,4C248.4,186.8,234.2,187.5,225.8,186.5z"/>
		<path class="st16" d="M225.8,186.5l-1.3,28.4c-0.4,9.3-0.9,18.5-1.4,27.6l-2-1.6c2.6-0.5,5-0.9,7.3-1.1c2.5-0.2,4.9-0.4,7.3-0.2
			c4.9,0.1,9.8,0.5,14.6,1.2c4.9,0.7,9.6,1.9,14.4,3.1c2.4,0.7,4.7,1.4,6.8,2.1c2.1,0.5,4.5,1,6.7,1.2c9.2,1,18.6-0.2,27.9-2.1
			c4.6-1,9.2-2.1,13.7-3.5c4.5-1.4,9.1-2.9,13.3-4.6l-1.6,2.1c0.6-5.3,1.1-10.7,1.2-16.1c0.1-5.4,0-10.8-0.5-16.1
			c-0.1-1.3-0.4-2.7-0.4-4l-0.5-4.1l-1-8.2c-0.6-5.5-1.2-10.9-1.7-16.4l1.9,2.1c-2-0.4-4.2-0.7-6.4-1c-2.1-0.2-4.4-0.4-6.5-0.4
			c-4.4-0.2-8.7-0.1-13.1,0.1c-4.4,0.4-8.7,0.7-13.1,1.6c-2.1,0.4-4.4,0.9-6.5,1.3c-2.1,0.4-4.2,1.1-6.4,1.6
			c-8.7,2.4-17.3,4.5-26.1,6.1c-4.5,0.7-8.8,1.3-13.3,1.6C234.8,187.3,230.3,187.3,225.8,186.5z M225.8,186.5
			c4.5,0.4,8.8,0.1,13.3-0.4c4.5-0.5,8.7-1.4,13.1-2.4c8.7-2,17.2-4.5,25.6-7.2c8.6-2.9,17.5-4.6,26.5-5.5c4.5-0.4,9.1-0.6,13.6-0.5
			c2.2,0,4.5,0.1,6.8,0.4c2.2,0.2,4.5,0.4,7,1c1,0.2,1.7,1,1.9,2v0.1c0.6,5.4,1.3,10.8,2,16.3c0.6,5.4,1.4,10.8,2.1,16.3
			c0.6,5.6,0.7,11.2,0.6,16.8c-0.1,5.6-0.4,11.1-1.2,16.8l0,0c-0.1,1-0.7,1.7-1.6,2.1c-4.6,1.9-9.2,3.4-13.9,4.7
			c-4.6,1.4-9.4,2.6-14.2,3.5c-9.6,2-19.4,2.9-29.4,1.7c-2.5-0.4-5-0.7-7.3-1.4c-2.5-0.7-4.6-1.5-7-2.1c-4.5-1.4-9.1-2.6-13.7-3.5
			c-4.6-0.9-9.3-1.4-14.1-1.6c-2.4-0.1-4.6-0.1-7,0c-2.2,0.1-4.7,0.4-7,0.6h-0.1c-0.9,0.1-1.6-0.4-1.9-1.3c0-0.1,0-0.4,0-0.4
			c0.9-9.5,2-18.9,2.9-28.2L225.8,186.5z"/>
	</g>
	<path class="st15" d="M229.8,189.5l-2.1,47.3c0,0,10.8-6.2,45.7,4.6C245.9,226,229.4,227.7,229.8,189.5z"/>
</g>
<path class="st0" d="M461.5,429.8c-0.2-0.4,0-1.1,0-1.5c-0.1-3.8-4-6.5-7.7-5.2l0,0c-15.7,5.5-23.3,23.5-15.7,38.1
	C447.1,478.5,480.5,473.5,461.5,429.8z"/>
</svg>
