<?xml version="1.0" encoding="utf-8"?>
<!-- Generator: Adobe Illustrator 22.0.0, SVG Export Plug-In . SVG Version: 6.00 Build 0)  -->
<svg version="1.1" id="Layer_1" xmlns="http://www.w3.org/2000/svg" xmlns:xlink="http://www.w3.org/1999/xlink" x="0px" y="0px"
	 viewBox="0 0 600 600" style="enable-background:new 0 0 600 600;" xml:space="preserve">
<style type="text/css">
	.st0{fill:#C82D1B;}
	.st1{fill:#B4241A;}
	.st2{fill:#E63D27;}
	.st3{fill:#D73424;}
	.st4{fill:#FFFFFF;}
	.st5{fill:#E7E7E7;}
	.st6{fill:#B0D133;}
	.st7{fill:#5B6D13;}
	.st8{fill:#DACB45;}
	.st9{fill:#A8A539;}
	.st10{fill:#ECE84E;}
	.st11{fill:#501627;}
	.st12{fill:#F56A82;}
	.st13{fill:#604F0A;}
	.st14{clip-path:url(#SVGID_4_);}
	.st15{fill:#3A2F03;}
	.st16{fill:#2C2C2D;}
	.st17{clip-path:url(#SVGID_7_);}
	.st18{fill:#4C4C4E;}
	.st19{fill:#727275;}
	.st20{clip-path:url(#SVGID_9_);}
	.st21{fill:#A6A7AA;}
</style>
<path class="st0" d="M97.8,391.7l-13-14.4c0,0-34.5,38-18.1,102.3c14.5,56.8,50.1,25.3,38.5-8.6S97.8,391.7,97.8,391.7z"/>
<path class="st1" d="M105.1,471c-11.6-33.9-7.3-79.4-7.3-79.4l-19.7-5c-6.5,21.8,14.8,65.2,17.5,77.5c2.8,12.2,6.3,24.8,1.4,35.2
	c-4.8,10.3-20.4,3.7-20.4,3.7C92.8,524.6,114.6,498.6,105.1,471z"/>
<path class="st1" d="M351.8,394.9l2-19.4c0,0,50.1,9.8,74.7,71.4c21.8,54.4-25.5,50.5-36,16.3C381.9,428.8,351.8,394.9,351.8,394.9z
	"/>
<path class="st0" d="M392.5,463.1c2.9,8.4,7.5,15.3,13.1,19.6c7.6,5.8,17.8,0.4,12.7-9.5c-1.9-3.8-6.3-12.3-11.5-16
	C398.3,451.1,388.7,452.1,392.5,463.1z"/>
<path class="st0" d="M175,499.2c0,0-6.4,82-18.1,87.6c-11.8,5.6-7.6,9.1,20.8,9.1s33.9-2.8,35.3-26.6s-7.2-62-7.2-62L175,499.2z"/>
<path class="st0" d="M290.3,586.8c-11.8-5.6-18.1-87.6-18.1-87.6l-30.7,8.2c0,0-8.6,38.2-7.2,62c1.4,23.8,6.9,26.6,35.3,26.6
	C297.9,595.9,301.9,592.3,290.3,586.8z"/>
<path class="st1" d="M206.9,563.4c-4.5,24.1-22.4,34.6-49.4,31.5c4.4,0.6,11,1,20,1c28.4,0,33.9-2.8,35.3-26.6s-7.2-62-7.2-62
	l-30.7-8.2c0,0,5,5,15.8,9.7C201.4,513.7,211.4,539.3,206.9,563.4z"/>
<path class="st1" d="M272.9,547.6c2.1,23.5,17.9,49.3-13.9,48.1l0,0c3,0.1,6.5,0.2,10.4,0.2c28.4,0,32.4-3.5,20.8-9.1
	c-11.8-5.6-18.1-87.6-18.1-87.6l-30.7,8.2c0,0,8.4,2.8,15.5,2.8C264,510.3,270.9,524,272.9,547.6z"/>
<path class="st2" d="M364.4,326.5c5.1,6.7,12.8,10.7,12.8,10.7C374.4,304.4,332,267,332,267c14.2,4.9,14.5,0.3,14.5,0.3
	c-41.5-42.3-89.7-39.7-89.7-39.7c4.9-0.4,8.3-6.7,8.3-6.7c-20.5-6.9-37.7,3.5-37.7,3.5s-20.3-5.4-27.6-15.8c0,0-6.5,13,5.5,19.6
	c0,0-24.9-10.2-57.2,4.7c0,0,9.2,6.6,19.4,6.6c0,0-45.2,0.9-79.3,52.2c0,0,6.9,2,14-2.6c-8.2,8.6-22.5,26.9-26.4,52.9
	c0,0,5.4-1,9.5-7.3c-4.9,12.4-13.5,42.9-1.7,83.5c0,0,3.5-0.3,4.5-17.9c0,0,9.8,66.9,47.1,95.5c0,0,4.6-8.3-0.8-21
	c0,0,24.3,23.1,27.1,38.5c0,0,5.3-9.4,1.7-19.4c0,0,20.4,14.9,63.3,14.9s67.4-17.1,67.4-17.1c-2.4,8.6,5.1,17.1,5.1,17.1
	c0.7-14.2,19.5-34,19.5-34c-7.2,6.6-0.8,20.2-0.8,20.2c13.5-11.6,22.8-34.2,27-46c-0.9,8.1,4.1,13.9,4.1,13.9
	c18-19.6,17.1-67.2,17.1-67.2c1.3,11.8,11.3,21.8,11.3,21.8C385.6,373.6,364.4,326.5,364.4,326.5z"/>
<path class="st3" d="M134.5,474.9c0,0,24.3,23.1,27.1,38.5c0,0,5.3-9.4,1.7-19.4c0,0,20.4,14.9,63.3,14.9s67.4-17.1,67.4-17.1
	c-2.4,8.6,5.1,17.1,5.1,17.1c0.7-14.2,19.5-34,19.5-34c-7.2,6.6-0.8,20.2-0.8,20.2c13.5-11.6,22.8-34.2,27-46
	c-0.9,8.1,4.1,13.9,4.1,13.9c18-19.6,17.1-67.2,17.1-67.2c1.3,11.8,11.3,21.8,11.3,21.8c8.3-44-12.8-91.2-12.8-91.2
	c5.1,6.7,12.8,10.7,12.8,10.7C374.4,304.4,332,267,332,267c14.2,4.9,14.5,0.3,14.5,0.3c-41.5-42.3-89.7-39.7-89.7-39.7
	s5-0.5,11.1,6.4c6,6.9,13.5,16.6,28.5,21.6c15,5,52.3,24.3,63.1,55.6c0,0-8.9-2.7-12.9-8.2c0,0,32.9,67,8.6,129.4
	c0,0-5.9-6.4-4.8-15c0,0-25.5,74.3-113.4,81.9C166.3,505.4,134.5,474.9,134.5,474.9z"/>
<g>
	<g>
		<ellipse class="st4" cx="185.7" cy="353" rx="33.4" ry="33.8"/>
		<path class="st5" d="M219,351.1c-0.1-1.9-0.4-3.8-0.7-5.5c0.1,0.5,0.1,1,0.1,1.6c1,18.6-13,34.5-31.4,35.7
			c-16.6,0.9-31-10.4-34.4-26.3c1.8,17.8,17.2,31.3,35.2,30.2C206,385.6,220.1,369.7,219,351.1z"/>
		<path class="st6" d="M197.5,349.1c0.4,7.3-5.1,13.6-12.3,14c-7.2,0.4-13.4-5.1-13.8-12.4s5.1-13.6,12.3-14
			C191,336.3,197.2,341.8,197.5,349.1z"/>
		<path class="st7" d="M191.7,349.4c0.2,4.1-2.8,7.5-6.8,7.7c-4,0.2-7.4-2.8-7.6-6.9c-0.2-4.1,2.8-7.5,6.8-7.7
			C188.1,342.3,191.5,345.4,191.7,349.4z"/>
		<path class="st4" d="M193.5,343.9c0.1,2.3-1.6,4.3-3.9,4.4c-2.3,0.1-4.2-1.7-4.4-3.9c-0.1-2.3,1.6-4.3,3.9-4.4
			C191.4,339.8,193.4,341.6,193.5,343.9z"/>
	</g>
	<g>
		<path class="st4" d="M311.6,351.1c1,18.6-13,34.5-31.4,35.7c-18.4,1-34.2-13.1-35.3-31.8c-1-18.6,13-34.5,31.4-35.7
			C294.9,318.2,310.6,332.4,311.6,351.1z"/>
		<path class="st5" d="M311.6,351.1c-0.1-1.9-0.4-3.8-0.7-5.5c0.1,0.5,0.1,1,0.1,1.6c1,18.6-13,34.5-31.4,35.7
			c-16.6,0.9-31-10.4-34.4-26.3c1.8,17.8,17.2,31.3,35.2,30.2C298.6,385.6,312.7,369.7,311.6,351.1z"/>
		<path class="st6" d="M290.2,349.1c0.4,7.3-5.1,13.6-12.3,14s-13.4-5.1-13.8-12.4c-0.4-7.3,5.1-13.6,12.3-14
			C283.6,336.3,289.7,341.8,290.2,349.1z"/>
		<path class="st7" d="M284.3,349.4c0.2,4.1-2.8,7.5-6.8,7.7c-4,0.2-7.4-2.8-7.6-6.9c-0.2-4.1,2.8-7.5,6.8-7.7
			C280.7,342.3,284.1,345.4,284.3,349.4z"/>
		<path class="st4" d="M286.1,343.9c0.1,2.3-1.6,4.3-3.9,4.4c-2.3,0.1-4.2-1.7-4.4-3.9c-0.1-2.3,1.6-4.3,3.9-4.4
			C284,339.8,286,341.6,286.1,343.9z"/>
	</g>
</g>
<g>
	<path class="st8" d="M214.3,211.5c24.9-1.1,38.3,27.4,29.7,49.5C242.7,263.9,241.5,230.8,214.3,211.5z"/>
	<path class="st9" d="M331.5,257.7l-252.3,5.7c-12.8,5.3-36.2,12.1-44.4,23.1c-5.7,7.5-4,17.6,25.8,19.6
		c48.4,3.2,149.8,3.3,189.3-8.1c27.2-7.9,64.6-15.2,78.8-37C328.8,260.4,330.3,259.7,331.5,257.7z"/>
	<path class="st10" d="M77.8,265.9C51,277.3-5.7,304.2,61.2,308.7c48.4,3.2,154.2-6.7,193.7-18.1c23.6-6.8,64.9-5.8,84.8-19.4
		c2.2-1.1,4.1-2.1,5.7-3.3c2.2-1.8,13.8-0.7,14.7-11.3c0-3.2-9.4-8.8-9.7-11.9c-5.1-72.1-68-130.2-150.8-127.3
		C77.7,121.4,71.4,187.9,77.8,265.9z"/>
	<path class="st8" d="M127.7,145.2c12,6.2,12.1,68.7,9.4,87.4c-2.7,18-33.3,27.9-37.3,15.7c-4.4-13.3,11.8-54.9,14.3-63.6
		C118.5,168.4,124.8,143.6,127.7,145.2z"/>
	<path class="st8" d="M169.4,119.8c29.4,3.4,60.8-9.1,96.5,29.9c47.2,51.7,37.5,107.2-40.4,106c-15-0.2-100.5,11.3-23.1,8.1
		c87.3-3.7,117.4,14.3-4.6,28.7c-47.8,5.7-98.2,6.1-145-15c-23.3,12.4-40.6,27.8,8.4,31c48.4,3.2,154.2-6.7,193.7-18.1
		c23.6-6.8,64.9-5.8,84.8-19.4c2.2-1.1,4.1-2.1,5.7-3.3c2.2-1.8,13.8-0.7,14.7-11.3c0-3.2-9.4-8.8-9.7-11.9
		c-5.1-72.1-68-130.2-150.8-127.3C188.6,117.6,178.6,118.4,169.4,119.8z"/>
	<path class="st8" d="M178.1,140.9c13.1,6.2,24,68.7,24.5,87.4c0.5,18-28.5,27.9-34.6,15.7c-6.6-13.3,2.4-54.9,3.2-63.6
		C173,164.1,174.8,139.4,178.1,140.9z"/>
	<path class="st8" d="M226,139.3c-9,10.1,14,68.3,23.6,84.7c9.2,15.9,41.3,13.9,40.5,0.9c-0.9-14-31.2-46.8-36.8-54.1
		C243,157.5,228.1,136.8,226,139.3z"/>
	<path class="st8" d="M328.7,239c0.1-5.7-96,10.8-169.7,17.6c-42.5,3.8-77,0.4-82.8-2.1c-7.8,0-12.3,5.7-6.8,9.7
		c18.4,5.5,75.6,2.7,92.9,0.7C187.1,261.9,328,243.5,328.7,239z"/>
</g>
<g>
	<path class="st11" d="M221.6,423.6c23.1,0.3,38.7-2.7,44.3-9.1c5.6-6.4,26.3,2.6,14,23.5c-12.3,20.9-41.1,22.8-58.3,22.5
		c-17.2-0.3-59.4-18.1-50.8-39.1C179.5,400.2,201,423.3,221.6,423.6z"/>
	<path class="st12" d="M195.9,453.6c0,0,24.1-25,70-2C266,451.6,233.4,471.4,195.9,453.6z"/>
	<path class="st4" d="M195.9,416.1c0,0-0.8,13.7,2,14.7c2.8,1.1,4-4.8,4-4.8s19,6.8,47.4,2.5c0,0,0.3,4.5,2.5,4.8
		c2.2,0.3,5.2-13.5,5.2-13.5s-9.7,3.8-29.6,3.8C213,423.6,195.9,416.1,195.9,416.1z"/>
</g>
<g>
	<path class="st13" d="M457.6,295.8c10.5,10.7,29.7,19,40.1,29.7c15.8-24.3-1.6-9.9,39.2-73.3c5.9-10.9-25.9-35.1-34.4-27.4
		C467.5,284.2,492.7,236.4,457.6,295.8z"/>
	<g>
		<g>
			<path id="SVGID_1_" class="st13" d="M493.3,321.7c-11.3-9.8-22.5-19.5-33.7-29.3c-13.9,25.7-57.9,125.4-93.6,192.4
				c-5.1,11.4,28.5,32.7,36.2,24.2C432.6,446.5,462.9,384.1,493.3,321.7z"/>
		</g>
		<g>
			<defs>
				<path id="SVGID_2_" d="M493.3,321.7c-11.3-9.8-22.5-19.5-33.7-29.3c-13.9,25.7-57.9,125.4-93.6,192.4
					c-5.1,11.4,28.5,32.7,36.2,24.2C432.6,446.5,462.9,384.1,493.3,321.7z"/>
			</defs>
			<clipPath id="SVGID_4_">
				<use xlink:href="#SVGID_2_"  style="overflow:visible;"/>
			</clipPath>
			<g class="st14">
				<path class="st15" d="M451.1,291.6l-12.8,26.8c24.4-14.6,40.1,13.2,27.1,39.5c-0.2,2.5-34,98.1-58.8,92.8
					c-86.3-18.5,22.5,31.8-31.8,53.3c-2.7,1.1-0.5-0.3-2.9,0.2l28.3,17.6l104.3-204.7L451.1,291.6z"/>
			</g>
		</g>
	</g>
	<g>
		<g>
			<path id="SVGID_3_" class="st16" d="M382.2,446.8c17.7-36.4,35.4-72.8,53.1-109.2c12.3,12.8,23.1,17.1,39.9,22.6
				c-18.3,36.8-36.7,73.6-55,110.5C407.5,469.4,386.9,460.9,382.2,446.8z"/>
		</g>
		<g>
			<defs>
				<path id="SVGID_6_" d="M382.2,446.8c17.7-36.4,35.4-72.8,53.1-109.2c12.3,12.8,23.1,17.1,39.9,22.6
					c-18.3,36.8-36.7,73.6-55,110.5C407.5,469.4,386.9,460.9,382.2,446.8z"/>
			</defs>
			<clipPath id="SVGID_7_">
				<use xlink:href="#SVGID_6_"  style="overflow:visible;"/>
			</clipPath>
			<g class="st17">
				<path class="st18" d="M448.6,342c-61.5-6.9-79.2,172.6-36,121.1C419.8,454.8,477.1,345.3,448.6,342z"/>
			</g>
		</g>
	</g>
	<g>
		<g>
			<path id="SVGID_5_" class="st19" d="M577.5,337.7c-12.1-9.2-52.5-38.7-62-45.6c-12.3-9,5.4-47.9-14.3-63.5
				c-16.7-13.3-35-26.4-61.3-41.3c-35.5-20.9-79.1,54.8-29.9,88.5c52.2,38.9,89.1,61.7,140.6,92.4
				C583,379.2,603.1,351.8,577.5,337.7z"/>
		</g>
		<g>
			<defs>
				<path id="SVGID_8_" d="M577.5,337.7c-12.1-9.2-52.5-38.7-62-45.6c-12.3-9,5.4-47.9-14.3-63.5c-16.7-13.3-35-26.4-61.3-41.3
					c-35.5-20.9-79.1,54.8-29.9,88.5c52.2,38.9,89.1,61.7,140.6,92.4C583,379.2,603.1,351.8,577.5,337.7z"/>
			</defs>
			<clipPath id="SVGID_9_">
				<use xlink:href="#SVGID_8_"  style="overflow:visible;"/>
			</clipPath>
			<g class="st20">
				<path class="st21" d="M422.6,165.1l13.4,49c39.1,22.6,56.5,13.4,66.2,69c8.5,48.2,90.3,63.8,80.8,89.8c-0.5,1.5-0.3,1.8-0.1,3.3
					l32-35.8L494.5,174.7L422.6,165.1z"/>
			</g>
		</g>
	</g>
	<path class="st18" d="M433.9,185.2c11.9,7.5,12.6,30.4,1.8,51.4c-10.9,20.8-29.3,31.7-41.2,24.2c-11.9-7.5-12.6-30.4-1.8-51.4
		C403.6,188.4,422,177.6,433.9,185.2z"/>
</g>
<path class="st1" d="M417.3,484.3c0.4,0.3,0.5,0.8,0.8,1.3c2,3.1,6.3,3.4,8.8,0.6l0,0c10.4-11.9,8.2-30.4-4.9-38.8
	C406.4,437.2,381,457,417.3,484.3z"/>
</svg>
