<?xml version="1.0" encoding="utf-8"?>
<!-- Generator: Adobe Illustrator 22.0.0, SVG Export Plug-In . SVG Version: 6.00 Build 0)  -->
<svg version="1.1" id="Layer_1" xmlns="http://www.w3.org/2000/svg" xmlns:xlink="http://www.w3.org/1999/xlink" x="0px" y="0px"
	 viewBox="0 0 600 600" style="enable-background:new 0 0 600 600;" xml:space="preserve">
<style type="text/css">
	.st0{fill:#D2B420;}
	.st1{fill:#C0A01D;}
	.st2{fill:#F3DB22;}
	.st3{fill:#E5C823;}
	.st4{fill:#FFFFFF;}
	.st5{fill:#E7E7E7;}
	.st6{fill:#66C1C6;}
	.st7{fill:#266363;}
	.st8{fill:#501627;}
	.st9{fill:#F7C90A;}
	.st10{fill:#E12B70;}
	.st11{fill:#FD693F;}
	.st12{fill:#F5663D;}
	.st13{fill:#F2517D;}
	.st14{fill:#D4286A;}
	.st15{fill:#FFCF08;}
	.st16{fill:#023A47;}
	.st17{fill:#005C86;}
	.st18{fill:#014958;}
	.st19{clip-path:url(#SVGID_4_);}
	.st20{fill:none;stroke:#000000;stroke-miterlimit:10;}
	.st21{clip-path:url(#SVGID_6_);}
	.st22{fill:#4CC4A8;}
</style>
<g>
	<path class="st0" d="M79.9,427.2l-9.6,20.1c0,0-44.5-38.6-44.2-119.9c0.2-71.9,44.3-41.3,41.1,2.2
		C64.1,373.1,79.9,427.2,79.9,427.2z"/>
	<path class="st1" d="M67.3,329.7c-3.2,43.5,12.6,97.6,12.6,97.6l-18.7,10.3c-12.1-25-1.5-82-1.8-97.5c-0.2-15.4,0-31.3-7.5-42.7
		c-7.5-11.4-21.6,0-21.6,0C41.3,267.5,69.9,294.3,67.3,329.7z"/>
</g>
<g>
	<path class="st1" d="M305.4,281l15.3,16.3c0,0,30.7-50.4,5.6-127.7c-22.2-68.3-54.9-25.9-38.5,14.7
		C303.9,224.7,305.4,281,305.4,281z"/>
	<path class="st0" d="M287.7,184.3c-3.8-10.3-5.1-20.4-4-29c1.6-11.7,13.1-15,16.3-1.7c1.2,5,4,16.6,2.7,24.3
		C300.5,190.6,292.6,197.6,287.7,184.3z"/>
</g>
<g>
	<path class="st0" d="M181.9,495c0,0-6.7,83.9-18.8,89.7c-12.1,5.7-7.9,9.3,21.5,9.3s35.1-2.9,36.5-27.2c1.5-24.3-7.4-63.4-7.4-63.4
		L181.9,495z"/>
	<path class="st1" d="M215.1,560.6c-4.6,24.6-23.3,35.4-51.2,32.2c4.5,0.7,11.4,1.1,20.8,1.1c29.4,0,35.1-2.9,36.5-27.2
		c1.5-24.3-7.4-63.4-7.4-63.4l-31.8-8.4c0,0,5.2,5.1,16.3,10C209.3,509.8,219.7,535.9,215.1,560.6z"/>
</g>
<g>
	<path class="st0" d="M438.9,371c-8,10.8-91.6,0.7-91.6,0.7l1.9,32.8c0,0,36.5,16.4,60.7,19.8c24.2,3.4,28-1.7,33.9-30.5
		C449.6,365.1,446.9,360.2,438.9,371z"/>
	<path class="st1" d="M396,380.6c24,2.7,53.2-8.3,45.5,23.8l0,0c0.7-3,1.6-6.6,2.3-10.6c5.8-28.8,3.2-33.6-4.9-22.8
		c-8,10.8-91.6,0.7-91.6,0.7l1.9,32.8c0,0,4.6-8,5.9-15.2C356.6,382.2,372,378.1,396,380.6z"/>
</g>
<path class="st2" d="M315.5,263.5c7.9,3.5,16.9,3.4,16.9,3.4c-18.3-28.3-75.1-41.4-75.1-41.4c15.4-2.4,13.4-6.8,13.4-6.8
	c-58.3-18.1-101.1,7.8-101.1,7.8c4.2-2.8,4.4-10.1,4.4-10.1c-22.1,3.8-32.6,21.6-32.6,21.6s-21.2,5-32.9-0.7c0,0,0.4,14.9,14.4,14.9
	c0,0-27.7,2.9-50,32c0,0,11.5,1.5,20.9-3.5c0,0-40.8,22.8-47.2,85.8c0,0,7.3-1.6,11.5-9.1c-3.4,11.8-7.6,35.3,1.3,60.7
	c0,0,4.5-3.5,5.1-11.3c1.5,13.6,8.4,45.3,38.7,76.2c0,0,3.2-1.9-4.6-18.3c0,0,41.3,55.6,89.1,63.4c0,0,0.1-9.8-10.8-18.6
	c0,0,33.4,9,43.3,21.5c0,0,0.4-11-7.9-18.3c0,0,26,3.5,65.1-17.4c39.2-20.9,53.4-48.3,53.4-48.3c1.9,8.9,13,12.9,13,12.9
	c-6.2-13.2,1.5-40.2,1.5-40.2c-3.4,9.5,9,18.7,9,18.7c6.7-17,4.4-42,2.5-54.7c3,7.9,10.4,10.4,10.4,10.4c7-26.5-16.7-69.1-16.7-69.1
	c6.8,10.1,20.8,14.2,20.8,14.2C357.4,295.8,315.5,263.5,315.5,263.5z"/>
<path class="st3" d="M177,509.6c0,0,33.4,9,43.3,21.5c0,0,0.4-11-7.9-18.3c0,0,26,3.5,65.1-17.4c39.2-20.9,53.4-48.3,53.4-48.3
	c1.9,8.9,13,12.9,13,12.9c-6.2-13.2,1.5-40.2,1.5-40.2c-3.4,9.5,9,18.7,9,18.7c6.7-17,4.4-42,2.5-54.7c3,7.9,10.4,10.4,10.4,10.4
	c7-26.5-16.7-69.1-16.7-69.1c6.8,10.1,20.8,14.2,20.8,14.2c-13.6-43.8-55.6-76.1-55.6-76.1c7.9,3.5,16.9,3.4,16.9,3.4
	c-18.3-28.3-75.1-41.4-75.1-41.4c15.4-2.4,13.4-6.8,13.4-6.8c-58.3-18.1-101.1,7.8-101.1,7.8s4.2-2.9,13.1,0.4
	c8.9,3.3,20.3,8.4,36.4,5.6s59.5-3.5,84.5,19.5c0,0-9.5,1.8-15.8-1.1c0,0,62.4,44.5,70.2,112.8c0,0-8.5-2.8-11.7-11.3
	c0,0,12.5,79.5-64.1,129.1C220.7,521.7,177,509.6,177,509.6z"/>
<ellipse class="st4" cx="191.7" cy="333.7" rx="55.3" ry="55.3"/>
<path class="st5" d="M239,304.8c-1.6-2.7-3.4-5.1-5.3-7.4c0.5,0.7,1,1.5,1.5,2.2c15.9,26.1,7.6,60.2-18.4,76.1
	c-23.5,14.3-53.4,9.1-70.8-11.2c16.4,24.4,49.3,31.8,74.8,16.3C246.6,365,254.9,330.9,239,304.8z"/>
<path class="st6" d="M198.3,304.2c6.2,10.2,3,23.5-7.3,29.7c-10.2,6.2-23.5,3-29.7-7.3c-6.2-10.2-3-23.5,7.3-29.7
	C178.8,290.7,192.1,293.9,198.3,304.2z"/>
<path class="st7" d="M190.1,309.1c3.4,5.6,1.7,13-4,16.4c-5.6,3.4-13,1.7-16.4-4c-3.4-5.6-1.7-13,4-16.4
	C179.3,301.7,186.6,303.6,190.1,309.1z"/>
<path class="st8" d="M272.2,409.5c-8,5-17.8,6.4-26.8,3.8c-1.5-0.4-2.2-1.9-1.8-3.3c0.4-1.5,1.9-2.2,3.3-1.8
	c7.6,2.2,15.8,1.1,22.5-3.2c12.9-8.1,16.7-25.2,8.7-38.1c-0.7-1.2-0.4-2.9,0.8-3.6c1.2-0.7,2.9-0.4,3.6,0.8
	C292.4,379.4,287.7,399.8,272.2,409.5z"/>
<g>
	<g>
		<g>
			<rect x="428.8" y="269.9" class="st9" width="3.3" height="39"/>
			<path class="st9" d="M431.8,307.7c1.1,2.6-1.1,5.9-4.9,7.5c-3.8,1.6-7.7,0.6-8.8-1.9c-1.1-2.6,1.1-5.9,4.9-7.5
				C426.9,304.3,430.9,305.1,431.8,307.7z"/>
		</g>
		<g>
			<rect x="453" y="265" class="st9" width="3.3" height="39"/>
			<path class="st9" d="M455.9,302.3c1.1,2.6-1.1,5.9-4.9,7.5s-7.7,0.6-8.8-1.9c-1.1-2.6,1.1-5.9,4.9-7.5
				C450.9,298.9,454.9,299.7,455.9,302.3z"/>
		</g>
		<g>
			<rect x="477.1" y="259.7" class="st9" width="3.3" height="39"/>
			<path class="st9" d="M480.1,297c1.1,2.6-1.1,5.9-4.9,7.5c-3.8,1.6-7.7,0.6-8.8-1.9c-1.1-2.6,1.1-5.9,4.9-7.5
				C475.2,293.6,479,294.4,480.1,297z"/>
		</g>
		<polygon class="st9" points="480.4,268.9 428.8,279.5 428.8,268.3 480.4,257.8 		"/>
	</g>
</g>
<g>
	<g>
		<rect x="511.2" y="150.2" class="st10" width="2.6" height="30.8"/>
		<path class="st10" d="M513.6,179.8c0.8,2.1-1,4.6-3.8,5.9c-3,1.3-6.1,0.6-6.9-1.4c-0.8-2.1,1-4.6,3.8-5.9
			C509.8,177.3,512.8,177.9,513.6,179.8z"/>
		<rect x="531.4" y="147.3" class="st10" width="2.6" height="30.8"/>
		<path class="st10" d="M533.8,176.7c0.8,2.1-1,4.6-3.8,5.9c-3,1.3-6.1,0.6-6.9-1.4c-0.8-2.1,1-4.6,3.8-5.9
			C530,174,533,174.7,533.8,176.7z"/>
		<polygon class="st10" points="534.1,152.9 511.2,157.7 511.2,148.8 534.1,144 		"/>
	</g>
</g>
<g>
	<g>
		<rect x="294.1" y="75.8" class="st11" width="2.6" height="30.8"/>
		<path class="st11" d="M296.4,105.4c0.8,2.1-1,4.6-3.8,5.9c-3,1.3-6.1,0.6-6.9-1.4c-0.8-2.1,1-4.6,3.8-5.9
			C292.5,102.9,295.6,103.5,296.4,105.4z"/>
		<rect x="314.4" y="72.9" class="st11" width="2.6" height="30.8"/>
		<path class="st11" d="M316.6,102.2c0.8,2.1-1,4.6-3.8,5.9c-3,1.3-6.1,0.6-6.9-1.4c-0.8-2.1,1-4.6,3.8-5.9
			C312.8,99.5,315.8,100.2,316.6,102.2z"/>
		<polygon class="st11" points="316.9,78.5 294.1,83.3 294.1,74.3 316.9,69.6 		"/>
	</g>
</g>
<g>
	<g>
		<rect x="525.1" y="318.8" class="st12" width="2.6" height="30.8"/>
		<path class="st12" d="M527.5,348.6c0.8,2.1-1,4.6-3.8,5.9c-3,1.3-6.1,0.6-6.9-1.4c-0.8-2.1,1-4.6,3.8-5.9
			C523.6,345.9,526.7,346.6,527.5,348.6z"/>
		<rect x="545.3" y="316" class="st12" width="2.6" height="30.8"/>
		<path class="st12" d="M547.7,345.4c0.8,2.1-1,4.6-3.8,5.9c-3,1.3-6.1,0.6-6.9-1.4c-0.8-2.1,1-4.6,3.8-5.9
			C543.9,342.7,546.9,343.4,547.7,345.4z"/>
		<polygon class="st12" points="547.9,321.5 525.1,326.5 525.1,317.6 547.9,312.8 		"/>
	</g>
</g>
<g>
	<g>
		<rect x="494.1" y="378" class="st13" width="3.3" height="39"/>
		<path class="st13" d="M497.2,415.7c1.1,2.6-1.1,5.9-4.9,7.5c-3.8,1.6-7.7,0.6-8.8-1.9c-1.1-2.6,1.1-5.9,4.9-7.5
			C492.2,412.4,496.1,413.2,497.2,415.7z"/>
		<path class="st13" d="M508.6,384.5c-2.2,3-14.5,3-14.5,3s0-6.2,0-11.3C506.4,374.9,500.4,385,508.6,384.5z"/>
	</g>
</g>
<g>
	<g>
		<rect x="133" y="85.2" class="st14" width="2.4" height="27.9"/>
		<path class="st14" d="M135.2,112.3c0.8,1.9-0.8,4.3-3.5,5.3c-2.7,1.1-5.6,0.5-6.2-1.3c-0.8-1.9,0.8-4.3,3.5-5.3
			C131.7,109.9,134.4,110.5,135.2,112.3z"/>
		<path class="st14" d="M143.3,90c-1.6,2.2-10.4,2.2-10.4,2.2s0-4.5,0-8.1C141.9,83.1,137.4,90.3,143.3,90z"/>
	</g>
</g>
<g>
	<g>
		<rect x="466.1" y="49" class="st15" width="2.4" height="27.9"/>
		<path class="st15" d="M468.2,76.1c0.8,1.9-0.8,4.3-3.5,5.3c-2.7,1.1-5.6,0.5-6.2-1.3c-0.8-1.9,0.8-4.3,3.5-5.3
			C464.7,73.5,467.5,74.2,468.2,76.1z"/>
		<path class="st15" d="M476.4,53.6c-1.6,2.2-10.4,2.2-10.4,2.2s0-4.5,0-8.1C474.9,46.9,470.4,54.1,476.4,53.6z"/>
	</g>
</g>
<g>
	<g>
		<g>
			<path class="st16" d="M518.2,501.2v12.4H513v-3.9c0-8.5-7.1-15.3-15.6-15l-53.7,2.2c-8,0.3-14.4,6.9-14.4,15v5.1H424l-0.9-11.6
				c-0.7-8.5,5.8-15.8,14.2-16.2l65.2-3.1C511,485.8,518.2,492.6,518.2,501.2z"/>
		</g>
	</g>
	<g>
		<g>
			<path class="st17" d="M522.2,501.2v12.4H517v-9.1c0-5.7-4.7-10.2-10.4-10l-63.7,2.7c-5.4,0.2-9.6,4.6-9.6,10v9.9H428l-0.9-11.6
				c-0.7-8.5,5.8-15.8,14.2-16.2l65.2-3.1C515,485.8,522.2,492.6,522.2,501.2z"/>
		</g>
	</g>
	<polygon class="st16" points="411.6,585.9 524.7,585.9 426,515.7 406,519.3 	"/>
	<polygon class="st18" points="432,585.9 545.1,585.9 545.7,511.1 426,515.7 	"/>
	<circle class="st17" cx="513.9" cy="551.7" r="23"/>
	<g>
		<g>
			
				<ellipse id="SVGID_1_" transform="matrix(0.9239 -0.3827 0.3827 0.9239 -172.0081 238.6566)" class="st16" cx="513.9" cy="551.7" rx="18.9" ry="18.9"/>
		</g>
		<g>
			<defs>
				
					<ellipse id="SVGID_2_" transform="matrix(0.9239 -0.3827 0.3827 0.9239 -172.0081 238.6566)" cx="513.9" cy="551.7" rx="18.9" ry="18.9"/>
			</defs>
			<clipPath id="SVGID_4_">
				<use xlink:href="#SVGID_2_"  style="overflow:visible;"/>
			</clipPath>
			<g class="st19">
				<g>
					<line class="st20" x1="508.8" y1="525" x2="542.8" y2="559"/>
					<line class="st20" x1="503" y1="530.8" x2="537" y2="564.8"/>
					<line class="st20" x1="497.2" y1="536.6" x2="531.2" y2="570.6"/>
					<line class="st20" x1="491.4" y1="542.4" x2="525.4" y2="576.4"/>
					<line class="st20" x1="485.6" y1="548.2" x2="519.6" y2="582.2"/>
				</g>
				<g>
					<line class="st20" x1="542.8" y1="548.2" x2="508.8" y2="582.2"/>
					<line class="st20" x1="537" y1="542.4" x2="503" y2="576.4"/>
					<line class="st20" x1="531.2" y1="536.6" x2="497.2" y2="570.6"/>
					<line class="st20" x1="525.4" y1="530.8" x2="491.4" y2="564.8"/>
					<line class="st20" x1="519.6" y1="525" x2="485.6" y2="559"/>
				</g>
			</g>
		</g>
	</g>
	<circle class="st17" cx="459.6" cy="551.7" r="23"/>
	<g>
		<g>
			<circle id="SVGID_3_" class="st16" cx="459.6" cy="551.7" r="18.9"/>
		</g>
		<g>
			<defs>
				<circle id="SVGID_5_" cx="459.6" cy="551.7" r="18.9"/>
			</defs>
			<clipPath id="SVGID_6_">
				<use xlink:href="#SVGID_5_"  style="overflow:visible;"/>
			</clipPath>
			<g class="st21">
				<g>
					<line class="st20" x1="454.6" y1="525" x2="488.6" y2="559"/>
					<line class="st20" x1="448.8" y1="530.8" x2="482.8" y2="564.8"/>
					<line class="st20" x1="443" y1="536.6" x2="477" y2="570.6"/>
					<line class="st20" x1="437.1" y1="542.4" x2="471.1" y2="576.4"/>
					<line class="st20" x1="431.3" y1="548.2" x2="465.3" y2="582.2"/>
				</g>
				<g>
					<line class="st20" x1="488.6" y1="548.2" x2="454.6" y2="582.2"/>
					<line class="st20" x1="482.8" y1="542.4" x2="448.8" y2="576.4"/>
					<line class="st20" x1="477" y1="536.6" x2="443" y2="570.6"/>
					<line class="st20" x1="471.1" y1="530.8" x2="437.1" y2="564.8"/>
					<line class="st20" x1="465.3" y1="525" x2="431.3" y2="559"/>
				</g>
			</g>
		</g>
	</g>
	<polygon class="st22" points="474,525.3 498.5,524.8 498.5,517.1 474,518.3 	"/>
</g>
</svg>
