<?xml version="1.0" encoding="utf-8"?>
<!-- Generator: Adobe Illustrator 22.0.0, SVG Export Plug-In . SVG Version: 6.00 Build 0)  -->
<svg version="1.1" id="Layer_1" xmlns="http://www.w3.org/2000/svg" xmlns:xlink="http://www.w3.org/1999/xlink" x="0px" y="0px"
	 viewBox="0 0 600 600" style="enable-background:new 0 0 600 600;" xml:space="preserve">
<style type="text/css">
	.st0{fill:#96B127;}
	.st1{fill:#91A325;}
	.st2{fill:#B0D133;}
	.st3{fill:#FFFFFF;}
	.st4{fill:#FCAC34;}
	.st5{fill:#8C5710;}
	.st6{fill:#E7E7E7;}
	.st7{fill:#501627;}
	.st8{fill:url(#SVGID_1_);}
	.st9{fill:#E9E1D9;}
	.st10{fill:#F9C021;}
	.st11{fill:#2D2B28;}
	.st12{opacity:0.58;fill:#5B5B5B;enable-background:new    ;}
	.st13{fill:#FCCF5E;}
	.st14{fill:#D8A321;}
</style>
<path class="st0" d="M186,415.7l11.9-15.7c0,0-44-27.8-104.9,0.4c-53.7,24.9-16,55,15.5,37.1C140.1,419.7,186,415.7,186,415.7z"/>
<path class="st1" d="M108.6,437.5c31.5-17.9,77.4-21.8,77.4-21.8l1.4-20.6c-22.9-2.6-62.1,26.6-73.6,31.6
	c-11.7,5-23.5,10.8-34.6,7.8c-11.1-3-7.3-19.9-7.3-19.9C53.2,434.9,83,452,108.6,437.5z"/>
<path class="st1" d="M425.1,386l13.3-14.5c0,0,35.2,38.3,18.4,103.2c-14.8,57.4-51.2,25.6-39.3-8.7C429.6,431.8,425.1,386,425.1,386
	z"/>
<path class="st0" d="M417.7,466c-2.7,8.7-3,17-0.9,23.9c2.8,9.3,14.4,11.1,16.2,0c0.7-4.2,2.2-13.9,0.2-19.9
	C429.7,459.8,421.1,454.8,417.7,466z"/>
<path class="st0" d="M245.7,494.4c0,0-6.5,82.7-18.5,88.4c-12,5.7-7.8,9.2,21.2,9.2s34.5-2.8,36-26.8c1.4-24-7.3-62.5-7.3-62.5
	L245.7,494.4z"/>
<path class="st0" d="M363.4,582.8c-12-5.7-18.5-88.4-18.5-88.4l-31.3,8.2c0,0-8.7,38.5-7.3,62.5c1.4,24,7.1,26.8,36,26.8
	C371.2,592,375.4,588.5,363.4,582.8z"/>
<path class="st1" d="M278.4,559.3c-4.6,24.3-23,35-50.4,31.8c4.4,0.7,11.2,1,20.4,1c29,0,34.5-2.8,36-26.8c1.4-24-7.3-62.5-7.3-62.5
	l-31.3-8.2c0,0,5.1,5,16.1,9.9C272.7,509.1,283,534.8,278.4,559.3z"/>
<path class="st1" d="M345.7,543.3c2.1,23.8,18.3,49.7-14.1,48.5l0,0c3.1,0.1,6.7,0.2,10.7,0.2c29,0,33.2-3.6,21.2-9.2
	S345,494.4,345,494.4l-31.3,8.2c0,0,8.7,2.9,15.9,2.9S343.6,519.5,345.7,543.3z"/>
<path class="st2" d="M439.1,320.1c5.2,6.8,13.1,10.9,13.1,10.9c-2.8-33.2-46.2-70.8-46.2-70.8c14.5,5,14.8,0.3,14.8,0.3
	c-42.3-42.7-91.5-40.1-91.5-40.1c5-0.4,8.5-6.8,8.5-6.8c-21-7-38.4,3.7-38.4,3.7s-20.8-5.6-28.3-15.9c0,0-6.5,13.2,5.7,19.8
	c0,0-25.4-10.3-58.3,4.7c0,0,9.4,6.5,19.8,6.5c0,0-46.1,0.9-80.9,52.6c0,0,7.1,2,14.2-2.6c-8.3,8.7-23,27.1-27,53.4
	c0,0,5.6-1,9.7-7.4c-5,12.5-13.8,43.2-1.7,84.3c0,0,3.7-0.2,4.6-18.1c0,0,10.1,67.5,48.2,96.5c0,0,4.7-8.4-0.9-21.2
	c0,0,24.9,23.3,27.6,38.7c0,0,5.4-9.4,1.7-19.5c0,0,20.9,15.1,64.6,15.1s68.8-17.2,68.8-17.2c-2.3,8.7,5.4,17.3,5.4,17.3
	c0.7-14.3,19.9-34.3,19.9-34.3c-7.3,6.7-0.9,20.4-0.9,20.4c13.7-11.7,23.3-34.5,27.5-46.4c-1,8.2,4.2,14,4.2,14
	c18.4-19.8,17.4-67.8,17.4-67.8c1.2,11.9,11.4,22,11.4,22C460.8,367.6,439.1,320.1,439.1,320.1z"/>
<path class="st0" d="M204.5,470c0,0,24.9,23.3,27.6,38.7c0,0,5.4-9.4,1.7-19.5c0,0,20.9,15.1,64.6,15.1s68.8-17.2,68.8-17.2
	c-2.4,8.5,5.3,17.2,5.3,17.2c0.7-14.3,19.9-34.3,19.9-34.3c-7.3,6.7-0.9,20.4-0.9,20.4c13.7-11.7,23.3-34.5,27.5-46.4
	c-1,8.2,4.2,14,4.2,14c18.4-19.8,17.4-67.8,17.4-67.8c1.2,11.9,11.4,22,11.4,22c8.4-44.4-13.1-91.9-13.1-91.9
	c5.2,6.8,13.1,10.9,13.1,10.9c-2.8-33.2-46.2-70.8-46.2-70.8c14.5,5,14.8,0.3,14.8,0.3c-42.3-42.7-91.5-40.1-91.5-40.1
	s5.1-0.6,11.2,6.4c6.2,7,13.7,16.7,29,21.8c15.3,5.1,53.3,24.5,64.4,56.1c0,0-9-2.8-13.2-8.3c0,0,33.5,67.6,8.8,130.7
	c0,0-6.1-6.4-4.9-15.2c0,0-26,74.9-115.7,82.6C236.9,500.6,204.5,470,204.5,470z"/>
<g>
	<path class="st3" d="M184.3,330.7c0,22.8,18.5,41.3,41.3,41.3s41.3-18.5,41.3-41.3H184.3z"/>
	<path class="st4" d="M210.4,330.7c0,11.4,9.2,20.6,20.6,20.6c11.4,0,20.6-9.2,20.6-20.6H210.4z"/>
	<path class="st3" d="M361.4,330.7c0,3.4,2.8,6.1,6.1,6.1c3.4,0,6.1-2.8,6.1-6.1H361.4z"/>
	<g>
		<path class="st5" d="M220.7,330.7c0,5.7,4.7,10.3,10.3,10.3c5.7,0,10.3-4.7,10.3-10.3H220.7z"/>
		<path class="st3" d="M236,330.7c0,3.4,2.8,6.1,6.1,6.1c3.4,0,6.1-2.8,6.1-6.1H236z"/>
		<path class="st3" d="M314.8,330.7c0,22.8,18.5,41.3,41.3,41.3c22.8,0,41.3-18.5,41.3-41.3H314.8z"/>
		<path class="st6" d="M225.6,365.4c-22.8,0-41.3-15.5-41.3-34.6c0,22.8,18.5,41.3,41.3,41.3s41.3-18.5,41.3-41.3
			C267,349.9,248.5,365.4,225.6,365.4z"/>
		<path class="st6" d="M356.1,365.4c-22.8,0-41.3-15.5-41.3-34.6c0,22.8,18.5,41.3,41.3,41.3c22.8,0,41.3-18.5,41.3-41.3
			C397.4,349.9,378.8,365.4,356.1,365.4z"/>
		<path class="st4" d="M340.8,330.7c0,11.4,9.2,20.6,20.6,20.6c11.4,0,20.6-9.2,20.6-20.6H340.8z"/>
		<path class="st5" d="M351.1,330.7c0,5.7,4.7,10.3,10.3,10.3c5.7,0,10.3-4.7,10.3-10.3H351.1z"/>
		<path class="st3" d="M365.6,330.7c0,3.4,2.8,6.1,6.1,6.1c3.4,0,6.1-2.8,6.1-6.1H365.6z"/>
	</g>
</g>
<path class="st7" d="M296.8,437.8c-9.8,0-17.8-8-17.8-17.8c0-1.4,1.1-2.6,2.6-2.6c1.4,0,2.6,1.1,2.6,2.6c0,6.9,5.7,12.5,12.5,12.5
	c6.9,0,12.5-5.7,12.5-12.5c0-1.4,1.1-2.6,2.6-2.6s2.6,1.1,2.6,2.6C314.6,429.8,306.6,437.8,296.8,437.8z"/>
<linearGradient id="SVGID_1_" gradientUnits="userSpaceOnUse" x1="-1075.7104" y1="-798.524" x2="-1049.4359" y2="-771.3157" gradientTransform="matrix(-0.6725 0.5363 -0.5224 -0.6716 -1051.9547 149.8934)">
	<stop  offset="0" style="stop-color:#ECC78D"/>
	<stop  offset="1" style="stop-color:#B88D5D"/>
</linearGradient>
<path class="st8" d="M81.2,69.2L56,126l37,27.5l32.3-33.7L91.7,68.2c-1.2-2-3.2-2.9-5.5-2.6C84,65.7,82,67.2,81.2,69.2z"/>
<path class="st9" d="M83.1,68.8l-12.7,58.6l22,5l18.9-1.7L89.6,68.2c-0.7-2-2-3-3.4-2.9C84.9,65.5,83.6,66.8,83.1,68.8z"/>
<path class="st10" d="M125.3,119.7l33.3,468.9l-69.1,6.3L56.2,126c4.3,0.3,8.4,1.4,12.4,2.9c6.2-3.8,13.2-6.1,21-6.7
	c7.6-0.9,14.9,0.5,21.5,2.7C115.3,122.4,120.1,121,125.3,119.7z"/>
<path class="st11" d="M81.2,69.2L73,87.5c5.3,2.5,24.8,1.7,29.4-2.9L91.8,68.4c-1.2-2-3.2-2.9-5.5-2.6C84,65.7,82,67.2,81.2,69.2z"
	/>
<path class="st12" d="M95.2,87.5c3.1-0.6,5.9-1.7,7.1-3L91.6,68.3c-1-1.7-2.8-2.6-4.7-2.7C89.4,72.7,92.5,81,95.2,87.5z"/>
<path class="st13" d="M141.3,589.8L111,124.9c3-4.1,11.2-5.9,14.3-5.2l32.3,468.8L141.3,589.8z"/>
<path class="st14" d="M71,127.5l31.6,467.4l-14.5,1.1L56.3,125.9C60.6,125.5,66.9,125.2,71,127.5z"/>
<path class="st1" d="M76.4,412.8c-0.6,0-1-0.4-1.4-0.6c-3.7-1.4-7.5,1-7.9,5l0,0c-1.4,16.8,12.1,31.2,28.6,30.2
	C115.4,446.2,124.6,413.4,76.4,412.8z"/>
</svg>
