<?xml version="1.0" encoding="utf-8"?>
<!-- Generator: Adobe Illustrator 22.0.0, SVG Export Plug-In . SVG Version: 6.00 Build 0)  -->
<svg version="1.1" id="Layer_1" xmlns="http://www.w3.org/2000/svg" xmlns:xlink="http://www.w3.org/1999/xlink" x="0px" y="0px"
	 viewBox="0 0 600 600" style="enable-background:new 0 0 600 600;" xml:space="preserve">
<style type="text/css">
	.st0{fill:#A57439;}
	.st1{fill:#B7803F;}
	.st2{fill:#DE924D;}
	.st3{fill:#80592C;}
	.st4{fill:#75C362;}
	.st5{fill:#9EDC8E;}
	.st6{fill:#308570;}
	.st7{fill:#4DB372;}
	.st8{fill:#085F49;}
	.st9{fill:#1A8B43;}
	.st10{fill:#18662B;}
	.st11{fill:#175622;}
	.st12{fill:#218942;}
	.st13{fill:#1F7736;}
	.st14{fill:#501627;}
	.st15{fill:#F56A82;}
	.st16{fill:#FFFFFF;}
	.st17{fill:#E7E7E7;}
	.st18{fill:#F6901B;}
	.st19{fill:#6B390B;}
	.st20{fill:#F5A30F;}
	.st21{fill:#FBD047;}
	.st22{fill:#DAECE9;}
</style>
<g>
	<g>
		<path class="st0" d="M573.4,558.4c-0.4-6-10.3-6.7-14.5-7.6c-10.3-2-20.4-2.8-30.9-2.2c-5,0.3-6.6,1.1-7.3,4.2
			c-0.3-0.2-0.9,0-0.9,0.5c0.5,9.5,0.9,19.2,2.3,28.6c1.1,7.4,5.1,11.2,12.1,13.4c12.6,4,33.1,4.2,36.9-11.7c1-4.1,1-8.5,1.4-12.8
			C573,566.7,573.7,562.6,573.4,558.4z"/>
		<path class="st1" d="M575.9,532.9c-2.9-0.5-7.6,1.9-10.3,2.7c-12.6,3.7-26.4,3.7-39,0c-2.7-0.8-7.5-2.4-10.4-1.9
			c-6,1-5.5,9.5-5.5,14.5c0,6.4,2.4,12.1,8.6,14.8c4.1,1.8,9.2,2.1,13.6,2.5c2.2,0.2,4.5,0.5,6.7,0.7c4.3,0.4,8.4,0.4,12.7,0
			c2.3-0.2,4.6-0.5,6.8-0.7c4.5-0.4,9.4-0.7,13.6-2.5c6.2-2.7,8.6-8.3,8.6-14.8C581.4,543.2,581.8,533.9,575.9,532.9z"/>
		<path class="st2" d="M577,531.9c-4.4-3.4-11.5-3.2-16.7-3.2c-8.4,0-16.7-0.1-25.1,0.6c-4.2,0.3-10.3-0.5-19,2.2
			c-1.5,0.5-3.1,2.7-3,3.8c0.1,1.2,0.8,1.7,2.1,2.1c5.5,1.5,10.8,3,16.5,3.7c5.7,0.7,11.4,0.8,17.1,0.7c3.1-0.1,6.2-0.2,9.3-0.4
			C560.5,541.1,585,538.1,577,531.9z"/>
		<path class="st3" d="M569.6,534.8c-1.4-3.9-11-2.7-14.2-2.9c-11.4-0.5-22.5-0.3-33.5,2.5c-0.6,0.2-0.7,0.8-0.5,1.2
			c-0.3,0.4,0,1.1,0.5,1.3c7.1,2.5,15.6,2.1,22.9,1.9c8.1-0.2,16.2-1.3,24.2-2.9C569.4,535.7,569.7,535.2,569.6,534.8z"/>
	</g>
	<g>
		<path class="st4" d="M532.3,496.8c0.3,9.1-0.5,18.4,1.7,27.3c1.2,4.9,4.1,10.7,8.5,13.4l0,0h4v-0.1c-0.1-0.4-0.3-0.4-0.2-1
			c0-0.4,0.2-0.9,0.2-1.3c0.3-1.6,0.5-3.1,0.7-4.7c0.5-4.1,0.3-8.3,0.4-12.5c0.2-8.1,0.4-16.1-0.8-24.2
			c-1.9-13.8-5.4-32.1-14.9-42.9c-0.5-0.6-1.3-0.3-1.7,0.2c-2.3,3.3-0.1,11,0.2,14.6C531.4,476,531.9,486.4,532.3,496.8z"/>
		<path class="st5" d="M540.3,504.5c-0.2,7.2-0.9,14.6,0.2,21.8c0.5,3,0.7,7.9,2.4,11.2h1.9c-3.3-5.5-3.1-14.3-3.3-20
			c-0.1-7.2,0.4-14.3-0.1-21.5c-0.8-13-5.2-27.2-9-39.6c-0.1-0.4-0.7-0.2-0.6,0.2C535.4,472.3,540.7,488.1,540.3,504.5z"/>
		<g>
			<path class="st6" d="M548.1,537.5c0.5-1.4,0.8-2.8,1.2-4.1c1.4-4.5,3.1-8.9,4.7-13.3c3.3-9.1,6.8-18.4,7.9-28.1
				c1.1-9.5-0.1-18.4-1.8-27.7c-1.5-8.2-3.8-18.5-8.8-25.3c-0.3-0.4-0.7-0.7-1.2-0.5c-4.4,1.6-3.8,11.2-4,14.9
				c-0.5,10.3-1,20.4-1.9,30.7c-0.9,10.7-1.2,21.4-2.2,32c-0.8,7.8-0.4,14.6,2.3,21.5L548.1,537.5L548.1,537.5z"/>
			<path class="st7" d="M545.2,537.5h1.6c-0.1-1.5-0.4-3-0.6-4.7c-0.7-4.9-1.1-9.7-1-14.7c0.3-9.5,3.1-19.2,5.1-28.5
				c1.7-8,3.4-16.1,3.9-24.3c0.4-5.9,0.6-12.6-2.7-17.8c-0.3-0.5-1.2-0.2-1,0.4c4.8,15.5-0.1,32.4-3.4,47.9
				c-1.6,7.4-3.3,14.8-3.8,22.4c-0.2,3.6,0.1,7.3,0.4,10.9C544.1,531.9,544.9,534.7,545.2,537.5z"/>
		</g>
		<g>
			<path class="st8" d="M595.5,468.7c-1.8-0.5-4.3,0.7-5.9,1.4c-3.6,1.7-7.3,3.2-10.9,4.9c-7.7,3.6-14.6,8.2-20.1,14.7
				c-5.3,6.2-7.7,13.5-9.7,21.2c-2.3,8.8-3.7,17.6-3.2,26.6h4.6c1.5-2,2.8-4.2,4.2-6.1c3.1-4.2,6.5-8.4,10.1-12.2
				c6.4-6.9,13.1-13.5,19.2-20.6C586.6,495.2,605.8,471.3,595.5,468.7z"/>
			<path class="st9" d="M596.5,471.3c-6.4,6-12.7,10.7-20.4,15c-5.6,3.2-11.5,5.8-15.7,10.9c-4.2,5-6.4,12.8-8.4,18.9
				c-2.3,7.1-3.6,14.2-5.4,21.4h1.6c4.9-13.8,5.6-30.1,15.9-41.4c4.6-5,12.2-7.9,18-11.4c5.9-3.5,10.7-7.4,15.1-12.6
				C597.7,471.6,597,470.9,596.5,471.3z"/>
		</g>
		<path class="st8" d="M511.5,470.8c-3.5,2.4-3.5,8.2-2.8,12c1.6,8.2,4.7,16.3,7.6,24.1c2.5,6.7,4.5,14.9,8.9,20.6
			c3.8,4.8,8.5,7.4,14.1,9.3c0.2,0.3,0.7,0.4,1,0.4c0,0,0,0,0.1,0c0.5,0.2,0.8-0.3,0.7-0.7c0,0,0,0,0-0.1
			C544.5,526.9,519.7,465.1,511.5,470.8z"/>
		<path class="st9" d="M541,535c-2.3-4.1-5.7-7.5-8.3-11.4c-2.9-4.3-5-8.9-6.7-13.7c-3.5-9.8-6.8-19.7-11.7-29
			c-0.3-0.6-1.2-0.2-1,0.4c3.4,10.4,8,20.5,11.7,30.9c3.1,8.7,8.5,17,14.8,23.8C540.4,536.6,541.4,535.8,541,535z"/>
	</g>
</g>
<path class="st10" d="M71.3,390.3L58,375.8c0,0-35.2,38.3-18.5,103.2c14.8,57.4,51.1,25.6,39.3-8.6S71.3,390.3,71.3,390.3z"/>
<path class="st11" d="M78.8,470.4c-11.9-34.2-7.5-80.1-7.5-80.1l-20.1-5.1c-6.6,22.1,15.1,65.8,17.9,78.1
	c2.8,12.4,6.3,25.1,1.4,35.4c-4.9,10.4-20.9,3.7-20.9,3.7C66.3,524.4,88.4,498.2,78.8,470.4z"/>
<path class="st11" d="M314.9,401.8l-7.7-18.2c0,0,49.5-16.2,101.6,26c46.1,37.3,2.1,57.1-24.2,32.1
	C358.5,416.9,314.9,401.8,314.9,401.8z"/>
<path class="st10" d="M384.7,441.8c6.7,6,14.2,9.8,21.3,10.7c9.7,1.4,16.1-8.5,6.7-14.7c-3.5-2.3-11.7-7.8-18.1-8.4
	C384,428.3,375.9,434,384.7,441.8z"/>
<path class="st10" d="M150.1,498.9c0,0-6.5,82.7-18.5,88.4c-12,5.7-7.8,9.1,21.2,9.1c28.9,0,34.5-2.8,36-26.8
	c1.4-23.9-7.2-62.5-7.2-62.5L150.1,498.9z"/>
<path class="st10" d="M267.7,587.2c-12-5.7-18.5-88.4-18.5-88.4l-31.3,8.3c0,0-8.7,38.5-7.2,62.5c1.4,23.9,7,26.8,36,26.8
	C275.4,596.4,279.7,592.8,267.7,587.2z"/>
<path class="st11" d="M182.7,563.5c-4.6,24.4-22.9,35-50.4,31.8c4.5,0.6,11.2,1,20.5,1c28.9,0,34.5-2.8,36-26.8
	c1.4-23.9-7.2-62.5-7.2-62.5l-31.3-8.3c0,0,5.1,5,16.1,9.9C177,513.5,187.2,539.2,182.7,563.5z"/>
<path class="st11" d="M250,547.6c2.1,23.7,18.4,49.8-14.1,48.6l0,0c3.2,0.1,6.6,0.2,10.6,0.2c28.9,0,33.2-3.6,21.2-9.1
	c-12-5.7-18.5-88.4-18.5-88.4l-31.3,8.3c0,0,8.6,2.8,15.9,2.8C240.9,510,247.9,523.9,250,547.6z"/>
<path class="st12" d="M343.5,324.5c5.3,6.8,13.1,10.8,13.1,10.8c-2.8-33.2-46.2-70.9-46.2-70.9c14.5,4.9,14.8,0.3,14.8,0.3
	c-42.3-42.7-91.6-40.1-91.6-40.1c5-0.4,8.5-6.7,8.5-6.7c-21-6.9-38.4,3.7-38.4,3.7s-20.8-5.5-28.2-15.9c0,0-6.6,13.1,5.7,19.7
	c0,0-25.4-10.4-58.3,4.7c0,0,9.5,6.6,19.7,6.6c0,0-46.1,0.9-80.9,52.7c0,0,7,2,14.3-2.6c-8.4,8.7-23,27.1-27,53.4
	c0,0,5.6-1.1,9.7-7.4c-5,12.6-13.8,43.3-1.7,84.3c0,0,3.7-0.3,4.5-18.2c0,0,10.1,67.5,48.2,96.4c0,0,4.6-8.5-0.8-21.2
	c0,0,24.9,23.3,27.6,38.9c0,0,5.5-9.5,1.7-19.5c0,0,20.9,15.1,64.7,15.1s68.8-17.2,68.8-17.2c-2.4,8.6,5.3,17.2,5.3,17.2
	c0.7-14.4,20-34.3,20-34.3c-7.4,6.6-0.8,20.5-0.8,20.5c13.8-11.7,23.3-34.5,27.6-46.4c-0.9,8.3,4.2,14,4.2,14
	c18.4-19.7,17.4-67.8,17.4-67.8c1.3,11.9,11.4,21.9,11.4,21.9C365,372,343.5,324.5,343.5,324.5z"/>
<path class="st13" d="M108.8,474.3c0,0,24.9,23.3,27.6,38.9c0,0,5.5-9.5,1.7-19.5c0,0,20.9,15.1,64.7,15.1s68.8-17.2,68.8-17.2
	c-2.4,8.6,5.3,17.2,5.3,17.2c0.7-14.4,20-34.3,20-34.3c-7.4,6.6-0.8,20.5-0.8,20.5c13.8-11.7,23.3-34.5,27.6-46.4
	c-0.9,8.3,4.2,14,4.2,14c18.4-19.7,17.4-67.8,17.4-67.8c1.3,11.9,11.4,21.9,11.4,21.9c8.5-44.4-13.1-92-13.1-92
	c5.3,6.8,13.1,10.8,13.1,10.8c-2.8-33.2-46.2-70.9-46.2-70.9c14.5,4.9,14.8,0.3,14.8,0.3c-42.3-42.7-91.6-40.1-91.6-40.1
	s5-0.5,11.2,6.4s13.7,16.7,29,21.7c15.3,5,53.3,24.5,64.4,56.1c0,0-9-2.7-13.2-8.3c0,0,33.6,67.6,8.7,130.6c0,0-6.1-6.4-4.9-15.2
	c0,0-26,75-115.7,82.6C141.2,505,108.8,474.3,108.8,474.3z"/>
<g>
	<path class="st14" d="M182.4,409.4c0,0,36.5,9.1,55.2-19.1c18.7-28.2,58.2,25.6,7.7,55.2C194.8,475.2,162.9,442.3,182.4,409.4z"/>
	<path class="st15" d="M214.1,456.9c0,0-6.9-52.6,54.2-37C268.2,419.9,260.2,452.1,214.1,456.9z"/>
</g>
<g>
	<ellipse class="st16" cx="146" cy="302.6" rx="40.8" ry="40.8"/>
	<path class="st17" d="M186.8,300.2c-0.1-2.3-0.4-4.5-0.9-6.6c0.1,0.6,0.1,1.3,0.1,1.9c1.3,22.6-16,41.8-38.4,43.2
		c-20.3,1.2-37.9-12.6-42.2-31.8c2.2,21.6,21.1,37.8,42.9,36.5C170.9,342.1,188.1,322.8,186.8,300.2z"/>
	<path class="st18" d="M174.5,309.7c0.5,8.8-6.2,16.4-15,16.9c-8.8,0.5-16.4-6.2-16.9-15s6.2-16.4,15-16.9
		C166.4,294.1,174,300.9,174.5,309.7z"/>
	<path class="st19" d="M167.4,310.1c0.3,4.8-3.5,9-8.3,9.3c-4.8,0.3-9-3.5-9.3-8.3c-0.3-4.8,3.5-9,8.3-9.3
		C163,301.6,167.1,305.2,167.4,310.1z"/>
	<path class="st16" d="M169.5,303.5c0.2,2.7-2,5.1-4.7,5.3c-2.7,0.2-5.1-2-5.3-4.7c-0.2-2.7,2-5.1,4.7-5.3
		C167,298.5,169.4,300.6,169.5,303.5z"/>
	<path class="st16" d="M300.1,300.2c1.3,22.6-16,41.8-38.4,43.2c-22.6,1.3-41.8-16-43.2-38.4c-1.3-22.6,16-41.8,38.4-43.2
		C279.5,260.5,298.9,277.7,300.1,300.2z"/>
	<path class="st17" d="M300.1,300.2c-0.1-2.3-0.4-4.5-0.9-6.6c0.1,0.6,0.1,1.3,0.1,1.9c1.3,22.6-16,41.8-38.4,43.2
		c-20.3,1.2-37.9-12.6-42.2-31.8c2.2,21.6,21.1,37.8,42.9,36.5C284.3,342.1,301.5,322.8,300.1,300.2z"/>
	<path class="st18" d="M287.9,309.7c0.5,8.8-6.2,16.4-15,16.9s-16.4-6.2-16.9-15c-0.5-8.8,6.2-16.4,15-16.9
		C279.8,294.1,287.4,300.9,287.9,309.7z"/>
	<path class="st19" d="M280.7,310.1c0.3,4.8-3.5,9-8.3,9.3c-4.8,0.3-9-3.5-9.3-8.3c-0.3-4.8,3.5-9,8.3-9.3
		C276.3,301.6,280.5,305.2,280.7,310.1z"/>
	<path class="st16" d="M282.9,303.5c0.2,2.7-2,5.1-4.7,5.3c-2.7,0.2-5.1-2-5.3-4.7c-0.2-2.7,2-5.1,4.7-5.3
		C280.3,298.5,282.7,300.6,282.9,303.5z"/>
</g>
<g>
	<g>
		<path class="st20" d="M417.7,414.5c-23.2-8.4-65.1,21.3-27.8,89.6l6.3-12.7c0,0-13.3-30.5-7-49.6c5.5-16.7,18.1-24.2,31.1-10.7
			c13,13.5,9.1,42,9.1,42l12,1.4C441.4,474.6,446.7,424.9,417.7,414.5z"/>
		<path class="st20" d="M420.2,447.9l-58.2,80.4c0,0,34.4,49,89.7,44.2l26.1-96.4L420.2,447.9z"/>
		<path class="st21" d="M477.4,476c-0.6,1.5-3.4,1.9-7.2,1.4c-6.1-0.7-15.2-3.6-25-8s-18-9.5-22.5-13.4c-2.9-2.6-4.4-4.9-3.8-6.4
			c1.7-3.7,16.1-0.7,32.2,6.6C467.3,463.4,478.9,472.3,477.4,476z"/>
		<path class="st20" d="M522.4,490.9c-12.4,2-59.4,13.4-59.4,13.4l-7.9,41.5L534,499C531.2,496.3,525.4,493.2,522.4,490.9z"/>
		<path class="st22" d="M534.9,498c-0.6,1.5-4.2,1.4-7.9-0.3c-3.7-1.7-6.1-4.2-5.4-5.7c0.6-1.5,4.2-1.4,7.9,0.3
			C533.1,493.9,535.5,496.6,534.9,498z"/>
		<path class="st22" d="M470,477.3c-6.1-0.7-15.2-3.6-25-8s-18-9.5-22.5-13.4c2.7-3,14.2-1.2,26.6,4.4
			C461.6,465.9,470.5,473.3,470,477.3z"/>
	</g>
</g>
<path class="st10" d="M428.8,445.3c0.4-0.2,1.1-0.1,1.5-0.2c3.7-0.4,5.8-4.4,4.1-8.1l0,0c-6.8-15.4-24.9-21.7-38.1-13.2
	C380.6,434.2,388.8,467.4,428.8,445.3z"/>
<g>
	<path class="st22" d="M543.4,511c-0.4-1.2-0.5-2.4-0.8-3.6c-0.1-0.3-0.3-0.4-0.6-0.3c-0.3,0-0.6,0.1-0.6,0.5c0,1.9-0.6,3.9-0.5,5.8
		c0,0.8,0.2,2.1,1.3,2.3c1.3,0.3,1.8-1.5,1.8-2.3C543.9,512.5,543.6,511.7,543.4,511z"/>
	<path class="st22" d="M553.5,522.8c-0.3-1.9-1.5-3.4-2.9-4.7l0,0l0,0c0-0.1-0.1-0.1-0.1-0.2c-0.5-0.5-1.2,0.2-0.7,0.6
		c0.1,0.1,0.1,0.1,0.2,0.2c1,1.1-0.2,7.3,2.6,6.6C553.7,525,553.6,523.7,553.5,522.8z"/>
	<path class="st22" d="M543.7,523.6c0-0.1,0.1-0.2,0.1-0.3c0.1-0.4-0.3-0.6-0.6-0.6c-0.3,0-0.5,0.1-0.5,0.5c0,0.1,0,0.2,0.1,0.3
		c-0.5,1.7-1.2,3.2-1.7,4.9c-0.2,0.8-0.2,2,1.1,2C545.6,530.3,544.1,525.6,543.7,523.6z"/>
	<path class="st22" d="M536.3,508.4L536.3,508.4c0-0.6-0.9-0.7-1-0.2c-0.2,1.3-4.9,7.6-0.6,7.4C537.4,515.5,536.7,509.9,536.3,508.4
		z"/>
	<path class="st22" d="M538,525.8c-0.2-0.5-0.5-0.7-0.8-1.1c-0.5-0.6-0.7-1.6-0.7-2.4c0-0.6-1-0.6-1,0c0,0.1,0,0.1,0,0.2v0.1
		c0,1.2-0.2,2.4-0.2,3.6c0,0.8-0.1,2.4,0.8,3c1,0.6,2.1-0.4,2.3-1.3C538.6,527.1,538.3,526.4,538,525.8z"/>
</g>
</svg>
