<?xml version="1.0" encoding="utf-8"?>
<!-- Generator: Adobe Illustrator 22.0.0, SVG Export Plug-In . SVG Version: 6.00 Build 0)  -->
<svg version="1.1" id="Layer_1" xmlns="http://www.w3.org/2000/svg" xmlns:xlink="http://www.w3.org/1999/xlink" x="0px" y="0px"
	 viewBox="0 0 600 600" style="enable-background:new 0 0 600 600;" xml:space="preserve">
<style type="text/css">
	.st0{fill:#FDC62E;}
	.st1{fill:#582D7A;}
	.st2{fill:#4C296B;}
	.st3{fill:#753B95;}
	.st4{fill:#663386;}
	.st5{fill:#FFFFFF;}
	.st6{fill:#E7E7E7;}
	.st7{fill:#66C1C6;}
	.st8{fill:#266363;}
	.st9{fill:#501627;}
	.st10{fill:#F56A82;}
	.st11{fill:url(#SVGID_1_);}
	.st12{opacity:0.82;fill:url(#SVGID_2_);enable-background:new    ;}
	.st13{fill:url(#SVGID_3_);}
	.st14{fill:url(#SVGID_4_);}
	.st15{fill:url(#SVGID_5_);}
	.st16{fill:url(#SVGID_6_);}
	.st17{fill:url(#SVGID_7_);}
	.st18{fill:url(#SVGID_8_);}
	.st19{fill:url(#SVGID_9_);}
	.st20{fill:url(#SVGID_10_);}
</style>
<g>
	<g>
		<g>
			<path class="st0" d="M402.7,134.3c0.3,0.2,0.7,0.3,1.1,0.6c-0.8,0.2-1.9,0.1-3-0.2c5,2.5,15,2.7,24.1,1
				c9.1-1.7,17.4-5.1,22.6-8.7c4.4-1.4,7.1-3.6,6.5-5s-3.6-1.3-7.5,0c-0.9,0.1-2.1,0.3-2.7,0.3c-6.7-0.1-14.9,0.2-23.4,0.1
				c1.6,0.2,3.4,0.3,5.1,0.6c-2.5,0-4.9,0-7.5,0.2l1,0.7c-4.2-0.5-8.7-0.7-12-0.6c-3.3,0.1-5,0.5-5.5,1.7c-0.9,1.1-2.1,2.4-2.6,3.8
				c-0.2,0.7-0.3,1.5-0.2,2.2c0.2,0.7,0.5,1.4,1.7,2.1C400.9,133.5,401.8,133.9,402.7,134.3z"/>
			<path class="st0" d="M419.5,142.1c-6.3-0.3-12-1.4-16.5-2.7c-0.3-0.2-0.6-0.3-0.8-0.6v2.2l0.1-0.1c4.7-1.3,13-1.9,21-3.4l2.8-0.7
				c1.4-0.5,2.2-1,2.3-1.5c0.5-1.1-2.3-1.6-5.9-1.4c-1.4,0.1-2.7,0.1-4.1,0.2l-15.4-0.6c-2.2,0-3.9-0.1-4.9,0.1
				c-1.1,0.2-2.3,0.6-3.4,1c-1,0.5-1.1,1.6-1.5,2.5c-1,1.1,0.3,3.2,3.9,4c3.8,0.8,8.3,0,8.7-1.4c0.8,0.1,1.6,0.2,2.4,0.3l-1.9,0.5
				c1.4-1.1,5.9-1.4,9.3-2.2c1.7-0.2,3.5-0.5,5.2-0.7c-1.1-1-2.3-1.9-3.3-3l-2.5,0.6c0.2,0.1,0.6,0.3,0.6,0.3
				c-4.9,1.1-9.6,1.9-14,2.1c-1.8,0.2-3.6,0.2-5,0.3c-1.3,0.3-1.6,1.3-0.6,2.1c0.5,0.3,1.1,0.8,1.9,1.1c-0.3-0.2-0.7-0.3-0.9-0.6
				c4.9,1.8,13,2.5,20.7,2.7c1.3,0.1,2.7-0.2,3.3-0.6C421.3,142.5,420.7,142.1,419.5,142.1z"/>
			<g>
				<path class="st0" d="M395.2,141.6c-0.7-0.5-1.3-0.8-2.3-1.1l-0.6,0.1c0.3,0.2,0.7,0.7,1.1,1C394.4,142.2,395.2,142,395.2,141.6z
					"/>
				<polygon class="st0" points="392.3,140.5 391.9,140.1 392.1,140.5 392.2,140.5 				"/>
				<path class="st0" d="M241.5,173.6c-8.2-1.4-16.9-2.8-26.8-5.7c-5-1.5-10.4-3.3-16.4-6.2c-3.1-1.5-6.3-3.3-9.5-5.7
					c-3.2-2.4-6.5-5.4-9.1-9c-2.7-3.5-4.8-7.8-5.8-11.7c-0.6-2.1-0.9-4-1-5.9v-0.7v-1.1V127c0-1,0.1-2.6,0.2-3.4
					c0.5-4,1.7-8,3.5-11.6s4.3-6.8,6.7-9.3c2.4-2.6,4.8-4.6,6.8-6.2c1.9-1.5,3.8-2.7,4.1-3c0,0,0-0.1,0.1,0.1l3.9,3l3.2,2.4l2.7,1.9
					c0.8,0.6,1.6,1,2.3,1.6c0.6,0.5,1.3,0.8,1.8,1.3l1.7,1l1.5,0.8c3.5,2.1,5.4,2.1,5.2,1.9c-0.2-0.1-2.2,0.8-4.3,3.1
					c-2.2,2.3-4.9,5.8-7.6,10.4c-0.8,1.3-1.5,2.5-2.2,3.8l-1,1.8c0,0-0.1,0.1-0.2,0.2c0,0.1-0.1,0.2,0,0.2c-0.7,1.1,1.6-2.7,2.7-4.8
					c2.8-4.8,5.5-8.5,7.9-11.1c2.3-2.5,4.3-3.6,4.8-3.6c0.6,0-1.1,0.2-4.2-1.5c-1.6-0.8-3.8-2.1-6.6-4c-0.8-0.6-1.6-1-2.3-1.6
					l-3-2.1c-1.5-1.1-5.5-4.1-7-5.2c-0.1,0.1-1.8,1.3-3.8,2.8c-2.1,1.6-4.4,3.5-6.8,6.2c-2.4,2.5-4.9,5.7-6.8,9.3
					c-1.9,3.6-3.3,7.8-3.8,11.7l-0.1,1.5l-0.1,1.9v1v0.2v1.3c0.1,1.9,0.3,4,0.9,5.9c1,4.1,3,8.3,5.6,12.1
					c5.5,7.5,12.8,12.2,18.8,15.3c6.2,3.1,11.6,4.9,16.6,6.4c10,2.8,18.7,4.4,27,5.8c1.1,0.1,2.1,0.1,2.3,0
					C243.2,174,242.5,173.7,241.5,173.6z"/>
				<path class="st0" d="M84.8,128.1c0.7-0.2,0.7-0.5-0.1-0.5c-0.7-0.1-1.8,0-2.5,0.2c-0.6,0.2-0.6,0.5,0.1,0.5
					C83.1,128.5,84.2,128.3,84.8,128.1z"/>
				<path class="st0" d="M88.8,111.8c4-0.7,7.8-1.5,11.1-2.5c0.6-0.1,1.4-0.2,1.9-0.2c-0.3-0.3,0.5-0.7,1.8-1
					c12.3-2.8,25.1-5.9,38.6-8.9c2.6-0.7,6.5-1.8,10.4-3.1l12.4-3.9c8.8-2.6,17.9-5.4,29.6-7c0.2-0.2,0.8-0.6,1.7-0.9
					c3-0.9,9.5-2.1,18.7-0.2l1.7,0.5l2.2,0.6c0.5,0.1,0.5,0.1,0.7,0.2l0.3,0.1l1.3,0.5c1.3,0.5,2.5,0.8,4.1,1.5
					c1.6,0.7,3.3,1.4,5.8,2.8c1.3,0.8,2.6,1.6,4.4,3.2c1.7,1.5,3.8,3.6,5.2,7c1.5,3.2,1.8,7.4,1,10.5c-0.7,3.1-2.1,5.2-3.1,6.7
					c-2.2,2.8-3.8,4.1-4.9,5.1c-1.1,0.9-2.1,1.6-2.8,2.2l-3.1,2.2c-0.7,0.5-1,0.8-1.3,0.9c0.7,0.5-2.4-1-3-1c-0.8-0.2-0.9-0.1,0-0.1
					c0.2,0.1,0.5-0.1,0.8-0.3c0.1-0.1,0.3,0.2,0.6,0.3l0.2,0.2l0,0l0,0c0.3-0.7,0.1-0.2,0.1-0.3l0,0h-0.1h-0.1c-0.5,0-0.9,0-1.4,0.1
					c-0.3,0-0.7,0.1-1,0.1c-1.8,0.2-1.4,0.8,1.9-1.5c0.7-0.5,1.8-1.4,1.6-1.1c0,0,0.2,0,0.3,0c0.3,0,0.8,0.1,1.4,0.2
					c1.1,0.2,3,0.6,4.9,0.9c4,0.7,9,1.3,14.4,1.7c-0.6-0.3-0.9-0.7-0.8-0.9c0.3-0.7,2.8-0.8,5.8-0.3l4,0.5l-5.8-1
					c-2.1-0.3-4.1-0.8-5.9-1.3c-0.6-0.1-1-0.2-1.5-0.3c-4.1-0.8-7.9-1.7-10.4-2.4c-1.3-0.5-2.2-0.8-2.3-0.8c0.2-0.2-0.7,0.7-0.9,1
					c-0.5,0.5-0.9,0.9-1.4,1.3c-0.5,0.5-0.8,0.7-1.1,1.1l-1.1,0.9c-1.5,1.1-2.6,1.8-3.3,2.2c-0.7,0.3-1,0.3-0.6,0.2
					c0.3-0.1,1.3-0.2,2.8-0.3h0.6h0.1l0,0c-0.3,0.7-0.1,0.2-0.2,0.3l-0.1-0.1L225,127c-0.1-0.1-0.3-0.3-0.5-0.3l-0.3,0.2
					c-0.5,0.2-0.8,0-0.9,0c-0.3,0-0.1,0,0.8,0.2c0.8,0.2,2.3,0.8,4.4,1.9l1.8,1l1,0.6c0.1,0.1,0,0,0.1,0c0,0,0-0.1,0.1-0.2
					c0.2-0.2,0.6-0.7,1.3-1.3l3.3-2.8c0.8-0.7,1.9-1.6,3.3-3.1c0.8-0.8,1.5-1.6,2.5-3c0.9-1.1,2.1-2.8,3-5.1
					c0.9-2.2,1.7-5.4,1.5-8.8c-0.2-3.4-1.6-7-3.3-9.5c-3.5-5.1-7-7.1-9.2-8.4c-4.7-2.6-7.2-3.3-9.7-4.1c-1.1-0.3-2.2-0.7-3.3-0.9
					c0.1,0-3.3-0.8-4.4-1c-6.2-1.1-11.2-1.1-15.6-0.9c-4.4,0.2-8.3,0.8-11.9,1.4c-7.2,1.3-13.2,3-18.9,4.7
					c-5.7,1.7-10.9,3.5-15.8,5.2c-4.8,1.7-9.7,3.3-12.7,4.2l-1,0.2c-0.7,0.2-1.8,0.3-2.5,0.3c-0.5-0.1-0.5-0.3,0.3-0.6l3-0.9
					l6.6-2.8l8.2-3.6c5.7-2.5,11.7-5.1,18.9-7.6c3.5-1.3,7.4-2.4,11.7-3.5c4.3-1,9.2-2.1,15.5-2.5c3.1-0.2,6.5-0.2,10.5,0
					c1.9,0.1,4.1,0.3,6.4,0.8c0.8,0.1,3.3,0.7,4,0.8l0.7,0.1l1.3,0.3c1.5,0.3,3.1,0.8,5.2,1.5c2.2,0.8,4.4,1.6,8.3,3.8
					c1.8,1,4.2,2.6,7,5.1c0.8,0.7,1.4,1.4,2.2,2.2c0.8,0.9,1.5,1.8,2.2,2.7c0.7,1.1,1.4,2.2,1.9,3.4c0.6,1.3,1.1,2.6,1.5,4
					c0.8,2.7,1.1,5.8,0.9,8.4c-0.1,1.4-0.3,2.7-0.6,3.8c-0.1,0.6-0.3,1.1-0.5,1.7l-0.6,1.5c-1.6,4-3.4,6.4-4.8,8.1
					c-1.8,2.2-3.1,3.4-4.1,4.3l-2.5,2.3c-1.3,1.1-2.1,1.8-2.5,2.3c-0.5,0.5-0.7,0.8-0.8,0.9v0.1l0,0l-0.7-0.5l-1.4-0.9l-2.4-1.5
					l-1.9-1.3c-2.4-1.4-4.1-2.3-5.4-2.7c-1.3-0.6-2.1-0.8-2.5-0.9c-0.5-0.1-0.5-0.1-0.1-0.1c0.2,0,0.5,0.1,0.8,0l0.3-0.1l0.1-0.1
					c0,0,0.1,0.1,0.2,0.1l0.3,0.3l0.2,0.1l0,0c0.3-0.7,0.1-0.2,0.1-0.3l0,0h-0.1c-2.7,0.1-3.9,0.6-3.5,0.5c0.5-0.1,2.2-0.9,4.6-2.8
					c2.5-2.1,5.6-5.2,8.9-9.7c0.3-0.6,0.9-1.4,0.8-1.1h0.1c0,0,0.1,0,0.2,0c0.2,0,0.6,0,1,0.1c1.7,0.2,4.6,0.7,8,1
					c3.3,0.3,7.2,0.7,11.3,0.9c0.5,0,1.1,0.1,1.4,0.1c0.1,0,0.2,0,0.3,0c0.2,0,0.5-0.1,0.6-0.1c0.5-0.1,0.7-0.2,1.1-0.3
					c1.3-0.3,3.3-0.8,5.8-1.6c5.5-1.1,12.7-3.6,20.2-6.7c7.6-3.1,15.8-6.7,25-10.7c4.6-1.9,9.3-4,14.7-6c5.6-2.2,10.4-3.9,15.6-5.6
					c10.3-3.4,20.5-6.6,31.2-9.5c14.6-3.9,29.2-7.2,44.5-9.7c7.6-1.3,15.5-2.3,23.8-3.1c8.3-0.8,16.9-1.3,26.6-1.1
					c9.7,0.2,20.3,0.8,34.1,4.2c6.8,1.8,14.8,4.6,23.3,9.6c4.2,2.5,8.4,5.7,12.3,9.5c3.9,3.8,7.2,8.1,9.6,12.7
					c2.4,4.4,4,9.1,4.8,13.3c0.8,4.2,1,8.2,0.8,11.7c-0.2,3.5-0.8,6.7-1.5,9.7c-0.3,1.5-0.7,2.7-1.3,4.2l-0.8,2.3l-0.6,1.5
					c-2.6,6.8-6.5,12.8-10.7,17.8c-4.2,5-8.8,9-13.3,12.5c-6.7,5.4-13.6,9-19.8,11.9c-6.3,2.8-12.2,4.7-17.2,5.9
					c-10.3,2.5-17.6,2.5-20.1,1c-2.8-1.9,1.8-5.5,10.7-10.3c-1.9,0.7-3.9,1.3-5.8,1.8c-3.2,0.8-6.3,1.5-9.3,2.2
					c-8.9,1.8-16.8,2.2-21.8,1.5c-2.3-0.2-4.6-0.5-6.8-0.8c-4.7-1.1-10.4-2.1-16-3.3c-5.5-1.3-10.7-2.8-14-4.7l1.6-1.3l-1.6-0.5
					c-5.2-1.1-8.5-2.8-9.5-4.3l0.8-1.5c1.4-1.6,4.1-3.1,8-4.4c-0.1-0.7,0.5-1.3,1.4-1.8c-3.1-1.7-4.1-3.5-1.6-5.2
					c-1.7-0.6-1.3-1.3,0.8-1.5c0.7-0.1,1.6-0.1,2.4-0.1l0,0c-0.9-0.5-1.1-0.6-2.4-1.1c-1.6-0.2-2.5-0.5-2.5-0.5
					c-4.2-0.7-4.2-0.7-7.5-1.6c-2.6-1.1-3.8-2.3-3.8-2.3c-1.5-3.4-1.1-3.4-0.2-4.4c0.2-0.1,0.5-0.1,0.6-0.1c-1.6-1-1.7-1.1-2.1-1.5
					c-0.3-0.5-0.5-0.8-0.5-0.8c0.3-0.6,0.3-0.6,0.2-0.9c0.1-0.2,0.2-0.5,0.2-0.5c1.3-0.1,1.3-0.2,1.5-0.3c0.3-0.1,0.7-0.1,0.7-0.1
					c1.1,0.2,1.6,0.3,1.7,0.3c1.4,2.3,1.6,2.3,1.5,2.3l0.8-0.5l0.2,0.9l-0.1-0.8c1,0.7,1.1,0.7,1.1,0.7c-1.3-0.9-1.1-0.9-1.3-0.9
					c2.8,0.9,3.1,0.9,4.4,1c1.5,0.2,3,0.2,3.1,0.2c-0.1-0.2-0.1-0.3-0.1-0.3c4.2,0.6,4.3,0.6,8.8,0.9c0.5,0.1,0.8,0.3,1.1,0.5
					c0.5-0.2,1.4-0.3,2.3-0.3h2.5l0.6-0.1l0,0l2.1-0.5l0.5-0.1l0,0c1.4-0.3,3.5-0.8,8.9-2.5l4.2-0.3c-0.5,0-0.9,0-1.3-0.1
					c-0.8-0.1-0.3-0.8-0.7-0.8c-5.2,0.2-10.7,0.3-16,0.2c-5.2-0.1-10.3-0.6-14.2-1.5c-1.5-0.1-2.5-0.7-2.5-1.3
					c0-0.6,0.9-0.8,2.3-0.7c7.8-0.6,19.7-1.8,31.2-3.9c11.5-2.1,23.1-5,30.9-7.9c3.9-1.7,6.5-3.6,7.3-4.2h-0.5
					c0.3-0.1,0.6-0.1,0.8-0.1l0.3,0.1l-0.6-0.2c-0.1,0-0.2-0.1-0.3-0.1c-0.2-0.1-0.5-0.1-0.7-0.2c-0.1,0-0.3,0-0.6,0.1
					c-1,0.9-4.7,3-9.5,4.4c-4.8,1.6-10.5,2.8-16.5,4c-6.6,1.1-12.7,1.3-18.9,1.1c-1.6,0.1-2.7-0.1-2.6-0.7c0.1-0.5,1.5-0.9,3-1
					c9.9-1.7,20.9-4.6,28.6-7.3c4-1.4,7-2.7,8.8-3.3c0.5-0.1,0.8-0.2,1.1-0.2c0.2,0,0.2,0,0.5,0c0.2,0.1-0.2-0.1,1.1,0.6
					c1.7,0.9,3.4,1.6,4.7,2.1c0.8,0.2,1.3,0.5,1.8,0.7l0.8,0.2l0.3,0.1h0.2h0.1l0,0l0,0l0,0c-16.1-3.1-4.4-0.8-8-1.5
					c0.1-0.3,0.5-1.3,0.3-0.9c0,0.1,0,0,0.1,0l0.1-0.1c-0.3,0,0.9,0.1,1.5,0.1c0.7,0.1,1.4,0.1,2.1,0.2c5.2,0.5,9.1,0.3,11.5,0.1
					h0.2c-1.3,0.1-2.7,0.2-4.4,0.2c3.2,0,4.9-0.3,6.3-0.5c1.3-0.2,2.2-0.5,2.3-0.6l-0.3,0.1c0.8-0.2,0.2-0.2-1.3,0.9
					c-1.5,1.1-3.5,3.3-5.7,6.6c-0.6,0.8-1,1.7-1.6,2.7l-0.8,1.5l-0.3,0.7l0,0c0,0-0.2-0.1-0.5-0.2c-0.6-0.1-1.5-0.3-2.6-0.6
					c-4.9-0.8-12.7-1.1-20.1-1.5h-1.7c-6.3,1.5-12.9,3.1-20.7,4.6c2.7-0.3,5.4-0.6,8.1-0.8c-5.6,1.4-11.3,2.6-17.4,3.8
					c-17,3-36.6,6-46.8,5.5c-4,1.3-8,2.5-11.7,3.9c-3.5,1.3-7.3,2.6-11.2,4.2l-25,10.3c-8.9,3.5-18.5,7.3-29.5,10.5
					c-11.1,3.1-23.8,6-40.2,5.6c-3.2-0.1-6-0.7-6.5-1.1c-0.2-0.5,1.8-0.5,5-0.3c2.7,0.1,5.5,0,8.2-0.1c2.7-0.1,5.5-0.3,7.9-0.7
					c5-0.6,9.6-1.5,13.9-2.5c8.7-2.1,16.3-4.6,23.4-7.1c14.1-5.2,26.3-10.8,37.8-15.7c-9.9,3.5-20.5,7.6-32.1,11.5
					c-11.7,3.9-24.4,7.9-40.5,9.8c-2.1,0.2-4.2,0.5-6.4,0.7c-2.3,0.1-4.6,0.2-6.8,0.2c-2.3,0-4.6-0.1-6.7-0.3
					c-2.2-0.2-4.8-0.6-6-0.9c-8-1-16.2-2.3-25.2-4.4c-4.4-1.1-9.2-2.5-14.5-4.6c-5.1-2.1-11.1-5-16.6-9.9c-2.7-2.5-5.4-5.6-7.3-8.9
					c-1.9-3.4-3.2-7.1-3.6-10.5l-0.2-2.5v-1v-1.3c0-1.3,0.1-1.9,0.2-2.8c0.1-0.9,0.2-1.7,0.5-2.6c0.8-3.5,2.3-7.1,4.1-10
					c3.8-6,8.9-10.1,12.1-12.8l1.9-1.6c0.2-0.2,0.3-0.3,0.5-0.3l0,0l3.4,2.5l3,2.2c0.8,0.6,1.5,1.1,2.3,1.6
					c5.8,3.9,8.7,5.1,10.1,5.5c1.6,0.2,0.7-0.3-1.1,1c-1.6,1.1-3.5,3.1-5.7,6c-0.6,0.8-1.1,1.6-1.7,2.4c-0.6,0.8-1.3,1.7-1.7,2.6
					l-1.8,3l-0.9,1.6c-0.1,0.1,0,0-0.1,0.1c0,0-0.3-0.1-0.7-0.1l0,0c7.1-14.7,1.9-4.1,3.5-7.3l0,0h-0.1l-0.2,0.1l-0.5,0.2
					c-0.1,0.1-0.3,0.1-0.3,0.2v0.3c0,0.2,0,0.5,0,0.8l-0.2,0.8c-0.3,1-0.7,2.3-0.9,3.6c-0.3,1.9-0.2,1.4-0.3,1.5
					c-0.2,0-0.7,0.1-1.3,0.2c-2.5,0.3-7,1.3-11.6,2.5c-4.8,1.3-9.9,2.8-15.6,4.7l-9.2,2.8c-3.4,1-7,2.1-11.9,3.1l-1.4,0.2
					c-17,3.6-34.7,7.5-53,10.3c-18.4,2.7-37.2,4.2-56.3,4.4c-5.1,0.2-9.9-0.6-10.5-1.6c-0.6-1,3.1-1.8,8.2-2.1
					c18.9-0.8,38.1-2.6,56.9-5.5c18.8-2.7,36.7-6.6,53.7-10c7.3-1.4,12.1-3,17.1-4.3l13.6-4c4.3-1.3,8.4-2.3,12.2-3.1
					c3.8-0.8,7.2-1.3,9-1.3h0.9h0.1l0,0l0,0l0.1-0.3l0.5-1.4c0.1-0.5,0.3-0.8,0.2-1.3c0-0.2,0-0.5,0-0.6l0.7-0.3l0.3-0.2l0.1-0.1
					c1.8-3.6-2.4,4.9-1.9,4.1l0,0l0,0l0.2,0.1l0.7,0.2h0.1l0,0c0,0-0.1,0.1,0.2-0.5c0.9-1.5,1.8-3,2.7-4.1c1.8-2.6,3.3-4.6,4.9-6
					c1.5-1.5,2.7-2.4,3.5-2.6c0.8-0.3,0.8-0.1-0.1-0.2c-1.9-0.3-6.2-2.3-16.1-9.6c-0.1,0.1-0.8,0.7-1.7,1.4
					c-0.9,0.8-2.2,1.7-3.4,2.7c-2.6,2.2-5.6,5-8.1,8.7c-2.5,3.6-4.4,8.1-5,12.7l-0.1,1.7c0,0.7-0.1,1.4-0.1,2.1v1.3l0.1,1.6
					c0.2,2.2,0.8,4.4,1.7,6.7c1.7,4.6,5,8.9,8.7,12.1c6,5.2,12.3,8.1,17.7,10.1c5.5,2.1,10.5,3.3,15.3,4.4c-0.1-0.1-0.1-0.3-0.1-0.5
					c0.2-0.6,1.3-0.8,2.8-0.9c-5.2-1.1-10.8-2.6-16.8-4.8c-5.8-2.3-12.8-5.5-18.7-11.6c-4.3-4.1-7.5-10-8.2-15.4l-0.1-1l-0.1-0.5
					v-0.2v-0.1V128v-0.5v-0.3v-0.7c0-0.9,0-1.6,0.1-2.3c0.1-0.7,0.1-1.4,0.2-2.1c0.5-2.7,1.5-5.6,2.7-8.1c2.6-5,6.6-8.9,9.7-11.5
					l3.9-3.2l0.5-0.5c0.1-0.1,0.1-0.1,0.1-0.1l0,0l0,0l0.6,0.5l2.5,1.7c3,2.1,5,3.4,6.8,4.4c1.6,0.9,3,1.6,4,1.9
					c2.1,0.8,2.5,0.2,1.5,0.6c-1,0.3-2.8,1.8-5,4.2c-1,1.3-2.2,2.6-3.3,4.3l-1.8,2.7l-0.8,1.3l0,0l-0.8-0.2h-0.1h-0.1l0,0
					c-1.5,3,1.9-4,1.6-3.3l0,0l0,0l-0.9,0.5c-0.6,0.3,0,1-0.3,1.6l-0.2,0.8c-0.1,0.5-0.1,0.3-0.1,0.3s0,0-0.1,0c-0.2,0-0.8,0-1.5,0
					c-3.1,0-8.7,0.8-14.5,1.9c-5.6,1.1-11.4,2.4-17.4,3.8c-3.1,0.7-6.2,1.4-9.5,2.1c-3.3,0.7-6.8,1.3-11.2,1.8l-16.8,1.7
					c-22.3,4.3-46.1,8.2-70.1,9.7c-0.9,0.1-1.9,0-2.3-0.1c-0.3-0.2,0.1-0.3,1.1-0.5c16.4-1.9,33.2-4.4,49.6-7.5
					c-2.7-0.2-4.4-0.8-4.4-1.7s1.8-1.9,4.8-3c-3.8,0.5-7.4,1-11.2,1.4c-2.3,0.2-4.2,0.1-4.2-0.3c0-0.5,1.7-1,4-1.3
					c15.3-1.8,30.2-4.2,44.8-6.6l2.5-0.5c5-0.9,9.1-2.2,13.3-3.3l12.1-3.5c7.9-2.3,15.8-4.3,23.4-5.5c-2.3-0.3-4.2-0.8-5.2-1.5l0,0
					c-2.6,0.5-5.2,1-7.8,1.6c-5.8,1.6-11.5,3.4-17.4,5.4c-5.9,1.8-11.7,3.8-18.7,5.2c-18.8,3.8-38.1,7.8-58.1,10
					c-19.9,2.3-40.4,3.2-60.5,2.7c-1,0-1.9-0.2-1.9-0.3c0-0.2,0.8-0.3,1.7-0.3c16.2,0.3,32.4-0.1,48.4-1.5h-0.1
					c-0.7-0.1-0.8-0.3-0.1-0.5c0.6-0.2,1.8-0.2,2.5-0.2c0.8,0.1,0.7,0.3,0.1,0.5c23.4-2.1,45.9-6.5,67.7-10.9
					c7-1.5,12.9-3.4,18.9-5.4c-6.2,1.7-12.1,3.4-19,4.7c-19.8,3.3-40.1,6.8-60.8,8.4c-2.8,0.6-5.8,1-8.8,1.5
					c-0.8,0.1-1.9,0.1-2.3-0.1c-0.2-0.1,0.3-0.5,1.1-0.6l2.5-0.3c-5.1,0.3-9.1-0.3-9.2-1.4c0.2-1.1,4.4-2.2,9.7-2.6
					c14-1.4,27.9-3.3,41.6-5.5l4.4-0.9l4.3-1.3c-21.5,3.2-43.1,5.5-64.6,5.9c-1.8,0.1-3.4-0.1-3.5-0.5c-0.1-0.3,1.4-0.8,3.2-0.9
					c13.3-1.3,26.4-3,39.7-5.2c13.1-2.2,26.3-4.9,39.8-7.3c4.6-0.9,9.9-2.5,15.2-4c5.4-1.6,10.7-3.2,16.4-4.6
					c6.2-2.3,12.4-4.6,20.1-6c3.8-0.8,8-1.4,12.9-1.3c2.5,0.1,5,0.2,8,0.9c1.9,0.3,4.1,0.8,7,1.7c-2.7-1.1-4.9-1.8-6.7-2.4
					c-5.5-1.5-9.9-1.7-14-1.7c-4.1,0-7.8,0.5-11.2,0.9c-6.8,1-12.8,2.6-18.4,4.2c-5.6,1.6-10.8,3.4-15.8,5.1
					c-5,1.7-9.9,3.4-13.9,4.4c-16.3,3.8-32.1,7.8-49.2,10.1c-1,0.1-1.8,0.1-2.1-0.1c-0.1-0.2,0.5-0.5,1.5-0.6
					c17.2-2.5,32.6-6.6,49.5-10.5c1.5-0.3,3.2-0.9,4.9-1.4c7-2.2,14.5-4.8,22.1-7.2c7.8-2.4,15.7-4.8,25.4-6.4
					c-11.6,1.3-20.7,3.9-29.5,6.4l-12.5,3.9c-4,1.3-7.9,2.4-10.8,3.1c-12.5,2.6-24.6,5.2-36.9,7.4c-1.3,0.2-2.6,0.3-3.4,0.2
					c0,0.1-0.3,0.2-0.7,0.3c-3.6,1-7.5,1.8-11.6,2.6c-0.8,0.2-1.8,0.2-2.3,0C87.4,112.3,87.9,112,88.8,111.8z M468.7,137.2l-0.7,0.1
					c0.7-0.2,1.4-0.3,2.2-0.6c0,0,0,0,3.6-0.1C473.8,136.5,471.3,137,468.7,137.2z M431.1,154.1L431.1,154.1l-2.2-0.6L431.1,154.1z
					 M322.8,154.1c7.6-3,14.9-5.9,22-8.4c3.5-1.3,7-2.4,10.3-3.4c3.2-0.9,6.8-1.8,10.4-2.7c-3.3,1.1-6.7,2.3-9.7,3.4
					C345.8,146.1,334.8,150.1,322.8,154.1z M441.3,140.3c3.8,0,6.8,0.1,9.8,0.3c2.2-0.8,4.4-1.7,6.7-2.5c6-2.2,11.6-4.6,16-7.1
					c-1,0,0.1-0.7,0.5-1c0.5-0.3,0.8-0.8,1.3-1.1c-4.1,2.6-9.7,5.1-16,7.1C454,137.8,447.4,139.5,441.3,140.3z M395.9,145.1
					l-0.3-0.2l1.3-0.6L395.9,145.1z M393.9,146.2c0.2,0.1,0.5,0.2,0.7,0.2C394.3,146.7,394,146.6,393.9,146.2z M401.3,148.3
					c-0.5-0.2-0.7-0.5-1.1-0.6L401.3,148.3z M406.7,172.8c1.6-1.4,3.2-2.7,4.7-4.1c-1.6,1.4-3.3,2.6-5.1,3.9L406.7,172.8z"/>
			</g>
		</g>
	</g>
	<path class="st1" d="M186.8,389.9l-13.3-14.6c0,0-35.3,38.4-18.6,103.6c14.8,57.6,51.3,25.6,39.3-8.7
		C182.4,435.9,186.8,389.9,186.8,389.9z"/>
	<path class="st2" d="M194.3,470.2c-11.9-34.3-7.5-80.4-7.5-80.4l-20.2-5.1c-6.6,22.1,15.2,66,18,78.3c2.8,12.4,6.4,25.1,1.4,35.6
		c-4.9,10.5-21,3.6-21,3.6C181.7,524.4,203.9,498.1,194.3,470.2z"/>
	<g>
		<path class="st2" d="M446,364.1l-12-15.7c0,0,44.1-27.8,105.2,0.2c54,24.8,16.2,55.1-15.5,37.3C492.1,368.1,446,364.1,446,364.1z"
			/>
		<path class="st1" d="M523.6,385.8c8.1,4.2,16.2,5.9,23.4,5.2c9.8-1,13.6-12.2,3-16c-4-1.4-13.2-4.7-19.7-3.8
			C519.8,372.8,513.3,380.4,523.6,385.8z"/>
	</g>
	<path class="st1" d="M265.8,498.8c0,0-6.5,83-18.6,88.6c-12.1,5.7-7.8,9.2,21.2,9.2s34.7-2.8,36.1-26.9c1.4-24.1-7.3-62.6-7.3-62.6
		L265.8,498.8z"/>
	<path class="st1" d="M383.8,587.4c-12.1-5.7-18.6-88.6-18.6-88.6l-31.3,8.3c0,0-8.8,38.5-7.3,62.6c1.4,24.1,7.1,26.9,36.1,26.9
		C391.5,596.6,395.7,593.1,383.8,587.4z"/>
	<path class="st2" d="M298.5,563.7c-4.6,24.4-23,35-50.6,31.8c4.6,0.7,11.3,1,20.5,1c29,0,34.7-2.8,36.1-26.9
		c1.4-24.1-7.3-62.6-7.3-62.6l-31.3-8.3c0,0,5.1,5,16.1,9.9C292.8,513.5,303.1,539.3,298.5,563.7z"/>
	<path class="st2" d="M366,547.7c2.2,23.8,18.4,49.9-14.1,48.8l0,0c3.2,0.2,6.6,0.2,10.6,0.2c29,0,33.3-3.5,21.2-9.2
		c-12.1-5.7-18.6-88.6-18.6-88.6l-31.3,8.3c0,0,8.7,2.8,15.8,2.8S363.9,523.9,366,547.7z"/>
	<path class="st3" d="M459.7,323.9c5.2,6.8,13.2,10.8,13.2,10.8c-2.8-33.3-46.4-71-46.4-71c14.6,5,14.8,0.3,14.8,0.3
		c-42.4-42.9-91.8-40.2-91.8-40.2c5-0.5,8.5-6.7,8.5-6.7c-21.1-7-38.5,3.6-38.5,3.6s-20.7-5.5-28.4-16c0,0-6.6,13.2,5.7,19.8
		c0,0-25.4-10.4-58.5,4.7c0,0,9.5,6.6,19.8,6.6c0,0-46.3,1-81,52.8c0,0,7.1,1.9,14.4-2.6c-8.4,8.7-23.1,27.2-27,53.6
		c0,0,5.6-1,9.7-7.4c-5,12.5-13.8,43.3-1.7,84.6c0,0,3.6-0.2,4.6-18.2c0,0,10,67.7,48.3,96.8c0,0,4.7-8.4-0.9-21.2
		c0,0,25,23.4,27.8,38.9c0,0,5.5-9.6,1.7-19.6c0,0,21,15.2,64.9,15.2s69-17.2,69-17.2c-2.5,8.7,5.4,17.2,5.4,17.2
		c0.7-14.4,19.9-34.4,19.9-34.4c-7.3,6.6-0.9,20.5-0.9,20.5c13.7-11.6,23.4-34.7,27.7-46.5c-1,8.3,4.2,14,4.2,14
		c18.4-19.8,17.6-68.1,17.6-68.1c1.3,12,11.5,22,11.5,22C481.3,371.6,459.7,323.9,459.7,323.9z"/>
	<path class="st4" d="M224.3,474.2c0,0,25,23.4,27.8,38.9c0,0,5.5-9.6,1.7-19.6c0,0,21,15.2,64.9,15.2s69-17.2,69-17.2
		c-2.5,8.7,5.4,17.2,5.4,17.2c0.7-14.4,19.9-34.4,19.9-34.4c-7.3,6.6-0.9,20.5-0.9,20.5c13.7-11.6,23.4-34.7,27.7-46.5
		c-1,8.3,4.2,14,4.2,14c18.4-19.8,17.6-68.1,17.6-68.1c1.3,12,11.5,22,11.5,22c8.4-44.6-13.2-92.2-13.2-92.2
		c5.2,6.8,13.2,10.8,13.2,10.8c-2.8-33.3-46.4-71-46.4-71c14.6,5,14.8,0.3,14.8,0.3c-42.4-42.9-91.8-40.2-91.8-40.2
		s5.1-0.6,11.3,6.5c6.2,7,13.7,16.8,29.1,21.9c15.4,5,53.5,24.6,64.5,56.2c0,0-9-2.7-13.2-8.3c0,0,33.7,67.8,8.8,131.1
		c0,0-6.2-6.5-4.9-15.2c0,0-26.1,75.2-116,82.9C256.8,505,224.3,474.2,224.3,474.2z"/>
	<ellipse class="st5" cx="318.7" cy="310.1" rx="69.6" ry="69.6"/>
	<path class="st6" d="M388.1,306.3c-0.2-3.9-0.8-7.8-1.6-11.3c0.1,1,0.2,2.2,0.2,3.3c2.2,38.4-27.1,71.2-65.5,73.5
		c-34.5,1.9-64.5-21.5-71.9-54.3c3.8,36.8,35.9,64.4,73.2,62.2C361,377.5,390.4,344.6,388.1,306.3z"/>
	<path class="st7" d="M343.4,281.4c0.9,15-10.6,27.8-25.6,28.7c-15,0.9-27.8-10.6-28.7-25.6c-0.9-15,10.6-27.8,25.6-28.7
		C329.7,254.9,342.5,266.5,343.4,281.4z"/>
	<path class="st8" d="M331.2,282.2c0.5,8.3-5.8,15.4-14.1,15.8c-8.3,0.5-15.4-5.8-15.8-14.1c-0.5-8.3,5.8-15.4,14.1-15.8
		C323.6,267.5,330.8,273.9,331.2,282.2z"/>
	<path class="st5" d="M334.9,270.8c0.2,4.7-3.3,8.8-8.1,9c-4.7,0.2-8.8-3.3-9-8.1c-0.2-4.7,3.3-8.8,8.1-9
		C330.5,262.5,334.5,266,334.9,270.8z"/>
	<path class="st9" d="M311.6,394.7c43.7,0,47.9-27,78.8-13.6s23.1,101.8-65.1,107.5s-127.4-74.5-93.9-101.8
		C267.4,357.5,275.7,394.7,311.6,394.7z"/>
	<path class="st10" d="M240.3,459.1c18,18.4,46.8,32,85,29.5c30.8-2.1,51.8-14,64.7-29.5c-0.2-0.2-13.6-17.8-75.7-17.8
		C251.7,441.3,240.3,459.1,240.3,459.1z"/>
	<g>
		<g>
			
				<linearGradient id="SVGID_1_" gradientUnits="userSpaceOnUse" x1="-1442.2225" y1="-6913.2383" x2="-1243.5344" y2="-6913.2383" gradientTransform="matrix(-0.3459 4.356021e-02 -3.673759e-02 -0.3416 -190.1905 -1844.9714)">
				<stop  offset="0" style="stop-color:#DECD5D"/>
				<stop  offset="0.2203" style="stop-color:#D5BC64"/>
				<stop  offset="0.6441" style="stop-color:#977D26"/>
				<stop  offset="1" style="stop-color:#D0B851"/>
			</linearGradient>
			<path class="st11" d="M540.5,591.7C521.9,594,478.4,420,477,329.4l66.9-7.9C561.7,410.2,559.1,589.4,540.5,591.7z"/>
			
				<linearGradient id="SVGID_2_" gradientUnits="userSpaceOnUse" x1="-4888.0312" y1="12930.7754" x2="-4575.4604" y2="12930.7754" gradientTransform="matrix(-0.1309 1.648796e-02 2.191311e-02 0.2035 -371.1598 -2095.0303)">
				<stop  offset="0" style="stop-color:#D9CDAA"/>
				<stop  offset="1" style="stop-color:#AB9628"/>
			</linearGradient>
			<path class="st12" d="M543.6,366.9c-1.5-13.1-2.7-21.7-4.7-33.2c-3.3,0.3-9.6,5-16.3,5.8l21.2,241
				C548.5,557.7,552.9,450.7,543.6,366.9z"/>
			
				<linearGradient id="SVGID_3_" gradientUnits="userSpaceOnUse" x1="-1124.5188" y1="-5834.1821" x2="-1373.8971" y2="-6202.582" gradientTransform="matrix(-0.3459 4.356021e-02 -3.673759e-02 -0.3416 -190.1315 -1844.6324)">
				<stop  offset="5.650000e-03" style="stop-color:#BD8F48"/>
				<stop  offset="1" style="stop-color:#784E1F"/>
			</linearGradient>
			<path class="st13" d="M475.8,226.9c10.3,7.9,35.8,15.2,50.6-11.7c0,0,16.9-8.7,14.8-27l-8.7,9.2c0,0,10.6-25,8.7-42.5
				c0,0,0.3,9.6-8.5,10.6c0,0-0.3-49.6-53.8-60.9c0,0,24.6,13.3,26.3,28.6c0,0-36.6-34.1-63.3-39c0,0,20.6,10.8,21.5,19.6
				c0,0-29.2-14.2-57.8-10.8c0,0,20.9,0.5,32.4,9.5c0,0-39.1-9.3-59.3,16.1c0,0,41.3-16.9,54.4-6.6c0,0-23.8-0.1-36.2,15.5
				c0,0,22.6-11.6,32.4-3.9c0,0-15.2,4.1-21.1,11.4c0,0,11.7-4.8,22.8,3.9c0,0-34.5-1.7-31.1,28.2c0,0,20.5-22.5,36.9-9.7
				c0,0-18.9-2.8-17.7,8.8c0,0,27.4-7.4,36.2,24.5C457.6,208.8,469.1,221.9,475.8,226.9z"/>
			
				<linearGradient id="SVGID_4_" gradientUnits="userSpaceOnUse" x1="-1314.192" y1="-6072.6841" x2="-1353.6633" y2="-6241.8472" gradientTransform="matrix(-0.3459 4.356021e-02 -3.673759e-02 -0.3416 -190.1315 -1844.6324)">
				<stop  offset="5.650000e-03" style="stop-color:#BA8E49"/>
				<stop  offset="1" style="stop-color:#734611"/>
			</linearGradient>
			<path class="st14" d="M459,195.7c0,0,49.1,82.2,69-12.8c0,0-12.5,20.7-19.9,21.7c0,0,23.9-58.5-31.9-71.7c0,0,8.2,6.4,10.1,23.9
				c0,0-9.9-6.7-25-10.3c-8-1.9,39.9,16.6,27.8,48.4c0,0-13.9-30.9-39.1-36c0,0,18,14.1,20.2,33.2
				C470.2,192.1,481.8,213.6,459,195.7z"/>
			
				<linearGradient id="SVGID_5_" gradientUnits="userSpaceOnUse" x1="-1430.2844" y1="-6393.1343" x2="-1262.6875" y2="-6393.1343" gradientTransform="matrix(-0.3459 4.356021e-02 -3.673759e-02 -0.3416 -190.1315 -1844.6324)">
				<stop  offset="5.650000e-03" style="stop-color:#797F86"/>
				<stop  offset="0.1582" style="stop-color:#B4BAC3"/>
				<stop  offset="0.322" style="stop-color:#868B93"/>
				<stop  offset="0.5819" style="stop-color:#B8BFC9"/>
				<stop  offset="0.7797" style="stop-color:#B0B6BF"/>
				<stop  offset="1" style="stop-color:#7B7775"/>
			</linearGradient>
			<path class="st15" d="M475.6,228.8L475.6,228.8c0.2,1.9,10.9,2.3,23.9,0.7c13-1.6,23.4-4.4,23.1-6.4l21.2,98.5
				c0.7,6.2-13.8,13-32.4,15.2c-18.6,2.3-34.1-0.9-34.9-7.1L475.6,228.8z"/>
			
				<linearGradient id="SVGID_6_" gradientUnits="userSpaceOnUse" x1="-1057.5569" y1="-6259.5645" x2="-1274.729" y2="-6264.8613" gradientTransform="matrix(-0.3604 4.534417e-02 -3.823540e-02 -0.3559 -152.3817 -1851.3756)">
				<stop  offset="0" style="stop-color:#4A4A4A"/>
				<stop  offset="7.117227e-02" style="stop-color:#4D4D4D"/>
				<stop  offset="0.1217" style="stop-color:#565656"/>
				<stop  offset="0.1657" style="stop-color:#666565"/>
				<stop  offset="0.2059" style="stop-color:#7C7B7B"/>
				<stop  offset="0.2316" style="stop-color:#8E8D8D"/>
				<stop  offset="0.3844" style="stop-color:#C7C7C7"/>
				<stop  offset="0.4746" style="stop-color:#EBEBEB"/>
				<stop  offset="0.774" style="stop-color:#EDEDED"/>
				<stop  offset="1" style="stop-color:#4D4D4D"/>
			</linearGradient>
			<path class="st16" d="M476.7,319.7c2.6,5.4,16.1,9.8,34,7.6c17.7-2.2,29.6-9.5,31.2-15.3l2.7,3.2c0.7,6.4-14.1,15.4-33.5,17.7
				c-19.3,2.4-35.8-2.8-36.5-9.2L476.7,319.7z"/>
			
				<linearGradient id="SVGID_7_" gradientUnits="userSpaceOnUse" x1="-1102.6936" y1="-6401.4619" x2="-1319.8169" y2="-6406.7578" gradientTransform="matrix(-0.3511 4.416962e-02 -3.724346e-02 -0.3468 -155.7698 -1852.7224)">
				<stop  offset="0" style="stop-color:#4A4A4A"/>
				<stop  offset="7.117227e-02" style="stop-color:#4D4D4D"/>
				<stop  offset="0.1217" style="stop-color:#565656"/>
				<stop  offset="0.1657" style="stop-color:#666565"/>
				<stop  offset="0.2059" style="stop-color:#7C7B7B"/>
				<stop  offset="0.2316" style="stop-color:#8E8D8D"/>
				<stop  offset="0.3844" style="stop-color:#C7C7C7"/>
				<stop  offset="0.4746" style="stop-color:#EBEBEB"/>
				<stop  offset="0.774" style="stop-color:#EDEDED"/>
				<stop  offset="1" style="stop-color:#4D4D4D"/>
			</linearGradient>
			<path class="st17" d="M476.4,310.3c2.5,5.2,15.6,9.6,33.1,7.4c17.2-2.1,28.8-9.1,30.4-14.8l2.6,3.1c0.7,6.3-13.8,14.9-32.6,17.2
				c-18.8,2.3-34.9-2.8-35.6-9L476.4,310.3z"/>
			
				<linearGradient id="SVGID_8_" gradientUnits="userSpaceOnUse" x1="2433.4043" y1="-7976.5137" x2="2216.2542" y2="-7981.8105" gradientTransform="matrix(0.2747 -3.454795e-02 -2.912943e-02 -0.2713 -371.4112 -1838.7286)">
				<stop  offset="0" style="stop-color:#636363"/>
				<stop  offset="8.442846e-02" style="stop-color:#666666"/>
				<stop  offset="0.1443" style="stop-color:#6F6F6F"/>
				<stop  offset="0.1965" style="stop-color:#7F7E7E"/>
				<stop  offset="0.2316" style="stop-color:#8E8D8D"/>
				<stop  offset="0.3844" style="stop-color:#C7C7C7"/>
				<stop  offset="0.4746" style="stop-color:#EBEBEB"/>
				<stop  offset="0.774" style="stop-color:#EDEDED"/>
				<stop  offset="1" style="stop-color:#7B7775"/>
			</linearGradient>
			<path class="st18" d="M525.6,236.1c-1,4.4-10.3,10.1-23.9,11.9c-13.5,1.6-23.6-1.6-25.8-5.6l-1.5,2.8c0.6,4.9,13.1,8.9,27.8,7.1
				c14.7-1.8,26.1-8.7,25.5-13.6L525.6,236.1z"/>
			
				<linearGradient id="SVGID_9_" gradientUnits="userSpaceOnUse" x1="2376.0476" y1="-7755.8291" x2="2158.9543" y2="-7761.1235" gradientTransform="matrix(0.2832 -3.557242e-02 -2.998620e-02 -0.2797 -374.0662 -1836.3096)">
				<stop  offset="0" style="stop-color:#636363"/>
				<stop  offset="8.442846e-02" style="stop-color:#666666"/>
				<stop  offset="0.1443" style="stop-color:#6F6F6F"/>
				<stop  offset="0.1965" style="stop-color:#7F7E7E"/>
				<stop  offset="0.2316" style="stop-color:#8E8D8D"/>
				<stop  offset="0.3844" style="stop-color:#C7C7C7"/>
				<stop  offset="0.4746" style="stop-color:#EBEBEB"/>
				<stop  offset="0.774" style="stop-color:#EDEDED"/>
				<stop  offset="1" style="stop-color:#7B7775"/>
			</linearGradient>
			<path class="st19" d="M527.1,243.2c-1,4.6-10.5,10.5-24.6,12.2c-13.9,1.7-24.3-1.6-26.6-5.8l-1.5,3c0.6,5,13.5,9.1,28.7,7.3
				c15.2-1.8,26.9-8.9,26.3-13.9L527.1,243.2z"/>
			
				<linearGradient id="SVGID_10_" gradientUnits="userSpaceOnUse" x1="-1418.7196" y1="-6399.4966" x2="-1256.7405" y2="-6405.082" gradientTransform="matrix(-0.3459 4.356021e-02 -3.673759e-02 -0.3416 -190.1315 -1844.6324)">
				<stop  offset="5.650000e-03" style="stop-color:#797F86"/>
				<stop  offset="0.1582" style="stop-color:#B4BAC3"/>
				<stop  offset="0.322" style="stop-color:#868B93"/>
				<stop  offset="0.5819" style="stop-color:#B8BFC9"/>
				<stop  offset="0.7797" style="stop-color:#B0B6BF"/>
				<stop  offset="1" style="stop-color:#7B7775"/>
			</linearGradient>
			<path class="st20" d="M509.6,317.7c-17.3,2.1-30.3-2.1-32.9-7.3l-0.7-55.1c4,3.6,14.8,6,27,4.6c12.3-1.5,22.3-6.4,25.3-10.9
				l11.6,53.9C538.1,308.7,526.6,315.6,509.6,317.7z"/>
		</g>
	</g>
	<path class="st2" d="M554.5,389.1c0.5-0.2,1.1-0.1,1.6-0.2c4-0.5,6.3-4.8,4.4-8.8l0,0c-7.4-16.8-27-23.6-41.4-14.4
		C502.2,377.1,511.1,413.1,554.5,389.1z"/>
</g>
</svg>
