<?xml version="1.0" encoding="utf-8"?>
<!-- Generator: Adobe Illustrator 22.0.0, SVG Export Plug-In . SVG Version: 6.00 Build 0)  -->
<svg version="1.1" id="Layer_1" xmlns="http://www.w3.org/2000/svg" xmlns:xlink="http://www.w3.org/1999/xlink" x="0px" y="0px"
	 viewBox="0 0 600 600" style="enable-background:new 0 0 600 600;" xml:space="preserve">
<style type="text/css">
	.st0{fill:#96B127;}
	.st1{fill:#91A325;}
	.st2{fill:#B0D133;}
	.st3{fill:#A7C332;}
	.st4{fill:#CDE951;}
	.st5{fill:#FFFFFF;}
	.st6{fill:#501627;}
	.st7{fill:#E7F68E;}
	.st8{fill:#A6BB31;}
	.st9{fill:#E7E7E7;}
	.st10{fill:#F6901B;}
	.st11{fill:#6B390B;}
</style>
<path class="st0" d="M356.9,551.7c-10.9-5.1-16.8-84.3-16.8-84.3l-28.4,7.5c0,0-7.9,39.2-6.6,60.9c1.3,21.7,6.4,24.3,32.6,24.3
	C363.9,560,367.8,556.8,356.9,551.7z"/>
<path class="st1" d="M316.3,558c4.8,1.6,11.7,2,21.5,2c26.2,0,30-3.2,19.2-8.3c-10.9-5.1-16.8-84.3-16.8-84.3l-28.4,7.5
	c0,0,5.4,6.2,14.7,7.3c9.3,1.1,15,35.1,17.4,58.4C346.2,563.7,316.3,558,316.3,558z"/>
<path class="st0" d="M242.8,551.7c10.9-5.1,16.8-84.3,16.8-84.3l28.4,7.5c0,0,7.9,39.2,6.6,60.9c-1.3,21.7-6.4,24.3-32.6,24.3
	S231.9,556.8,242.8,551.7z"/>
<path class="st1" d="M261.9,560c26.2,0,31.3-2.6,32.6-24.3c1.3-21.7-6.6-60.9-6.6-60.9l-28.4-7.5c0,0,4.6,7.3,17.6,13.2
	c12.9,5.9,11.5,35,10.9,55.3C287.4,556.2,261.9,560,261.9,560z"/>
<path class="st0" d="M176.6,300.2l1.3,17.8c0,0-47.1-0.6-79.5-51.9c-28.7-45.4,14.9-49.6,30.1-20.5
	C143.7,274.6,176.6,300.2,176.6,300.2z"/>
<path class="st1" d="M164.3,289.6c7.1,6.6,12.3,10.6,12.3,10.6l1.3,17.8c0,0-47.1-0.6-79.5-51.9c0,0,23,31,52.3,36.5
	S164.3,289.6,164.3,289.6z"/>
<path class="st2" d="M300,477.3c-27.2,0-47.7-14.7-47.7-14.7c1.8,9.5-1.4,10.7-1.4,10.7c-2.1-9.7-16-23.2-16-23.2
	c4.4,3.9,0.9,12.4,0.9,12.4C219.8,445,203.4,413,203.4,413c1.4,10,0.8,14.7,0.8,14.7c-25.8-36-28.7-86.3-28.7-86.3
	c1.9,10.6-5,17.6-5,17.6c-9-46.7,0.3-86,0.3-86c-0.5,6.4-7.9,13-7.9,13c0.6-47.8,23.7-86.5,23.7-86.5c-5.3,6.4-11.9,9.7-11.9,9.7
	c8.6-29,35-52.8,35-52.8c-4.6,6.1-11.3,4.7-11.3,4.7c12.1-21.6,37.2-33.1,37.2-33.1l12-8.9l91.3-11.6c0,0,23.8,5.7,34,2.4
	c0,0-4.6,11.4-11.2,9.2c0,0,26.2,6.9,42.3,32.2c0,0-9-1.2-11.5-4.1c0,0,24.4,21.1,35.1,45.9c0,0-4.7-1.2-10.4-6.2
	c0,0,26,34.7,31.4,75c0,0-11.5-5.5-12.9-13.4c0,0,18.2,47.8,12.9,83.7c0,0-11.4-9.4-10.7-18.9c0,0,9,48.9-6.2,84.9
	c0,0-7.2-12.3-6.6-21.5c0,0-3.2,34.4-20.9,59.1c0,0-4.7-12.7-1.3-18c0,0-10,32.5-27.2,47.3c0,0-5.5-11-0.1-15.9
	c0,0-20.3,18.9-17.3,28.3c0,0-9.5-3.7-7.3-11.4C350.8,466,338.3,477.3,300,477.3z"/>
<path class="st3" d="M203.4,413c0,0,16.4,31.9,32.5,49.6c0,0,3.5-8.5-0.9-12.4c0,0,13.9,13.5,16,23.2c0,0,3.1-1.2,1.4-10.7
	c0,0,20.4,14.7,47.7,14.7c38.3,0,50.8-11.3,50.8-11.3c-2.2,7.7,7.3,11.4,7.3,11.4c-2.9-9.4,17.3-28.3,17.3-28.3
	c-5.3,4.9,0.1,15.9,0.1,15.9c17.2-14.8,27.2-47.3,27.2-47.3c-3.4,5.3,1.3,18,1.3,18c17.7-24.7,20.9-59.1,20.9-59.1
	c-0.5,9.1,6.6,21.5,6.6,21.5c15.2-36,6.2-84.9,6.2-84.9c-0.7,9.5,10.7,18.9,10.7,18.9c5.4-36-12.9-83.7-12.9-83.7
	c1.4,7.9,12.9,13.4,12.9,13.4c-5.4-40.3-31.4-75-31.4-75c5.7,5,10.4,6.2,10.4,6.2c-10.7-24.8-35.1-45.9-35.1-45.9
	c2.5,2.9,11.5,4.1,11.5,4.1c-16.1-25.2-42.3-32.2-42.3-32.2c6.5,2.2,11.2-9.2,11.2-9.2c-10.2,3.2-34-2.4-34-2.4l-91.3,11.6v34
	c0,0,20.6,1.9,37.1-4.6c16.5-6.4,61.6-31.9,101-10.6c0,0-0.7,8.6-10.7,6c0,0,53,51.2,67.3,148.5c0,0-12.2-4.4-15.8-12.9
	c0,0,0.3,88.9-15.5,123.1c0,0-3.1-1.2-3.8-14.2c0,0-16.7,74.3-100.8,78.9C227.3,471.6,203.4,413,203.4,413z"/>
<path class="st4" d="M304.6,103.5c0,0-22.9,0-36.8-26.8c-5.3-10.3-9.9-30.4,7.6-46c0,0-70,13.1-54.1,72.8
	c15.9,59.8,112,27.9,117.5,6.2C338.8,109.7,319.1,102.5,304.6,103.5z"/>
<path class="st4" d="M249.7,115.7c0,0-17,5.9-34.3-10.4c-6.6-6.3-15.2-20-6.3-36.2c0,0-48.6,27.8-21.4,68.1
	c27.3,40.3,110.4,0.6,129.8-9.6C317.5,127.7,260.1,111.2,249.7,115.7z"/>
<path class="st5" d="M330,343.6c-1.9,4.2,5.6,7.1,5.6,7.1l2.4-7.1C337.9,343.6,331.8,339.4,330,343.6z"/>
<path class="st6" d="M314.5,365c-7.6,0-14.8-3.3-19.9-8.9c-0.8-0.9-0.7-2.2,0.2-3c0.9-0.8,2.2-0.7,3,0.2c4.2,4.8,10.3,7.5,16.6,7.5
	c12.2,0,22.2-10,22.2-22.2c0-1.2,1-2.1,2.1-2.1c1.2,0,2.1,1,2.1,2.1C341,353.1,329.1,365,314.5,365z"/>
<path class="st0" d="M420.7,329.7L420.7,329.7c4.9-5.3,13.5-4.3,17.1,2c8.3,14.8,20.8,51.6,10.8,90.3c-13.4,52-46.3,23.2-35.6-7.8
	c8.6-24.9,5.6-65.2,4.9-76.7C417.8,334.6,418.8,331.8,420.7,329.7z"/>
<path class="st7" d="M258.8,45.4c0,0-0.7,1-1.5,2.9c-0.9,1.9-2,4.7-2.7,8.1c-0.7,3.4-1.1,7.5-0.4,11.7c0.3,2.1,0.8,4.2,1.6,6.4
	c0.7,2.1,1.7,4.2,2.8,6.2c0.5,1,1.2,2,1.7,3c0.7,0.9,1.3,1.9,2,2.8c0.7,0.9,1.4,1.8,2.1,2.7c0.7,0.8,1.5,1.7,2.2,2.5
	c1.5,1.6,3,3.2,4.5,4.5c1.5,1.4,2.9,2.7,4.3,3.9c1.3,1.2,2.6,2.2,3.7,3.2c1.1,1,2.1,1.7,3,2.4c1.7,1.3,2.6,2.1,2.6,2.1
	s-1.1-0.5-3-1.4c-1-0.5-2.1-1-3.4-1.8c-1.3-0.7-2.8-1.5-4.3-2.6c-1.5-1-3.2-2.1-4.9-3.4c-1.7-1.2-3.4-2.7-5.1-4.3
	c-0.8-0.8-1.7-1.7-2.5-2.5c-0.8-0.9-1.6-1.8-2.4-2.8c-0.7-1-1.5-2-2.2-3c-0.7-1.1-1.4-2.1-2-3.2c-1.2-2.3-2.3-4.6-3-7
	c-0.8-2.4-1.2-4.9-1.4-7.3c-0.2-2.4,0-4.7,0.3-6.9c0.3-2.2,0.9-4.1,1.5-5.9c1.3-3.5,3-6.2,4.3-7.9C257.9,46.2,258.8,45.4,258.8,45.4
	z"/>
<path class="st7" d="M252.1,101.9c0,0,0.8,0.7,2.2,1.8c0.7,0.5,1.6,1.2,2.6,1.9c1,0.7,2.2,1.5,3.4,2.3c1.3,0.8,2.7,1.6,4.2,2.4
	c0.8,0.4,1.6,0.8,2.4,1.2c0.8,0.4,1.7,0.7,2.5,1.1c1.7,0.8,3.5,1.3,5.4,2.1c1.8,0.6,3.8,1.1,5.7,1.7c1.9,0.4,3.9,1,5.8,1.2
	c1.9,0.2,3.8,0.7,5.7,0.9c1.9,0.1,3.7,0.3,5.4,0.5c1.7,0.1,3.4,0.1,4.9,0.2c1.5,0.1,2.9,0.2,4.2,0.1c1.2,0,2.3,0,3.2,0
	c1.8,0,2.9,0.1,2.9,0.1s-1,0.3-2.7,0.8c-0.9,0.2-2,0.5-3.2,0.8c-1.2,0.3-2.6,0.6-4.2,0.7c-1.6,0.2-3.2,0.4-5,0.5
	c-1.8,0-3.7,0.1-5.7,0c-2-0.1-4-0.3-6.1-0.5c-2.1-0.3-4.1-0.8-6.2-1.2c-2-0.6-4.1-1.2-6-1.9c-1.9-0.8-3.8-1.6-5.6-2.5
	c-0.9-0.5-1.8-0.9-2.6-1.4c-0.8-0.5-1.6-1-2.3-1.5c-1.5-1-2.8-2.1-4-3.1c-1.2-1.1-2.2-2.1-3.1-3c-0.9-0.9-1.5-1.8-2.1-2.5
	C252.6,102.9,252.1,101.9,252.1,101.9z"/>
<path class="st7" d="M197.2,89.1c0,0-0.7,1.3-1.6,3.6c-0.5,1.2-1,2.6-1.4,4.3c-0.2,0.8-0.5,1.7-0.6,2.7c-0.2,0.9-0.4,1.9-0.5,3
	c-0.3,2.1-0.3,4.3-0.2,6.7c0.1,1.2,0.3,2.4,0.5,3.6c0.4,1.2,0.5,2.4,0.9,3.6c0.8,2.4,1.9,4.8,3.3,7.1l1.1,1.7l0.3,0.4l0,0.1
	c-0.2-0.2,0-0.1-0.1-0.1l0,0l0.1,0.1l0.2,0.2l0.7,0.8c0.9,1.1,1.8,2.3,2.8,3.1c1,0.9,1.8,1.8,3,2.6c1.1,0.8,2.2,1.6,3.4,2.2
	c1.2,0.7,2.3,1.4,3.6,1.9c1.2,0.6,2.4,1.2,3.6,1.6c4.9,1.9,9.7,3.1,13.9,3.9c2.1,0.4,4.1,0.7,5.8,0.9c1.7,0.2,3.3,0.4,4.5,0.5
	c2.5,0.3,4,0.3,4,0.3s-0.4,0.1-1,0.2c-0.7,0.1-1.7,0.3-2.9,0.4c-1.3,0.1-2.8,0.2-4.6,0.3c-0.9,0-1.8,0-2.8,0c-1,0-2.1-0.1-3.2-0.1
	c-2.2-0.2-4.6-0.4-7.1-0.9c-2.5-0.5-5.1-1-7.8-1.9c-1.4-0.4-2.7-1-4-1.5c-1.4-0.5-2.7-1.2-4-1.9c-1.3-0.7-2.6-1.6-3.8-2.4
	c-1.3-0.8-2.4-1.9-3.6-3c-1.3-1.1-2.1-2.2-3-3.3l-0.7-0.8l-0.2-0.2l-0.1-0.1l-0.1-0.2l0-0.1l-0.3-0.5l-1.2-1.9c-0.9-1.2-1.4-2.7-2-4
	c-0.7-1.3-1-2.8-1.4-4.1c-0.4-1.4-0.6-2.8-0.8-4.2c-0.1-1.4-0.2-2.7-0.2-4c0.1-2.6,0.4-5.1,1-7.2c0.5-2.2,1.3-4.1,2-5.7
	c0.7-1.7,1.5-3,2.2-4.1C196.2,90.1,197.2,89.1,197.2,89.1z"/>
<path class="st8" d="M431.5,427.1c-1.9,8.4-8,14.2-13.6,12.9c-5.6-1.3-8.6-9.1-6.7-17.5c1.9-8.4,8-14.2,13.6-12.9
	C430.4,410.9,433.4,418.7,431.5,427.1z"/>
<g>
	
		<ellipse transform="matrix(0.6514 -0.7587 0.7587 0.6514 -131.2535 272.8303)" class="st5" cx="231.3" cy="279.3" rx="48.4" ry="48.4"/>
	<path class="st9" d="M279.6,276.5c-0.2-2.7-0.5-5.3-1.1-7.9c0.1,0.7,0.1,1.5,0.2,2.2c1.5,26.7-18.9,49.6-45.6,51.1
		c-24,1.4-44.9-15-50-37.7c2.6,25.6,25,44.8,50.9,43.3C260.7,326.1,281.1,303.2,279.6,276.5z"/>
	<path class="st10" d="M248.5,273.7c0.6,10.4-7.4,19.4-17.8,20c-10.4,0.6-19.4-7.4-20-17.8c-0.6-10.4,7.4-19.4,17.8-20
		C239,255.2,247.9,263.2,248.5,273.7z"/>
	<path class="st11" d="M240,274.1c0.3,5.8-4.1,10.7-9.8,11c-5.8,0.3-10.7-4.1-11-9.8c-0.3-5.8,4.1-10.7,9.8-11
		C234.8,264,239.7,268.4,240,274.1z"/>
	<path class="st5" d="M242.5,266.2c0.2,3.3-2.3,6.1-5.6,6.3c-3.3,0.2-6.1-2.3-6.3-5.6c-0.2-3.3,2.3-6.1,5.6-6.3
		C239.5,260.5,242.4,263,242.5,266.2z"/>
	<path class="st5" d="M413.9,276.5c1.5,26.7-18.9,49.6-45.6,51.1c-26.7,1.5-49.6-18.9-51.1-45.6c-1.5-26.7,18.9-49.6,45.6-51.1
		C389.5,229.4,412.4,249.8,413.9,276.5z"/>
	<path class="st9" d="M413.9,276.5c-0.2-2.7-0.5-5.3-1.1-7.9c0.1,0.7,0.1,1.5,0.2,2.2c1.5,26.7-18.9,49.6-45.6,51.1
		c-24,1.4-44.9-15-50-37.7c2.6,25.6,25,44.8,50.9,43.3C395,326.1,415.4,303.2,413.9,276.5z"/>
	<path class="st10" d="M382.8,273.7c0.6,10.4-7.4,19.4-17.8,20c-10.4,0.6-19.4-7.4-20-17.8c-0.6-10.4,7.4-19.4,17.8-20
		C373.3,255.2,382.2,263.2,382.8,273.7z"/>
	<path class="st11" d="M374.3,274.1c0.3,5.8-4.1,10.7-9.8,11c-5.8,0.3-10.7-4.1-11-9.8c-0.3-5.8,4.1-10.7,9.8-11
		C369.1,264,374,268.4,374.3,274.1z"/>
	<path class="st5" d="M376.8,266.2c0.2,3.3-2.3,6.1-5.6,6.3c-3.3,0.2-6.1-2.3-6.3-5.6c-0.2-3.3,2.3-6.1,5.6-6.3
		C373.8,260.5,376.7,263,376.8,266.2z"/>
</g>
</svg>
