<?xml version="1.0" encoding="utf-8"?>
<!-- Generator: Adobe Illustrator 22.0.0, SVG Export Plug-In . SVG Version: 6.00 Build 0)  -->
<svg version="1.1" id="Layer_1" xmlns="http://www.w3.org/2000/svg" xmlns:xlink="http://www.w3.org/1999/xlink" x="0px" y="0px"
	 viewBox="0 0 600 600" style="enable-background:new 0 0 600 600;" xml:space="preserve">
<style type="text/css">
	.st0{opacity:0.23;fill:#045495;enable-background:new    ;}
	.st1{fill:#FFB600;}
	.st2{fill:#CE7A00;}
	.st3{fill:#7153C4;}
	.st4{fill:#4E389E;}
	.st5{fill:#4C3DA5;}
	.st6{fill:#7B65E5;}
	.st7{fill:#FC9FFF;}
	.st8{fill:#FFDA04;}
	.st9{clip-path:url(#SVGID_4_);}
	.st10{fill:#1D1D1B;}
	.st11{fill:#FFFFFF;}
	.st12{clip-path:url(#SVGID_6_);}
	.st13{fill:#FF8585;}
	.st14{fill:#490808;}
	.st15{clip-path:url(#SVGID_8_);fill:#FFFCC5;}
	.st16{clip-path:url(#SVGID_10_);fill:#FFFCC5;}
	.st17{clip-path:url(#SVGID_12_);fill:#FFFCC5;}
	.st18{clip-path:url(#SVGID_14_);fill:#FFFCC5;}
	.st19{clip-path:url(#SVGID_16_);fill:#FFFCC5;}
	.st20{clip-path:url(#SVGID_18_);fill:#FFFCC5;}
	.st21{clip-path:url(#SVGID_20_);fill:#FFA9A9;}
	.st22{clip-path:url(#SVGID_22_);fill:#FFFCC5;}
	.st23{clip-path:url(#SVGID_24_);fill:#FFFCC5;}
	.st24{opacity:0.66;}
	.st25{fill:#9883FF;}
</style>
<g>
	<ellipse class="st0" cx="295.5" cy="558.2" rx="196.7" ry="27.8"/>
	<g>
		<g>
			<g>
				<path class="st1" d="M182.5,99.9c0,0-26.5,0.7-32.9-25.6s10.2-39.4,10.2-39.4s-44.1,20.3-44.1,51.8c0,36.1,18.5,47.8,33.2,53
					C163.4,145.2,182.5,99.9,182.5,99.9z"/>
				<g>
					<g>
						<g>
							<g>
								<g>
									<path class="st2" d="M142.4,137c0,0,0-3.1,1.1-7.6c0.2-1.1,0.7-2.4,1.1-3.6c0.5-1.3,0.9-2.5,1.5-4c0.5-1.3,1.3-2.7,2-4
										c0.4-0.7,0.7-1.3,1.1-2l1.3-2c0.9-1.3,1.8-2.5,2.7-3.8c0.9-1.3,2-2.4,3.1-3.5c0.9-1.1,2.2-2,3.1-2.9s2-1.6,2.9-2.4
										c1.8-1.5,3.6-2.4,4.7-2.9c1.3-0.5,1.8-0.9,1.8-0.9s-0.5,0.5-1.6,1.5c-1.1,0.9-2.5,2.2-4.2,3.8c-0.9,0.7-1.8,1.6-2.5,2.5
										c-0.9,0.9-1.8,2-2.7,3.1c-0.9,1.1-1.8,2.2-2.7,3.5c-0.9,1.3-1.8,2.4-2.5,3.6l-1.3,1.8c-0.4,0.7-0.7,1.3-1.1,2
										c-0.7,1.3-1.5,2.5-2.2,3.8c-0.7,1.3-1.3,2.5-1.8,3.6c-0.5,1.3-1.1,2.4-1.5,3.5C143.3,133.9,142.4,137,142.4,137z"/>
								</g>
							</g>
						</g>
					</g>
					<g>
						<g>
							<g>
								<g>
									<path class="st2" d="M125.7,122.1c0,0-0.2-0.7,0-2.2c0-1.3,0.2-3.3,0.9-5.6c0.4-1.1,0.7-2.4,1.1-3.6
										c0.5-1.3,1.1-2.5,1.8-3.8c0.7-1.3,1.6-2.5,2.4-3.8c0.9-1.3,2-2.4,2.9-3.6c1.1-1.1,2.2-2.2,3.5-3.3c1.3-0.9,2.4-2,3.6-2.7
										c1.3-0.7,2.4-1.5,3.6-2.2c1.1-0.5,2.4-1.1,3.5-1.6c2-1.1,4-1.5,5.3-2c1.3-0.4,2-0.5,2-0.5s-0.7,0.4-1.8,1.1
										c-1.1,0.7-2.9,1.5-4.7,2.9c-0.9,0.5-2,1.3-3.1,2c-1.1,0.7-2.2,1.6-3.3,2.4c-1.1,0.9-2.2,1.8-3.3,2.7
										c-1.1,0.9-2.2,2-3.1,3.1c-0.9,1.1-2,2.2-2.9,3.5c-0.9,1.1-1.8,2.4-2.4,3.5c-0.7,1.1-1.5,2.4-2,3.5
										c-0.5,1.1-1.1,2.2-1.5,3.3C126,119,125.7,122.1,125.7,122.1z"/>
								</g>
							</g>
						</g>
					</g>
					<g>
						<g>
							<g>
								<g>
									<path class="st2" d="M116,91.4c0,0,1.5-2,4.4-4.2c0.7-0.5,1.6-1.1,2.4-1.8c0.9-0.5,1.8-1.1,2.9-1.6
										c1.1-0.5,2.2-1.1,3.3-1.5c0.5-0.2,1.1-0.4,1.8-0.7l1.8-0.5c1.3-0.4,2.4-0.5,3.6-0.9c1.3-0.4,2.4-0.4,3.6-0.4
										c1.1-0.2,2.4,0,3.5,0c1.1,0,2,0.2,2.9,0.2c1.8,0.2,3.3,0.5,4.4,0.9c1.1,0.4,1.6,0.5,1.6,0.5s-0.5,0-1.6,0
										c-1.1,0-2.5,0-4.4,0.2c-0.9,0-1.8,0-2.9,0.2c-1.1,0.2-2,0.2-3.1,0.4c-1.1,0.2-2.2,0.4-3.3,0.5c-1.1,0.2-2.4,0.5-3.5,0.9
										l-1.6,0.5c-0.5,0.2-1.1,0.4-1.6,0.5c-1.1,0.4-2.2,0.7-3.3,1.3c-1.1,0.4-2,0.9-2.9,1.3c-0.9,0.5-1.8,0.9-2.5,1.3
										C118,90,116,91.4,116,91.4z"/>
								</g>
							</g>
						</g>
					</g>
					<g>
						<g>
							<g>
								<g>
									<path class="st2" d="M120.8,70.2c0,0,0.4-0.4,1.1-0.7c0.7-0.4,1.8-0.9,3.1-1.5c0.7-0.2,1.5-0.5,2.2-0.7
										c0.7-0.2,1.6-0.5,2.4-0.7c0.9-0.2,1.8-0.4,2.7-0.4c0.9-0.2,1.8-0.2,2.7-0.2s1.8,0,2.7,0s1.8,0.2,2.7,0.4
										c0.9,0.2,1.6,0.4,2.5,0.5c0.7,0.2,1.5,0.4,2.2,0.7c1.3,0.5,2.4,1.1,3.1,1.5c0.7,0.4,1.1,0.7,1.1,0.7s-0.5,0-1.3-0.2
										c-0.7-0.2-2-0.4-3.3-0.5c-0.7,0-1.5-0.2-2.2-0.2c-0.7,0-1.6-0.2-2.4-0.2c-0.9,0-1.6-0.2-2.5-0.2s-1.8,0-2.5,0
										c-0.9,0-1.8,0-2.5,0c-0.9,0-1.6,0.2-2.5,0.2c-0.9,0.2-1.6,0.2-2.4,0.2c-0.7,0.2-1.5,0.2-2.2,0.4
										C122.6,69.8,120.8,70.2,120.8,70.2z"/>
								</g>
							</g>
						</g>
					</g>
					<g>
						<g>
							<g>
								<g>
									<path class="st2" d="M134.9,51.6c0,0,0.5-0.9,1.8-1.5c0.4-0.2,0.7-0.4,1.1-0.5c0.4-0.2,0.9-0.4,1.3-0.4
										c0.5,0,0.9-0.2,1.5-0.2s0.9,0,1.5,0.2c0.5,0,0.9,0.2,1.5,0.4c0.5,0.2,0.9,0.4,1.3,0.5c0.4,0.2,0.7,0.5,1.1,0.7
										c0.4,0.2,0.5,0.5,0.9,0.7c0.5,0.5,0.9,1.1,1.1,1.5c0.2,0.4,0.4,0.5,0.4,0.5s-0.2,0-0.7-0.2c-0.4-0.2-0.9-0.4-1.6-0.5
										c-0.4-0.2-0.7-0.2-0.9-0.4c-0.4,0-0.7-0.2-1.1-0.4c-0.4,0-0.7-0.2-1.1-0.4c-0.4,0-0.7-0.2-1.1-0.2c-0.4,0-0.7-0.2-1.1-0.2
										c-0.4,0-0.7-0.2-1.1-0.2c-0.4,0-0.7,0-1.1,0c-0.4,0-0.7,0-1.1,0C136,51.6,134.9,51.6,134.9,51.6z"/>
								</g>
							</g>
						</g>
					</g>
				</g>
			</g>
			<g>
				<path class="st1" d="M368.7,95.4c0,0,28.9-2,32.3-17.3s-4.5-29.4-15.1-42.1c0,0,38.5,8,47,46.1c8.5,38.1-15.6,51.9-43.8,62.7
					C360.9,155.3,368.7,95.4,368.7,95.4z"/>
				<g>
					<g>
						<g>
							<g>
								<g>
									<path class="st2" d="M382.1,92.9c0,0,0.7,0.2,2.2,0.9c1.3,0.5,3.3,1.5,5.4,2.9c1.1,0.7,2.2,1.5,3.5,2.4
										c1.3,0.9,2.4,1.8,3.6,2.9c1.1,1.1,2.4,2.2,3.5,3.5c1.1,1.3,2.2,2.5,3.1,4l1.5,2.2c0.4,0.7,0.9,1.5,1.3,2.2
										c0.9,1.5,1.5,3.1,2,4.5c0.7,1.5,0.9,3.1,1.3,4.4c0.2,0.7,0.4,1.5,0.5,2c0,0.7,0.2,1.3,0.2,2c0.2,1.3,0.4,2.4,0.4,3.5
										c0,1.1,0,2-0.2,2.7c-0.2,1.5-0.2,2.4-0.2,2.4s-0.2-0.9-0.4-2.4c-0.2-0.7-0.2-1.6-0.4-2.5s-0.5-2.2-0.7-3.3
										c-0.2-0.5-0.4-1.3-0.4-1.8c-0.2-0.5-0.4-1.3-0.7-2c-0.5-1.3-0.9-2.7-1.6-4.2c-0.5-1.5-1.3-2.9-2.2-4.2
										c-0.4-0.7-0.7-1.5-1.3-2.2l-1.5-2c-0.9-1.5-2-2.5-2.9-3.8c-1.1-1.3-2.2-2.4-3.1-3.5c-1.1-1.1-2.2-2.2-3.3-3.1
										c-1.1-0.9-2-1.8-3.1-2.5c-2-1.6-3.6-2.7-4.9-3.6C382.9,93.4,382.1,92.9,382.1,92.9z"/>
								</g>
							</g>
						</g>
					</g>
					<g>
						<g>
							<g>
								<g>
									<path class="st2" d="M397.6,84.5c0,0,0.2,0,0.5,0c0.4,0,0.9,0,1.5,0.2c1.3,0.2,3.1,0.5,5.3,1.1c1.1,0.4,2.2,0.7,3.5,1.1
										c1.3,0.4,2.5,1.1,3.8,1.6c1.3,0.5,2.5,1.5,3.8,2.2c1.3,0.9,2.5,1.6,3.6,2.7c1.1,1.1,2.4,2,3.3,3.1c0.5,0.5,1.1,1.1,1.5,1.6
										c0.4,0.5,0.9,1.3,1.3,1.8s0.9,1.1,1.3,1.8c0.4,0.5,0.5,1.3,0.9,1.8c0.4,0.5,0.5,1.1,0.9,1.6c0.2,0.5,0.4,1.1,0.5,1.6
										c0.4,1.1,0.7,2,0.9,2.9s0.4,1.6,0.4,2.4c0.2,1.3,0.4,2,0.4,2s-0.4-0.7-0.7-1.8c-0.2-0.5-0.5-1.3-0.9-2.2
										c-0.4-0.7-0.9-1.6-1.5-2.7c-0.2-0.5-0.5-0.9-0.7-1.5c-0.4-0.5-0.7-0.9-1.1-1.5s-0.7-1.1-1.1-1.6c-0.4-0.5-0.9-1.1-1.3-1.6
										c-0.4-0.5-0.9-1.1-1.3-1.6c-0.5-0.5-0.9-0.9-1.5-1.5c-0.9-1.1-2-2-3.1-2.9c-1.1-0.9-2.4-1.8-3.5-2.5
										c-1.3-0.7-2.4-1.6-3.5-2.2c-1.3-0.7-2.4-1.3-3.5-1.8c-1.1-0.5-2.2-1.1-3.3-1.5c-2-0.9-3.6-1.6-4.9-2
										c-0.5-0.2-1.1-0.4-1.5-0.5C397.7,84.5,397.6,84.5,397.6,84.5z"/>
								</g>
							</g>
						</g>
					</g>
					<g>
						<g>
							<g>
								<g>
									<path class="st2" d="M402.8,71.6c0,0,1.6-1.3,4.4-2.2c0.7-0.2,1.5-0.5,2.4-0.7c0.9-0.2,1.6-0.4,2.5-0.5
										C413,68,413.9,68,415,68c0.9,0,2,0,2.9,0.2l1.5,0.2c0.5,0.2,0.9,0.2,1.5,0.4c0.9,0.2,1.8,0.5,2.7,0.9s1.6,0.9,2.4,1.3
										c0.7,0.4,1.5,0.9,2,1.5c0.5,0.5,1.1,0.9,1.5,1.3c0.4,0.5,0.7,0.9,0.9,1.3c0.5,0.7,0.7,1.1,0.7,1.1s-0.4-0.2-1.1-0.7
										c-0.4-0.2-0.7-0.5-1.3-0.7c-0.5-0.4-1.1-0.5-1.6-0.9c-0.5-0.4-1.3-0.7-2-0.9c-0.7-0.4-1.5-0.5-2.4-0.9
										c-0.7-0.2-1.6-0.5-2.5-0.7l-1.3-0.4l-1.3-0.2c-0.9-0.2-1.8-0.2-2.7-0.2s-1.8,0-2.7,0s-1.6,0-2.5,0.2
										c-0.7,0-1.6,0.2-2.2,0.2C404.6,71.2,402.8,71.6,402.8,71.6z"/>
								</g>
							</g>
						</g>
					</g>
					<g>
						<g>
							<g>
								<g>
									<path class="st2" d="M400.1,59.6c0,0,0.5-1.3,2-2.7c0.4-0.4,0.7-0.7,1.3-1.1c0.5-0.4,0.9-0.7,1.5-1.1
										c0.5-0.4,1.1-0.7,1.8-0.9c0.5-0.2,1.3-0.5,2-0.7c0.7-0.2,1.3-0.4,2-0.4c0.7-0.2,1.5-0.2,2,0c0.7,0,1.3,0,1.8,0.2
										c0.5,0.2,1.1,0.2,1.6,0.5c0.5,0.2,0.9,0.4,1.3,0.5c0.4,0.2,0.5,0.5,0.9,0.7c0.4,0.4,0.7,0.5,0.7,0.5s-0.4,0-0.9-0.2
										c-0.4,0-0.5-0.2-1.1-0.2c-0.4,0-0.9,0-1.3,0c-0.5,0-0.9,0-1.5,0c-0.5,0-1.1,0-1.6,0.2c-0.5,0-1.1,0.2-1.6,0.2
										c-0.5,0-1.1,0.4-1.6,0.4c-0.5,0.2-1.1,0.4-1.6,0.5c-0.5,0.2-1.1,0.4-1.6,0.7c-0.5,0.2-1.1,0.4-1.5,0.7
										c-0.5,0.2-0.9,0.5-1.5,0.7C401.2,59.1,400.1,59.6,400.1,59.6z"/>
								</g>
							</g>
						</g>
					</g>
					<g>
						<g>
							<g>
								<g>
									<path class="st2" d="M395.2,49.1c0,0-0.5-0.7-0.4-2c0-0.4,0-0.7,0.2-1.1c0.2-0.4,0.2-0.7,0.5-1.1c0.2-0.4,0.5-0.7,0.7-1.1
										c0.4-0.4,0.7-0.5,1.1-0.9c0.4-0.2,0.9-0.4,1.3-0.5c0.4-0.2,0.9-0.2,1.3-0.2c0.4,0,0.7,0,1.1,0s0.7,0.2,0.9,0.2
										c0.5,0.2,1.1,0.4,1.5,0.5c0.4,0.2,0.5,0.4,0.5,0.4s-0.2,0-0.5,0.2c-0.4,0.2-0.7,0.2-1.3,0.4c-0.2,0.2-0.5,0.2-0.9,0.2
										c-0.4,0-0.5,0.2-0.9,0.4c-0.4,0-0.5,0.2-0.9,0.4c-0.4,0-0.5,0.2-0.7,0.4c-0.2,0.2-0.5,0.4-0.7,0.5
										c-0.2,0.2-0.5,0.4-0.7,0.5c-0.2,0.2-0.4,0.4-0.5,0.5c-0.2,0.2-0.4,0.4-0.5,0.7C395.6,48.4,395.2,49.1,395.2,49.1z"/>
								</g>
							</g>
						</g>
					</g>
				</g>
			</g>
		</g>
		<g>
			<g>
				<g>
					<path class="st3" d="M125.1,207.8c0,0-46.1,112.6-22.9,198.5c0,0-16.3,1.3-17.3,10c-0.9,8.5,7.3,16.3,7.3,16.3
						s-31.8,9.8-30.2,19.1c1.8,9.3,24.5,8.9,34,0.2c0,0-13.3,14.7-7.4,18.5c5.8,3.8,23.2-5.6,27.6-12.4c0,0-4,10.9,2.4,13.4
						c6.4,2.5,19.6-8.7,19.3-27.8c-0.4-19.1-9.8-37.8-16-67.7c-6.2-30-7.8-75.9,0-100.6S125.1,207.8,125.1,207.8z"/>
					<path class="st3" d="M129.8,406.5c0,0,20.5,18,22,29.2c1.5,11.4-22.2,4-22.2,4L129.8,406.5z"/>
				</g>
				<g>
					<path class="st3" d="M408.8,181.3c0,0,36.9,13.8,59.6-0.2c22.7-14,28.3-49.2,10.9-89.7c0,0-23.6,3.6-32.3-7.8
						s8.9-17.3,27.4-18.2c0,0-16.5-37.2-1.6-46.9s21.6,38.3,21.6,38.3s2.5-40.3,15.6-39.4c13.1,0.9,4.4,39.6,4.4,39.6
						S536,29.8,549,36.7c15.3,8-30.3,54.9-38.3,51.9c0,0,24.2,75-9.1,107.2s-79.6,26.5-79.6,26.5L408.8,181.3z"/>
					<g>
						<g>
							<g>
								<g>
									<path class="st4" d="M501.8,70c0,0-0.4,0.4-0.7,0.9c-0.5,0.5-1.1,1.3-1.6,2.2c-0.4,0.4-0.5,0.9-0.9,1.5
										c-0.4,0.5-0.5,1.1-0.9,1.6c-0.4,0.5-0.7,1.1-0.9,1.8c-0.4,0.5-0.7,1.3-0.9,1.8c-0.4,0.5-0.5,1.3-0.9,1.8
										c-0.2,0.5-0.5,1.3-0.7,1.8c-0.2,0.5-0.5,1.1-0.7,1.6c-0.2,0.5-0.4,1.1-0.5,1.5c0,0.4-0.2,0.9-0.2,1.3c0,0.4,0,0.7,0,1.1
										c0,0.7,0.2,1.1,0.2,1.1s-0.4-0.2-1.1-0.5c-0.4-0.2-0.7-0.5-1.1-1.1c-0.4-0.5-0.5-1.1-0.9-1.8c-0.2-0.7-0.4-1.5-0.4-2.2
										c0-0.7,0-1.6,0.2-2.4c0-0.9,0.4-1.6,0.5-2.4c0.4-0.7,0.5-1.6,1.1-2.4c0.4-0.7,0.9-1.5,1.3-2.2c0.5-0.7,1.1-1.3,1.6-1.8
										c0.5-0.5,1.3-1.1,1.8-1.5c0.5-0.4,1.3-0.7,1.8-1.1c1.3-0.5,2.4-0.7,3.1-0.7C501.5,70,501.8,70,501.8,70z"/>
								</g>
							</g>
						</g>
					</g>
				</g>
			</g>
			<g>
				<path class="st5" d="M193.2,449.6c0,0,2.4,59.6,2.4,67.7c0,0-13.6-8.7-31.8-7.8s-29.6,14.3-30.5,24c-0.9,9.4,0.4,22.7,33.4,24.7
					s54.1-1.6,55.4-4.7c1.5-3.1-2.2-93.5-2.2-93.5L193.2,449.6z"/>
				<path class="st5" d="M356.7,445.1l2.7,75.4c17.8-14.5,43.8-9.4,59.6-0.2c15.8,9.1,9.1,25.6,8,27.8c-2.7,5.8-61,18.3-85,4.2
					c-8.9-11.8-8.5-98.8-8.5-98.8L356.7,445.1z"/>
			</g>
			<g>
				<path class="st3" d="M268.4,54c0,0-2.7-12.4-10.9-16.9c0.4,16.9,0.4,16.9,0.4,16.9s-15.4-6.4-30.3-2.9c0,0,6.4,5.4,9.1,12.4
					c0,0-130.8,33.1-118.4,223.2s120.2,183.5,167.5,184.9c47.2,1.5,150.2-11.4,146.2-194.2c-4-182.7-99.5-225.8-143.1-222.3
					c0,0,2.4-11.3,11.4-17.6C300.2,37.3,273.9,43.1,268.4,54z"/>
				<path class="st6" d="M255.9,72.9c42-5.8,115.2-5.1,147.3,117.7c28.5,108.6,14,207.8-46.9,234.7
					c-60.8,27.1-201.1,50.9-213.8-123.1C129.8,128.1,215.7,78.5,255.9,72.9z"/>
				<g>
					<g>
						<g>
							<g>
								<path class="st4" d="M119.5,223.3c0,0-0.2,4-0.4,10c0,1.5-0.2,3.1-0.2,4.7c0,1.6-0.2,3.5-0.2,5.3s-0.2,3.8-0.2,5.6
									c0,2-0.2,4-0.2,6c0,2-0.2,4-0.2,6c0,2,0,3.8,0,5.6s0,3.6,0,5.3s0,3.3,0,4.7c0,2.9,0,5.4,0,7.3s0,2.7,0,2.7s-0.2-0.9-0.5-2.7
									c-0.4-1.6-0.7-4.2-1.1-7.1c-0.2-1.5-0.4-3.1-0.4-4.9c-0.2-1.6-0.2-3.5-0.4-5.4c0-1.8-0.2-3.8-0.2-5.8s0-4,0-6
									c0-2,0.2-4,0.2-6c0.2-2,0.4-3.8,0.4-5.8c0.2-1.8,0.4-3.6,0.5-5.4c0.2-1.6,0.4-3.3,0.7-4.7
									C118.6,227.1,119.5,223.3,119.5,223.3z"/>
							</g>
						</g>
					</g>
				</g>
			</g>
		</g>
		<g>
			<path class="st7" d="M171.4,395.5c3.6,45.4,65.8,60.7,123.9,56.9c58.1-3.8,101-28.5,103.9-71.7c2.9-43-63.8-59.4-116.8-59.2
				C229.4,321.7,167.4,344.1,171.4,395.5z"/>
			<g>
				<g>
					<g>
						<ellipse id="SVGID_1_" class="st8" cx="225.1" cy="144.3" rx="29.1" ry="29.1"/>
					</g>
					<g>
						<defs>
							<circle id="SVGID_2_" cx="225.1" cy="144.3" r="29.1"/>
						</defs>
						<clipPath id="SVGID_4_">
							<use xlink:href="#SVGID_2_"  style="overflow:visible;"/>
						</clipPath>
						<g class="st9">
							<path class="st10" d="M253.5,136.6c0.2,11.1-7.8,19.8-20.2,20c-11.1,0.2-20-9.1-20-20.2s9.1-20.2,20.2-20
								C244.6,116.5,253.3,125.6,253.5,136.6z"/>
							<path class="st11" d="M249.2,128.8c0,6-4.2,10.7-10.9,10.9c-6,0.2-10.9-4.9-10.9-10.9s4.9-10.9,10.9-10.9
								C244.3,117.9,249.2,122.8,249.2,128.8z"/>
						</g>
					</g>
				</g>
				<g>
					<g>
						<ellipse id="SVGID_3_" class="st8" cx="318.5" cy="141.8" rx="29.1" ry="29.1"/>
					</g>
					<g>
						<defs>
							<circle id="SVGID_5_" cx="318.5" cy="141.8" r="29.1"/>
						</defs>
						<clipPath id="SVGID_6_">
							<use xlink:href="#SVGID_5_"  style="overflow:visible;"/>
						</clipPath>
						<g class="st12">
							<path class="st10" d="M346.7,134.1c0.2,11.1-7.8,19.8-20.2,20c-11.1,0.2-20-9.1-20-20.2s9.1-20.2,20.2-20
								C337.8,113.9,346.7,122.8,346.7,134.1z"/>
							<path class="st11" d="M342.5,126.3c0,6-4.2,10.7-10.9,10.9c-6,0.2-10.9-4.9-10.9-10.9s4.9-10.9,10.9-10.9
								C337.6,115.4,342.3,120.3,342.5,126.3z"/>
						</g>
					</g>
				</g>
				<path class="st13" d="M272.2,147.4c7.8-0.5,16,26.3,14,32.7c-2.5,8.5-24,6.2-29.6-0.2C251.7,174.4,261.5,148.3,272.2,147.4z"/>
				<path class="st14" d="M198.5,186.6c21.8-0.2,41.2,31.2,71.2,31.8s39.2-33.2,69.6-34c30.5-0.7,28.3,88.8-68.7,94.8
					C173.6,285.2,158.2,186.9,198.5,186.6z"/>
				<g>
					<g>
						<defs>
							<path id="SVGID_7_" d="M198.5,186.6c21.8-0.2,41.2,31.2,71.2,31.8s39.2-33.2,69.6-34c30.5-0.7,28.3,88.8-68.7,94.8
								C173.6,285.2,158.2,186.9,198.5,186.6z"/>
						</defs>
						<clipPath id="SVGID_8_">
							<use xlink:href="#SVGID_7_"  style="overflow:visible;"/>
						</clipPath>
						<path class="st15" d="M201.2,181.1c-0.9,10.7,0,21.8,3.5,24.9c3.6,3.1,14,2.2,24.7-9.3C240.1,185.3,201.2,181.1,201.2,181.1z"
							/>
					</g>
					<g>
						<defs>
							<path id="SVGID_9_" d="M198.5,186.6c21.8-0.2,41.2,31.2,71.2,31.8s39.2-33.2,69.6-34c30.5-0.7,28.3,88.8-68.7,94.8
								C173.6,285.2,158.2,186.9,198.5,186.6z"/>
						</defs>
						<clipPath id="SVGID_10_">
							<use xlink:href="#SVGID_9_"  style="overflow:visible;"/>
						</clipPath>
						<path class="st16" d="M233.7,196.4c0,0-3.1,22.7,5.4,27.1c8.5,4.4,22.3-12,22.3-12L233.7,196.4z"/>
					</g>
					<g>
						<defs>
							<path id="SVGID_11_" d="M198.5,186.6c21.8-0.2,41.2,31.2,71.2,31.8s39.2-33.2,69.6-34c30.5-0.7,28.3,88.8-68.7,94.8
								C173.6,285.2,158.2,186.9,198.5,186.6z"/>
						</defs>
						<clipPath id="SVGID_12_">
							<use xlink:href="#SVGID_11_"  style="overflow:visible;"/>
						</clipPath>
						<path class="st17" d="M271,213.3c0,0,11.4,18.5,21.4,13.8c9.8-4.7,4.4-27.4,4.4-27.4L271,213.3z"/>
					</g>
					<g>
						<defs>
							<path id="SVGID_13_" d="M198.5,186.6c21.8-0.2,41.2,31.2,71.2,31.8s39.2-33.2,69.6-34c30.5-0.7,28.3,88.8-68.7,94.8
								C173.6,285.2,158.2,186.9,198.5,186.6z"/>
						</defs>
						<clipPath id="SVGID_14_">
							<use xlink:href="#SVGID_13_"  style="overflow:visible;"/>
						</clipPath>
						<path class="st18" d="M304,196.8c-2.7,3.1,14,15.8,22.2,11.4c8.2-4.4,5.3-26.3,5.3-26.3S317.6,181,304,196.8z"/>
					</g>
					<g>
						<defs>
							<path id="SVGID_15_" d="M198.5,186.6c21.8-0.2,41.2,31.2,71.2,31.8s39.2-33.2,69.6-34c30.5-0.7,28.3,88.8-68.7,94.8
								C173.6,285.2,158.2,186.9,198.5,186.6z"/>
						</defs>
						<clipPath id="SVGID_16_">
							<use xlink:href="#SVGID_15_"  style="overflow:visible;"/>
						</clipPath>
						<path class="st19" d="M186.5,248.9c0,0,16.9-11.4,23.4-8.9c6.4,2.5-0.2,30.5-0.2,30.5L186.5,248.9z"/>
					</g>
					<g>
						<defs>
							<path id="SVGID_17_" d="M198.5,186.6c21.8-0.2,41.2,31.2,71.2,31.8s39.2-33.2,69.6-34c30.5-0.7,28.3,88.8-68.7,94.8
								C173.6,285.2,158.2,186.9,198.5,186.6z"/>
						</defs>
						<clipPath id="SVGID_18_">
							<use xlink:href="#SVGID_17_"  style="overflow:visible;"/>
						</clipPath>
						<path class="st20" d="M331.6,263.2c0,0-5.3-25.1,0.2-31.1c5.4-6.2,22.5,6.4,22.5,6.4S347.1,256.9,331.6,263.2z"/>
					</g>
					<g>
						<defs>
							<path id="SVGID_19_" d="M198.5,186.6c21.8-0.2,41.2,31.2,71.2,31.8s39.2-33.2,69.6-34c30.5-0.7,28.3,88.8-68.7,94.8
								C173.6,285.2,158.2,186.9,198.5,186.6z"/>
						</defs>
						<clipPath id="SVGID_20_">
							<use xlink:href="#SVGID_19_"  style="overflow:visible;"/>
						</clipPath>
						<path class="st21" d="M221.4,276.9c0,0,11.8-37.2,45.6-39.6s57.2,34.9,57.2,34.9S272.6,314.5,221.4,276.9z"/>
					</g>
					<g>
						<defs>
							<path id="SVGID_21_" d="M198.5,186.6c21.8-0.2,41.2,31.2,71.2,31.8s39.2-33.2,69.6-34c30.5-0.7,28.3,88.8-68.7,94.8
								C173.6,285.2,158.2,186.9,198.5,186.6z"/>
						</defs>
						<clipPath id="SVGID_22_">
							<use xlink:href="#SVGID_21_"  style="overflow:visible;"/>
						</clipPath>
						<path class="st22" d="M229,279.4c0,0,6.9-21.3,18.2-21.3c11.1,0,16.2,27.1,16.2,27.1L229,279.4z"/>
					</g>
					<g>
						<defs>
							<path id="SVGID_23_" d="M198.5,186.6c21.8-0.2,41.2,31.2,71.2,31.8s39.2-33.2,69.6-34c30.5-0.7,28.3,88.8-68.7,94.8
								C173.6,285.2,158.2,186.9,198.5,186.6z"/>
						</defs>
						<clipPath id="SVGID_24_">
							<use xlink:href="#SVGID_23_"  style="overflow:visible;"/>
						</clipPath>
						<path class="st23" d="M287.3,283.2c0,0,0.2-25.2,10.7-27.8c10.5-2.5,19.4,16.5,19.4,16.5L287.3,283.2z"/>
					</g>
				</g>
			</g>
			<g class="st24">
				<path class="st25" d="M132.7,275c11.6-2.7,19.3,28.2,8,31.4C129.7,309.6,121.1,277.9,132.7,275z"/>
				<path class="st25" d="M152.9,251.2c10.5,0.7,12.7,19.8-0.2,23.4C140,278.3,144.7,250.7,152.9,251.2z"/>
				<path class="st25" d="M136.2,215.6c13.3-0.5,13.1,34.1-3.1,33.2C116.9,247.8,126.2,216,136.2,215.6z"/>
				<path class="st25" d="M159.4,189.1c5.3,1.1,1.8,23.4-7.3,19.1C143.3,203.8,154.2,188,159.4,189.1z"/>
				<path class="st25" d="M143.5,327.5c5.4,0.2,6.2,22.7-3.6,20C130.2,345,138,327.5,143.5,327.5z"/>
				<path class="st25" d="M150,157.3c10,0-2.2,33.1-10.7,30C130.6,184,142,157.3,150,157.3z"/>
				<path class="st25" d="M167.8,149.5c8.4,3.6,18.3-27.2,10-30.9C169.3,114.8,158,145.2,167.8,149.5z"/>
				<path class="st25" d="M156.9,319.7c6.9,0.5,9.1-13.4,2.4-15.3C152.5,302.7,150,319.4,156.9,319.7z"/>
				<path class="st25" d="M409.6,339c9.1,2.4,22.3-29.8,8.7-34.9C404.6,299,400.5,336.6,409.6,339z"/>
				<path class="st25" d="M396.7,285.2c6.9-2.2,6.7,10.7,0,13.6C389.8,301.6,389.8,287.2,396.7,285.2z"/>
				<path class="st25" d="M409.4,239.4c8.7-4,18.9,29.4,8,34S400.3,243.4,409.4,239.4z"/>
				<path class="st25" d="M402.1,202.2c7.1-1.1,8,27.1-2,28C390.1,231.3,391,204,402.1,202.2z"/>
				<path class="st25" d="M382.7,181.3c7.1-3.5,8.5,14.3,2.7,14C379.4,194.9,377,183.9,382.7,181.3z"/>
				<path class="st25" d="M384.5,142.3c8.9-7.6,25.4,22.3,16.2,28.7C391.2,177.1,375.6,149.9,384.5,142.3z"/>
				<path class="st25" d="M362.3,124.1c3.3-2.2,10.9,11.8,2.4,14C356.2,140.3,355.8,128.5,362.3,124.1z"/>
				<path class="st25" d="M362.3,99.4c5.6-5.4,27.8,16,22.2,24.7C378.7,132.6,356.9,104.9,362.3,99.4z"/>
				<path class="st25" d="M328.7,72c2.7-4.9,21.6,6,18.5,11.4C344.2,88.9,325.8,77.1,328.7,72z"/>
				<path class="st25" d="M190.7,102.1c2.7,2.7,13.4-1.1,10.4-6.7C198.1,89.8,188,99.4,190.7,102.1z"/>
				<path class="st25" d="M217.4,97.8c1.1,9.3,24.2,3.6,19.8-7.6C232.8,78.9,216.5,90.5,217.4,97.8z"/>
				<path class="st25" d="M246.3,75.1c-1.6-6.7,13.1-10,14.2-4.7C261.7,75.8,247.5,79.8,246.3,75.1z"/>
				<path class="st25" d="M281.9,82.9c0.2-11.3,32.9-7.6,32.9,3.1S281.7,90.1,281.9,82.9z"/>
			</g>
		</g>
	</g>
</g>
</svg>
