<?xml version="1.0" encoding="utf-8"?>
<!-- Generator: Adobe Illustrator 22.0.0, SVG Export Plug-In . SVG Version: 6.00 Build 0)  -->
<svg version="1.1" id="Layer_1" xmlns="http://www.w3.org/2000/svg" xmlns:xlink="http://www.w3.org/1999/xlink" x="0px" y="0px"
	 viewBox="0 0 600 600" style="enable-background:new 0 0 600 600;" xml:space="preserve">
<style type="text/css">
	.st0{fill:#D27117;}
	.st1{fill:#C36515;}
	.st2{fill:#F6901B;}
	.st3{fill:#E47E17;}
	.st4{fill:#FFFFFF;}
	.st5{fill:#FCAC34;}
	.st6{fill:#8C5710;}
	.st7{fill:#E7E7E7;}
	.st8{fill:#501627;}
	.st9{fill:#F56A82;}
</style>
<path class="st0" d="M114.6,294.3L96.9,275c0,0-46.7,50.8-24.5,136.9c19.6,76.1,67.8,33.9,52.1-11.4
	C108.8,355.1,114.6,294.3,114.6,294.3z"/>
<path class="st1" d="M124.5,400.5c-15.7-45.4-9.9-106.2-9.9-106.2l-26.7-6.8c-8.8,29.2,20,87.3,23.7,103.7c3.7,16.4,8.4,33.2,1.9,47
	c-6.5,13.8-27.7,4.8-27.7,4.8C107.8,472.1,137.3,437.3,124.5,400.5z"/>
<path class="st1" d="M456.9,294.3l17.6-19.3c0,0,46.7,50.8,24.5,136.9c-19.6,76.1-67.8,33.9-52.1-11.4
	C462.7,355.1,456.9,294.3,456.9,294.3z"/>
<path class="st0" d="M446.9,400.5c-3.6,11.5-3.9,22.5-1.3,31.6c3.7,12.4,19.1,14.7,21.4,0c0.9-5.5,2.9-18.3,0.2-26.4
	C462.9,392.2,451.6,385.5,446.9,400.5z"/>
<path class="st0" d="M219,438.2c0,0-8.7,109.7-24.6,117.2c-15.9,7.5-10.3,12.2,28.1,12.2c38.4,0,45.8-3.7,47.7-35.5
	c1.9-31.8-9.7-82.8-9.7-82.8L219,438.2z"/>
<path class="st0" d="M375,555.4c-15.9-7.5-24.6-117.2-24.6-117.2l-41.5,11c0,0-11.5,51-9.7,82.8c1.9,31.8,9.4,35.5,47.7,35.5
	C385.3,567.5,390.9,562.8,375,555.4z"/>
<path class="st1" d="M262.3,524c-6.1,32.3-30.4,46.4-66.9,42.1c5.9,0.9,14.8,1.4,27.1,1.4c38.4,0,45.8-3.7,47.7-35.5
	c1.9-31.8-9.7-82.8-9.7-82.8l-41.5-11c0,0,6.8,6.6,21.3,13C254.8,457.6,268.3,491.7,262.3,524z"/>
<path class="st1" d="M351.6,502.8c2.8,31.5,24.3,66-18.7,64.4l0,0c4.2,0.2,8.8,0.3,14.1,0.3c38.4,0,44-4.7,28.1-12.2
	c-15.9-7.5-24.6-117.2-24.6-117.2l-41.5,11c0,0,11.4,3.8,21,3.8C339.4,452.9,348.8,471.4,351.6,502.8z"/>
<path class="st2" d="M475.5,207c6.9,9,17.4,14.4,17.4,14.4c-3.7-44-61.2-93.9-61.2-93.9c19.2,6.6,19.6,0.5,19.6,0.5
	c-56.1-56.7-121.4-53.2-121.4-53.2c6.7-0.5,11.3-8.9,11.3-8.9c-27.8-9.2-50.9,4.8-50.9,4.8s-27.5-7.3-37.5-21c0,0-8.7,17.5,7.5,26.2
	c0,0-33.7-13.7-77.3,6.2c0,0,12.5,8.7,26.2,8.7c0,0-61.1,1.2-107.3,69.9c0,0,9.4,2.6,18.9-3.4c-11.1,11.5-30.5,36-35.8,70.8
	c0,0,7.4-1.3,12.8-9.8c-6.6,16.6-18.3,57.3-2.2,111.8c0,0,4.8-0.4,6-24c0,0,13.3,89.5,63.8,127.9c0,0,6.2-11.2-1.1-28.1
	c0,0,32.9,30.9,36.7,51.5c0,0,7.2-12.6,2.2-25.9c0,0,27.7,20,85.7,20c58,0,91.3-22.9,91.3-22.9c-3.2,11.4,7,22.9,7,22.9
	c0.9-19,26.4-45.5,26.4-45.5c-9.7,8.8-1.1,27.1-1.1,27.1c18.2-15.5,30.9-45.8,36.6-61.5c-1.3,10.9,5.6,18.5,5.6,18.5
	c24.4-26.2,23.1-89.9,23.1-89.9c1.7,15.8,15.2,29.1,15.2,29.1C504.1,270,475.5,207,475.5,207z"/>
<path class="st3" d="M164.3,405.7c0,0,32.9,30.9,36.7,51.5c0,0,7.2-12.6,2.2-25.9c0,0,27.7,20,85.7,20c58,0,91.3-22.9,91.3-22.9
	c-3.2,11.4,7,22.9,7,22.9c0.9-19,26.4-45.5,26.4-45.5c-9.7,8.8-1.1,27.1-1.1,27.1c18.2-15.5,30.9-45.8,36.6-61.5
	c-1.3,10.9,5.6,18.5,5.6,18.5c24.4-26.2,23.1-89.9,23.1-89.9c1.7,15.8,15.2,29.1,15.2,29.1c11.2-58.9-17.4-122-17.4-122
	c6.9,9,17.4,14.4,17.4,14.4c-3.7-44-61.2-93.9-61.2-93.9c19.2,6.6,19.6,0.5,19.6,0.5c-56.1-56.7-121.4-53.2-121.4-53.2
	s6.8-0.7,14.9,8.5c8.2,9.2,18.1,22.2,38.5,28.9c20.3,6.7,70.7,32.5,85.4,74.4c0,0-12-3.7-17.5-11c0,0,44.5,89.7,11.6,173.2
	c0,0-8.1-8.5-6.5-20.1c0,0-34.5,99.4-153.4,109.6C207.2,446.3,164.3,405.7,164.3,405.7z"/>
<g>
	<path class="st4" d="M146.3,194.7c4.6,29.9,32.6,50.4,62.5,45.8c29.9-4.6,50.4-32.6,45.8-62.5L146.3,194.7z"/>
	<path class="st5" d="M181.5,189.8c2.5,14.9,16.6,25,31.5,22.5c14.9-2.5,25-16.6,22.5-31.5L181.5,189.8z"/>
	<path class="st4" d="M384.4,186.9c-0.6,4.4,2.4,8.6,6.9,9.2c4.4,0.6,8.6-2.4,9.2-6.9L384.4,186.9z"/>
	<g>
		<path class="st6" d="M193.7,187.5c1.2,7.5,8.3,12.5,15.8,11.3c7.5-1.2,12.5-8.3,11.3-15.8L193.7,187.5z"/>
		<path class="st4" d="M213.6,184.2c0.7,4.4,4.9,7.4,9.4,6.7c4.4-0.7,7.4-4.9,6.7-9.4L213.6,184.2z"/>
		<path class="st4" d="M328.1,177.3c-5,29.8,15.1,58.1,44.9,63.1c29.8,5,58.1-15.1,63.1-44.9L328.1,177.3z"/>
		<path class="st7" d="M207.7,231.8c-29.8,5-57.4-11.3-61.6-36.4c5,29.8,33.2,50,63,45.1c29.8-5,50-33.2,45.1-63
			C258.3,202.5,237.5,226.8,207.7,231.8z"/>
		<path class="st7" d="M374.5,231.8c-29.8-5-50.6-29.4-46.4-54.5c-5,29.8,15.1,58.1,44.9,63.1c29.8,5,58.1-15.1,63.1-44.9
			C431.9,220.6,404.3,236.8,374.5,231.8z"/>
		<path class="st5" d="M362.2,183.1c-2.5,14.9,7.5,29.1,22.4,31.6c14.9,2.5,29.1-7.5,31.6-22.4L362.2,183.1z"/>
		<path class="st6" d="M375.7,185.3c-1.3,7.5,3.8,14.5,11.2,15.8c7.5,1.3,14.5-3.8,15.8-11.2L375.7,185.3z"/>
		<path class="st4" d="M394.7,188.5c-0.7,4.4,2.2,8.6,6.7,9.4c4.4,0.7,8.6-2.2,9.4-6.7L394.7,188.5z"/>
	</g>
</g>
<g>
	<path class="st8" d="M292.8,310.6c41,0,45.1-25.5,74.1-12.8c29.1,12.6,21.8,95.9-61.3,101.3c-83.1,5.4-120-70.2-88.5-95.9
		C251.1,275.5,259,310.6,292.8,310.6z"/>
	<path class="st9" d="M225.6,371.2c16.9,17.3,44.1,30.1,80,27.8c29-1.9,48.7-13.3,61-27.8c-0.2-0.3-12.9-16.8-71.3-16.8
		C236.4,354.5,225.6,371.2,225.6,371.2z"/>
	<path class="st4" d="M278,308.1c0.7,8.6,2.9,20.8,9.2,20.8c5.9,0,6.9-10.3,6.8-18.4c-0.4,0-0.8,0-1.2,0
		C287.2,310.6,282.4,309.6,278,308.1z"/>
	<path class="st4" d="M292.8,310.6C292.8,310.6,292.8,310.6,292.8,310.6c-0.1,7.3,0.7,16.9,6.1,16.9c5.5,0,7.5-10.4,8.2-18.1
		C302.9,310.1,298.2,310.6,292.8,310.6z"/>
</g>
</svg>
