<?xml version="1.0" encoding="utf-8"?>
<!-- Generator: Adobe Illustrator 22.0.0, SVG Export Plug-In . SVG Version: 6.00 Build 0)  -->
<svg version="1.1" id="Layer_1" xmlns="http://www.w3.org/2000/svg" xmlns:xlink="http://www.w3.org/1999/xlink" x="0px" y="0px"
	 viewBox="0 0 600 600" style="enable-background:new 0 0 600 600;" xml:space="preserve">
<style type="text/css">
	.st0{fill:#437F04;}
	.st1{fill:#2C5102;}
	.st2{opacity:0.23;fill:#045495;enable-background:new    ;}
	.st3{fill:#62BF00;}
	.st4{fill:#5AA800;}
	.st5{fill:#6ECC00;}
	.st6{fill:#569E02;}
	.st7{fill:#FAEB69;}
	.st8{fill:#1D1D1B;}
	.st9{clip-path:url(#SVGID_3_);fill:#FFFFFF;}
	.st10{opacity:0.51;fill:#D45614;enable-background:new    ;}
	.st11{fill:#498E00;}
	.st12{fill:#9DFF1F;}
</style>
<g>
	<g>
		<g>
			<polygon class="st0" points="149.3,262.7 93.7,214.8 162,217.9 			"/>
			<g>
				<g>
					<g>
						<g>
							<path class="st1" d="M139.8,219.5c0,0-0.2,0.4-0.6,1s-0.8,1.4-1.2,2.5c-0.2,0.6-0.4,1.2-0.6,1.6c-0.2,0.6-0.4,1.2-0.6,2.1
								c-0.2,0.6-0.4,1.4-0.4,2.1c-0.2,0.6-0.2,1.4-0.4,2.3c-0.2,0.8-0.2,1.4-0.4,2.3c0,0.8-0.2,1.4-0.2,2.3c0,0.6-0.2,1.4-0.2,2.1
								c0,0.6,0,1.2-0.2,1.9c0,1.2,0,2.1,0,2.9c0,0.6,0,1,0,1s-0.2-0.4-0.6-1s-0.8-1.6-1-2.9c-0.2-0.6-0.2-1.2-0.4-2.1
								c0-0.6-0.2-1.4-0.2-2.3c0-0.8,0-1.6,0-2.5c0-0.8,0.2-1.6,0.4-2.5c0.2-0.8,0.4-1.6,0.6-2.5c0.2-0.8,0.4-1.4,0.8-2.3
								c0.2-0.8,0.6-1.4,1-2.1c0.4-0.6,0.8-1.2,1-1.6c0.8-1,1.6-1.6,2.3-2.1C139.4,219.7,139.8,219.5,139.8,219.5z"/>
						</g>
					</g>
				</g>
			</g>
			<g>
				<g>
					<g>
						<g>
							<path class="st1" d="M119.1,217.9c0,0-0.2,0.2-0.4,0.6c-0.2,0.4-0.6,0.8-0.8,1.4c-0.2,0.2-0.2,0.6-0.4,0.8
								c-0.2,0.4-0.2,0.6-0.2,1s-0.2,0.8-0.2,1.2c-0.2,0.4-0.2,0.8-0.2,1.2s-0.2,0.8-0.2,1.2s-0.2,0.8-0.2,1.2s-0.2,0.8-0.4,1.2
								c-0.2,0.4-0.2,0.8-0.4,1c-0.2,0.6-0.6,1.2-0.8,1.6c-0.2,0.4-0.4,0.6-0.4,0.6s0-0.2-0.2-0.6c-0.2-0.4-0.2-1-0.4-1.6
								c0-0.4-0.2-0.8-0.2-1c0-0.4,0-0.8,0-1.2s0-0.8,0-1.4c0-0.4,0.2-1,0.2-1.4c0.2-0.4,0.2-1,0.4-1.4c0.2-0.4,0.4-0.8,0.6-1.4
								c0.2-0.4,0.6-0.8,0.8-1.2c0.2-0.4,0.6-0.6,1-0.8c0.6-0.4,1.2-0.6,1.6-0.8C118.6,217.9,119.1,217.9,119.1,217.9z"/>
						</g>
					</g>
				</g>
			</g>
		</g>
		<g>
			<polygon class="st0" points="165.1,180.7 106.9,109.9 185.5,139.7 			"/>
			<g>
				<g>
					<g>
						<g>
							<path class="st1" d="M169.2,134.2c0,0-1.2,1.9-3.5,4.3c-0.6,0.6-1.2,1.2-1.9,2.1c-0.6,0.6-1.2,1.4-1.9,2.3
								c-0.6,0.8-1.2,1.6-1.9,2.5c-0.6,0.8-1.2,1.6-1.9,2.7c-0.6,0.8-1,1.9-1.6,2.7c-0.4,1-0.8,1.9-1.2,2.9c-0.4,1-0.8,1.9-1,2.7
								c-0.4,0.8-0.6,1.6-1,2.5c-0.6,1.6-1.2,2.9-1.6,3.7c-0.4,0.8-0.6,1.4-0.6,1.4s0-0.6,0.2-1.6c0-1,0.2-2.3,0.4-4.1
								c0.2-0.8,0.2-1.6,0.4-2.7c0.2-1,0.4-2.1,0.8-3.1c0.4-1,0.6-2.1,1.2-3.1c0.4-1,1-2.1,1.6-3.1s1.2-1.9,2.1-2.9
								c0.8-0.8,1.4-1.6,2.3-2.5c0.8-0.8,1.6-1.4,2.3-2.1c0.8-0.6,1.4-1.2,2.1-1.6C167.4,135.2,169.2,134.2,169.2,134.2z"/>
						</g>
					</g>
				</g>
			</g>
			<g>
				<g>
					<g>
						<g>
							<path class="st1" d="M147.8,125.9c0,0-0.2,0.2-0.8,0.4c-0.4,0.2-1,0.8-1.9,1.4c-0.4,0.2-0.6,0.6-1,1s-0.8,0.8-1,1.2
								c-0.4,0.4-0.8,0.8-1,1.4c-0.4,0.4-0.8,1-1.2,1.4c-0.4,0.4-0.8,1-1,1.4c-0.4,0.4-0.8,1-1,1.4c-0.4,0.4-0.6,0.8-1,1.4
								c-0.4,0.4-0.6,0.8-0.8,1.2c-0.6,0.8-1,1.4-1.4,1.9s-0.6,0.8-0.6,0.8s0-0.4,0-1c0-0.6,0-1.4,0.4-2.5c0.2-0.4,0.2-1,0.4-1.6
								c0.2-0.6,0.4-1,0.8-1.6c0.2-0.6,0.6-1.2,1-1.6c0.4-0.6,0.8-1,1.2-1.6c0.4-0.6,0.8-1,1.4-1.4c0.4-0.4,1-0.8,1.4-1.2
								c0.4-0.4,1-0.8,1.6-1c0.6-0.2,1-0.6,1.6-0.6c1-0.4,1.9-0.4,2.5-0.4C147.4,125.7,147.8,125.9,147.8,125.9z"/>
						</g>
					</g>
				</g>
			</g>
			<g>
				<g>
					<g>
						<g>
							<path class="st1" d="M125.6,117.7c0,0-0.4,0.8-0.8,1.4c-0.2,0.2-0.2,0.4-0.4,0.6c-0.2,0.2-0.2,0.4-0.4,0.6
								c-0.2,0.2-0.4,0.4-0.4,0.8c-0.2,0.2-0.4,0.4-0.6,0.6l-0.6,0.6c-0.2,0.2-0.4,0.4-0.6,0.6s-0.4,0.4-0.6,0.6s-0.4,0.4-0.6,0.4
								c-0.4,0.4-0.6,0.6-0.8,0.8c-0.2,0.2-0.4,0.4-0.4,0.4s0-0.2-0.2-0.6c0-0.4-0.2-0.8,0-1.4c0-0.2,0-0.6,0.2-0.8
								c0-0.2,0.2-0.6,0.4-0.8c0.2-0.4,0.2-0.6,0.4-0.8l0.6-0.8c0.2-0.2,0.4-0.6,0.6-0.8c0.2-0.2,0.6-0.4,0.8-0.6
								c0.2-0.2,0.6-0.4,0.8-0.4c0.2-0.2,0.6-0.2,0.8-0.4C124.8,117.5,125.6,117.7,125.6,117.7z"/>
						</g>
					</g>
				</g>
			</g>
		</g>
		<g>
			<polygon class="st0" points="445.9,162.3 528.8,130.7 457.4,200.2 			"/>
			<g>
				<g>
					<g>
						<g>
							<path class="st1" d="M464.6,156.8c0,0,0.4,0,1,0.2c0.6,0.2,1.4,0.4,2.5,1c0.4,0.2,1,0.6,1.4,1c0.4,0.4,1,0.8,1.4,1.4
								c0.4,0.6,0.8,1,1.2,1.6c0.4,0.6,0.6,1.2,1,1.9c0.2,0.6,0.6,1.2,0.8,2.1c0.2,0.6,0.4,1.2,0.6,2.1c0.2,0.6,0.4,1.2,0.4,1.9
								c0.2,0.6,0.2,1.2,0.2,1.6c0.2,1,0.2,2.1,0.2,2.7c0,0.6,0,1,0,1s-0.2-0.4-0.6-0.8c-0.4-0.6-0.8-1.2-1.2-2.3
								c-0.2-0.4-0.4-1-0.8-1.4c-0.2-0.6-0.6-1-0.8-1.6c-0.2-0.6-0.6-1.2-0.8-1.9c-0.2-0.6-0.6-1.2-0.8-1.9
								c-0.2-0.6-0.6-1.2-0.8-1.9c-0.2-0.6-0.6-1.2-0.8-1.6c-0.2-0.6-0.6-1-0.8-1.4c-0.4-0.4-0.6-1-0.8-1.2
								c-0.6-0.8-1.2-1.4-1.6-1.9C464.8,157.2,464.6,156.8,464.6,156.8z"/>
						</g>
					</g>
				</g>
			</g>
			<g>
				<g>
					<g>
						<g>
							<path class="st1" d="M484.8,149c0,0,0.2,0,0.8,0c0.4,0,1.2,0.2,1.9,0.6c0.4,0.2,0.8,0.4,1,0.6c0.4,0.2,0.8,0.6,1,1
								c0.4,0.4,0.6,0.8,1,1.2c0.2,0.4,0.6,0.8,0.8,1.2c0.2,0.4,0.4,0.8,0.6,1.4c0.2,0.4,0.4,1,0.4,1.4c0.2,0.4,0.2,1,0.2,1.4
								s0,0.8,0,1.2c0,0.8-0.2,1.4-0.2,1.9c-0.2,0.4-0.2,0.6-0.2,0.6s-0.2-0.2-0.4-0.6c-0.2-0.4-0.6-1-0.8-1.6
								c-0.2-0.2-0.4-0.6-0.6-1c-0.2-0.4-0.4-0.6-0.6-1c-0.2-0.4-0.4-0.8-0.6-1.2c-0.2-0.4-0.4-0.8-0.6-1.2
								c-0.2-0.4-0.4-0.8-0.6-1.2c-0.2-0.4-0.4-0.8-0.6-1c-0.2-0.4-0.4-0.6-0.6-1c-0.2-0.4-0.4-0.6-0.6-0.8c-0.4-0.6-0.8-1-1-1.2
								C485,149.2,484.8,149,484.8,149z"/>
						</g>
					</g>
				</g>
			</g>
			<g>
				<g>
					<g>
						<g>
							<path class="st1" d="M508.2,139.5c0,0,0.6-0.2,1.4,0.2c0.2,0,0.4,0.2,0.6,0.2c0.2,0.2,0.4,0.2,0.6,0.4
								c0.2,0.2,0.4,0.4,0.6,0.6c0.2,0.2,0.2,0.4,0.4,0.6c0.2,0.2,0.2,0.4,0.2,0.8c0.2,0.2,0.2,0.4,0.2,0.8c0,0.2,0,0.4,0,0.8
								c0,0.2,0,0.4-0.2,0.6c0,0.4-0.2,0.8-0.4,1c-0.2,0.2-0.2,0.4-0.2,0.4s-0.2,0-0.4-0.2c-0.2-0.2-0.4-0.4-0.8-0.6
								c-0.2-0.2-0.2-0.2-0.4-0.4c-0.2-0.2-0.2-0.4-0.4-0.4c-0.2-0.2-0.2-0.4-0.4-0.4c0-0.2-0.2-0.4-0.2-0.4c0-0.2-0.2-0.4-0.2-0.6
								c0-0.2-0.2-0.4-0.2-0.6c0-0.2-0.2-0.4-0.2-0.6c0-0.2,0-0.4-0.2-0.6C508.4,140.1,508.2,139.5,508.2,139.5z"/>
						</g>
					</g>
				</g>
			</g>
		</g>
		<g>
			<polygon class="st0" points="459.9,226.1 516.3,231.5 463.6,268.5 			"/>
			<g>
				<g>
					<g>
						<g>
							<path class="st1" d="M478.6,229.4c0,0,1,1,2.1,3.1c0.2,0.4,0.4,1,0.8,1.6c0.2,0.6,0.4,1.2,0.6,1.9c0.2,0.6,0.4,1.4,0.4,2.1
								c0.2,0.8,0.2,1.4,0.2,2.3s0,1.4,0,2.3c0,0.8,0,1.4-0.2,2.1c0,0.6-0.2,1.4-0.4,2.1s-0.2,1.2-0.4,1.6c-0.2,1-0.6,1.9-1,2.5
								c-0.2,0.6-0.4,0.8-0.4,0.8s0-0.4-0.2-1c0-0.6-0.2-1.6-0.2-2.7c0-0.6,0-1,0-1.6s0-1.2,0-1.9c0-0.6,0-1.2,0-2.1
								c0-0.6,0-1.4-0.2-2.1c0-0.6,0-1.4-0.2-2.1c0-0.6,0-1.4-0.2-2.1c0-0.6-0.2-1.2-0.2-1.9c0-0.6-0.2-1.2-0.2-1.6
								C478.8,230.8,478.6,229.4,478.6,229.4z"/>
						</g>
					</g>
				</g>
			</g>
			<g>
				<g>
					<g>
						<g>
							<path class="st1" d="M492.8,230.8c0,0,1-0.2,2.1,0.6c0.2,0.2,0.6,0.4,0.8,0.6c0.2,0.2,0.4,0.6,0.6,0.8c0.2,0.4,0.4,0.6,0.4,1
								c0.2,0.4,0.2,0.8,0.4,1c0,0.4,0.2,0.8,0.2,1.2s0,0.8,0,1c0,0.4,0,0.6-0.2,1c0,0.4-0.2,0.6-0.2,0.8c-0.2,0.6-0.4,1-0.6,1.2
								c-0.2,0.2-0.4,0.4-0.4,0.4s0-0.2-0.2-0.4c-0.2-0.4-0.4-0.8-0.6-1.2c-0.2-0.2-0.2-0.6-0.2-0.8c-0.2-0.2-0.2-0.6-0.2-0.8
								c0-0.2-0.2-0.6-0.2-1s-0.2-0.6-0.2-1s-0.2-0.6-0.2-1s0-0.6-0.2-0.8c0-0.2-0.2-0.6-0.2-0.8c0-0.2-0.2-0.6-0.2-0.8
								c-0.2-0.4-0.2-0.8-0.4-1.2C492.8,231,492.8,230.8,492.8,230.8z"/>
						</g>
					</g>
				</g>
			</g>
		</g>
		<g>
			<polygon class="st0" points="215.7,119.8 226.4,27.4 260,106.2 			"/>
			<g>
				<g>
					<g>
						<g>
							<path class="st1" d="M217.6,99.6c0,0,0.4-0.4,1-1.2c0.6-0.6,1.6-1.6,2.9-2.7c0.6-0.4,1.4-1,2.3-1.4s1.6-1,2.7-1.4
								c1-0.4,1.9-0.8,2.9-1.2c1-0.4,2.1-0.6,3.1-0.8c1-0.2,2.1-0.4,3.3-0.6c1-0.2,2.1-0.2,3.1-0.4c1,0,2.1-0.2,2.9-0.2
								c1,0,1.9,0,2.7,0c1.6,0,3.1,0.2,3.9,0.4c1,0.2,1.4,0.2,1.4,0.2s-0.6,0.2-1.4,0.4c-1,0.2-2.3,0.4-3.9,0.8
								c-0.8,0.2-1.6,0.2-2.5,0.4c-0.8,0.2-1.9,0.4-2.9,0.6c-1,0.2-2.1,0.4-2.9,0.6c-1,0.2-2.1,0.4-3.1,0.6s-2.1,0.4-3.1,0.8
								c-1,0.2-1.9,0.6-2.9,0.8c-0.8,0.4-1.9,0.6-2.7,0.8c-0.8,0.4-1.6,0.6-2.3,1c-1.4,0.6-2.7,1.2-3.5,1.6
								C218.2,99.4,217.6,99.6,217.6,99.6z"/>
						</g>
					</g>
				</g>
			</g>
			<g>
				<g>
					<g>
						<g>
							<path class="st1" d="M221.1,78.2c0,0,0.8-1.2,2.3-2.7c0.4-0.4,0.8-0.8,1.2-1c0.4-0.4,1-0.8,1.6-1c0.6-0.4,1.2-0.6,1.9-1
								c0.6-0.2,1.2-0.6,2.1-0.8c0.6-0.2,1.4-0.4,2.1-0.6s1.4-0.2,2.1-0.4c0.6,0,1.2-0.2,1.9,0c0.6,0,1.2,0,1.6,0.2
								c1,0.2,1.9,0.4,2.5,0.6c0.6,0.2,0.8,0.4,0.8,0.4s-0.4,0-1,0.2s-1.4,0.2-2.5,0.4c-0.4,0.2-1,0.2-1.6,0.4
								c-0.6,0.2-1,0.2-1.6,0.4c-0.6,0.2-1.2,0.4-1.9,0.6c-0.6,0.2-1.2,0.4-1.9,0.6c-0.6,0.2-1.2,0.4-1.9,0.6
								c-0.6,0.2-1.2,0.4-1.9,0.6s-1.2,0.4-1.6,0.6c-0.6,0.2-1,0.4-1.4,0.6C222.5,77.6,221.1,78.2,221.1,78.2z"/>
						</g>
					</g>
				</g>
			</g>
			<g>
				<g>
					<g>
						<g>
							<path class="st1" d="M223.3,56.6c0,0,0-0.2,0.2-0.6c0.2-0.4,0.4-0.8,1-1.4c0.2-0.2,0.6-0.6,0.8-0.8c0.4-0.2,0.6-0.4,1-0.6
								s0.8-0.4,1.2-0.6s0.8-0.2,1.2-0.4c0.4,0,0.8-0.2,1.2-0.2c0.4,0,0.8,0,1.2,0s0.8,0,1.2,0s0.8,0,1,0.2c0.6,0.2,1.2,0.4,1.4,0.6
								c0.4,0.2,0.6,0.4,0.6,0.4s-0.2,0.2-0.6,0.2c-0.4,0.2-0.8,0.4-1.4,0.6c-0.2,0.2-0.6,0.2-1,0.4c-0.4,0.2-0.6,0.2-1,0.2
								s-0.8,0.2-1,0.2c-0.4,0-0.8,0.2-1,0.2c-0.4,0-0.8,0.2-1,0.2c-0.4,0-0.8,0.2-1,0.2c-0.4,0-0.6,0.2-1,0.2
								c-0.2,0-0.6,0.2-0.8,0.2C224.2,56.2,223.3,56.6,223.3,56.6z"/>
						</g>
					</g>
				</g>
			</g>
		</g>
		<g>
			<polygon class="st0" points="301.1,106.2 341,16.3 359.3,109.9 			"/>
			<g>
				<g>
					<g>
						<g>
							<path class="st1" d="M313.2,80.9c0,0,0.4-0.4,1.4-1c0.8-0.6,2.3-1.4,3.9-2.3c0.8-0.4,1.9-0.8,2.9-1.2c1-0.4,2.1-0.6,3.3-1
								c1.2-0.2,2.5-0.4,3.7-0.6c1.2-0.2,2.7,0,3.9,0s2.5,0.2,3.7,0.2c1.2,0,2.5,0.2,3.5,0.4c1.2,0.2,2.3,0.4,3.3,0.6
								c1,0.2,2.1,0.6,2.9,0.8c1.9,0.6,3.1,1.4,4.1,2.1c0.4,0.4,0.8,0.6,1,0.8c0.2,0.2,0.4,0.2,0.4,0.2s-0.6-0.2-1.6-0.6
								s-2.5-0.6-4.3-1c-0.8-0.2-1.9-0.2-2.9-0.4c-1,0-2.1-0.2-3.3-0.2c-1.2,0-2.3-0.2-3.5-0.2c-1.2,0-2.5-0.2-3.7-0.2
								c-1.2,0-2.3-0.2-3.5,0c-1.2,0-2.3,0.2-3.3,0.2c-1,0.2-2.3,0.2-3.1,0.4c-1,0.2-2.1,0.4-2.9,0.6c-1.9,0.4-3.3,0.8-4.3,1.2
								C313.8,80.9,313.2,80.9,313.2,80.9z"/>
						</g>
					</g>
				</g>
			</g>
			<g>
				<g>
					<g>
						<g>
							<path class="st1" d="M322.9,59.1c0,0,0.2-0.2,0.8-0.8c0.6-0.4,1.4-1,2.5-1.4c0.6-0.2,1.2-0.4,1.9-0.6
								c0.6-0.2,1.4-0.4,2.1-0.6c0.8-0.2,1.4-0.2,2.3-0.4c0.8,0,1.6,0,2.3-0.2c0.8,0,1.6,0,2.5,0.2c0.8,0,1.6,0.2,2.3,0.4
								c0.8,0.2,1.4,0.4,2.1,0.6c0.6,0.2,1.2,0.4,1.9,0.8c1,0.6,1.9,1.2,2.5,1.6c0.4,0.6,0.8,0.8,0.8,0.8s-0.4-0.2-1-0.2
								c-0.6-0.2-1.6-0.4-2.7-0.6c-0.6,0-1.2-0.2-1.9-0.2s-1.2,0-2.1-0.2c-0.6,0-1.4,0-2.1-0.2c-0.6,0-1.4,0-2.3,0s-1.4,0-2.3,0
								c-0.6,0-1.4,0-2.1,0s-1.4,0-2.1,0.2c-0.6,0-1.2,0.2-1.9,0.2c-1,0.2-2.1,0.2-2.7,0.4C323.3,59.1,322.9,59.1,322.9,59.1z"/>
						</g>
					</g>
				</g>
			</g>
			<g>
				<g>
					<g>
						<g>
							<path class="st1" d="M331.5,40.6c0,0,0-0.2,0.2-0.6s0.4-0.8,1-1.2c0.2-0.2,0.6-0.4,0.8-0.6c0.4-0.2,0.6-0.4,1-0.4
								c0.4-0.2,0.8-0.2,1.2-0.2c0.4,0,0.8,0,1.2,0c0.4,0,0.8,0,1.2,0.2c0.4,0,0.8,0.2,1.2,0.4c0.4,0.2,0.8,0.4,1,0.4
								c0.4,0.2,0.6,0.4,0.8,0.6c0.4,0.4,0.8,1,1,1.2c0.2,0.4,0.2,0.6,0.2,0.6s-0.2,0-0.6-0.2c-0.4,0-0.8-0.2-1.2-0.2
								c-0.2,0-0.6,0-0.8,0c-0.2,0-0.6,0-0.8,0c-0.4,0-0.6,0-1,0c-0.4,0-0.6,0-1,0c-0.4,0-0.6,0-1,0c-0.4,0-0.6,0-1,0
								c-0.2,0-0.6,0-0.8,0s-0.6,0-0.8,0C332.4,40.2,331.5,40.6,331.5,40.6z"/>
						</g>
					</g>
				</g>
			</g>
		</g>
		<g>
			<polygon class="st0" points="398,114.2 452.3,48.2 430.9,139.5 			"/>
			<g>
				<g>
					<g>
						<g>
							<path class="st1" d="M410.3,101.3c0,0,1.6-0.6,4.1-0.6c0.6,0,1.2,0,2.1,0s1.4,0.2,2.3,0.4c0.8,0.2,1.6,0.4,2.5,0.6
								c0.8,0.4,1.6,0.6,2.3,1c0.8,0.4,1.4,0.8,2.1,1.4c0.6,0.4,1.2,1,1.9,1.4s1.2,1,1.6,1.4c0.4,0.4,1,1,1.4,1.4
								c0.8,0.8,1.4,1.6,2.1,2.3c0.4,0.6,0.8,0.8,0.8,0.8s-0.4-0.2-1-0.4c-0.6-0.2-1.6-0.6-2.7-1.2c-0.6-0.2-1-0.6-1.6-1
								c-0.6-0.4-1.2-0.8-1.9-1.2c-0.6-0.4-1.2-0.8-1.9-1.2c-0.6-0.4-1.2-0.8-2.1-1.2c-0.6-0.4-1.2-0.8-2.1-1
								c-0.6-0.4-1.4-0.6-2.1-0.8c-0.6-0.2-1.2-0.4-2.1-0.6c-0.6-0.2-1.2-0.4-1.9-0.6C412,101.7,410.3,101.3,410.3,101.3z"/>
						</g>
					</g>
				</g>
			</g>
			<g>
				<g>
					<g>
						<g>
							<path class="st1" d="M421.8,85.4c0,0,1.2-0.4,3.1-0.6c0.4,0,1,0,1.6,0s1.2,0,1.9,0.2s1.2,0.2,1.9,0.4
								c0.6,0.2,1.2,0.4,1.9,0.6s1.2,0.6,1.6,1c0.6,0.4,1,0.8,1.6,1c0.4,0.4,0.8,0.8,1.2,1.2c0.4,0.4,0.8,0.8,1,1.2
								c0.6,0.8,0.8,1.6,1,2.1c0.2,0.6,0.2,0.8,0.2,0.8s-0.2-0.2-0.8-0.4c-0.4-0.4-1-0.8-1.9-1.2c-0.4-0.2-0.8-0.4-1.2-0.8
								c-0.4-0.2-0.8-0.6-1.4-0.8c-0.4-0.2-1-0.4-1.4-0.8c-0.4-0.2-1-0.4-1.4-0.8c-0.6-0.2-1-0.4-1.6-0.6c-0.4-0.2-1-0.4-1.6-0.6
								s-1-0.4-1.4-0.6c-0.4-0.2-1-0.4-1.4-0.4C423.3,85.8,421.8,85.4,421.8,85.4z"/>
						</g>
					</g>
				</g>
			</g>
			<g>
				<g>
					<g>
						<g>
							<path class="st1" d="M435.6,68.8c0,0,0.6-0.4,1.6-0.6c0.2,0,0.6,0,0.8,0c0.2,0,0.6,0,0.8,0c0.2,0,0.6,0,1,0.2
								c0.4,0,0.6,0.2,1,0.4c0.2,0.2,0.6,0.2,0.8,0.4c0.2,0.2,0.6,0.4,0.8,0.6c0.2,0.2,0.4,0.4,0.6,0.6c0.2,0.2,0.4,0.4,0.4,0.8
								c0.2,0.4,0.4,1,0.4,1.2c0,0.4,0,0.6,0,0.6s-0.2,0-0.4-0.2c-0.2,0-0.6-0.2-1-0.4c-0.2,0-0.4-0.2-0.6-0.2
								c-0.2,0-0.4-0.2-0.6-0.2c-0.2,0-0.4-0.2-0.8-0.2c-0.2-0.2-0.4-0.2-0.8-0.4c-0.2-0.2-0.4-0.2-0.8-0.4
								c-0.2-0.2-0.4-0.2-0.8-0.4c-0.2-0.2-0.4-0.2-0.6-0.4c-0.2-0.2-0.4-0.2-0.6-0.4C436,69.2,435.6,68.8,435.6,68.8z"/>
						</g>
					</g>
				</g>
			</g>
		</g>
	</g>
	<ellipse class="st2" cx="301.1" cy="554" rx="205.5" ry="29"/>
	<g>
		<path class="st3" d="M146.2,282.1c0,0-84.5,25.7-87.4,74.1c-2.9,48.3,75.9,55.1,75.9,55.1s-23.2,10.5-20,20s26.9-3.3,26.9-3.3
			s-8.8,17.5-2.3,22.2c6.6,4.7,22.6-15.6,22.6-15.6s2.5,17.5,7.8,16.5c5.1-1.2,17.1-28.2,1.9-44.8s-59.9-18.9-73.6-30.6
			c-13.8-11.7-20.4-42.6,57-63.1L146.2,282.1z"/>
		<path class="st3" d="M459.9,331.8c0,0,55.1,22.2,56.4,38.9c1.2,16.7-61.9,33.7-73.2,40.7c-11.3,7.2-17.7,27.2,0,39.3
			c17.7,12.1,9.5-16.9,9.5-16.9s13,20,21.8,16.9c8.8-3.1-3.1-25.9-3.1-25.9s23.2,13.4,28.6,6.2c5.1-7.2-5.1-13.2-5.1-13.2
			s44.6-21.8,47.9-42.6c3.3-20.8-50.4-62.9-78.4-69.1C435.8,300.2,451,328.1,459.9,331.8z"/>
		<path class="st4" d="M240.8,446.6c0,0-0.6,56.4-2.3,68.3c0,0-42.8-11.9-55.1,2.9c-12.3,14.6-6.2,31.9,0,34.1
			c6.2,2.5,60.7,6.6,73,0c1.9-2.3,4.7-95,3.3-102C254.8,450.5,240.8,446.6,240.8,446.6z"/>
		<path class="st4" d="M367.3,441.3c0,0-1.2,68.5-1.9,73.2c0,0,40.3-11.7,52.9,4.3c12.5,15.8,7.8,32.5,3.9,35.4
			c-3.1,2.3-64.6,5.6-78.4-3.5c-3.3-6.2,7.4-111.5,7.4-111.5L367.3,441.3z"/>
	</g>
	<g>
		<path class="st3" d="M182.8,133.1c25.1-24.3,74.7-37.8,156.9-35.4c82.3,2.5,121.4,51.2,127.1,124.7
			c5.8,73.4,12.5,197.1-35.4,216.6c-48.1,19.3-221.3,35.2-267.6-18.5C117.8,366.6,144.4,170.6,182.8,133.1z"/>
		<path class="st5" d="M193.7,171c22.8-22.2,67.9-34.6,142.8-32.3S446.9,185.4,452.1,252c5.1,66.6,17.9,162.9-25.7,180.6
			C382.6,450.3,225,464.7,183,415.8S158.8,204.9,193.7,171z"/>
		<g>
			<g>
				<g>
					<g>
						<path class="st6" d="M433.4,438c0,0,0.6-0.2,1.6-0.8c1-0.4,2.3-1.2,3.7-2.5c0.8-0.6,1.4-1.2,2.3-2.1s1.6-1.4,2.3-2.5
							c0.8-0.8,1.6-1.9,2.3-2.7c0.8-0.8,1.6-1.9,2.3-2.9c0.8-1,1.4-2.1,2.3-3.1c0.6-1,1.4-2.1,2.1-3.1c0.6-1,1.2-2.1,1.9-2.9
							s1-1.9,1.6-2.7c1-1.6,1.6-3.1,2.3-4.1c0.4-1,0.8-1.6,0.8-1.6s0,0.6-0.2,1.9c-0.2,1-0.6,2.7-1.2,4.5c-0.4,1-0.6,1.9-1.2,2.9
							c-0.4,1-1,2.1-1.6,3.1c-0.6,1-1.2,2.3-1.9,3.3c-0.6,1-1.4,2.1-2.3,3.3c-0.8,1-1.6,2.1-2.5,3.1c-0.8,1-1.9,1.9-2.7,2.7
							c-0.8,0.8-1.9,1.6-2.7,2.3c-1,0.6-1.9,1.2-2.7,1.6c-1.9,1-3.3,1.4-4.5,1.6C434,438,433.4,438,433.4,438z"/>
					</g>
				</g>
			</g>
		</g>
		<g>
			<g>
				<g>
					<g>
						<path class="st6" d="M149.9,395c0,0,0.2,0.6,0.6,1.9c0.4,1.2,1,2.9,2.1,4.9c0.4,1,1,2.1,1.4,3.1c0.6,1,1.2,2.3,1.9,3.5
							c0.6,1.2,1.4,2.3,2.3,3.5c0.8,1.2,1.6,2.3,2.5,3.5c0.8,1,1.6,2.3,2.7,3.3c0.8,1,1.9,2.1,2.7,3.1c0.8,1,1.9,1.9,2.7,2.9
							c0.8,0.8,1.6,1.6,2.5,2.5c1.6,1.4,3.1,2.5,4.1,3.3c1,0.8,1.6,1.2,1.6,1.2s-0.6-0.2-2.1-0.6c-1.2-0.4-2.9-1.2-4.9-2.5
							c-1-0.6-1.9-1.2-3.1-2.1c-1-0.8-2.1-1.6-3.1-2.7c-1-1-2.1-2.1-3.1-3.1c-1-1-1.9-2.3-2.9-3.5c-0.8-1.2-1.9-2.5-2.5-3.7
							c-0.8-1.2-1.4-2.5-2.1-3.9c-0.6-1.2-1.2-2.5-1.6-3.7c-0.4-1.2-0.8-2.5-1-3.5c-0.6-2.3-0.8-4.1-1-5.3
							C149.9,395.8,149.9,395,149.9,395z"/>
					</g>
				</g>
			</g>
		</g>
	</g>
	<g>
		<g>
			<circle class="st7" cx="313" cy="337.2" r="68.7"/>
			<g>
				<g>
					<path id="SVGID_1_" class="st8" d="M374.5,312.5c-0.4,16.9-15.8,30.6-30.4,30.4c-16.7-0.4-30.4-13.6-30.4-30.4
						s13.6-30.4,30.4-30.4S374.7,295.6,374.5,312.5z"/>
				</g>
				<g>
					<defs>
						<path id="SVGID_2_" d="M374.5,312.5c-0.4,16.9-15.8,30.6-30.4,30.4c-16.7-0.4-30.4-13.6-30.4-30.4s13.6-30.4,30.4-30.4
							S374.7,295.6,374.5,312.5z"/>
					</defs>
					<clipPath id="SVGID_3_">
						<use xlink:href="#SVGID_2_"  style="overflow:visible;"/>
					</clipPath>
					<circle class="st9" cx="355" cy="301.6" r="19.3"/>
				</g>
			</g>
		</g>
		<g>
			<ellipse class="st10" cx="213.5" cy="395.6" rx="26.3" ry="20.2"/>
			<ellipse class="st10" cx="411.1" cy="395.6" rx="26.3" ry="20.2"/>
		</g>
		<g>
			<g>
				<g>
					<g>
						<g>
							<path class="st11" d="M278.7,422.1c0,0,4.3,1.4,10.5,3.1c1.6,0.4,3.3,0.8,5.1,1.2c1.9,0.4,3.7,0.6,5.6,1
								c1.9,0.4,3.9,0.6,6,0.6c2.1,0.2,4.1,0.2,6.2,0.2c2.1,0,4.1-0.2,6.2-0.4c2.1-0.4,3.9-0.6,6-1c1.9-0.4,3.7-1,5.3-1.6
								c0.8-0.4,1.6-0.6,2.5-0.8c0.8-0.4,1.6-0.6,2.3-1c2.9-1.2,5.3-2.5,7-3.5c1.6-1,2.7-1.4,2.7-1.4s-0.6,0.8-1.9,2.5
								c-1.2,1.4-3.3,3.5-6,5.6c-0.6,0.4-1.4,1-2.3,1.4c-0.8,0.4-1.6,1-2.5,1.4c-1.6,1-3.7,1.9-5.8,2.5c-2.1,0.6-4.3,1.2-6.6,1.6
								c-2.3,0.4-4.5,0.6-7,0.6c-2.3,0-4.7-0.2-6.8-0.4c-2.3-0.4-4.5-0.8-6.6-1.2c-2.1-0.4-4.1-1.2-5.8-1.9
								c-1.9-0.6-3.5-1.4-4.9-2.3C282,425.2,278.7,422.1,278.7,422.1z"/>
						</g>
					</g>
				</g>
			</g>
			<g>
				<g>
					<g>
						<g>
							<path class="st11" d="M274.6,424.8c0,0,0.2-1.2,0.8-2.5c0.2-0.4,0.4-0.6,0.6-1c0.2-0.2,0.4-0.6,0.6-1
								c0.2-0.2,0.6-0.6,0.8-0.8c0.2-0.2,0.6-0.4,0.8-0.6c0.2-0.2,0.6-0.4,0.8-0.6c0.2-0.2,0.4-0.4,0.8-0.6c0.2-0.2,0.4-0.4,0.8-0.4
								c0.2-0.2,0.4-0.4,0.8-0.4c0.4-0.4,1-0.6,1.4-1c0.4-0.2,0.8-0.4,0.8-0.4s0.2,0.2,0.4,0.6c0.2,0.4,0.4,1.2,0.6,2.1
								c0,0.4,0,0.8,0,1.4c0,0.4-0.2,1-0.4,1.4c-0.2,0.4-0.4,1-0.8,1.4c-0.4,0.4-0.8,0.8-1,1.2c-0.4,0.2-0.8,0.6-1.2,0.8
								c-0.4,0.2-0.8,0.4-1.2,0.6c-0.4,0.2-0.8,0.2-1.2,0.2c-0.4,0-0.8,0-1.2,0.2C275.8,425.2,274.6,424.8,274.6,424.8z"/>
						</g>
					</g>
				</g>
			</g>
			<g>
				<g>
					<g>
						<g>
							<path class="st11" d="M342,415.4c0,0,1-0.4,2.3-0.4c0.2,0,0.6,0,0.8,0c0.2,0,0.6,0,0.8,0.2c0.2,0.2,0.6,0.2,0.8,0.4l0.8,0.4
								l0.6,0.6c0.2,0.2,0.4,0.4,0.6,0.8c0.2,0.2,0.2,0.6,0.4,0.8c0.2,0.2,0.2,0.6,0.2,0.8c0.2,0.6,0.2,1.2,0.2,1.6
								c0,0.4,0,0.8,0,0.8s-0.2,0-0.6,0.2c-0.4,0.2-1,0.2-1.6,0.2c-0.2,0-0.6,0-0.8,0c-0.4,0-0.6,0-0.8-0.2c-0.2,0-0.6-0.2-0.8-0.4
								l-0.8-0.6l-0.6-0.6c-0.2-0.2-0.4-0.6-0.4-0.8c-0.2-0.2-0.2-0.6-0.4-0.8s-0.2-0.6-0.2-0.8C341.8,416.6,342,415.4,342,415.4z"
								/>
						</g>
					</g>
				</g>
			</g>
		</g>
	</g>
	<g>
		
			<ellipse transform="matrix(0.1602 -0.9871 0.9871 0.1602 14.15 351.1971)" class="st12" cx="213.5" cy="167.3" rx="30.4" ry="30.4"/>
		<circle class="st12" cx="265.5" cy="130.7" r="21"/>
		<circle class="st12" cx="286.5" cy="176.5" r="9.3"/>
		
			<ellipse transform="matrix(0.9239 -0.3827 0.3827 0.9239 -77.9761 97.6503)" class="st12" cx="206.5" cy="244.8" rx="11.7" ry="11.7"/>
		<circle class="st12" cx="185.3" cy="221.2" r="14"/>
		<circle class="st12" cx="171.3" cy="282.1" r="17.5"/>
		<circle class="st12" cx="350.9" cy="188.5" r="22.2"/>
		<circle class="st12" cx="344.1" cy="130.7" r="15.8"/>
		<circle class="st12" cx="404.8" cy="163.4" r="15"/>
		<circle class="st12" cx="414.8" cy="235.6" r="12.8"/>
		<circle class="st12" cx="438.5" cy="282.1" r="10.5"/>
		<circle class="st12" cx="431.9" cy="195.3" r="17.1"/>
	</g>
</g>
</svg>
