<?xml version="1.0" encoding="utf-8"?>
<!-- Generator: Adobe Illustrator 22.0.0, SVG Export Plug-In . SVG Version: 6.00 Build 0)  -->
<svg version="1.1" id="Layer_1" xmlns="http://www.w3.org/2000/svg" xmlns:xlink="http://www.w3.org/1999/xlink" x="0px" y="0px"
	 viewBox="0 0 600 600" style="enable-background:new 0 0 600 600;" xml:space="preserve">
<style type="text/css">
	.st0{opacity:0.23;fill:#045495;enable-background:new    ;}
	.st1{fill:#CC2200;}
	.st2{fill:#7F0303;}
	.st3{fill:#BA0000;}
	.st4{fill:#FFDA04;}
	.st5{fill:#F29A19;}
	.st6{fill:#EF3E00;}
	.st7{opacity:0.52;}
	.st8{fill:#91BE21;}
	.st9{fill:#1D1D1B;}
	.st10{clip-path:url(#SVGID_4_);fill:#FFFFFF;}
	.st11{fill:#490808;}
	.st12{fill:#FFFCC5;}
	.st13{clip-path:url(#SVGID_6_);fill:#FFFFFF;}
</style>
<g>
	<ellipse class="st0" cx="289.5" cy="558.4" rx="154.9" ry="24.6"/>
	<g>
		<g>
			<path class="st1" d="M195.4,343c0,0-45.7,19.5-46.2,27c-0.5,7.5,47.9,17.8,50.9,27.5s-11.8,29.3-19.2,29.6
				c-7.3,0.3-3.8-16-3.8-16s-17.1,11.8-23.2,8.4c-6.1-3.5,13.6-21.3,13.6-21.3s-45-11.8-45-24s52.6-45.3,71.4-47.1
				C212.8,325.1,195.4,343,195.4,343z"/>
			<path class="st1" d="M202.7,421.5c0,0-4.4,43.7-2.6,65.3c0,0,14.8,19.3,12.2,25.1c-2.6,5.8-16-6.6-16-6.6S181.5,531.4,174,530
				c-7.5-1.4,3.8-20.9,3.8-20.9s-21.8,1.7-23.5-3.8s29.1-17.1,29.1-17.1s4.2-53.1,11.8-74.2C203.2,393.1,202.7,421.5,202.7,421.5z"
				/>
			<g>
				<path class="st1" d="M358.9,347.4c0,0,23,19.2,39.7,9.6c16.7-9.6,14.1-30,14.1-30s-17.8-17.8-17.9-25.6c0-7.8,22.7,0,22.7,0
					s8.2-38,14.3-38c6.1,0,8.4,38,8.4,38s24-5.2,27,0c3,5.2-31.4,26.5-36.9,27c0,0-5.6,34-24.7,44.1c-19.2,10.1-46.2,0-46.2,0v-25.1
					H358.9z"/>
				<g>
					<g>
						<g>
							<g>
								<path class="st2" d="M420.2,310.3c0,0,0.9-0.5,2.3,0c0.3,0.2,0.7,0.2,1,0.5c0.3,0.2,0.7,0.5,1,0.9c0.2,0.3,0.5,0.9,0.7,1.2
									c0.2,0.5,0.3,0.9,0.3,1.4s0,1,0,1.4c0,0.5-0.2,0.9-0.2,1.4c-0.2,0.3-0.3,0.9-0.5,1.2c-0.2,0.3-0.3,0.7-0.7,0.9
									c-0.5,0.5-0.9,0.9-1.4,1c-0.3,0.2-0.5,0.2-0.5,0.2s0-0.2,0.2-0.5c0.2-0.3,0.3-0.9,0.3-1.4c0-0.3,0.2-0.5,0.2-0.9
									s0-0.7,0.2-0.9c0-0.3,0-0.7,0-1c0-0.3,0-0.7,0-1s0-0.7-0.2-0.9c0-0.3-0.2-0.5-0.3-0.9c-0.2-0.2-0.2-0.5-0.3-0.7
									c-0.2-0.2-0.3-0.3-0.5-0.7c-0.3-0.3-0.7-0.7-1-0.9C420.4,310.5,420.2,310.3,420.2,310.3z"/>
							</g>
						</g>
					</g>
				</g>
			</g>
			<g>
				<path class="st1" d="M362.7,384c0,0,11.8,65.9,66.6,53.1c0,0-11.3-16-6.1-22.8c5.2-6.8,23,12.9,23,12.9s13.4-21.8,20.7-20.2
					c7.1,1.6-2.4,31.9-2.4,31.9s13.9,8.4,13.6,12.4c-0.3,4-31,3.1-40.4,0c0,0-49.1,18.3-72.3-23.9L362.7,384z"/>
				<g>
					<g>
						<g>
							<g>
								<path class="st2" d="M440.2,445c0,0,0.3-0.9,1.4-2.1c0.2-0.3,0.5-0.5,0.7-0.9c0.3-0.3,0.5-0.7,0.9-0.9
									c0.3-0.3,0.5-0.7,0.9-0.9c0.3-0.3,0.5-0.7,0.9-0.9c0.3-0.3,0.5-0.7,0.9-0.9c0.2-0.3,0.5-0.5,0.7-0.9
									c0.2-0.3,0.3-0.5,0.7-0.9c0.2-0.3,0.3-0.5,0.5-0.9c0.2-0.5,0.3-1,0.3-1.4c0-0.3,0-0.7,0-0.7s0.2,0.2,0.5,0.5
									c0.2,0.3,0.5,1,0.5,1.9c0,0.3,0,0.9-0.2,1.4c-0.2,0.3-0.3,0.9-0.5,1.4c-0.2,0.5-0.5,0.9-0.7,1.2c-0.3,0.3-0.7,0.7-1,1
									s-0.7,0.7-1,1s-0.7,0.5-1,0.9s-0.7,0.5-1,0.7c-0.3,0.2-0.7,0.3-1,0.5C441.3,444.6,440.2,445,440.2,445z"/>
							</g>
						</g>
					</g>
				</g>
			</g>
		</g>
		<g>
			<path class="st3" d="M315.6,470.1c0,0,2.4,59.1,3.7,65.3c0,0,8.5-11.7,23-7.7c14.5,4,20,20.9,18.3,26.5c0,0-36.9,6.6-49.8,0
				c0,0-7.7-67.1-7.7-78.8C303.1,463.8,315.6,470.1,315.6,470.1z"/>
			<path class="st3" d="M247.7,475c0,0,2.1,55.8,2.1,61c0,0-12.2-13.6-24-13.1s-27.9,11.8-23.2,32.2c0,0,43.6,8.7,60.6-2.1
				c0,0-4.2-68.3-4-73.2C259.3,475,247.5,471.8,247.7,475z"/>
		</g>
		<g>
			<g>
				<g>
					<path class="st4" d="M371.6,145.3c0,0,36.9,13.9,49.1,0s10.1-30,1.2-45.7c0,0,34.5,27.9,36.9,53.1c2.3,25.3-24,65.9-95,44.8
						L371.6,145.3z"/>
					<g>
						<g>
							<g>
								<g>
									<g>
										<path class="st5" d="M392,152.1c0,0,0.2,0.2,0.3,0.3c0.2,0.3,0.5,0.7,0.9,1.2c0.7,1.2,1.7,3,2.3,5.2
											c0.3,1.2,0.7,2.4,0.9,3.7c0.2,1.4,0.3,2.8,0.5,4.2c0,1.4,0.2,3,0.2,4.4c0,1.6,0,3,0,4.5c0,1.6-0.2,3.1-0.3,4.7
											c-0.2,1.6-0.5,3-0.9,4.5c-0.3,1.4-0.7,2.8-1.2,4c-0.5,1.2-1,2.4-1.6,3.5c-1,2.1-2.3,3.7-3,4.7c-0.9,1-1.4,1.6-1.4,1.6
											s0.2-0.7,0.5-2.1c0.3-1.2,0.7-3.1,1.2-5.2c0.2-1,0.3-2.3,0.5-3.5c0.2-1.2,0.3-2.6,0.5-3.8c0.2-1.4,0.2-2.8,0.3-4.2
											c0.2-1.4,0.2-2.8,0.2-4.4c0-1.6,0.2-3,0.2-4.5c0.2-1.4,0.2-3,0.3-4.4c0-1.4,0.2-2.6,0.2-4c0-1.2,0.2-2.4,0-3.5
											c0-2.1-0.2-4-0.3-5.2c0-0.7-0.2-1.2-0.3-1.6C392,152.2,392,152.1,392,152.1z"/>
									</g>
								</g>
							</g>
						</g>
						<g>
							<g>
								<g>
									<g>
										<path class="st5" d="M412.5,151.4c0,0,0.7,0.5,1.6,1.6c1,1,2.3,2.6,3.5,4.7c0.5,1,1.2,2.3,1.7,3.5s1.2,2.6,1.6,4
											c0.5,1.4,0.9,3,1.4,4.4c0.3,1.6,0.7,3.1,1,4.5c0.2,1.6,0.5,3.1,0.7,4.7c0.2,1.6,0.3,3.1,0.3,4.5c0,1.6,0,3-0.2,4.4
											c-0.2,1.4-0.3,2.6-0.5,3.8c-0.5,2.4-1.4,4.4-2.1,5.6c-0.3,0.5-0.7,1-0.9,1.4c-0.2,0.3-0.3,0.5-0.3,0.5s0-0.2,0.2-0.5
											c0-0.3,0.2-0.9,0.2-1.6c0.2-1.4,0.2-3.1,0-5.4c0-1-0.2-2.3-0.3-3.7c-0.2-1.2-0.3-2.6-0.5-4c-0.2-1.4-0.5-2.8-0.7-4.4
											c-0.2-1.4-0.5-3-0.7-4.5c-0.2-1.6-0.5-3-0.7-4.4c-0.2-1.4-0.5-3-0.9-4.2c-0.3-1.4-0.5-2.8-0.9-4c-0.3-1.2-0.5-2.4-0.9-3.5
											c-0.5-2.3-1.2-4-1.6-5.2C412.7,152.2,412.5,151.4,412.5,151.4z"/>
									</g>
								</g>
							</g>
						</g>
						<g>
							<g>
								<g>
									<g>
										<path class="st5" d="M423.5,144.2c0,0,0.7,0,1.9,0.2c0.7,0,1.4,0.2,2.3,0.5c0.9,0.2,1.7,0.5,2.8,0.9
											c1,0.3,2.1,0.9,3.1,1.6c1,0.5,2.1,1.2,3.3,2.1c1,0.9,2.1,1.7,3.1,2.6c1,1,1.9,2.1,3,3.1c0.9,1.2,1.7,2.3,2.4,3.5
											c0.9,1.2,1.4,2.4,2.1,3.5c0.5,1.2,1,2.4,1.6,3.5c0.3,1.2,0.9,2.3,1,3.3c0.5,2.1,0.7,3.8,0.9,5.1c0,1.2,0,1.9,0,1.9
											s-0.3-0.5-1-1.6c-0.7-1-1.6-2.4-2.6-4.2c-0.5-0.9-1-1.7-1.7-2.8c-0.7-0.9-1.2-1.9-1.9-3c-0.7-1-1.4-2.1-2.3-3
											c-0.7-1-1.6-2.1-2.3-3c-0.9-1-1.6-1.9-2.4-3c-0.9-1-1.7-1.9-2.6-2.8c-0.9-0.7-1.7-1.7-2.6-2.4c-0.9-0.7-1.6-1.4-2.4-2.1
											c-0.7-0.7-1.6-1.2-2.1-1.7c-0.7-0.5-1.2-0.9-1.7-1.2C424.2,144.6,423.5,144.2,423.5,144.2z"/>
									</g>
								</g>
							</g>
						</g>
						<g>
							<g>
								<g>
									<g>
										<path class="st5" d="M429.4,133.1c0,0,0.2-0.3,0.7-1c0.2-0.3,0.5-0.7,1-1c0.3-0.3,0.9-0.9,1.6-1.2c0.5-0.3,1.2-0.7,2.1-1
											c0.7-0.3,1.6-0.5,2.4-0.7c0.9,0,1.7-0.2,2.8-0.2c0.9,0,1.9,0.2,2.8,0.3c0.9,0.3,1.7,0.5,2.6,0.9c0.9,0.3,1.6,0.9,2.4,1.2
											c0.7,0.5,1.4,1,1.9,1.6c0.5,0.5,1,1,1.4,1.7c0.3,0.5,0.7,1,0.9,1.6c0.2,0.5,0.3,0.9,0.5,1.4c0.2,0.7,0.3,1.2,0.3,1.2
											s-0.3-0.2-1-0.5c-0.3-0.2-0.7-0.3-1.2-0.7c-0.3-0.2-0.9-0.5-1.4-0.7c-0.5-0.2-1-0.5-1.7-0.7c-0.5-0.3-1.2-0.5-1.9-0.7
											c-0.7-0.2-1.4-0.5-1.9-0.7c-0.7-0.3-1.4-0.3-2.1-0.5c-0.7-0.2-1.4-0.3-2.1-0.3c-0.7-0.2-1.4-0.2-2.1-0.3
											c-0.7,0-1.4-0.2-1.9-0.2c-0.7,0-1.2,0-1.7,0s-1,0-1.6,0.2c-0.5,0-0.9,0.2-1.2,0.2C429.8,133.1,429.4,133.1,429.4,133.1z"
											/>
									</g>
								</g>
							</g>
						</g>
					</g>
				</g>
				<g>
					<path class="st4" d="M216.8,144.4c0,0-28.4,6.6-42.2-10.5c-13.6-17.1-10.8-43.2,7.3-56.6c0,0-43,13.9-44.1,58.7
						c-1.2,44.8,52.6,62.9,73.2,63.1L216.8,144.4z"/>
					<g>
						<g>
							<g>
								<g>
									<g>
										<path class="st5" d="M198.5,146.5c0,0-0.2,0.2-0.3,0.3c-0.2,0.3-0.7,0.7-1,1.2c-0.9,1-2.1,2.6-3.1,4.5
											c-0.5,1-1,2.1-1.7,3.1c-0.5,1.2-1,2.4-1.6,3.7c-0.5,1.2-1,2.6-1.4,4c-0.5,1.4-0.9,2.8-1.2,4.4c-0.3,1.4-0.7,3-0.9,4.4
											c-0.2,1.4-0.5,3-0.7,4.4c-0.2,1.4-0.3,2.8-0.5,4s-0.2,2.6-0.3,3.7c-0.2,2.3-0.2,4.2-0.2,5.6s0,2.3,0,2.3s-0.3-0.7-1-1.9
											c-0.5-1.2-1.4-3.1-1.7-5.6c-0.3-1.2-0.5-2.4-0.7-3.8c-0.2-1.4-0.2-3-0.2-4.4c0-1.6,0.2-3.1,0.3-4.7
											c0.2-1.6,0.5-3.1,0.9-4.9c0.3-1.6,0.9-3.1,1.6-4.7c0.7-1.6,1.2-3,2.1-4.4c0.7-1.4,1.6-2.6,2.4-3.8
											c0.9-1.2,1.7-2.1,2.6-3.1c1.7-1.7,3.5-3,4.9-3.5c0.7-0.3,1.2-0.5,1.6-0.7C198.2,146.7,198.5,146.5,198.5,146.5z"/>
									</g>
								</g>
							</g>
						</g>
						<g>
							<g>
								<g>
									<g>
										<path class="st5" d="M181.1,140.4c0,0-0.2,0-0.5,0.2c-0.3,0.2-0.9,0.3-1.4,0.5c-1,0.5-2.6,1.4-4.2,2.8
											c-0.9,0.7-1.7,1.4-2.6,2.1c-0.9,0.7-1.7,1.7-2.6,2.6s-1.9,1.9-2.8,3c-0.9,1-1.7,2.1-2.6,3.1c-0.9,1-1.6,2.3-2.3,3.3
											c-0.7,1.2-1.4,2.3-1.9,3.5c-0.5,1.2-1.2,2.3-1.7,3.3c-0.5,1-1,2.1-1.4,3.1c-0.9,1.9-1.6,3.7-2.1,4.7
											c-0.5,1.2-0.9,1.9-0.9,1.9s-0.2-0.7-0.2-2.1c0-1.2,0-3.1,0.2-5.4c0.2-1,0.3-2.3,0.7-3.7c0.3-1.2,0.7-2.6,1.2-3.8
											c0.5-1.4,1-2.6,1.9-4c0.7-1.4,1.6-2.6,2.4-3.8c1-1.2,2.1-2.4,3.1-3.5s2.3-1.9,3.3-2.8c1-0.9,2.3-1.6,3.5-2.3
											c1-0.7,2.3-1.2,3.3-1.6c2.1-0.9,4-1.2,5.4-1.2c0.7,0,1.2,0,1.6,0.2C180.9,140.4,181.1,140.4,181.1,140.4z"/>
									</g>
								</g>
							</g>
						</g>
						<g>
							<g>
								<g>
									<g>
										<path class="st5" d="M137.9,147.9c0,0,0-0.7,0-1.7c0-0.3,0-0.7,0.2-1c0-0.3,0.2-0.7,0.3-1c0.2-0.9,0.5-1.7,0.9-2.6
											c0.2-0.5,0.3-0.9,0.7-1.4c0.3-0.5,0.5-0.9,0.9-1.4c0.7-1,1.6-1.9,2.4-2.8c1-0.9,1.9-1.7,3-2.4c1-0.7,2.3-1.4,3.5-2.1
											c1.2-0.5,2.4-1,3.7-1.6c1.2-0.5,2.4-0.7,3.7-1c1.2-0.3,2.4-0.3,3.5-0.5c1,0,2.1-0.2,3.1-0.2c1.9,0,3.5,0.2,4.7,0.5
											c1,0.3,1.7,0.5,1.7,0.5s-0.7,0.2-1.7,0.5c-1,0.3-2.6,0.9-4.4,1.4c-0.9,0.3-1.7,0.7-2.8,0.9c-1,0.3-1.9,0.7-3,1
											c-1,0.3-2.1,0.9-3.1,1.2s-2.1,0.9-3.1,1.4c-1,0.5-2.1,1-3,1.6c-1,0.5-1.9,1.2-2.8,1.7c-0.9,0.7-1.7,1.2-2.4,1.9
											c-0.3,0.3-0.7,0.7-1,0.9c-0.3,0.3-0.7,0.7-0.9,1c-0.7,0.7-1.2,1.2-1.6,1.9c-0.2,0.3-0.5,0.5-0.7,0.9
											c-0.2,0.3-0.3,0.5-0.5,0.7C138.2,147.3,137.9,147.9,137.9,147.9z"/>
									</g>
								</g>
							</g>
						</g>
						<g>
							<g>
								<g>
									<g>
										<path class="st5" d="M140.5,119.5c0,0-0.2-0.5-0.2-1.4s0.5-2.1,1.6-3.3c0.5-0.5,1-1.2,1.7-1.6c0.7-0.5,1.4-1,2.1-1.4
											s1.6-0.9,2.4-1.2c0.9-0.3,1.7-0.5,2.6-0.9c0.9-0.2,1.7-0.3,2.6-0.5c0.9-0.2,1.7-0.2,2.6-0.2s1.7,0,2.4,0.2
											c0.9,0.2,1.6,0.3,2.3,0.5c1.4,0.5,2.4,1.2,3,1.7c0.3,0.3,0.5,0.5,0.5,0.9c0.2,0.2,0.2,0.3,0.2,0.3s-0.5-0.2-1.2-0.2
											s-1.7,0-3,0.2c-0.5,0.2-1.2,0.2-1.9,0.3c-0.7,0.2-1.4,0.3-2.1,0.3c-0.7,0.2-1.4,0.3-2.3,0.5c-0.7,0.2-1.6,0.3-2.3,0.5
											c-0.7,0.2-1.6,0.3-2.3,0.5c-0.7,0.2-1.6,0.3-2.3,0.5c-0.7,0.2-1.4,0.3-1.9,0.5c-0.7,0.2-1.2,0.3-1.7,0.7
											c-1,0.5-1.9,0.9-2.4,1.4C140.7,119.1,140.5,119.5,140.5,119.5z"/>
									</g>
								</g>
							</g>
						</g>
						<g>
							<g>
								<g>
									<g>
										<path class="st5" d="M154.1,95.6c0,0,0-0.3,0.3-0.9c0.2-0.5,0.7-1,1.4-1.6c0.3-0.2,0.7-0.5,1.2-0.7
											c0.3-0.2,0.9-0.3,1.4-0.5c0.5-0.2,1-0.2,1.6-0.3c0.5,0,1,0,1.6,0c0.5,0,1,0.2,1.6,0.2c0.5,0.2,1,0.3,1.6,0.5
											c0.5,0.2,0.9,0.5,1.4,0.9c0.3,0.3,0.7,0.7,1,1c0.3,0.3,0.5,0.9,0.7,1c0.2,0.3,0.2,0.7,0.2,1c-0.2,0.7-0.2,0.9-0.2,0.9
											s-0.3-0.2-0.7-0.3c-0.2,0-0.5-0.2-0.7-0.2c-0.2,0-0.5,0-0.9,0c-0.3,0-0.5,0-1,0c-0.3,0-0.7,0-1,0c-0.3,0-0.7,0-1,0
											c-0.3,0-0.7-0.2-1.2,0c-0.3,0-0.9-0.2-1.2-0.2c-0.3-0.2-0.7-0.2-1.2-0.2c-0.3,0-0.7-0.2-1-0.2c-0.3,0-0.7-0.2-1-0.2
											c-0.7-0.2-1.2-0.2-1.7-0.3C154.3,95.6,154.1,95.6,154.1,95.6z"/>
									</g>
								</g>
							</g>
						</g>
					</g>
				</g>
			</g>
			<g>
				<path class="st1" d="M290.5,486.6c-59.8,3.8-85.4-26.1-93.6-60.5c-8.2-34.3-13.9-156.8,0-240.8c13.9-84,66.2-162.4,120.2-165.9
					s69.7,91.5,53.5,175.1c-16.2,83.6-3.5,176.5-3.5,192.7C367.2,403.5,389.9,480.2,290.5,486.6z"/>
				<path class="st6" d="M290,468.3c-56.1,5.2-80.5-24.6-88.2-57c-7.7-32.2-9.2-146.9,3.8-226s58-153,108.2-143.1
					c46.9,9.2,60.3,73.4,45,152.1c-15.3,78.8-8.2,163.1-8.2,178.4C350.7,388.2,362.7,461.7,290,468.3z"/>
				<g class="st7">
					<g>
						<path class="st8" d="M340.6,373c0,20.9,15.7,30.3,28.6,34.7c-0.7-9.1-1.9-16.4-1.9-20.4c0-6.1-1.7-22.8-3.1-45.8
							C353.6,345.1,340.6,353.7,340.6,373z"/>
					</g>
					<g>
						<path class="st8" d="M337.9,297.2c0,19.2,13.2,28.8,25.6,33.5c-0.9-19.2-1.4-41.8-0.5-65.5C352.2,268.6,337.9,277,337.9,297.2
							z"/>
					</g>
					<g>
						<path class="st8" d="M340.7,202.4c0,18.5,12.2,28.1,24,32.9c1.2-13.6,3.1-27.4,5.8-41c1.7-8.5,3-17.4,4-26.1
							C366.5,169.5,340.7,175.4,340.7,202.4z"/>
					</g>
					<g>
						<path class="st8" d="M353.8,110.9c3.1,16,12.9,25.4,22.8,30.8c0.9-25.3-1.4-49.5-7-69.5C360.1,80.1,350.5,93,353.8,110.9z"/>
					</g>
					<g>
						<path class="st8" d="M332,49.1c10.5,1,19.2-1.4,26.1-5.4c-9.8-15.9-23.2-25.3-40.8-24c-5.9,0.3-11.8,1.7-17.8,3.8
							C304.5,34.8,313.9,47.3,332,49.1z"/>
					</g>
					<g>
						<path class="st8" d="M275,63.7c8.7-11.2,10.3-22.8,9.1-32.8c-16.6,10.1-32.2,26.5-45.7,46.7C250.3,79,264.6,76.9,275,63.7z"/>
					</g>
					<g>
						<path class="st8" d="M232.3,123.5c6.3-12.2,3.1-23.5-2.3-32.2c-9.1,15.9-16.9,33.6-22.8,52.5
							C216.7,141.1,226.4,135.3,232.3,123.5z"/>
					</g>
					<g>
						<path class="st8" d="M218.9,196.7c3.5-17.1-6.8-28.6-16.7-35.5c-2.1,8-3.8,16-5.1,24.2c-2.1,12.9-3.8,26.8-5.1,41.1
							C203.1,222.3,215.4,213.7,218.9,196.7z"/>
					</g>
					<g>
						<path class="st8" d="M210.6,290.1c1.9-17.6-10.1-28.2-20.7-34c-1,22-1.4,44.3-1.2,65.3C198.9,315.9,208.8,306.3,210.6,290.1z"
							/>
					</g>
					<g>
						<path class="st8" d="M213,365.2c-1.7-15.9-13.1-23.9-23.9-27.7c0.7,26,2.3,49.3,4.4,66.6C203.8,396.7,214.9,384.3,213,365.2z"
							/>
					</g>
				</g>
			</g>
			<g>
				<g>
					<g>
						<circle class="st4" cx="275.9" cy="351.4" r="35.4"/>
						<g>
							<g>
								<circle id="SVGID_1_" class="st9" cx="289.5" cy="349.1" r="21.8"/>
							</g>
							<g>
								<defs>
									<circle id="SVGID_2_" cx="289.5" cy="349.1" r="21.8"/>
								</defs>
								<clipPath id="SVGID_4_">
									<use xlink:href="#SVGID_2_"  style="overflow:visible;"/>
								</clipPath>
								<circle class="st10" cx="298.4" cy="340.1" r="12.9"/>
							</g>
						</g>
					</g>
					<g>
						<path class="st11" d="M222.1,408.6c1.6-20.2,25.3-22.1,32.6-17.6c7.5,4.5,25.1,10.6,39.2,1.7c14.3-8.9,34.2-2.8,35.7,12.9
							c1.9,18.5-15.7,41.3-46.7,46.7C252.2,457.7,219.8,437.1,222.1,408.6z"/>
						<g>
							<path class="st12" d="M248.7,412.6c5.6,3,17.3-9.8,21.4-16.2c-6.4-1.2-11.8-3.5-15.3-5.6c-2.1-1.2-5.8-2.1-9.6-1.9
								C244.4,396.4,243.7,410,248.7,412.6z"/>
							<path class="st12" d="M305,407.5c5.4-3.3,4.7-12.7,3.7-19.2c-4.9,0-10.1,1.2-14.6,4c-2.8,1.7-5.8,3-8.9,3.7
								C289.7,401.4,298.9,411.2,305,407.5z"/>
							<path class="st12" d="M252.9,432.3c-4.2-0.7-10.8,5.1-15,9.2c5.8,4.4,12.5,7.7,20,9.6C258,444.8,257.4,433.1,252.9,432.3z"/>
							<path class="st12" d="M287.1,435.9c-5.4,1.2-7.7,11.2-8.5,16.9c1.6-0.2,3-0.3,4.5-0.5c7-1.2,13.1-3.3,18.6-5.9
								C298.2,441.5,292.1,434.7,287.1,435.9z"/>
							<path class="st12" d="M311.8,417.6c-1.9,3.7,1.2,13.2,3.7,19.3c6.3-5.6,10.5-12.2,12.7-18.8
								C321.7,416.2,313.5,414.3,311.8,417.6z"/>
						</g>
					</g>
				</g>
				<g>
					<g>
						<circle class="st4" cx="283.7" cy="175.1" r="35.4"/>
						<g>
							<g>
								<circle id="SVGID_3_" class="st9" cx="273.8" cy="166" r="21.8"/>
							</g>
							<g>
								<defs>
									<circle id="SVGID_5_" cx="273.8" cy="166" r="21.8"/>
								</defs>
								<clipPath id="SVGID_6_">
									<use xlink:href="#SVGID_5_"  style="overflow:visible;"/>
								</clipPath>
								<circle class="st13" cx="282.9" cy="157.1" r="12.9"/>
							</g>
						</g>
					</g>
					<g>
						<g>
							<g>
								<g>
									<g>
										<path class="st2" d="M246.1,210.3c0,0,3.3,2.4,8.4,5.6c1.2,0.7,2.6,1.6,4.2,2.4c1.6,0.9,3.1,1.6,4.7,2.3
											c1.6,0.9,3.3,1.4,5.2,2.1c1.7,0.7,3.7,1.2,5.4,1.7c1.9,0.5,3.7,0.9,5.6,1.2c1.9,0.2,3.7,0.5,5.4,0.5c1.7,0,3.5,0,5.2,0
											c0.9,0,1.6-0.2,2.4-0.2c0.7-0.2,1.6-0.2,2.3-0.3c3-0.5,5.4-1,7.1-1.4c1.7-0.3,2.8-0.7,2.8-0.7s-0.9,0.5-2.3,1.6
											c-1.6,1-3.8,2.3-6.8,3.3c-0.7,0.2-1.6,0.5-2.3,0.7c-0.9,0.2-1.7,0.3-2.6,0.7c-1.7,0.3-3.7,0.7-5.8,0.7
											c-1.9,0.2-4,0-6.1-0.2c-2.1-0.3-4.2-0.7-6.3-1.2c-2.1-0.5-4-1.2-5.9-2.1c-1.9-0.9-3.7-1.7-5.4-2.8
											c-1.7-0.9-3.3-2.1-4.7-3.1c-1.4-1-2.8-2.1-3.8-3.1C248.2,213.7,246.1,210.3,246.1,210.3z"/>
									</g>
								</g>
							</g>
						</g>
						<g>
							<g>
								<g>
									<g>
										<path class="st2" d="M241.6,211.6c0,0,0.5-1,1.4-1.9c0.2-0.2,0.5-0.5,0.9-0.7c0.3-0.2,0.5-0.5,0.9-0.7
											c0.3-0.2,0.5-0.3,0.9-0.5c0.3-0.2,0.5-0.3,0.9-0.5s0.5-0.2,0.9-0.3c0.2-0.2,0.5-0.2,0.9-0.3c0.2-0.2,0.5-0.2,0.9-0.3
											c0.3,0,0.5-0.2,0.9-0.3c0.5-0.2,1-0.3,1.6-0.5c0.5-0.2,0.7-0.2,0.7-0.2s0,0.3,0.2,0.7c0,0.5,0.2,1,0,1.9
											c0,0.3-0.2,0.7-0.3,1.2c-0.2,0.3-0.5,0.7-0.7,1c-0.3,0.3-0.7,0.7-1,1c-0.3,0.3-0.9,0.5-1.2,0.7c-0.5,0.2-0.9,0.3-1.2,0.3
											c-0.5,0-0.9,0.2-1.2,0.2c-0.3,0-0.9,0-1.2,0c-0.3,0-0.7-0.2-1-0.2C242.6,212.2,241.6,211.6,241.6,211.6z"/>
									</g>
								</g>
							</g>
						</g>
						<g>
							<g>
								<g>
									<g>
										<path class="st2" d="M303.4,220.4c0,0,1,0,1.9,0.3c0.2,0.2,0.5,0.2,0.7,0.3c0.2,0.2,0.5,0.2,0.7,0.3
											c0.2,0.2,0.3,0.3,0.7,0.5l0.5,0.7l0.3,0.7c0.2,0.2,0.2,0.5,0.3,0.7c0.2,0.2,0.2,0.5,0.2,0.9c0,0.3,0,0.5,0,0.9
											c0,0.5-0.2,1-0.2,1.4c-0.2,0.3-0.2,0.7-0.2,0.7s-0.2,0-0.7,0c-0.3,0-0.9,0-1.4-0.2c-0.2,0-0.5-0.2-0.7-0.3
											c-0.2-0.2-0.5-0.2-0.7-0.3c-0.2-0.2-0.5-0.3-0.7-0.5l-0.5-0.7l-0.3-0.7c-0.2-0.3-0.2-0.5-0.3-0.9
											c-0.2-0.2-0.2-0.5-0.2-0.9c0-0.2,0-0.5,0-0.9C303.1,221.2,303.4,220.4,303.4,220.4z"/>
									</g>
								</g>
							</g>
						</g>
					</g>
				</g>
			</g>
		</g>
	</g>
</g>
</svg>
