<?xml version="1.0" encoding="utf-8"?>
<!-- Generator: Adobe Illustrator 22.0.0, SVG Export Plug-In . SVG Version: 6.00 Build 0)  -->
<svg version="1.1" id="Layer_1" xmlns="http://www.w3.org/2000/svg" xmlns:xlink="http://www.w3.org/1999/xlink" x="0px" y="0px"
	 viewBox="0 0 600 600" style="enable-background:new 0 0 600 600;" xml:space="preserve">
<style type="text/css">
	.st0{fill:#54A2A2;}
	.st1{fill:#498B89;}
	.st2{fill:#65C8D0;}
	.st3{fill:#60B7B9;}
	.st4{fill:#501627;}
	.st5{fill:#F56A82;}
	.st6{fill:#FFFFFF;}
	.st7{fill:#E7E7E7;}
	.st8{fill:#DC519B;}
	.st9{fill:#4F1837;}
</style>
<path class="st0" d="M127.7,288.9l-18-19.7c0,0-47.7,51.9-25,139.9c20,77.7,69.3,34.7,53.2-11.7
	C121.8,350.9,127.7,288.9,127.7,288.9z"/>
<path class="st1" d="M137.9,397.3c-16.1-46.4-10.1-108.5-10.1-108.5l-27.2-6.9c-9,29.8,20.4,89.2,24.2,105.9
	c3.8,16.7,8.6,33.9,1.9,48c-6.7,14.1-28.3,4.9-28.3,4.9C120.9,470.5,150.9,435,137.9,397.3z"/>
<path class="st1" d="M477.5,288.9l18-19.7c0,0,47.7,51.9,25,139.9c-20,77.7-69.3,34.7-53.2-11.7
	C483.4,350.9,477.5,288.9,477.5,288.9z"/>
<path class="st0" d="M467.3,397.3c-3.6,11.7-4,23-1.3,32.3c3.7,12.7,19.5,15,21.9,0c0.9-5.6,3-18.7,0.2-27
	C483.6,388.9,472.1,382,467.3,397.3z"/>
<path class="st0" d="M234.4,435.8c0,0-8.8,112.1-25.1,119.7c-16.2,7.6-10.5,12.4,28.7,12.4c39.2,0,46.8-3.8,48.7-36.3
	c1.9-32.5-9.9-84.6-9.9-84.6L234.4,435.8z"/>
<path class="st0" d="M393.8,555.6c-16.2-7.6-25.1-119.7-25.1-119.7L326.3,447c0,0-11.8,52.1-9.9,84.6c1.9,32.5,9.6,36.3,48.7,36.3
	C404.3,568,410.1,563.2,393.8,555.6z"/>
<path class="st1" d="M278.6,523.6c-6.2,33-31.1,47.4-68.3,43c6.1,0.9,15.2,1.4,27.7,1.4c39.2,0,46.8-3.8,48.7-36.3
	c1.9-32.5-9.9-84.6-9.9-84.6l-42.4-11.2c0,0,6.9,6.8,21.7,13.3C271,455.7,284.8,490.6,278.6,523.6z"/>
<path class="st1" d="M369.9,501.9c2.9,32.1,24.8,67.4-19.1,65.8l0,0c4.2,0.2,9,0.3,14.4,0.3c39.2,0,44.9-4.8,28.7-12.4
	c-16.2-7.6-25.1-119.7-25.1-119.7L326.3,447c0,0,11.7,3.9,21.4,3.9S367,469.8,369.9,501.9z"/>
<path class="st2" d="M496.5,199.7c7.1,9.2,17.8,14.7,17.8,14.7c-3.8-44.9-62.5-96-62.5-96c19.7,6.8,20,0.5,20,0.5
	c-57.3-58-124-54.4-124-54.4c6.8-0.5,11.5-9.1,11.5-9.1c-28.4-9.4-52.1,4.9-52.1,4.9s-28.1-7.5-38.3-21.5c0,0-8.9,17.8,7.6,26.8
	c0,0-34.4-14-79,6.4c0,0,12.7,8.9,26.8,8.9c0,0-62.4,1.3-109.6,71.4c0,0,9.6,2.7,19.3-3.5c-11.3,11.7-31.2,36.8-36.5,72.3
	c0,0,7.5-1.4,13.1-10c-6.8,17-18.7,58.6-2.3,114.2c0,0,4.9-0.4,6.1-24.6c0,0,13.6,91.5,65.2,130.7c0,0,6.3-11.5-1.1-28.7
	c0,0,33.6,31.5,37.5,52.6c0,0,7.4-12.9,2.3-26.5c0,0,28.3,20.4,87.6,20.4c59.3,0,93.2-23.4,93.2-23.4c-3.3,11.7,7.1,23.4,7.1,23.4
	c1-19.4,27-46.5,27-46.5c-9.9,9-1.2,27.7-1.2,27.7c18.6-15.8,31.6-46.8,37.4-62.9c-1.3,11.2,5.7,18.9,5.7,18.9
	c24.9-26.8,23.6-91.9,23.6-91.9c1.7,16.1,15.5,29.7,15.5,29.7C525.7,264.1,496.5,199.7,496.5,199.7z"/>
<path class="st3" d="M178.6,402.7c0,0,33.6,31.5,37.5,52.6c0,0,7.4-12.9,2.3-26.5c0,0,28.3,20.4,87.6,20.4
	c59.3,0,93.2-23.4,93.2-23.4c-3.3,11.7,7.1,23.4,7.1,23.4c1-19.4,27-46.5,27-46.5c-9.9,9-1.2,27.7-1.2,27.7
	c18.6-15.8,31.6-46.8,37.4-62.9c-1.3,11.2,5.7,18.9,5.7,18.9c24.9-26.8,23.6-91.9,23.6-91.9c1.7,16.1,15.5,29.7,15.5,29.7
	c11.5-60.2-17.8-124.6-17.8-124.6c7.1,9.2,17.8,14.7,17.8,14.7c-3.8-44.9-62.5-96-62.5-96c19.7,6.8,20,0.5,20,0.5
	c-57.3-58-124-54.4-124-54.4s6.9-0.8,15.3,8.7c8.4,9.4,18.5,22.6,39.3,29.5c20.8,6.9,72.2,33.2,87.2,76c0,0-12.2-3.7-17.9-11.2
	c0,0,45.5,91.6,11.8,177c0,0-8.2-8.7-6.6-20.6c0,0-35.2,101.6-156.7,111.9C222.4,444.2,178.6,402.7,178.6,402.7z"/>
<g>
	<path class="st4" d="M308.6,320.7c36.6,0.5,61.5-4.2,70.4-14.2c8.9-10,41.8,4.2,22.2,36.9c-19.6,32.7-65.2,35.8-92.6,35.3
		c-27.4-0.4-94.3-28.6-80.7-61.3C241.7,284,275.9,320.2,308.6,320.7z"/>
	<path class="st5" d="M267.8,367.8c0,0,38.3-39.3,111.2-3.1C379,364.7,327.3,395.7,267.8,367.8z"/>
	<path class="st6" d="M267.8,308.8c0,0-1.3,21.4,3.2,23.2c4.4,1.8,6.2-7.6,6.2-7.6s30.2,10.7,75.1,4c0,0,0.4,7.1,4,7.6
		c3.6,0.4,8.2-21.1,8.2-21.1s-15.5,5.9-47,5.9C294.9,320.7,267.8,308.8,267.8,308.8z"/>
</g>
<g>
	<path class="st6" d="M396.1,190.9c2.8,48.3-34.2,89.7-82.5,92.5c-48.3,2.8-89.7-34.2-92.5-82.5c-2.8-48.3,34.2-89.7,82.5-92.5
		C351.9,105.7,393.3,142.6,396.1,190.9z"/>
	<path class="st7" d="M396.1,190.9c-0.3-4.9-1-9.6-2-14.2c0.1,1.3,0.3,2.7,0.3,4.1c2.8,48.3-34.2,89.7-82.5,92.5
		c-43.4,2.5-81.3-27.1-90.5-68.2c4.8,46.3,45.2,81.1,92.2,78.4C361.9,280.7,398.8,239.3,396.1,190.9z"/>
	<path class="st8" d="M339.7,194c1.1,18.9-13.4,35.1-32.3,36.2c-18.9,1.1-35.1-13.4-36.2-32.3c-1.1-18.9,13.4-35.1,32.3-36.2
		C322.5,160.6,338.7,175.1,339.7,194z"/>
	<path class="st9" d="M324.4,194.9c0.6,10.4-7.4,19.4-17.8,20c-10.4,0.6-19.4-7.4-20-17.8c-0.6-10.4,7.4-19.4,17.8-20
		C314.9,176.5,323.8,184.4,324.4,194.9z"/>
	<path class="st6" d="M328.9,180.6c0.3,5.9-4.2,11-10.1,11.4c-5.9,0.3-11-4.2-11.4-10.1c-0.3-5.9,4.2-11,10.1-11.4
		C323.5,170.1,328.6,174.6,328.9,180.6z"/>
</g>
</svg>
