<?xml version="1.0" encoding="utf-8"?>
<!-- Generator: Adobe Illustrator 22.0.0, SVG Export Plug-In . SVG Version: 6.00 Build 0)  -->
<svg version="1.1" id="Layer_1" xmlns="http://www.w3.org/2000/svg" xmlns:xlink="http://www.w3.org/1999/xlink" x="0px" y="0px"
	 viewBox="0 0 600 600" style="enable-background:new 0 0 600 600;" xml:space="preserve">
<style type="text/css">
	.st0{fill:#D2B420;}
	.st1{fill:#C0A01D;}
	.st2{fill:#F3DB22;}
	.st3{fill:#E5C823;}
	.st4{fill:#FFFFFF;}
	.st5{fill:#E7E7E7;}
	.st6{fill:#66C1C6;}
	.st7{fill:#266363;}
	.st8{fill:#501627;}
	.st9{fill:#F56A82;}
</style>
<path class="st0" d="M141.9,312.8l0.3-24.1c0,0-63.4,4.6-103,76.4c-34.9,63.5,24.1,65.6,42.2,25.2C99.6,350,141.9,312.8,141.9,312.8
	z"/>
<path class="st1" d="M133.6,290.1c0,0-19.6,41.6-41.6,62.9c-21.9,21.3-28.1,54.1-44.4,56.3c-16.3,2.2-18.7-17-18.7-17
	c-5.6,35.7,37.5,31.5,52.5-2c18.1-40.4,60.4-77.5,60.4-77.5l0.3-24.1L133.6,290.1z"/>
<path class="st0" d="M464.5,242.7l7.4,22.9c0,0,58.6-24.8,72.8-105.5c12.6-71.3-43.9-54.4-48.1-10.3
	C492.6,193.9,464.5,242.7,464.5,242.7z"/>
<path class="st1" d="M505.6,228.9c-30.1,26.1-37.4,6.9-37.4,6.9l-3.7,6.9l7.4,22.9c0,0,58.6-24.8,72.8-105.5
	C544.8,160.1,535.6,202.8,505.6,228.9z"/>
<path class="st0" d="M247.1,441.6c0,0-8,101.1-22.6,108c-14.7,6.9-9.5,11.2,25.9,11.2c35.4,0,42.3-3.4,44-32.8
	c1.7-29.3-8.9-76.4-8.9-76.4L247.1,441.6z"/>
<path class="st0" d="M390.9,549.6c-14.7-6.9-22.6-108-22.6-108L330,451.7c0,0-10.6,47-8.9,76.4c1.7,29.3,8.6,32.8,44,32.8
	S405.6,556.5,390.9,549.6z"/>
<path class="st1" d="M287,520.7c-5.6,29.8-28,42.7-61.7,38.8c5.5,0.8,13.7,1.3,25,1.3c35.4,0,42.3-3.4,44-32.8
	c1.7-29.3-8.9-76.4-8.9-76.4l-38.3-10.1c0,0,6.2,6.1,19.6,12C280.1,459.5,292.6,491,287,520.7z"/>
<path class="st1" d="M369.3,501.2c2.6,29,22.4,60.8-17.3,59.4h0c3.8,0.2,8.1,0.3,13,0.3c35.4,0,40.5-4.3,25.9-11.2
	c-14.7-6.9-22.6-108-22.6-108L330,451.7c0,0,10.5,3.5,19.3,3.5S366.7,472.2,369.3,501.2z"/>
<path class="st2" d="M505.6,358.8c-9.7-52.5-33.1-112.8-41.3-133c6.2,9.2,19.4,13.2,19.4,13.2c-8.4-64.1-40.6-123.9-40.6-123.9
	c8.3,14.4,24.7,15.9,24.7,15.9c-19.2-55.7-52.3-54.2-52.3-54.2c14.5-13.7,4.8-35.2,4.8-35.2c-9.4,25.3-44.5,28.7-44.5,28.7H245.6
	c0,0-35.1-3.4-44.5-28.7c0,0-9.7,21.5,4.8,35.2c0,0-33.1-1.5-52.3,54.2c0,0,16.4-1.5,24.7-15.9c0,0-32.2,59.8-40.6,123.9
	c0,0,13.2-4,19.4-13.2c-8.2,20.2-31.7,80.5-41.3,133c0,0,10.5-1.4,17.6-9.4c-8.5,20.3-21.4,62.6-4.2,103.3c0,0,10.3-5.7,9.4-23.7
	c0.3,6.8,0.9,17.9,0.9,17.9s11.4,21.5,33.5,24.9c0,0-4.5-9.3-8.1-22.4l0,0c5.8,2.1,12,3.3,18.5,3.3h254.7c6.5,0,12.8-1.2,18.5-3.3
	l0,0c-3.5,13.1-8.1,22.4-8.1,22.4c22.1-3.4,33.5-24.9,33.5-24.9s0.5-11.2,0.9-17.9c-0.9,17.9,9.4,23.7,9.4,23.7
	c17.2-40.7,4.3-83-4.2-103.3C495.1,357.4,505.6,358.8,505.6,358.8z"/>
<path class="st3" d="M164.8,449.4c5.8,2.1,12,3.3,18.5,3.3h254.7c6.5,0,12.8-1.2,18.5-3.3l0,0c-3.5,13.1-8.1,22.4-8.1,22.4
	c22.1-3.4,33.5-24.9,33.5-24.9s0.5-11.2,0.9-17.9c-0.9,17.9,9.4,23.7,9.4,23.7c17.2-40.7,4.3-83-4.2-103.3c7.1,8,17.6,9.4,17.6,9.4
	c-9.7-52.5-33.1-112.8-41.3-133c6.2,9.2,19.4,13.2,19.4,13.2c-8.4-64.1-40.6-123.9-40.6-123.9c8.3,14.4,24.7,15.9,24.7,15.9
	c-19.2-55.7-52.3-54.2-52.3-54.2c14.5-13.7,4.8-35.2,4.8-35.2c-9.4,25.3-44.5,28.7-44.5,28.7H245.6c0,0,135.4-6.7,178.8,27
	c0,0-13.4,5.1-24.4,1.7c0,0,73.3,104.6,85.2,230.5c0,0-14.2-6.1-20.6-17.9c0,0,27.4,91.1,2.6,137.2c0,0-7.1-13.2-10.5-28.4
	C456.6,420.4,418,454,164.8,449.4z"/>
<g>
	<path class="st4" d="M425.6,219.6c1.8,31.9-22.5,59.2-54.4,61c-31.9,1.8-59.2-22.5-61-54.4c-1.8-31.9,22.5-59.2,54.4-61
		C396.5,163.4,423.8,187.7,425.6,219.6z"/>
	<path class="st5" d="M425.6,219.6c-0.2-3.2-0.6-6.4-1.3-9.4c0.1,0.9,0.2,1.8,0.2,2.7c1.8,31.9-22.5,59.2-54.4,61
		c-28.6,1.6-53.6-17.9-59.7-45c3.2,30.5,29.8,53.5,60.8,51.7C403.1,278.8,427.5,251.5,425.6,219.6z"/>
	<path class="st6" d="M392.9,219.3c0.7,12.5-8.8,23.2-21.3,23.9c-12.5,0.7-23.2-8.8-23.9-21.3s8.8-23.2,21.3-23.9
		C381.5,197.3,392.2,206.8,392.9,219.3z"/>
	<path class="st7" d="M382.8,219.8c0.4,6.9-4.9,12.8-11.7,13.2c-6.9,0.4-12.8-4.9-13.2-11.7c-0.4-6.9,4.9-12.8,11.7-13.2
		C376.5,207.7,382.4,213,382.8,219.8z"/>
	<path class="st4" d="M385.8,210.4c0.2,3.9-2.8,7.3-6.7,7.5c-3.9,0.2-7.3-2.8-7.5-6.7c-0.2-3.9,2.8-7.3,6.7-7.5
		C382.2,203.5,385.6,206.5,385.8,210.4z"/>
	<path class="st4" d="M299.9,219.6c1.8,31.9-22.5,59.2-54.4,61c-31.9,1.8-59.2-22.5-61-54.4c-1.8-31.9,22.5-59.2,54.4-61
		C270.8,163.4,298.1,187.7,299.9,219.6z"/>
	<path class="st5" d="M299.9,219.6c-0.2-3.2-0.6-6.4-1.3-9.4c0.1,0.9,0.2,1.8,0.2,2.7c1.8,31.9-22.5,59.2-54.4,61
		c-28.6,1.6-53.6-17.9-59.7-45c3.2,30.5,29.8,53.5,60.8,51.7C277.4,278.8,301.7,251.5,299.9,219.6z"/>
	<path class="st6" d="M267.2,219.3c0.7,12.5-8.8,23.2-21.3,23.9c-12.5,0.7-23.2-8.8-23.9-21.3c-0.7-12.5,8.8-23.2,21.3-23.9
		C255.8,197.3,266.5,206.8,267.2,219.3z"/>
	<path class="st7" d="M257.1,219.8c0.4,6.9-4.9,12.8-11.7,13.2c-6.9,0.4-12.8-4.9-13.2-11.7c-0.4-6.9,4.9-12.8,11.7-13.2
		C250.8,207.7,256.7,213,257.1,219.8z"/>
	<path class="st4" d="M260.1,210.4c0.2,3.9-2.8,7.3-6.7,7.5c-3.9,0.2-7.3-2.8-7.5-6.7c-0.2-3.9,2.8-7.3,6.7-7.5
		C256.5,203.5,259.8,206.5,260.1,210.4z"/>
</g>
<g>
	<path class="st8" d="M299.4,361.3c21.8,0.3,36.6-2.5,41.8-8.5c5.3-6,24.8,2.5,13.2,21.9c-11.6,19.4-38.8,21.3-55,21
		c-16.3-0.3-56-17-48-36.5C259.6,339.5,280,361.1,299.4,361.3z"/>
	<path class="st9" d="M275.2,389.4c0,0,22.8-23.3,66.1-1.8C341.3,387.5,310.5,405.9,275.2,389.4z"/>
	<path class="st4" d="M275.2,354.3c0,0-0.7,12.7,1.9,13.8c2.6,1.1,3.7-4.5,3.7-4.5s18,6.3,44.6,2.4c0,0,0.3,4.2,2.4,4.5
		c2.1,0.3,4.9-12.6,4.9-12.6s-9.2,3.5-27.9,3.5C291.2,361.4,275.2,354.3,275.2,354.3z"/>
</g>
</svg>
