<?xml version="1.0" encoding="utf-8"?>
<!-- Generator: Adobe Illustrator 22.0.0, SVG Export Plug-In . SVG Version: 6.00 Build 0)  -->
<svg version="1.1" id="Layer_1" xmlns="http://www.w3.org/2000/svg" xmlns:xlink="http://www.w3.org/1999/xlink" x="0px" y="0px"
	 viewBox="0 0 600 600" style="enable-background:new 0 0 600 600;" xml:space="preserve">
<style type="text/css">
	.st0{opacity:0.23;fill:#045495;enable-background:new    ;}
	.st1{fill:#F4CB00;}
	.st2{fill:#E5AE00;}
	.st3{fill:#079539;}
	.st4{fill:#007C20;}
	.st5{fill:#FFDD15;}
	.st6{fill:#E0B500;}
	.st7{fill:#490808;}
	.st8{fill:#FFFCC5;}
	.st9{fill:#FF9F9F;}
	.st10{fill:#FFFFFF;}
	.st11{fill:#1D1D1B;}
	.st12{clip-path:url(#SVGID_2_);fill:#FFFFFF;}
	.st13{fill:#E58A00;}
</style>
<ellipse class="st0" cx="303.6" cy="558.3" rx="159.3" ry="25.7"/>
<g>
	<g>
		<path class="st1" d="M145.5,210.8c0,0-87.5,48.8-95.8,77c-8.2,28.2,41.7,63.5,92.7,70c0,0-25.7,24.1-22.7,39.2
			c3.1,15.1,33-6.4,33-6.4s-3.1,24.1,6.4,25.7s22.7-21.8,22.7-21.8S179.7,412,190,412c10.3,0,24.5-38.5,15.4-61
			c-9-22.5-106.1-38.5-113.3-52c-7.2-13.5,52-52,52-52L145.5,210.8z"/>
		<path class="st1" d="M441,231.7c0,0,78.5,27.3,79.8,41.1c1.3,13.8-81.9,44.9-94,59.4c-12.1,14.4-12.4,64.8,9.8,76.4
			c22.1,11.6,11.6-19.9,11.6-19.9s32.2,19.3,39.1,9.6c7-9.6-8.2-26.3-8.2-26.3s27.3,5.5,29.6-1.6c5.1-16-29.6-30.5-29.6-30.5
			s76.7-35.9,81.1-62.6c4.4-26.6-77.8-71.2-109.4-83.4S441,231.7,441,231.7z"/>
		<path class="st2" d="M224,393.1c0,0-0.5,82.8-3.1,102c-27-28.9-70-13.5-72.6,32.1c-2.6,45.6,95.3,22.5,97.3,6.4
			c2.1-16,2.6-106.5,0-125.8C243.1,388.6,224,393.1,224,393.1z"/>
		<path class="st2" d="M365.6,397.9c0,0,3.1,95.6,4.6,111.7c33.5-36.3,71.1-13.8,77.2,9c8.2,30.5-2.1,35.9-13.4,41.1
			c-11.3,5.1-77,6.7-82.9-10.9c-4.6-14.4-4.6-109.1-2.6-131.9S365.6,397.9,365.6,397.9z"/>
	</g>
	<g>
		<path class="st3" d="M379,83.4c0,0,35-40.4,39.1-38.5c4.1,2.2,0.5,64.8,0.5,64.8L379,83.4z"/>
		<path class="st3" d="M225.8,76c0,0-28.3-28.9-33-27.3c-9,3.2,1.3,53,1.3,53S215.8,86.3,225.8,76z"/>
		<g>
			<g>
				<g>
					<g>
						<g>
							<path class="st4" d="M393.7,68.7c0,0,0.5-0.3,1-0.3c0.8-0.3,1.8-0.6,3.1-0.6c0.8,0,1.3,0,2.1,0c0.8,0,1.5,0.3,2.3,0.6
								c0.8,0.3,1.5,0.6,2.3,1c0.8,0.3,1.5,1,2.3,1.3c0.8,0.6,1.5,1,2.1,1.6c0.8,0.6,1.3,1.3,2.1,1.9c0.5,0.6,1.3,1.3,1.5,1.9
								c0.5,0.6,1,1.3,1.3,1.9c0.8,1.3,1.3,2.2,1.8,3.2c0.3,1,0.5,1.3,0.5,1.3s-0.5-0.3-1-0.6c-0.8-0.3-1.5-1-2.6-1.9
								c-0.5-0.3-1-1-1.8-1.3c-0.5-0.3-1.3-1-1.8-1.3s-1.3-1-2.1-1.3c-0.5-0.6-1.3-1-2.1-1.3c-0.8-0.3-1.3-1-2.1-1.3
								c-0.8-0.3-1.3-1-2.1-1.3c-0.8-0.3-1.3-0.6-1.8-1c-0.5-0.3-1.3-0.6-1.8-1C395.5,69.3,393.7,68.7,393.7,68.7z"/>
						</g>
					</g>
				</g>
			</g>
			<g>
				<g>
					<g>
						<g>
							<path class="st4" d="M405.3,56.8c0,0,0.8-0.6,2.3-1c0.3,0,0.8,0,1,0c0.5,0,0.8,0,1.3,0c0.5,0,0.8,0.3,1.3,0.3
								c0.5,0.3,0.8,0.3,1.3,0.6c0.5,0.3,0.8,0.6,1.3,1c0.5,0.3,0.8,0.6,1,1.3c0.3,0.3,0.5,1,0.8,1.3c0.3,0.3,0.5,1,0.5,1.3
								c0.3,1,0.5,1.6,0.5,2.2c0,0.6,0,1,0,1s-0.3,0-0.5-0.3c-0.5-0.3-1-0.6-1.5-1l-0.8-0.6c-0.3-0.3-0.5-0.3-1-0.6
								c-0.3-0.3-0.5-0.3-1-0.6c-0.3-0.3-0.8-0.3-1-0.6s-0.8-0.3-1-0.6s-0.8-0.3-1-0.6c-0.3,0-0.5-0.3-1-0.6
								c-0.3-0.3-0.5-0.3-0.8-0.6C406.3,57.8,405.3,56.8,405.3,56.8z"/>
						</g>
					</g>
				</g>
			</g>
			<g>
				<g>
					<g>
						<g>
							<path class="st4" d="M192.6,82.5c0,0,0.3-1.6,1.3-3.9c0.3-0.6,0.5-1,1-1.6c0.3-0.6,0.8-1.3,1.3-1.6c0.5-0.6,1-1,1.5-1.6
								c0.5-0.6,1-1,1.5-1.6c0.5-0.3,1-1,1.5-1.3s1-0.6,1.8-1c0.5-0.3,1-0.6,1.5-1c0.5-0.3,1-0.3,1.5-0.6c1-0.3,1.8-0.6,2.3-0.6
								c0.5,0,1,0,1,0s-0.3,0.3-0.5,1c-0.3,0.6-1,1.3-1.5,2.2c-0.3,0.3-0.8,1-1.3,1.3s-0.8,1-1.3,1.3s-1,1-1.5,1.3s-1,1-1.5,1.3
								c-0.5,0.3-1,1-1.5,1.3s-1,0.6-1.5,1.3c-0.5,0.3-1,0.6-1.5,1c-0.5,0.3-0.8,0.6-1.3,1C193.6,81.5,192.6,82.5,192.6,82.5z"/>
						</g>
					</g>
				</g>
			</g>
			<g>
				<g>
					<g>
						<g>
							<path class="st4" d="M191.3,66.4c0,0,0-0.3,0-1c0-0.6,0-1.3,0.3-2.2c0.3-0.3,0.3-1,0.5-1.3c0.3-0.3,0.5-1,0.8-1.3
								c0.3-0.3,0.8-1,1-1.3c0.3-0.3,0.8-0.6,1.3-1c0.5-0.3,0.8-0.6,1.3-1c0.5-0.3,0.8-0.3,1.3-0.6c0.5-0.3,0.8-0.3,1.3-0.3
								s0.8,0,1.3,0c0.8,0,1.3,0,1.8,0.3c0.5,0.3,0.8,0.3,0.8,0.3s-0.3,0.3-0.5,0.6s-0.8,1-1.3,1.3c-0.3,0.3-0.5,0.6-0.8,0.6
								c-0.3,0.3-0.5,0.6-1,1c-0.3,0.3-0.8,0.6-1,1c-0.3,0.3-0.8,0.6-1,0.6c-0.3,0.3-0.8,0.6-1,0.6c-0.3,0.3-0.8,0.3-1,0.6
								c-0.3,0.3-0.8,0.3-1,0.6c-0.3,0.3-0.5,0.3-0.8,0.6C192.1,65.8,191.3,66.4,191.3,66.4z"/>
						</g>
					</g>
				</g>
			</g>
		</g>
	</g>
	<g>
		<g>
			<path class="st1" d="M293,55.2c0,0-15.4-26.3-23.2-27.3c-7.7-1,0,22.5,0,22.5s-40.7,5.8-76,42.4s-64.4,90.5-58.7,170.7
				s67.5,177.1,172.5,179.1s160.9-108.5,162.2-203.8c1.3-95.3-59.7-176.5-146.8-186.1c0,0,9.8-20.9,3.9-25
				C321.1,23.4,300,42.4,293,55.2z"/>
			<path class="st5" d="M294.3,63.9c58.4-4.2,163.2,76.7,162.7,187.7c-0.5,111-80.1,163.3-161.4,165.3
				c-81.6,1.9-138-76.4-140.8-176.5C152.2,140.2,229.1,68.3,294.3,63.9z"/>
			<g>
				<g>
					<g>
						<g>
							<path class="st6" d="M421.7,385.1c0,0,2.6-4.2,6.2-10.3c0.8-1.6,1.8-3.2,2.8-4.8c1-1.9,2.1-3.5,3.1-5.5
								c1-1.9,2.1-3.9,3.3-6.1c1-1.9,2.3-4.2,3.3-6.4c1-2.2,2.1-4.2,3.1-6.4c1-2.2,2.1-4.2,3.1-6.1c1-1.9,1.8-4.2,2.8-5.8
								c0.8-1.9,1.5-3.5,2.3-5.5c1.5-3.2,2.6-6.1,3.3-8c0.8-1.9,1.3-3.2,1.3-3.2s-0.3,1.3-0.5,3.5c-0.5,2.2-1,5.5-2.1,9
								c-0.5,1.9-1,3.9-1.8,5.8c-0.8,1.9-1.5,4.2-2.3,6.4c-0.8,2.2-1.8,4.5-2.8,6.4c-1,2.2-2.1,4.5-3.1,6.7c-1,2.2-2.3,4.2-3.3,6.4
								c-1.3,1.9-2.3,4.2-3.6,5.8c-1.3,1.9-2.3,3.5-3.6,5.5c-1.3,1.6-2.3,3.2-3.3,4.5c-2.1,2.9-4.1,4.8-5.4,6.4
								C422.5,384.1,421.7,385.1,421.7,385.1z"/>
						</g>
					</g>
				</g>
			</g>
			<g>
				<g>
					<g>
						<g>
							<path class="st6" d="M147.5,319.3c0,0,0.8,1.3,1.8,3.9c1.3,2.6,3.1,5.8,5.1,9.9c1,1.9,2.3,4.2,3.6,6.4
								c1.3,2.2,2.8,4.8,4.1,7.1c1.5,2.6,3.1,5.1,4.6,7.7c1.5,2.6,3.1,5.1,4.6,7.7c1.5,2.6,3.1,5.1,4.6,7.7c1.5,2.6,3.1,5.1,4.6,7.4
								c1.5,2.2,3.1,4.5,4.6,6.4c1.5,1.9,3.1,3.5,4.6,5.1c3.1,2.9,5.7,5.8,7.5,7.7c1.5,2.2,2.3,3.5,2.3,3.5s-1-1.3-2.8-2.9
								c-1.8-1.6-4.6-3.5-8.2-6.1c-1.8-1.3-3.6-2.9-5.4-4.8c-1.8-1.9-3.6-4.2-5.1-6.4c-1.8-2.2-3.3-4.8-5.1-7.4
								c-1.5-2.6-3.3-5.1-4.9-7.7c-1.5-2.6-3.1-5.5-4.6-8c-1.5-2.6-2.8-5.5-4.4-8c-1.3-2.6-2.6-5.1-3.9-7.7
								c-1.3-2.6-2.3-4.8-3.1-7.1c-1.8-4.5-3.1-8.3-4.1-10.9C147.8,320.9,147.5,319.3,147.5,319.3z"/>
						</g>
					</g>
				</g>
			</g>
		</g>
		<g>
			<g>
				<path class="st7" d="M224.8,281.4c22.1-9.6,47.6,25.7,76.5,23.4c28.3-2.2,38.9-33.1,60.8-32.1c21.9,1,51.5,43.3,21.1,86.6
					s-105.6,51.3-148.8,13.5C203.7,346.3,193.9,294.9,224.8,281.4z"/>
				<g>
					<path class="st8" d="M241.5,325.7c1.3,3.9,34,15.4,38.1,9.3c2.3-3.9,3.3-20.9,3.6-33.1c-11.3-4.2-21.9-11.6-32.2-16.7
						C247.4,297.5,240.5,322.5,241.5,325.7z"/>
					<path class="st8" d="M327,336.6c3.9,1,34-16.7,36-21.5c1.5-3.5-11.3-26.6-17.5-36.9c-10.3,7.1-19.3,18.9-33,24.1
						C316.7,314.5,324.2,335.7,327,336.6z"/>
					<path class="st9" d="M305.9,354.6c-23.7,2.9-42,22.8-49.4,32.7c34.5,16,78,12.2,107.4-8.7C353.5,369.4,329.6,351.4,305.9,354.6
						z"/>
				</g>
			</g>
			<g>
				<ellipse class="st10" cx="297.4" cy="191.3" rx="65.7" ry="81.8"/>
				<g>
					<g>
						<path id="SVGID_3_" class="st11" d="M310,165.9c-0.3,24.7-16.2,44.9-36,44.9s-36-20.2-36-44.9s16.2-44.9,36-44.9
							C294,121.3,310.2,141.5,310,165.9z"/>
					</g>
					<g>
						<defs>
							<path id="SVGID_1_" d="M310,165.9c-0.3,24.7-16.2,44.9-36,44.9s-36-20.2-36-44.9s16.2-44.9,36-44.9
								C294,121.3,310.2,141.5,310,165.9z"/>
						</defs>
						<clipPath id="SVGID_2_">
							<use xlink:href="#SVGID_1_"  style="overflow:visible;"/>
						</clipPath>
						<ellipse class="st12" cx="260.6" cy="149.2" rx="22.4" ry="27.9"/>
					</g>
				</g>
			</g>
			<g>
				<path class="st13" d="M180,133.8c16.2-7.7,24.5,50.4,7.5,53.9C170.2,191.6,159.6,143.4,180,133.8z"/>
				<path class="st13" d="M151.9,225.9c11.1,6.7,24.2-23.4,14.2-30.2C156,189,140.8,219.2,151.9,225.9z"/>
				<path class="st13" d="M215,121.3c13.6,18,45.3-17.7,31.9-37.9C233.5,63.2,197.7,98.2,215,121.3z"/>
				<path class="st13" d="M171.2,248.7c18,0,16.2,52-5.4,48.8S148.6,248.7,171.2,248.7z"/>
				<path class="st13" d="M404.2,224.6c19.1-9,25.2,28.2,7.2,35.3C393.4,267,388.8,231.7,404.2,224.6z"/>
				<path class="st13" d="M381.8,114.6c21.1-29.8,65.7,30.5,47.6,55.2C411.4,194.5,361.2,143.4,381.8,114.6z"/>
				<path class="st13" d="M443.9,181.6c14.2,5.8,14.9,25,0,26.3C428.9,209.2,436.4,178.7,443.9,181.6z"/>
				<path class="st13" d="M334.2,77.3c3.1-11.6,35.3-6.7,29.6,14.1C358.1,112.3,328,98.8,334.2,77.3z"/>
			</g>
		</g>
	</g>
</g>
</svg>
