<?xml version="1.0" encoding="utf-8"?>
<!-- Generator: Adobe Illustrator 22.0.0, SVG Export Plug-In . SVG Version: 6.00 Build 0)  -->
<svg version="1.1" id="Layer_1" xmlns="http://www.w3.org/2000/svg" xmlns:xlink="http://www.w3.org/1999/xlink" x="0px" y="0px"
	 viewBox="0 0 600 600" style="enable-background:new 0 0 600 600;" xml:space="preserve">
<style type="text/css">
	.st0{opacity:0.23;fill:#045495;enable-background:new    ;}
	.st1{fill:#8A1E80;}
	.st2{fill:#F22A9D;}
	.st3{fill:#FF3EB6;}
	.st4{fill:#B20F80;}
	.st5{fill:#490808;}
	.st6{fill:#FFFCC5;}
	.st7{fill:#FFDA04;}
	.st8{fill:#1D1D1B;}
	.st9{clip-path:url(#SVGID_4_);fill:#FFFFFF;}
	.st10{clip-path:url(#SVGID_7_);fill:#FFFFFF;}
	.st11{clip-path:url(#SVGID_9_);fill:#FFFFFF;}
</style>
<g>
	<ellipse class="st0" cx="302.8" cy="548.4" rx="164.9" ry="26.6"/>
	<g>
		<g>
			<path class="st1" d="M192,177.1c0,0-29.2,6.6-46-22.9s-11.8-48.1,1.7-68.2c0,0-22.2-25.7-59-2.6s-25.7,71.2-25.7,71.2
				s24.8-30.4,44.8-17c20,13.4,0.5,54.7,0.5,54.7s45.6-25.3,59.5,24.3c0,0,4.7-21.7,26.9-24.3L192,177.1z"/>
			<path class="st1" d="M397.7,174.5c0,0,39,3.5,50.3-24.6s-6.6-51.5-17.4-62.5c0,0,22-33.5,68-27.4s45.5,84.5,45.5,84.5
				c-22.7-23.3-34.7-26-39.4-24.8c-16,4-5.7,56.1-5.7,57.6c-29.9-16.8-59.9-11.5-60.7,28.3c-21.3-22-33.3-19.6-40.4-13v-18H397.7z"
				/>
		</g>
		<g>
			<g>
				<g>
					<g>
						<g>
							<g>
								<path class="st1" d="M288,72.4c0,0,0-0.2,0.2-0.7c0.2-0.3,0.2-1,0.2-1.7c0-1.6-0.3-3.6-0.9-6.2c-0.3-1.2-0.7-2.6-1-4
									c-0.3-1.4-1-3-1.4-4.5c-0.5-1.6-1-3.1-1.7-4.7c-0.5-1.6-1.2-3.1-1.9-4.7c-0.7-1.6-1.4-3.1-2.3-4.5c-0.9-1.4-1.6-2.8-2.4-4.2
									c-0.9-1.2-1.7-2.4-2.6-3.6c-0.9-1-1.7-2.1-2.8-3c-1.9-1.6-3.6-2.8-5-3.5c-0.7-0.3-1.4-0.5-1.7-0.7c-0.3-0.2-0.7-0.2-0.7-0.2
									s0.2,0,0.7-0.2c0.5,0,1-0.3,1.9-0.3c1.7-0.2,4.3,0,7.1,1.2c1.4,0.5,3,1.4,4.3,2.4c1.4,1,2.8,2.3,4,3.6
									c1.2,1.4,2.4,3,3.5,4.5c1,1.7,1.9,3.5,2.8,5.2c0.7,1.7,1.4,3.6,1.9,5.4c0.5,1.9,0.9,3.6,1.2,5.4c0.3,1.7,0.3,3.5,0.5,5.2
									c0.2,1.7,0,3.3-0.2,4.7c-0.3,3-1,5.4-1.9,6.8c-0.3,0.7-0.9,1.4-1.2,1.6C288.2,72.2,288,72.4,288,72.4z"/>
							</g>
						</g>
					</g>
				</g>
				<g>
					<g>
						<g>
							<g>
								<path class="st1" d="M298.6,64.9c0,0-0.3-0.5-0.7-1.4c-0.2-0.5-0.3-1-0.5-1.6c-0.2-0.7-0.3-1.4-0.3-2.3c0-0.9,0-1.7,0.2-2.6
									c0.2-0.9,0.3-1.9,0.7-3c0.3-0.9,0.9-1.9,1.4-3c0.5-0.9,1.2-1.7,1.9-2.8c0.9-0.9,1.6-1.6,2.4-2.3c0.9-0.7,1.7-1.2,2.8-1.7
									c0.9-0.5,1.9-0.9,2.8-1s1.7-0.5,2.6-0.5s1.6,0,2.3,0c0.7,0.2,1.2,0.2,1.7,0.3c0.9,0.3,1.4,0.7,1.4,0.7s-0.3,0.3-1.2,0.9
									c-0.3,0.2-0.9,0.5-1.2,1c-0.5,0.3-0.9,0.7-1.4,1.2c-0.5,0.3-1,0.9-1.6,1.4c-0.5,0.5-1,1-1.6,1.6c-0.5,0.5-1,1-1.6,1.7
									c-0.5,0.5-1,1.2-1.6,1.7c-0.5,0.5-1,1.2-1.6,1.7c-0.5,0.5-1,1.2-1.6,1.7c-0.3,0.7-1,1.2-1.4,1.9c-0.3,0.7-0.9,1.2-1.2,1.7
									c-0.3,0.5-0.7,1-1,1.6c-0.3,0.5-0.7,0.9-0.9,1.4C298.8,64.4,298.6,64.9,298.6,64.9z"/>
							</g>
						</g>
					</g>
				</g>
			</g>
			<g>
				<g>
					<path class="st2" d="M208.9,322.5c0,0-18.6,50.8,0,98.2c0,0,19.3,9.4,22.9,34.2c3.6,24.8-3.3,31.2-7.3,31.8
						c-4,0.5-7.8-18.6-7.8-18.6s-7.8,22.6-18.9,18.6c-10.9-4-3.3-18.6-3.3-18.6s-21.7,17.9-29.7,9.2c-8-8.7,10.9-22.6,10.9-22.6
						s-17.2-28.3,13.5-34.2c0,0-18.6-67.9,11.5-130C230.7,228.4,208.9,322.5,208.9,322.5z"/>
					<path class="st2" d="M203,420.9c0,0,41.7-0.5,46,9.9c4.3,10.4-27.2,14.4-27.2,14.4L203,420.9z"/>
				</g>
				<g>
					<path class="st2" d="M385.4,310.3c0,0,23.6,58.8,3.6,107.3c0,0-19.8,16.7-14.1,37.5c5.7,20.8,21.9,25.3,25.2,22.6
						c3.1-3-0.7-18.6-2.3-25.5c0,0,16.8,20.3,28.5,16.1c11.6-4-5.2-24.3-5.2-24.3s27.1,12.7,30,4c3-8.7-24.8-19.1-24.8-19.1
						s-4.5-16.8-16.1-18.6c0,0,19.4-49.1-7.8-120.6L385.4,310.3z"/>
					<path class="st2" d="M390.4,413.9c0,0-36.3,9-36.8,21s25.7,7.3,25.7,7.3S400.6,425.4,390.4,413.9z"/>
				</g>
			</g>
			<g>
				<g>
					<path class="st2" d="M298.6,59.9c66.5,0,100.1,33.5,105.3,125c5.2,91.5,13.9,193.9-93.4,204.3s-117.5-81.6-119.4-136.1
						C189.3,198.8,171.9,59.9,298.6,59.9z"/>
					<path class="st3" d="M298.8,85.6c59.9,0,89.9,30.2,94.6,112.3s12.5,174.2-84,183.6s-105.7-73.4-107.3-122.2
						C200.5,210.4,184.9,85.6,298.8,85.6z"/>
				</g>
				<g>
					<path class="st4" d="M209.9,246.1c-1.4-3.1-12.7-7.6-19.8-10.4c0.3,6.4,0.7,12.1,0.9,17.2c0,1.6,0.2,3.1,0.2,4.9
						C206.4,252.4,209.9,246.1,209.9,246.1z"/>
					<path class="st4" d="M223.6,205.3c0,0-17.9-11.6-34.4-11.6c-0.2,7.5,0,14.8,0.2,21.7C198.6,213.7,220.9,209,223.6,205.3z"/>
					<path class="st4" d="M226.6,172.4c0,0-16.8-12.3-33.8-18c-1.2,7.5-2.1,14.9-2.6,22.4C198.8,178.1,215.6,179.7,226.6,172.4z"/>
					<path class="st4" d="M236.6,139.9c0,0-12-22-27.9-33.8c-4.7,8-8.2,16.8-10.9,26C205.4,135.6,221,141.8,236.6,139.9z"/>
					<path class="st4" d="M263.9,114.6c0,0-0.3-29.3-7.1-48.2c-13.2,4.5-23.8,11.3-32.5,19.8C231.3,93.6,247.9,110.1,263.9,114.6z"
						/>
					<path class="st4" d="M324.3,61.8c-8-1.4-16.5-2.1-25.9-2.1c-5.9,0-11.5,0.3-16.7,0.9c2.1,10.2,7.6,35.4,16.1,53.8
						C297.9,114.6,316,88.2,324.3,61.8z"/>
					<path class="st4" d="M376.7,91.2c-9-11.5-20.5-19.4-34.2-24.5c-4,8.2-10.1,23.3-12.1,42.3C330.4,109,360.4,100.2,376.7,91.2z"
						/>
					<path class="st4" d="M353.3,129.3c0,0,26.4,3.8,42.5,1.6c-3.1-11.1-7.1-20.8-11.8-29.2C376,106.2,361.8,116.1,353.3,129.3z"/>
					<path class="st4" d="M403.1,174.3c-1-11.5-2.4-21.9-4.5-31.4c-7.8,3.3-26.4,11.5-37.3,20.8
						C361.3,163.7,384.5,173.4,403.1,174.3z"/>
					<path class="st4" d="M371.5,201.2c0,0,16,9.9,34,13c-0.3-8.7-0.9-17.4-1.4-25.9l0,0C403.9,188.5,378.4,195.1,371.5,201.2z"/>
					<path class="st4" d="M406.5,246.5c0-6.6-0.2-13.2-0.5-20c-6.1,0.7-18.7,2.8-26.9,7.1C379.1,233.6,388.8,244.4,406.5,246.5z"/>
				</g>
			</g>
		</g>
		<g>
			<g>
				<path class="st5" d="M260.4,311.6c15.6-1.2,18.4,14.9,33.8,13.9c15.4-1,21.2-13.9,33.8-13.9c12.7,0,20,52.1-33.3,52.1
					S245.8,312.6,260.4,311.6z"/>
				<g>
					<path class="st6" d="M276.6,317.8c-3.6-3-7.5-5.9-13.2-6.2c0.2,3.3,0.7,6.9,2.6,8.7C268.4,322.1,272.9,320.1,276.6,317.8z"/>
					<path class="st6" d="M285.2,332.6c4.7,1.7,8-3.1,9.7-7.5c-0.3,0-0.5,0-0.9,0.2c-5.6,0.3-9.5-1.4-13-4
						C280.9,325.4,281.2,331.2,285.2,332.6z"/>
					<path class="st6" d="M309.5,330.8c3.5-1.2,3.1-8.7,2.8-13c-3.6,2.4-7.5,5-12.1,6.4C302.4,327.5,306.4,332,309.5,330.8z"/>
					<path class="st6" d="M322.6,322.5c3-0.9,4.3-6.8,5-10.9c-5,0.2-9,2.3-13.2,4.9C316.5,319.5,319.8,323.4,322.6,322.5z"/>
					<path class="st6" d="M270.1,345.4c-2.8-1.4-8.7,1.9-12.1,4.2c3.3,4,7.8,7.5,13.9,10.1C272.6,354.4,272.9,346.6,270.1,345.4z"/>
					<path class="st6" d="M285.8,351.1c-4,0.3-6.8,6.2-8.3,10.2c4.3,1.2,9.4,1.9,15.1,2.1C292.2,359.8,290.6,350.6,285.8,351.1z"/>
					<path class="st6" d="M307.8,351.1c-3.8,1.4-5.9,8.7-6.6,12.1c6.2-0.5,11.5-1.9,16-3.8C315.3,356,311.4,349.7,307.8,351.1z"/>
					<path class="st6" d="M334.9,341.6c-3.3-2.3-9.4-5.6-12-2.3c-2.8,3.5-0.2,12,1.4,16.1C329.5,351.6,332.8,346.6,334.9,341.6z"/>
				</g>
			</g>
			<g>
				<g>
					
						<ellipse transform="matrix(0.9239 -0.3827 0.3827 0.9239 -85.4095 113.2033)" class="st7" cx="241.9" cy="271.3" rx="31.8" ry="31.8"/>
					<g>
						<g>
							
								<ellipse id="SVGID_1_" transform="matrix(0.9239 -0.3827 0.3827 0.9239 -82.2713 109.196)" class="st8" cx="233.3" cy="261.4" rx="18.7" ry="18.7"/>
						</g>
						<g>
							<defs>
								
									<ellipse id="SVGID_2_" transform="matrix(0.9239 -0.3827 0.3827 0.9239 -82.2713 109.196)" cx="233.3" cy="261.4" rx="18.7" ry="18.7"/>
							</defs>
							<clipPath id="SVGID_4_">
								<use xlink:href="#SVGID_2_"  style="overflow:visible;"/>
							</clipPath>
							<circle class="st9" cx="239.4" cy="253.1" r="12.7"/>
						</g>
					</g>
				</g>
				<g>
					<circle class="st7" cx="347.4" cy="271.3" r="31.8"/>
					<g>
						<g>
							<circle id="SVGID_3_" class="st8" cx="357.6" cy="263.7" r="18.7"/>
						</g>
						<g>
							<defs>
								<circle id="SVGID_6_" cx="357.6" cy="263.7" r="18.7"/>
							</defs>
							<clipPath id="SVGID_7_">
								<use xlink:href="#SVGID_6_"  style="overflow:visible;"/>
							</clipPath>
							<circle class="st10" cx="363.7" cy="255.2" r="12.7"/>
						</g>
					</g>
				</g>
				<g>
					<circle class="st7" cx="292.7" cy="201.2" r="29"/>
					<g>
						<g>
							<circle id="SVGID_5_" class="st8" cx="301" cy="191.3" r="17"/>
						</g>
						<g>
							<defs>
								<circle id="SVGID_8_" cx="301" cy="191.3" r="17"/>
							</defs>
							<clipPath id="SVGID_9_">
								<use xlink:href="#SVGID_8_"  style="overflow:visible;"/>
							</clipPath>
							<circle class="st11" cx="306.6" cy="183.7" r="11.6"/>
						</g>
					</g>
				</g>
			</g>
		</g>
	</g>
</g>
</svg>
