<?xml version="1.0" encoding="utf-8"?>
<!-- Generator: Adobe Illustrator 22.0.0, SVG Export Plug-In . SVG Version: 6.00 Build 0)  -->
<svg version="1.1" id="Layer_1" xmlns="http://www.w3.org/2000/svg" xmlns:xlink="http://www.w3.org/1999/xlink" x="0px" y="0px"
	 viewBox="0 0 600 600" style="enable-background:new 0 0 600 600;" xml:space="preserve">
<style type="text/css">
	.st0{fill:#DC519B;}
	.st1{fill:#BA428D;}
	.st2{fill:#A73983;}
	.st3{fill:#CA4791;}
	.st4{fill:#FFFFFF;}
	.st5{fill:#E7E7E7;}
	.st6{fill:#B0D133;}
	.st7{fill:#657718;}
	.st8{fill:#501627;}
	.st9{fill:#F56A82;}
</style>
<path class="st0" d="M247.9,233.6c-2.3,0-4.6-0.6-6.7-2c-48.9-32-42.2-102-41.9-104.9c0.7-6.7,6.7-11.6,13.4-10.9
	c6.7,0.7,11.6,6.7,10.9,13.4c-0.1,0.6-5.4,58.2,31,82c5.7,3.7,7.2,11.3,3.5,16.9C255.8,231.7,251.9,233.6,247.9,233.6z"/>
<path class="st0" d="M361.4,233.6c-4,0-7.9-1.9-10.2-5.5c-3.7-5.7-2.1-13.2,3.5-16.9c36.6-24,31-81.4,31-81.9
	c-0.7-6.7,4.2-12.7,10.9-13.4c6.7-0.7,12.7,4.2,13.4,10.9c0.3,3,7,72.9-41.9,104.9C366.1,233,363.7,233.6,361.4,233.6z"/>
<ellipse transform="matrix(0.7071 -0.7071 0.7071 0.7071 -2.8844 176.631)" class="st0" cx="211.8" cy="91.8" rx="53.4" ry="53.4"/>
<ellipse transform="matrix(0.667 -0.745 0.745 0.667 65.8308 330.8977)" class="st0" cx="403.1" cy="91.8" rx="53.4" ry="53.4"/>
<path class="st1" d="M180.8,356.1l-13.1-14.3c0,0-34.7,37.7-18.2,101.7c14.5,56.5,50.4,25.2,38.7-8.5
	C176.5,401.2,180.8,356.1,180.8,356.1z"/>
<path class="st2" d="M188.2,434.9c-11.7-33.7-7.4-78.9-7.4-78.9l-19.8-5c-6.5,21.7,14.8,64.8,17.6,77c2.8,12.2,6.3,24.7,1.4,34.9
	c-4.9,10.2-20.6,3.6-20.6,3.6C175.8,488.1,197.7,462.3,188.2,434.9z"/>
<path class="st2" d="M435.1,356.1l13.1-14.3c0,0,34.7,37.7,18.2,101.7c-14.5,56.5-50.4,25.2-38.7-8.5
	C439.4,401.2,435.1,356.1,435.1,356.1z"/>
<path class="st1" d="M427.7,434.9c-2.6,8.5-2.9,16.7-0.9,23.5c2.7,9.2,14.2,10.9,15.9,0c0.7-4.1,2.2-13.6,0.2-19.6
	C439.5,428.8,431.1,423.8,427.7,434.9z"/>
<path class="st1" d="M258.4,462.9c0,0-6.4,81.5-18.2,87c-11.8,5.6-7.6,9,20.8,9c28.5,0,34-2.8,35.4-26.4c1.4-23.6-7.2-61.5-7.2-61.5
	L258.4,462.9z"/>
<path class="st1" d="M374.3,550c-11.8-5.6-18.2-87-18.2-87l-30.9,8.1c0,0-8.6,37.9-7.2,61.5c1.4,23.6,6.9,26.4,35.4,26.4
	S386.1,555.5,374.3,550z"/>
<path class="st2" d="M290.5,526.7c-4.5,24-22.6,34.4-49.7,31.3c4.4,0.7,11,1,20.2,1c28.5,0,34-2.8,35.4-26.4
	c1.4-23.6-7.2-61.5-7.2-61.5l-30.9-8.1c0,0,5,4.9,15.8,9.7C285,477.4,295,502.7,290.5,526.7z"/>
<path class="st2" d="M356.9,511c2.1,23.4,18.1,49-13.9,47.8l0,0c3.1,0.2,6.5,0.2,10.4,0.2c28.5,0,32.7-3.5,20.8-9
	c-11.8-5.6-18.2-87-18.2-87l-30.9,8.1c0,0,8.5,2.8,15.6,2.8C347.8,473.9,354.8,487.6,356.9,511z"/>
<path class="st0" d="M448.9,291.2c5.2,6.7,12.9,10.7,12.9,10.7c-2.8-32.7-45.5-69.8-45.5-69.8c14.3,4.9,14.6,0.3,14.6,0.3
	c-41.7-42.1-90.1-39.5-90.1-39.5c5-0.4,8.4-6.6,8.4-6.6c-20.6-6.8-37.8,3.6-37.8,3.6s-20.4-5.4-27.8-15.6c0,0-6.5,13,5.6,19.5
	c0,0-25-10.2-57.4,4.6c0,0,9.3,6.5,19.5,6.5c0,0-45.4,0.9-79.7,51.9c0,0,7,1.9,14-2.6c-8.2,8.5-22.6,26.7-26.6,52.6
	c0,0,5.5-1,9.5-7.3c-4.9,12.4-13.6,42.6-1.7,83c0,0,3.6-0.3,4.5-17.9c0,0,9.9,66.5,47.4,95c0,0,4.6-8.3-0.8-20.8
	c0,0,24.5,22.9,27.2,38.2c0,0,5.4-9.3,1.6-19.3c0,0,20.6,14.9,63.7,14.9c43.1,0,67.8-17,67.8-17c-2.4,8.5,5.2,17,5.2,17
	c0.7-14.1,19.6-33.8,19.6-33.8c-7.2,6.5-0.8,20.1-0.8,20.1c13.5-11.5,22.9-34,27.2-45.7c-0.9,8.1,4.1,13.8,4.1,13.8
	c18.1-19.5,17.2-66.8,17.2-66.8c1.2,11.7,11.3,21.6,11.3,21.6C470.1,338.1,448.9,291.2,448.9,291.2z"/>
<path class="st3" d="M217.8,438.8c0,0,24.5,22.9,27.2,38.2c0,0,5.4-9.3,1.6-19.3c0,0,20.6,14.9,63.7,14.9c43.1,0,67.8-17,67.8-17
	c-2.4,8.5,5.2,17,5.2,17c0.7-14.1,19.6-33.8,19.6-33.8c-7.2,6.5-0.8,20.1-0.8,20.1c13.5-11.5,22.9-34,27.2-45.7
	c-0.9,8.1,4.1,13.8,4.1,13.8c18.1-19.5,17.2-66.8,17.2-66.8c1.2,11.7,11.3,21.6,11.3,21.6c8.3-43.8-12.9-90.6-12.9-90.6
	c5.2,6.7,12.9,10.7,12.9,10.7c-2.8-32.7-45.5-69.8-45.5-69.8c14.3,4.9,14.6,0.3,14.6,0.3c-41.7-42.1-90.1-39.5-90.1-39.5
	s70.5,12.5,103.1,83c0,0-8.9-2.7-13-8.2c0,0,33.1,66.6,8.6,128.7c0,0-6-6.3-4.8-14.9c0,0-25.6,73.8-113.9,81.4
	C249.7,469,217.8,438.8,217.8,438.8z"/>
<path class="st4" d="M252,89.5c1.3,22.2-15.7,41.2-37.9,42.5c-22.2,1.3-41.2-15.7-42.5-37.9c-1.3-22.2,15.7-41.2,37.9-42.5
	C231.7,50.3,250.7,67.3,252,89.5z"/>
<path class="st5" d="M252,89.5c-0.1-2.2-0.4-4.4-0.9-6.5c0.1,0.6,0.1,1.2,0.2,1.9c1.3,22.2-15.7,41.2-37.9,42.5
	c-20,1.1-37.3-12.5-41.6-31.3c2.2,21.3,20.8,37.2,42.3,36C236.3,130.7,253.2,111.7,252,89.5z"/>
<path class="st6" d="M228.8,88.7c0.5,8.7-6.1,16.1-14.8,16.6c-8.7,0.5-16.1-6.1-16.6-14.8c-0.5-8.7,6.1-16.1,14.8-16.6
	C220.9,73.4,228.3,80.1,228.8,88.7z"/>
<path class="st7" d="M221.8,89.1c0.3,4.8-3.4,8.9-8.2,9.2c-4.8,0.3-8.9-3.4-9.2-8.2c-0.3-4.8,3.4-8.9,8.2-9.2
	C217.4,80.7,221.5,84.4,221.8,89.1z"/>
<path class="st4" d="M223.8,82.6c0.2,2.7-1.9,5.1-4.7,5.2c-2.7,0.2-5.1-1.9-5.2-4.7c-0.2-2.7,1.9-5.1,4.7-5.2
	C221.4,77.8,223.7,79.8,223.8,82.6z"/>
<path class="st4" d="M443.2,89.5c1.3,22.2-15.7,41.2-37.9,42.5c-22.2,1.3-41.2-15.7-42.5-37.9c-1.3-22.2,15.7-41.2,37.9-42.5
	C422.9,50.3,441.9,67.3,443.2,89.5z"/>
<path class="st5" d="M443.2,89.5c-0.1-2.2-0.4-4.4-0.9-6.5c0.1,0.6,0.1,1.2,0.2,1.9c1.3,22.2-15.7,41.2-37.9,42.5
	c-20,1.1-37.3-12.5-41.6-31.3c2.2,21.3,20.8,37.2,42.3,36C427.5,130.7,444.5,111.7,443.2,89.5z"/>
<path class="st6" d="M420.1,88.7c0.5,8.7-6.1,16.1-14.8,16.6c-8.7,0.5-16.1-6.1-16.6-14.8c-0.5-8.7,6.1-16.1,14.8-16.6
	C412.1,73.4,419.6,80.1,420.1,88.7z"/>
<path class="st7" d="M413,89.1c0.3,4.8-3.4,8.9-8.2,9.2c-4.8,0.3-8.9-3.4-9.2-8.2c-0.3-4.8,3.4-8.9,8.2-9.2
	C408.6,80.7,412.7,84.4,413,89.1z"/>
<path class="st4" d="M415.1,82.6c0.2,2.7-1.9,5.1-4.7,5.2c-2.7,0.2-5.1-1.9-5.2-4.7c-0.2-2.7,1.9-5.1,4.7-5.2
	C412.6,77.8,414.9,79.8,415.1,82.6z"/>
<g>
	<path class="st8" d="M305.3,367.9c0,0,33.7,8.4,51-17.6c17.2-26.1,53.7,23.6,7,51C316.7,428.7,287.2,398.3,305.3,367.9z"/>
	<path class="st9" d="M334.5,411.7c0,0-6.4-48.5,50-34.1C384.5,377.6,377.1,407.4,334.5,411.7z"/>
</g>
</svg>
