<?xml version="1.0" encoding="utf-8"?>
<!-- Generator: Adobe Illustrator 22.0.0, SVG Export Plug-In . SVG Version: 6.00 Build 0)  -->
<svg version="1.1" id="Layer_1" xmlns="http://www.w3.org/2000/svg" xmlns:xlink="http://www.w3.org/1999/xlink" x="0px" y="0px"
	 viewBox="0 0 600 600" style="enable-background:new 0 0 600 600;" xml:space="preserve">
<style type="text/css">
	.st0{fill:#F6901B;}
	.st1{fill:#E77E16;}
	.st2{fill:#FCAD68;}
	.st3{fill:#18662B;}
	.st4{fill:#175622;}
	.st5{fill:#218942;}
	.st6{fill:#1F7736;}
	.st7{fill:#FFFFFF;}
	.st8{fill:#E7E7E7;}
	.st9{fill:#6B390B;}
	.st10{fill:#501627;}
</style>
<g>
	<path class="st0" d="M401.2,73.9c0,0,92.5,17.6,102.5-40.7c0,0,32.3,76.4-58.2,89.4C445.5,122.6,405.5,119.7,401.2,73.9z"/>
	<path class="st1" d="M401.2,73.9c4.4,45.8,44.3,48.7,44.3,48.7c90.5-13,58.2-89.4,58.2-89.4s10.4,44.8-17.3,67.4
		c-27.7,22.6-48,20.7-64.4,6.4C405.7,92.7,401.2,73.9,401.2,73.9z"/>
	<path class="st2" d="M458.2,116.7c0,0-0.8-0.1-2.2-0.5c-1.4-0.4-3.3-1-5.6-1.9c-1.1-0.5-2.4-1-3.6-1.7c-1.2-0.7-2.6-1.4-3.8-2.3
		c-1.3-0.8-2.6-1.8-3.8-2.9c-1.3-1-2.4-2.3-3.6-3.4c-1-1.4-2.2-2.6-3-4c-0.8-1.4-1.7-2.8-2.2-4.3c-0.3-0.7-0.5-1.5-0.8-2.2
		c-0.2-0.7-0.3-1.5-0.5-2.2c-0.3-1.4-0.5-2.7-0.4-4c0-1.2,0-2.4,0.1-3.4c0.2-1,0.4-1.8,0.5-2.5c0.3-1.4,0.5-2.2,0.5-2.2s0,0.8,0,2.2
		c0,0.7,0,1.5,0,2.5c0.1,1,0.3,2,0.5,3.2c0.1,1.2,0.5,2.4,0.9,3.7c0.2,0.6,0.3,1.3,0.6,1.9c0.3,0.6,0.6,1.3,0.9,1.9
		c0.5,1.4,1.4,2.6,2.2,3.9c0.8,1.3,1.9,2.4,2.8,3.6c1.1,1.1,2.1,2.3,3.3,3.3c1.2,1,2.3,2,3.5,2.9c2.3,1.8,4.7,3.3,6.7,4.5
		c1,0.6,2,1.2,2.8,1.6c0.9,0.5,1.6,0.9,2.2,1.2C457.5,116.3,458.2,116.7,458.2,116.7z"/>
	<path class="st2" d="M478.3,105.4c0,0-2.4,0.4-5.9-0.4c-0.9-0.2-1.8-0.5-2.8-0.8c-0.9-0.4-2-0.8-2.9-1.4c-1-0.5-2-1.2-2.9-1.9
		c-1-0.7-1.8-1.6-2.7-2.4c-0.8-0.9-1.5-1.9-2.2-2.8c-0.6-1-1.2-2-1.8-3c-0.5-1-0.9-2-1.3-3c-0.4-1-0.6-1.9-0.8-2.8
		c-0.5-1.7-0.5-3.2-0.7-4.2c-0.1-1-0.1-1.6-0.1-1.6s0.2,0.5,0.7,1.5c0.4,0.9,0.8,2.3,1.7,3.8c0.4,0.8,0.8,1.6,1.2,2.4
		c0.5,0.8,1,1.7,1.5,2.6c0.6,0.9,1.2,1.7,1.8,2.6c0.7,0.8,1.4,1.7,2.1,2.5c0.8,0.7,1.5,1.6,2.3,2.2c0.8,0.7,1.6,1.4,2.5,1.9
		c1.7,1.2,3.4,2.1,4.9,2.8C476,104.8,478.3,105.4,478.3,105.4z"/>
	<path class="st2" d="M499.1,86.2c0,0-1.7,0.6-4.2,0.6c-0.6,0-1.3,0-2.1,0c-0.7-0.1-1.5-0.1-2.3-0.3c-1.6-0.2-3.3-0.8-4.9-1.6
		c-0.8-0.4-1.6-0.9-2.3-1.4c-0.7-0.6-1.4-1.1-1.9-1.8c-0.6-0.7-1.1-1.3-1.4-2c-0.4-0.7-0.8-1.3-0.9-2c-0.2-0.6-0.3-1.2-0.5-1.7
		c0-0.5-0.1-1-0.1-1.4c0-0.8,0-1.2,0-1.2s0.2,0.4,0.5,1.1c0.1,0.3,0.3,0.7,0.5,1.2c0.3,0.4,0.6,0.9,0.9,1.4c0.3,0.5,0.8,1,1.2,1.5
		c0.4,0.5,1,0.9,1.5,1.4c0.5,0.5,1.2,0.8,1.8,1.3c0.6,0.4,1.3,0.8,2,1.1c0.7,0.3,1.4,0.7,2.1,0.9c0.7,0.3,1.4,0.6,2.2,0.8
		c1.4,0.5,2.8,0.8,4,1.1C497.4,85.8,499.1,86.2,499.1,86.2z"/>
</g>
<g>
	<path class="st0" d="M215.5,73.9c0,0-92.5,17.6-102.5-40.7c0,0-32.3,76.4,58.2,89.4C171.2,122.6,211.1,119.7,215.5,73.9z"/>
	<path class="st1" d="M215.5,73.9c-4.4,45.8-44.3,48.7-44.3,48.7c-90.5-13-58.2-89.4-58.2-89.4s-10.4,44.8,17.3,67.4
		c27.7,22.6,48,20.7,64.4,6.4C211,92.7,215.5,73.9,215.5,73.9z"/>
	<path class="st2" d="M158.4,116.7c0,0,0.7-0.4,2-1c0.6-0.3,1.4-0.7,2.2-1.2c0.9-0.4,1.8-1.1,2.8-1.6c2-1.3,4.4-2.7,6.7-4.5
		c1.2-0.8,2.3-1.9,3.5-2.9c1.2-1,2.2-2.2,3.3-3.3c0.9-1.2,2-2.3,2.8-3.6c0.8-1.3,1.7-2.5,2.2-3.9c0.3-0.7,0.6-1.3,0.9-1.9
		c0.3-0.6,0.4-1.3,0.6-1.9c0.4-1.3,0.8-2.5,0.9-3.7c0.1-1.2,0.4-2.2,0.5-3.2c0-1,0-1.8,0-2.5c0-1.4,0-2.2,0-2.2s0.2,0.8,0.5,2.2
		c0.1,0.7,0.3,1.6,0.5,2.5c0.1,1,0.1,2.1,0.1,3.4c0.1,1.3-0.2,2.6-0.4,4c-0.2,0.7-0.2,1.5-0.5,2.2c-0.3,0.7-0.5,1.4-0.8,2.2
		c-0.5,1.5-1.3,2.9-2.2,4.3c-0.8,1.4-2,2.7-3,4c-1.2,1.1-2.3,2.4-3.6,3.4c-1.2,1.1-2.5,2-3.8,2.9c-1.3,0.9-2.6,1.6-3.8,2.3
		c-1.2,0.7-2.5,1.2-3.6,1.7c-2.3,0.9-4.2,1.5-5.6,1.9C159.2,116.5,158.4,116.7,158.4,116.7z"/>
	<path class="st2" d="M138.3,105.4c0,0,2.3-0.5,5.3-2c1.5-0.7,3.2-1.6,4.9-2.8c0.9-0.6,1.7-1.2,2.5-1.9c0.9-0.6,1.5-1.5,2.3-2.2
		c0.7-0.8,1.4-1.6,2.1-2.5c0.6-0.9,1.2-1.7,1.8-2.6c0.5-0.9,1-1.8,1.5-2.6c0.4-0.9,0.8-1.7,1.2-2.4c0.8-1.5,1.2-2.9,1.7-3.8
		c0.4-0.9,0.7-1.5,0.7-1.5s0,0.6-0.1,1.6c-0.1,1-0.2,2.5-0.7,4.2c-0.2,0.9-0.4,1.8-0.8,2.8c-0.4,0.9-0.8,1.9-1.3,3
		c-0.5,1-1.1,2-1.8,3c-0.7,0.9-1.5,1.9-2.2,2.8c-0.9,0.8-1.7,1.7-2.7,2.4c-0.9,0.8-1.9,1.4-2.9,1.9c-0.9,0.6-2,1-2.9,1.4
		c-1,0.3-1.9,0.7-2.8,0.8C140.7,105.8,138.3,105.4,138.3,105.4z"/>
	<path class="st2" d="M117.6,86.2c0,0,1.6-0.4,4.1-0.9c1.2-0.3,2.6-0.7,4-1.1c0.7-0.2,1.4-0.5,2.2-0.8c0.7-0.2,1.4-0.6,2.1-0.9
		c0.7-0.3,1.4-0.7,2-1.1c0.6-0.5,1.3-0.8,1.8-1.3c0.5-0.5,1.1-0.9,1.5-1.4c0.4-0.5,0.9-0.9,1.2-1.5c0.3-0.5,0.6-1,0.9-1.4
		c0.2-0.5,0.4-0.8,0.5-1.2c0.3-0.7,0.5-1.1,0.5-1.1s0,0.4,0,1.2c0,0.4,0,0.8-0.1,1.4c-0.1,0.5-0.3,1.1-0.5,1.7
		c-0.1,0.7-0.5,1.3-0.9,2c-0.3,0.7-0.9,1.3-1.4,2c-0.5,0.7-1.3,1.2-1.9,1.8c-0.7,0.5-1.5,1-2.3,1.4c-1.6,0.7-3.3,1.3-4.9,1.6
		c-0.8,0.2-1.6,0.2-2.3,0.3c-0.7,0-1.4,0.1-2.1,0C119.2,86.7,117.6,86.2,117.6,86.2z"/>
</g>
<path class="st3" d="M157.7,346.2l-3.8-19.6c0,0-50.7,14.3-70.7,79.2c-17.7,57.3,30.5,49.2,38.4,13.4
	C129.7,383.4,157.7,346.2,157.7,346.2z"/>
<path class="st4" d="M121.7,419.2c7.9-35.8,36-73,36-73v-19.6l-14.6,4.5c-17.4,15.5-21.9,64.7-26.1,76.9c-4.1,12.1-7.8,25-17.6,31.3
	c-9.8,6.3-19.9-7.9-19.9-7.9C82.2,459.1,115.2,448.3,121.7,419.2z"/>
<path class="st3" d="M460.7,346.2l3.8-19.6c0,0,50.7,14.3,70.7,79.2c17.7,57.3-30.5,49.2-38.4,13.4
	C488.8,383.4,460.7,346.2,460.7,346.2z"/>
<path class="st4" d="M496.8,419.2c-7.9-35.8-36-73-36-73l3.4-20.3l11.3,5.3c17.4,15.5,21.9,64.7,26.1,76.9
	c4.1,12.1,7.8,25,17.6,31.3c9.8,6.3,19.9-7.9,19.9-7.9C536.3,459.1,503.2,448.3,496.8,419.2z"/>
<path class="st3" d="M257.6,478.2c0,0-6.6,83.8-18.7,89.5c-12.1,5.7-7.9,9.3,21.4,9.3c29.3,0,35-2.9,36.4-27.1
	c1.4-24.3-7.4-63.2-7.4-63.2L257.6,478.2z"/>
<path class="st3" d="M376.7,567.7c-12.1-5.7-18.8-89.5-18.8-89.5l-31.7,8.4c0,0-8.8,39-7.4,63.2c1.4,24.3,7.1,27.1,36.4,27.1
	C384.6,577,388.8,573.4,376.7,567.7z"/>
<path class="st4" d="M290.6,543.8c-4.6,24.6-23.2,35.4-51.1,32.2c4.5,0.7,11.3,1.1,20.7,1.1c29.3,0,35-2.9,36.4-27.1
	c1.4-24.3-7.4-63.2-7.4-63.2l-31.7-8.4c0,0,5.2,5.1,16.2,10C284.9,493.1,295.3,519.2,290.6,543.8z"/>
<path class="st4" d="M358.8,527.6c2.1,24,18.6,50.4-14.3,49.2l0,0c3.2,0.2,6.7,0.2,10.7,0.2c29.3,0,33.6-3.6,21.4-9.3
	S358,478.2,358,478.2l-31.7,8.4c0,0,8.7,2.9,16,2.9C349.6,489.5,356.7,503.6,358.8,527.6z"/>
<path class="st5" d="M475.4,467.7c0-22.9-6.9-59-9.9-73.7c3,6.6,9.9,8.8,9.9,8.8c0.6-21.7-11.3-76.8-11.3-76.8
	c4,11.2,11,16.8,11,16.8c1.8-35.7-5.3-82.2-9.2-104.7c3.5,5,9.2,2,9.2,2c-1.8-59.9-16-89.9-23.3-101.5c7.7,8.4,15.6,6.5,15.6,6.5
	c-22-46.6-54.1-64.6-67.4-70.4c10.2,2.1,22.2-2.3,22.2-2.3C387.7,43,345.5,51,345.5,51c-4.2-9.5,6.3-12.3,6.3-12.3
	c-25.4,0-42.8,7-44,7.7h0c-2.7,0-5.4,0.1-8,0.2c-10.3-0.3-28.1-2.9-37.5-16.3c0,0-6.7,14.8,7.9,20.7c0,0-42.2-8.1-76.7,21.3
	c0,0,12,4.4,22.2,2.3c-13.3,5.7-45.4,23.7-67.4,70.4c0,0,7.9,1.9,15.6-6.5c-7.3,11.6-21.5,41.6-23.3,101.5c0,0,5.8,3,9.2-2
	c-3.9,22.5-11,69-9.2,104.7c0,0,7-5.6,11-16.8c0,0-11.9,55.2-11.3,76.8c0,0,6.9-2.2,9.9-8.8c-3,14.7-9.9,50.8-9.9,73.7
	c0,0,5.9-7.7,11.3-16.1c0,0-10,33.5-5.8,58c0,0,13.3-7,16.1-20.6c0,0,4.2,17.1,13.3,20.6c0,0-6.3-20.6,15.4-20.6h234.8
	c21.7,0,15.4,20.6,15.4,20.6c9.1-3.5,13.3-20.6,13.3-20.6c2.8,13.6,16.1,20.6,16.1,20.6c4.2-24.4-5.8-58-5.8-58
	C469.5,460,475.4,467.7,475.4,467.7z"/>
<path class="st6" d="M190.4,489h234.8c21.7,0,15.4,20.6,15.4,20.6c9.1-3.5,13.3-20.6,13.3-20.6c2.8,13.6,16.1,20.6,16.1,20.6
	c4.2-24.4-5.8-58-5.8-58c5.4,8.4,11.3,16.1,11.3,16.1c0-22.9-6.9-59-9.9-73.7c3,6.6,9.9,8.8,9.9,8.8c0.6-21.7-11.3-76.8-11.3-76.8
	c4,11.2,11,16.8,11,16.8c1.8-35.7-5.3-82.2-9.2-104.7c3.5,5,9.2,2,9.2,2c-1.8-59.9-16-89.9-23.3-101.5c7.7,8.4,15.6,6.5,15.6,6.5
	c-22-46.6-54.1-64.6-67.4-70.4c10.2,2.1,22.2-2.3,22.2-2.3C387.7,43,345.5,51,345.5,51s32.1-1.1,50.3,17.1c0,0-0.3,7-12.7,3.5
	c0,0,83.3,64.3,84,153.7c0,0-7,3.5-13.3-7c0,0,11.1,156.8,5.6,213.7c0,0-7-7-9.1-17.5c0,0,10.5,44.7-4.9,70.6c0,0-7.7-4.2-18.9-9.8
	C415.3,469.7,190.4,489,190.4,489z"/>
<g>
	
		<ellipse transform="matrix(0.6514 -0.7587 0.7587 0.6514 -63.0639 249.4472)" class="st7" cx="239.9" cy="193.4" rx="50.6" ry="50.6"/>
	<path class="st8" d="M290.4,190.5c-0.2-2.8-0.6-5.6-1.2-8.2c0.1,0.8,0.1,1.6,0.2,2.3c1.6,27.9-19.7,51.8-47.6,53.4
		c-25.1,1.4-46.9-15.6-52.2-39.4c2.8,26.7,26.1,46.8,53.2,45.2C270.7,242.2,292,218.3,290.4,190.5z"/>
	<path class="st0" d="M257.9,187.5c0.6,10.9-7.7,20.3-18.6,20.9c-10.9,0.6-20.3-7.7-20.9-18.6c-0.6-10.9,7.7-20.3,18.6-20.9
		C248,168.3,257.3,176.6,257.9,187.5z"/>
	<path class="st9" d="M249.1,188c0.3,6-4.3,11.2-10.3,11.5c-6,0.3-11.2-4.3-11.5-10.3c-0.3-6,4.3-11.2,10.3-11.5
		C243.6,177.4,248.7,182,249.1,188z"/>
	<path class="st7" d="M251.7,179.8c0.2,3.4-2.4,6.4-5.8,6.6c-3.4,0.2-6.4-2.4-6.6-5.8c-0.2-3.4,2.4-6.4,5.8-6.6
		C248.6,173.7,251.5,176.3,251.7,179.8z"/>
	<path class="st7" d="M430.7,190.5c1.6,27.9-19.7,51.8-47.6,53.4c-27.9,1.6-51.8-19.7-53.4-47.6c-1.6-27.9,19.7-51.8,47.6-53.4
		C405.2,141.3,429.1,162.6,430.7,190.5z"/>
	<path class="st8" d="M430.7,190.5c-0.2-2.8-0.6-5.6-1.2-8.2c0.1,0.8,0.1,1.6,0.2,2.3c1.6,27.9-19.7,51.8-47.6,53.4
		c-25.1,1.4-46.9-15.6-52.2-39.4c2.8,26.7,26.1,46.8,53.2,45.2C410.9,242.2,432.2,218.3,430.7,190.5z"/>
	<path class="st0" d="M398.2,187.5c0.6,10.9-7.7,20.3-18.6,20.9c-10.9,0.6-20.3-7.7-20.9-18.6c-0.6-10.9,7.7-20.3,18.6-20.9
		C388.2,168.3,397.5,176.6,398.2,187.5z"/>
	<path class="st9" d="M389.3,188c0.3,6-4.3,11.2-10.3,11.5c-6,0.3-11.2-4.3-11.5-10.3s4.3-11.2,10.3-11.5
		C383.8,177.4,389,182,389.3,188z"/>
	<path class="st7" d="M391.9,179.8c0.2,3.4-2.4,6.4-5.8,6.6c-3.4,0.2-6.4-2.4-6.6-5.8c-0.2-3.4,2.4-6.4,5.8-6.6
		C388.8,173.7,391.7,176.3,391.9,179.8z"/>
</g>
<g>
	<path class="st7" d="M199.5,316.5c0,0-0.1,19.8,9.7,21.2c9.8,1.4,13.6-22.4,13.6-22.4L199.5,316.5z"/>
	<path class="st7" d="M415.9,316.5c0,0,0.1,19.8-9.7,21.2s-13.6-22.4-13.6-22.4L415.9,316.5z"/>
	<path class="st10" d="M212.2,319.3c-7.9,0-13.6-2.2-17-6.7c-8.1-10.7,1.3-29.8,1.8-30.6c0.7-1.4,2.4-1.9,3.7-1.2
		c1.4,0.7,1.9,2.4,1.2,3.7c-2.3,4.6-7.3,18.2-2.3,24.8c4.2,5.6,14.6,4.9,22.6,3.4c10.9-2.1,20.4-4.7,29.6-7.2
		c27.8-7.6,51.9-14.2,98.3-2.5c15.3,3.9,61.9,15.6,69.3,6.2c2-2.6,1.1-7.6-2.7-14.7c-0.7-1.4-0.2-3.1,1.1-3.8
		c1.4-0.7,3.1-0.2,3.8,1.1c5.1,9.4,5.8,16.2,2.2,20.8c-6.9,8.8-27.9,7.7-75-4.2c-45-11.3-68.4-4.9-95.4,2.5
		c-9.3,2.5-18.9,5.2-30,7.3C219.2,318.9,215.5,319.3,212.2,319.3z"/>
</g>
</svg>
