<?xml version="1.0" encoding="utf-8"?>
<!-- Generator: Adobe Illustrator 22.0.0, SVG Export Plug-In . SVG Version: 6.00 Build 0)  -->
<svg version="1.1" id="Layer_1" xmlns="http://www.w3.org/2000/svg" xmlns:xlink="http://www.w3.org/1999/xlink" x="0px" y="0px"
	 viewBox="0 0 600 600" style="enable-background:new 0 0 600 600;" xml:space="preserve">
<style type="text/css">
	.st0{opacity:0.23;fill:#045495;enable-background:new    ;}
	.st1{fill:#FFB600;}
	.st2{fill:#FF9100;}
	.st3{fill:#8A1E80;}
	.st4{fill:#1EC1C1;}
	.st5{fill:#08A09C;}
	.st6{fill:#1BE0DB;}
	.st7{fill:#FAEB69;}
	.st8{fill:#1D1D1B;}
	.st9{fill:#FFFFFF;}
	.st10{fill:#00595B;}
	.st11{opacity:0.51;fill:#D45614;enable-background:new    ;}
</style>
<g>
	<ellipse class="st0" cx="284.4" cy="548.5" rx="164.8" ry="26.5"/>
	<g>
		<g>
			<g>
				<path class="st1" d="M226.3,150.7c0,0-33.8-10.1-38.7-26.7s8.3-37.8,8.3-37.8s20.5,13.7,32.6,4c12.1-9.9,13.7-29.1,5.6-32.6
					c-8.3-3.5-15.4,11.1-19.3,14.4c-4,3.3-13,0-13,0s18-26.2,7.5-35.7c-10.6-9.4-24.8-2.4-33.1,7.5c-8.3,9.9-16.5,38.2-16.5,38.2
					s-10.2-4-10.2-13.7s4.3-23.6-6.8-26.4C131.6,39,125,59,126.5,72.7c1.6,13.7,11.8,25,28.8,25.3c0,0-4.3,21,5.6,35.6
					c9.9,14.6,44.6,33.5,59.1,32.3S226.3,150.7,226.3,150.7z"/>
				<g>
					<g>
						<g>
							<g>
								<g>
									<path class="st2" d="M180.8,40.4c0,0,2.1-0.3,5.2-0.5c0.9,0,1.6,0,2.6,0c0.9,0,1.9,0,2.8,0.2c1,0.2,2.1,0.2,3.1,0.3
										c1,0.2,2.1,0.5,3.1,0.7c1,0.3,2.1,0.7,2.9,1.2c1,0.3,1.9,1,2.8,1.6c0.9,0.5,1.7,1.2,2.3,1.9c0.3,0.3,0.7,0.7,1,0.9
										c0.3,0.3,0.5,0.7,0.9,1c0.5,0.5,0.9,1.2,1.2,1.7c0.3,0.5,0.5,1,0.7,1.6c0.3,0.9,0.5,1.4,0.5,1.4s-0.3-0.3-1-1
										c-0.3-0.3-0.7-0.7-1-1.2c-0.5-0.3-0.9-0.9-1.6-1.4c-0.3-0.2-0.5-0.5-0.9-0.7c-0.3-0.2-0.7-0.5-1-0.7
										c-0.7-0.5-1.6-0.9-2.3-1.4c-0.9-0.3-1.7-0.9-2.6-1.2c-0.9-0.3-1.9-0.7-2.8-1c-1-0.3-1.9-0.5-2.9-0.7
										c-0.9-0.3-1.9-0.5-2.8-0.7c-0.9-0.2-1.9-0.3-2.8-0.5c-0.9-0.2-1.7-0.3-2.4-0.3C182.9,40.8,180.8,40.4,180.8,40.4z"/>
								</g>
							</g>
						</g>
					</g>
					<g>
						<g>
							<g>
								<g>
									<path class="st2" d="M171.4,56.9c0,0,0.5-0.2,1.4-0.3c0.9-0.2,2.3-0.3,3.8-0.5c0.9,0,1.7,0,2.6,0c0.9,0.2,1.9,0.2,2.8,0.3
										c1,0.2,1.9,0.3,2.9,0.7c1,0.2,2.1,0.7,2.9,0.9c1,0.3,1.9,0.7,2.9,1.2c1,0.3,1.9,0.9,2.8,1.4c0.9,0.5,1.7,1,2.4,1.6
										c0.7,0.5,1.4,1,1.9,1.6c1.2,1,2.1,2.1,2.6,2.8c0.5,0.7,0.9,1.2,0.9,1.2s-0.3-0.3-1.2-0.9c-0.7-0.5-1.7-1.2-3.1-2.1
										c-0.7-0.3-1.4-0.7-2.1-1.2c-0.7-0.3-1.6-0.9-2.4-1.2c-0.9-0.3-1.7-0.9-2.6-1.2c-0.9-0.3-1.9-0.7-2.8-1
										c-0.9-0.3-1.9-0.7-2.8-1c-0.9-0.3-1.9-0.5-2.8-0.9c-0.9-0.2-1.7-0.5-2.6-0.7c-0.9-0.2-1.6-0.3-2.4-0.5
										c-1.6-0.3-2.8-0.3-3.6-0.5C172,56.9,171.4,56.9,171.4,56.9z"/>
								</g>
							</g>
						</g>
					</g>
					<g>
						<g>
							<g>
								<g>
									<path class="st2" d="M164,74.6c0,0,0.5-0.2,1.4-0.2c0.9-0.2,2.3-0.2,3.6-0.2c0.7,0,1.6,0,2.4,0.2c0.9,0.2,1.9,0.2,2.8,0.5
										c0.9,0.2,1.9,0.5,2.9,0.9c0.9,0.3,1.9,0.9,2.8,1.2c0.9,0.5,1.7,0.9,2.8,1.4c0.9,0.5,1.7,1,2.6,1.6c0.9,0.5,1.6,1,2.3,1.6
										c0.7,0.5,1.4,1,1.9,1.7c1,1,1.9,2.3,2.3,2.9c0.2,0.3,0.3,0.7,0.3,1c0,0.2,0.2,0.3,0.2,0.3s0-0.2-0.2-0.3
										c-0.2-0.2-0.3-0.5-0.7-0.7c-0.7-0.5-1.6-1.4-2.8-2.1c-0.7-0.3-1.4-0.9-2.1-1.2c-0.7-0.3-1.6-0.9-2.3-1.2
										c-0.9-0.3-1.7-0.9-2.6-1.4s-1.7-0.9-2.6-1.4s-1.7-0.9-2.6-1.2c-0.9-0.3-1.7-0.7-2.6-1c-0.9-0.3-1.7-0.5-2.4-0.9
										c-0.9-0.2-1.6-0.3-2.3-0.5c-1.4-0.3-2.8-0.5-3.6-0.7C164.5,74.8,164,74.6,164,74.6z"/>
								</g>
							</g>
						</g>
					</g>
					<g>
						<g>
							<g>
								<g>
									<path class="st2" d="M156.5,100.6c0,0,0.5-0.2,1.2-0.5c0.7-0.3,1.9-0.7,3.5-1c0.7-0.2,1.6-0.2,2.4-0.3c0.9,0,1.7-0.2,2.6,0
										c0.9,0,1.9,0.2,2.8,0.3c1,0.2,1.9,0.3,2.9,0.5c0.9,0.3,1.9,0.5,2.8,0.9c0.9,0.3,1.7,0.7,2.6,1.2c0.9,0.3,1.6,0.9,2.3,1.4
										c0.7,0.5,1.4,0.9,1.9,1.4c1.2,0.9,1.9,1.9,2.4,2.6c0.5,0.7,0.7,1,0.7,1s-0.3-0.3-1-0.7c-0.7-0.5-1.7-1-2.9-1.7
										c-0.5-0.3-1.2-0.7-1.9-1c-0.7-0.3-1.6-0.7-2.3-1c-0.9-0.3-1.6-0.5-2.4-0.9c-0.9-0.3-1.7-0.5-2.6-0.9
										c-0.9-0.2-1.7-0.5-2.6-0.7c-0.9-0.2-1.7-0.3-2.6-0.5c-0.9-0.2-1.7-0.2-2.4-0.3c-0.9,0-1.6-0.2-2.3-0.2c-1.4,0-2.6,0-3.3,0
										C156.9,100.6,156.5,100.6,156.5,100.6z"/>
								</g>
							</g>
						</g>
					</g>
					<g>
						<g>
							<g>
								<g>
									<path class="st2" d="M157.2,120.4c0,0,1.6-0.9,4-1.7c0.5-0.2,1.2-0.5,1.9-0.7c0.7-0.2,1.4-0.5,2.3-0.7
										c0.9-0.2,1.6-0.3,2.4-0.5c0.9-0.2,1.7-0.3,2.6-0.3s1.7-0.2,2.6-0.2s1.7,0,2.6,0c0.9,0.2,1.6,0.2,2.4,0.3
										c0.7,0.2,1.4,0.3,2.1,0.5c1.2,0.3,2.3,0.9,2.9,1.2c0.7,0.3,1,0.5,1,0.5s-0.3,0-1.2-0.2c-0.7-0.2-1.7-0.2-3.1-0.2
										c-0.7,0-1.2,0-2.1,0c-0.7,0-1.4,0-2.3,0c-0.7,0-1.6,0.2-2.4,0.2s-1.6,0.2-2.4,0.2c-0.9,0.2-1.7,0.2-2.4,0.3
										c-0.9,0-1.6,0.2-2.4,0.3c-0.7,0.2-1.6,0.2-2.3,0.3c-0.7,0.2-1.4,0.2-2.1,0.3C159,120.2,157.2,120.4,157.2,120.4z"/>
								</g>
							</g>
						</g>
					</g>
					<g>
						<g>
							<g>
								<g>
									<path class="st2" d="M171.8,141.6c0,0,0-0.3,0-1c0-0.7,0.2-1.6,0.7-2.4c0.2-0.5,0.5-1,0.9-1.6c0.3-0.5,0.7-1,1.2-1.6
										c0.3-0.5,0.9-1,1.4-1.4c0.5-0.5,1-0.9,1.6-1.2c0.5-0.3,1.2-0.7,1.7-1c0.5-0.3,1.2-0.7,1.9-0.9c0.5-0.3,1.2-0.3,1.7-0.5
										c0.5-0.2,1.2-0.2,1.7-0.3c1-0.2,1.9,0,2.6,0.2c0.5,0.2,0.9,0.3,0.9,0.3s-0.3,0-0.9,0.2c-0.5,0.2-1.4,0.3-2.3,0.7
										c-0.5,0.2-0.9,0.3-1.4,0.7c-0.5,0.3-1,0.5-1.6,0.9c-0.5,0.3-1,0.7-1.6,0.9c-0.5,0.3-1,0.7-1.6,1c-0.5,0.3-1,0.7-1.6,1
										c-0.5,0.3-1,0.7-1.4,1c-0.5,0.3-0.9,0.7-1.2,1c-0.3,0.3-0.7,0.7-1,1c-0.7,0.7-1,1.4-1.4,1.9
										C172,141.4,171.8,141.6,171.8,141.6z"/>
								</g>
							</g>
						</g>
					</g>
					<g>
						<g>
							<g>
								<g>
									<path class="st2" d="M187.6,153.3c0,0,0-0.3,0-0.9c0-0.5,0-1.2,0.2-2.1c0-0.3,0.2-0.9,0.3-1.4c0.2-0.5,0.3-1,0.5-1.4
										c0.2-0.5,0.5-1,0.9-1.4c0.3-0.5,0.7-0.9,1-1.4c0.3-0.3,0.7-0.9,1-1.2c0.3-0.3,0.9-0.7,1.2-1c0.3-0.3,0.9-0.7,1.2-0.9
										c0.3-0.3,0.7-0.5,1-0.7c0.7-0.5,1.4-0.7,1.7-0.9c0.5-0.2,0.7-0.3,0.7-0.3s-0.2,0.2-0.3,0.7c-0.3,0.3-0.7,1-1.2,1.7
										c-0.2,0.3-0.5,0.7-0.9,1c-0.3,0.3-0.5,0.7-0.9,1c-0.3,0.3-0.7,0.7-1,1.2c-0.3,0.3-0.7,0.9-1,1.2c-0.3,0.3-0.7,0.9-0.9,1.2
										c-0.3,0.3-0.5,0.9-0.9,1.2c-0.2,0.3-0.5,0.7-0.9,1.2c-0.2,0.3-0.5,0.7-0.7,1C188.1,152.5,187.6,153.3,187.6,153.3z"/>
								</g>
							</g>
						</g>
					</g>
					<g>
						<g>
							<g>
								<g>
									<path class="st2" d="M206.5,161.3c0,0-0.3-0.9-0.2-2.3c0-0.3,0-0.7,0.2-1c0-0.3,0.2-0.9,0.3-1.2c0.2-0.3,0.3-0.9,0.5-1.2
										s0.3-0.9,0.7-1.2c0.2-0.3,0.5-0.7,0.7-1c0.2-0.3,0.5-0.7,0.9-1c0.3-0.3,0.5-0.5,0.9-0.9c0.3-0.3,0.5-0.5,0.9-0.7
										c0.5-0.3,1-0.7,1.4-0.9c0.3-0.2,0.5-0.3,0.5-0.3s0,0.2-0.2,0.7c-0.2,0.3-0.3,0.9-0.5,1.6c-0.2,0.3-0.3,0.7-0.3,0.9
										c-0.2,0.3-0.3,0.7-0.5,1c-0.2,0.3-0.3,0.7-0.5,1c-0.2,0.3-0.3,0.7-0.7,1c-0.2,0.3-0.3,0.7-0.7,1c-0.2,0.3-0.3,0.7-0.7,1
										c-0.2,0.3-0.3,0.7-0.5,0.9c-0.2,0.3-0.3,0.5-0.5,0.9C207,160.5,206.5,161.3,206.5,161.3z"/>
								</g>
							</g>
						</g>
					</g>
					<g>
						<g>
							<g>
								<g>
									<path class="st2" d="M152.2,77c0,0-0.3,0-0.9,0.2c-0.3,0-0.7,0.2-1,0.3c-0.3,0.2-0.9,0.3-1.2,0.5c-0.5,0.2-0.9,0.5-1.2,0.9
										c-0.5,0.3-0.9,0.7-1.2,1c-0.3,0.3-0.9,0.9-1.2,1.4c-0.3,0.5-0.7,1-1.2,1.6c-0.3,0.5-0.7,1-1,1.6c-0.3,0.5-0.7,1-0.9,1.7
										c-0.3,0.5-0.5,1-0.9,1.6c-0.2,0.5-0.5,1-0.7,1.6c-0.3,0.9-0.7,1.7-0.9,2.3s-0.3,0.9-0.3,0.9s0-0.3-0.2-1
										c0-0.7-0.2-1.6,0-2.6c0-0.5,0.2-1,0.3-1.7c0.2-0.5,0.3-1.2,0.5-1.9c0.2-0.7,0.5-1.2,0.9-1.9c0.3-0.7,0.7-1.2,1-1.9
										c0.5-0.5,0.9-1.2,1.4-1.7c0.5-0.5,1-1,1.6-1.4c0.5-0.3,1.2-0.7,1.7-1c0.5-0.2,1.2-0.5,1.7-0.5
										C150.8,76.3,152.2,77,152.2,77z"/>
								</g>
							</g>
						</g>
					</g>
					<g>
						<g>
							<g>
								<g>
									<path class="st2" d="M127.4,73.6c0,0,0.2-0.3,0.3-1c0.3-0.7,0.9-1.6,1.6-2.4c0.3-0.5,0.9-1,1.4-1.4c0.5-0.5,1-1,1.7-1.4
										c0.7-0.5,1.2-0.9,1.9-1.4c0.7-0.3,1.4-0.7,2.3-1c0.7-0.3,1.6-0.5,2.3-0.9c0.9-0.2,1.6-0.3,2.4-0.3c0.7-0.2,1.6,0,2.3,0
										c0.7,0.2,1.4,0.3,2.1,0.7c0.5,0.3,1,0.5,1.4,1c0.3,0.3,0.7,0.7,0.9,1c0.3,0.7,0.5,1,0.5,1s-0.3-0.2-0.9-0.7
										c-0.2-0.2-0.7-0.3-1-0.5c-0.3-0.2-0.9-0.3-1.4-0.3c-0.5-0.2-1,0-1.7-0.2c-0.7,0.2-1.2,0.2-1.9,0.3
										c-0.7,0.2-1.4,0.3-2.1,0.5c-0.7,0.2-1.4,0.5-2.1,0.7c-0.7,0.3-1.4,0.5-1.9,0.9c-0.7,0.3-1.2,0.7-1.9,1
										c-0.7,0.3-1.2,0.7-1.7,1c-0.5,0.3-1,0.7-1.6,1c-0.9,0.7-1.6,1.2-2.1,1.7C127.6,73.2,127.4,73.6,127.4,73.6z"/>
								</g>
							</g>
						</g>
					</g>
					<g>
						<g>
							<g>
								<g>
									<path class="st2" d="M130,51c0,0,1-0.7,2.9-1.4c0.5-0.2,1-0.3,1.6-0.3c0.5-0.2,1-0.2,1.7-0.3c0.5,0,1.2-0.2,1.9-0.2
										c0.7,0,1.4,0,1.9,0.2c0.7,0.2,1.4,0.2,1.9,0.3c0.7,0.2,1.2,0.5,1.7,0.7c0.5,0.3,1,0.5,1.6,1c0.5,0.3,0.9,0.7,1.2,1
										c0.3,0.3,0.7,0.7,0.9,1c0.2,0.3,0.3,0.7,0.5,0.9c0.2,0.5,0.3,0.9,0.3,0.9s-0.3-0.2-0.7-0.5c-0.2-0.2-0.5-0.3-0.9-0.5
										s-0.7-0.3-1-0.7c-0.3-0.2-0.9-0.3-1.2-0.5c-0.5-0.2-0.9-0.3-1.4-0.5s-1-0.3-1.6-0.3c-0.5-0.2-1-0.2-1.7-0.3
										c-0.5,0-1.2-0.2-1.7-0.2c-0.5,0-1.2-0.2-1.7-0.2s-1,0-1.6,0c-0.5,0-1,0-1.4,0C131.4,51,130,51,130,51z"/>
								</g>
							</g>
						</g>
					</g>
					<g>
						<g>
							<g>
								<g>
									<path class="st2" d="M223,62.1c0,0,0.2-0.2,0.5-0.7c0.2-0.2,0.5-0.3,0.9-0.5c0.3-0.2,0.9-0.3,1.2-0.3c0.5,0,1-0.2,1.6-0.2
										c0.5,0,1.2,0,1.7,0.2s1.2,0.3,1.7,0.5s1.2,0.5,1.7,0.7c0.5,0.3,1,0.7,1.6,1c0.5,0.3,0.9,0.9,1.4,1.2c0.3,0.5,0.9,0.9,1,1.4
										c0.3,0.5,0.7,0.9,0.9,1.4c0.2,0.3,0.3,0.9,0.5,1.2c0.2,0.3,0.2,0.7,0.2,1c0,0.5,0,0.9,0,0.9s-0.2-0.2-0.5-0.7
										c-0.2-0.2-0.3-0.5-0.5-0.7c-0.2-0.3-0.5-0.5-0.9-0.9c-0.3-0.3-0.7-0.5-1-0.9c-0.3-0.3-0.9-0.5-1.2-0.9
										c-0.3-0.3-0.9-0.5-1.4-0.9c-0.5-0.3-0.9-0.5-1.4-0.9c-0.5-0.3-1-0.5-1.4-0.7c-0.5-0.2-1-0.5-1.4-0.5
										c-0.5-0.2-0.9-0.3-1.4-0.5s-0.9-0.2-1.2-0.3c-0.3,0-0.7,0-1,0c-0.3,0-0.7,0-0.9,0C223.3,61.9,223,62.1,223,62.1z"/>
								</g>
							</g>
						</g>
					</g>
					<g>
						<g>
							<g>
								<g>
									<path class="st2" d="M217.9,69.2c0,0,0.3-0.2,0.9-0.3c0.7-0.2,1.6-0.2,2.6-0.2c0.5,0,1,0.2,1.7,0.3
										c0.5,0.2,1.2,0.3,1.9,0.5c0.7,0.3,1.2,0.5,1.9,0.9c0.7,0.3,1.2,0.7,1.7,1.2c0.5,0.5,1.2,0.9,1.6,1.4c0.5,0.5,1,1,1.4,1.6
										c0.5,0.5,0.9,1,1,1.6c0.3,0.5,0.5,1,0.9,1.6c0.3,1,0.5,1.9,0.7,2.6c0,0.7,0,1,0,1s-0.2-0.3-0.5-0.9
										c-0.3-0.5-0.9-1.2-1.4-1.9c-0.3-0.3-0.7-0.7-1-1.2c-0.3-0.3-0.9-0.9-1.2-1.2c-0.5-0.3-0.9-0.9-1.4-1.2
										c-0.5-0.5-1-0.9-1.6-1.2c-0.5-0.3-1-0.9-1.6-1c-0.5-0.3-1-0.7-1.6-1c-0.5-0.3-1-0.5-1.6-0.9c-0.5-0.2-1-0.5-1.4-0.7
										c-0.9-0.3-1.7-0.7-2.3-0.7C218.3,69.2,217.9,69.2,217.9,69.2z"/>
								</g>
							</g>
						</g>
					</g>
					<g>
						<g>
							<g>
								<g>
									<path class="st2" d="M210.5,73.9c0,0,0.3,0.2,0.7,0.3c0.5,0.3,1,0.7,1.7,1.6c0.3,0.3,0.5,0.9,0.9,1.2
										c0.2,0.5,0.5,1,0.7,1.6c0.2,0.5,0.3,1.2,0.5,1.7s0.2,1.2,0.3,1.9c0,0.7,0,1.2,0,1.9c0,0.5,0,1.2-0.2,1.7
										c0,0.5-0.2,1-0.3,1.6c-0.2,0.5-0.3,1-0.5,1.4c-0.3,0.9-0.9,1.6-1.2,1.9c-0.3,0.3-0.5,0.5-0.5,0.5s0-0.3,0.2-0.9
										c0-0.5,0.2-1.2,0.2-2.1c0-0.3,0-0.9,0-1.4s0-1,0-1.6c0-0.5,0-1,0-1.6c0-0.5,0-1,0-1.6c0-0.5,0-1-0.2-1.6
										c0-0.5-0.2-1-0.2-1.6c0-0.5-0.2-1-0.3-1.4c-0.2-0.3-0.2-0.9-0.3-1.2c-0.3-0.7-0.5-1.4-0.9-1.9
										C210.6,74.1,210.5,73.9,210.5,73.9z"/>
								</g>
							</g>
						</g>
					</g>
				</g>
			</g>
			<g>
				<path class="st1" d="M381,154.6c0,0,41.3-8.3,46.1-24.5c4.7-16.1-13-43.4-13-43.4S399.9,99.2,390,98.5
					c-9.9-0.7-24.5-29.8-19.3-38.5s17.3-1.2,21.3,7.8c4,9,13.4,3.8,13.4,3.8s-18.6-25.8-4-37.6C416,22.2,438.4,46.7,448.3,75
					c0,0,13.7-5.6,14.6-13.4s-11.1-22.4,0-30c11.1-7.8,19.3,14.2,18.6,29.3c-0.9,14.9-17,24.1-28.3,29.1c0,0,9.9,27.8-1.2,48
					c-11.1,20.5-57.9,30.2-65.7,31C378.2,170,381,154.6,381,154.6z"/>
				<g>
					<g>
						<g>
							<g>
								<g>
									<path class="st2" d="M397.4,151.1c0,0,0.9,0.5,2.1,1.4c0.3,0.2,0.5,0.5,0.9,0.7c0.3,0.3,0.7,0.5,0.9,0.9
										c0.3,0.3,0.7,0.7,0.9,1c0.3,0.3,0.5,0.7,0.9,1.2c0.3,0.3,0.5,0.9,0.9,1.2c0.3,0.3,0.5,0.9,0.7,1.2s0.3,0.9,0.5,1.2
										c0.2,0.3,0.2,0.9,0.3,1.2c0.2,0.7,0.2,1.4,0.2,1.7c0,0.5,0,0.7,0,0.7s-0.2-0.2-0.3-0.5s-0.5-0.9-1-1.4
										c-0.2-0.3-0.3-0.5-0.7-0.9c-0.2-0.3-0.5-0.7-0.7-1c-0.2-0.3-0.5-0.7-0.7-1c-0.2-0.3-0.5-0.7-0.7-1c-0.3-0.3-0.5-0.7-0.7-1
										c-0.2-0.3-0.5-0.7-0.7-1c-0.2-0.3-0.5-0.7-0.7-1c-0.2-0.3-0.3-0.7-0.5-1C397.8,152.1,397.4,151.1,397.4,151.1z"/>
								</g>
							</g>
						</g>
					</g>
					<g>
						<g>
							<g>
								<g>
									<path class="st2" d="M412.5,145.5c0,0,1,0,2.4,0.9c0.3,0.2,0.7,0.3,1,0.7c0.3,0.3,0.7,0.5,1,0.9c0.3,0.3,0.7,0.7,1,1
										c0.3,0.3,0.7,0.9,0.9,1.2c0.2,0.5,0.5,0.9,0.7,1.4c0.2,0.5,0.3,0.9,0.5,1.4c0.2,0.5,0.3,0.9,0.3,1.4c0,0.5,0.2,0.9,0.2,1.2
										c0,0.7,0,1.4-0.2,1.9c-0.2,0.5-0.2,0.7-0.2,0.7s-0.2-0.2-0.3-0.7c-0.2-0.3-0.5-0.9-0.7-1.6c-0.2-0.3-0.3-0.7-0.5-1
										c-0.2-0.3-0.3-0.7-0.5-1c-0.2-0.3-0.5-0.7-0.7-1c-0.2-0.3-0.5-0.7-0.7-1.2c-0.2-0.3-0.5-0.7-0.7-1.2
										c-0.2-0.3-0.5-0.7-0.7-1c-0.2-0.3-0.5-0.7-0.7-1c-0.2-0.3-0.5-0.7-0.7-0.9C413.1,146.4,412.5,145.5,412.5,145.5z"/>
								</g>
							</g>
						</g>
					</g>
					<g>
						<g>
							<g>
								<g>
									<path class="st2" d="M427.1,135.3c0,0,0.3-0.2,0.9-0.2c0.5-0.2,1.4-0.2,2.4-0.2c0.5,0,1,0,1.6,0.2c0.5,0.2,1.2,0.2,1.7,0.3
										c0.5,0.2,1.2,0.3,1.9,0.5c0.7,0.2,1.2,0.5,1.9,0.7c0.5,0.3,1.2,0.7,1.7,1c0.5,0.3,1,0.7,1.6,1.2c0.5,0.3,0.9,0.9,1.4,1.2
										c0.3,0.5,0.7,0.9,1,1.4c0.5,0.9,0.9,1.7,0.9,2.3s0,0.9,0,0.9s-0.2-0.3-0.5-0.7c-0.3-0.5-0.9-1-1.6-1.6
										c-0.3-0.3-0.7-0.5-1.2-0.9c-0.5-0.3-0.9-0.5-1.4-0.9s-1-0.5-1.6-0.9c-0.5-0.3-1-0.5-1.6-0.9c-0.5-0.2-1-0.5-1.7-0.7
										c-0.5-0.3-1-0.5-1.6-0.7c-0.5-0.2-1-0.5-1.6-0.7c-0.5-0.2-1-0.3-1.4-0.5C428.3,135.7,427.1,135.3,427.1,135.3z"/>
								</g>
							</g>
						</g>
					</g>
					<g>
						<g>
							<g>
								<g>
									<path class="st2" d="M430.6,119.2c0,0,0.3-0.2,0.7-0.5c0.5-0.3,1.2-0.9,2.3-1.2c0.5-0.2,1-0.5,1.6-0.7
										c0.5-0.2,1.2-0.3,1.9-0.5c0.7-0.2,1.4-0.2,2.1-0.2c0.7,0,1.4,0,2.3,0.2c0.7,0.2,1.4,0.3,2.1,0.5c0.7,0.2,1.4,0.5,1.9,0.9
										c0.5,0.3,1.2,0.7,1.6,1c0.5,0.3,0.9,0.7,1.2,1.2c0.7,0.7,1.2,1.4,1.6,1.9c0.3,0.5,0.5,0.9,0.5,0.9s-0.3-0.2-0.9-0.5
										c-0.5-0.3-1.2-0.7-2.1-1.2c-0.5-0.2-0.9-0.5-1.4-0.7c-0.5-0.2-1-0.3-1.6-0.7c-0.5-0.2-1-0.3-1.7-0.5
										c-0.5-0.2-1.2-0.3-1.7-0.3c-0.5-0.2-1.2-0.2-1.9-0.2c-0.5,0-1.2,0-1.7,0s-1.2,0-1.7,0s-1,0.2-1.6,0.2
										C432,119,430.6,119.2,430.6,119.2z"/>
								</g>
							</g>
						</g>
					</g>
					<g>
						<g>
							<g>
								<g>
									<path class="st2" d="M425.4,108.1c0,0,0.3-0.3,0.7-1c0.5-0.7,1.2-1.6,2.3-2.6c0.5-0.5,1-1,1.7-1.6c0.7-0.5,1.4-1,2.1-1.6
										c0.7-0.5,1.6-1,2.4-1.4c0.9-0.5,1.7-0.9,2.6-1.2c0.9-0.3,1.7-0.7,2.8-0.9c0.9-0.3,1.9-0.5,2.8-0.5c0.9-0.2,1.7-0.2,2.6-0.2
										s1.6,0,2.4,0.2c0.7,0,1.4,0.2,1.9,0.3c0.5,0.2,1,0.3,1.4,0.5c0.7,0.3,1.2,0.5,1.2,0.5s-0.5,0-1.2,0c-0.3,0-0.9,0-1.4,0
										s-1.2,0-1.9,0.2c-0.7,0-1.4,0.2-2.1,0.3c-0.7,0.2-1.6,0.3-2.4,0.5c-0.9,0.2-1.6,0.5-2.4,0.7c-0.9,0.2-1.7,0.5-2.4,0.9
										c-0.9,0.3-1.7,0.7-2.4,1c-0.9,0.3-1.6,0.7-2.4,1.2c-0.7,0.3-1.6,0.9-2.1,1.2c-0.7,0.3-1.4,0.7-1.9,1.2
										c-1.2,0.7-2.1,1.4-2.8,1.9C425.9,107.9,425.4,108.1,425.4,108.1z"/>
								</g>
							</g>
						</g>
					</g>
					<g>
						<g>
							<g>
								<g>
									<path class="st2" d="M417.6,88.5c0,0,0.2-0.5,0.3-1.2c0.2-0.3,0.2-0.9,0.5-1.4c0.2-0.5,0.5-1.2,0.9-1.7
										c0.3-0.7,0.7-1.4,1.4-1.9c0.5-0.7,1-1.4,1.7-1.9c0.7-0.5,1.4-1.2,2.3-1.7c0.9-0.5,1.7-1,2.4-1.6c0.9-0.3,1.7-0.9,2.6-1.2
										c0.9-0.3,1.7-0.7,2.6-0.9c0.9-0.3,1.7-0.5,2.4-0.7c0.9-0.2,1.6-0.3,2.3-0.5c1.4-0.3,2.6-0.5,3.3-0.5
										c0.9-0.2,1.4-0.2,1.4-0.2s-0.3,0.2-1.2,0.7c-0.7,0.3-1.7,0.9-3.1,1.6c-0.7,0.3-1.4,0.5-2.1,0.9c-0.7,0.3-1.6,0.7-2.3,1
										c-0.9,0.3-1.6,0.7-2.4,1c-0.9,0.3-1.6,0.7-2.4,1.2c-0.9,0.3-1.6,0.9-2.3,1.2c-0.7,0.3-1.4,0.9-2.1,1.4
										c-0.7,0.5-1.4,1-1.9,1.6c-0.5,0.5-1,1-1.6,1.6c-0.5,0.5-0.9,1-1.2,1.4c-0.3,0.5-0.7,0.9-0.9,1.2
										C417.9,88,417.6,88.5,417.6,88.5z"/>
								</g>
							</g>
						</g>
					</g>
					<g>
						<g>
							<g>
								<g>
									<path class="st2" d="M405.4,65.2c0,0,1.2-1.4,2.9-3.5c0.5-0.5,0.9-1,1.4-1.6c0.5-0.5,1-1.2,1.7-1.7
										c0.5-0.5,1.2-1.2,1.9-1.9c0.7-0.7,1.4-1.2,2.1-1.7c0.7-0.5,1.6-1,2.3-1.6c0.7-0.5,1.6-0.9,2.4-1.2c0.9-0.3,1.6-0.7,2.4-0.9
										c0.7-0.2,1.6-0.3,2.3-0.5c1.4-0.2,2.6-0.2,3.3,0c0.9,0.2,1.2,0.2,1.2,0.2s-0.5,0.2-1.2,0.3c-0.7,0.2-1.9,0.5-3.1,1
										c-0.7,0.2-1.2,0.5-1.9,0.9c-0.7,0.3-1.4,0.7-2.1,1c-0.7,0.3-1.4,0.9-2.1,1.4c-0.7,0.5-1.4,1-2.1,1.6
										c-0.7,0.5-1.4,1-2.1,1.7c-0.7,0.5-1.4,1-1.9,1.6c-0.7,0.5-1.2,1-1.9,1.6c-0.5,0.5-1.2,0.9-1.7,1.4
										C407,64.4,405.4,65.2,405.4,65.2z"/>
								</g>
							</g>
						</g>
					</g>
					<g>
						<g>
							<g>
								<g>
									<path class="st2" d="M402.1,49.8c0,0,0-0.3,0.2-0.9c0.2-0.5,0.5-1.4,1-2.3c0.3-0.5,0.5-0.9,1-1.4c0.3-0.5,0.9-0.9,1.4-1.4
										c0.5-0.3,1-0.9,1.6-1.2s1.2-0.7,1.7-1c0.7-0.3,1.2-0.7,1.9-0.9c0.7-0.3,1.2-0.5,1.9-0.7c0.7-0.2,1.2-0.3,1.7-0.3
										c0.5-0.2,1.2-0.2,1.7-0.2c1-0.2,1.9-0.2,2.4-0.2c0.7,0,1,0,1,0s-0.3,0.2-0.9,0.5s-1.4,0.7-2.3,1c-0.5,0.2-0.9,0.3-1.4,0.7
										c-0.5,0.2-1,0.5-1.6,0.7c-0.5,0.2-1,0.5-1.7,0.9c-0.5,0.2-1.2,0.5-1.7,0.9s-1.2,0.5-1.7,0.9c-0.5,0.3-1,0.7-1.6,0.9
										c-0.5,0.3-1,0.7-1.4,1c-0.3,0.3-0.9,0.7-1.2,1c-0.7,0.7-1.4,1.2-1.7,1.7C402.5,49.6,402.1,49.8,402.1,49.8z"/>
								</g>
							</g>
						</g>
					</g>
					<g>
						<g>
							<g>
								<g>
									<path class="st2" d="M455.7,74.6c0,0,0.9-0.2,1.7,0.3c0.2,0.2,0.5,0.2,0.7,0.5c0.2,0.2,0.5,0.3,0.7,0.5
										c0.2,0.2,0.3,0.5,0.7,0.7l0.5,0.7l0.5,0.9c0.2,0.3,0.3,0.5,0.3,0.9c0.2,0.3,0.2,0.5,0.2,0.9c0,0.3,0.2,0.5,0.2,0.9
										c0,0.5,0,0.9,0,1.2c0,0.3-0.2,0.5-0.2,0.5s-0.2-0.2-0.3-0.3c-0.2-0.2-0.5-0.5-0.9-0.9c-0.2-0.2-0.3-0.3-0.5-0.5
										c-0.2-0.2-0.3-0.3-0.5-0.7c-0.2-0.2-0.3-0.5-0.5-0.7l-0.5-0.7l-0.5-0.7c-0.2-0.2-0.3-0.5-0.3-0.7c-0.2-0.2-0.2-0.5-0.3-0.7
										c-0.2-0.2-0.2-0.5-0.3-0.7c-0.2-0.3-0.3-0.7-0.5-1C455.9,74.8,455.7,74.6,455.7,74.6z"/>
								</g>
							</g>
						</g>
					</g>
					<g>
						<g>
							<g>
								<g>
									<path class="st2" d="M463.2,64.9c0,0,0.2-0.2,0.5-0.2c0.3-0.2,0.9-0.3,1.6-0.3c0.3,0,0.7,0,1,0s0.7,0.2,1.2,0.2
										c0.3,0.2,0.9,0.3,1.2,0.5c0.3,0.2,0.7,0.3,1,0.7c0.3,0.3,0.7,0.5,1,0.9c0.3,0.3,0.5,0.5,0.9,0.9c0.2,0.3,0.5,0.5,0.7,0.9
										c0.2,0.3,0.3,0.5,0.5,0.9c0.3,0.5,0.5,1,0.5,1.4c0,0.3,0.2,0.5,0.2,0.5s-0.2-0.2-0.5-0.3c-0.3-0.2-0.7-0.5-1.2-0.7
										c-0.2-0.2-0.5-0.3-0.7-0.5c-0.3-0.2-0.5-0.3-0.9-0.5c-0.3-0.2-0.5-0.3-0.9-0.7c-0.3-0.2-0.5-0.3-0.9-0.7
										c-0.3-0.2-0.5-0.3-0.9-0.5c-0.3-0.2-0.5-0.3-0.9-0.5c-0.3-0.2-0.5-0.3-0.9-0.5c-0.3-0.2-0.5-0.3-0.9-0.3
										C464.1,65.2,463.2,64.9,463.2,64.9z"/>
								</g>
							</g>
						</g>
					</g>
					<g>
						<g>
							<g>
								<g>
									<path class="st2" d="M466.8,50.7c0,0,0.3-0.9,1.6-1.4c0.3-0.2,0.5-0.3,0.9-0.3s0.7-0.2,1-0.2c0.3,0,0.7,0,1.2-0.2
										c0.3,0,0.9,0,1.2,0s0.9,0.2,1.2,0.2c0.3,0,0.7,0.2,1,0.3c0.3,0.2,0.7,0.3,1,0.5s0.5,0.3,0.9,0.7c0.5,0.5,0.7,0.9,0.9,1.2
										s0.2,0.5,0.2,0.5s-0.2-0.2-0.5-0.2c-0.3-0.2-0.7-0.2-1.2-0.3c-0.3,0-0.5-0.2-0.9-0.2s-0.5-0.2-0.9-0.2c-0.3,0-0.7,0-1-0.2
										c-0.3,0-0.7-0.2-1-0.2s-0.7-0.2-1-0.2c-0.3,0-0.7-0.2-1-0.2s-0.7,0-0.9-0.2c-0.3,0-0.5,0-0.9-0.2c-0.5,0-1,0-1.2,0
										C467,50.7,466.8,50.7,466.8,50.7z"/>
								</g>
							</g>
						</g>
					</g>
					<g>
						<g>
							<g>
								<g>
									<path class="st2" d="M463.2,40.8c0,0,0.2-0.9,0.9-1.9c0.2-0.2,0.3-0.5,0.7-0.7c0.3-0.2,0.5-0.5,0.9-0.7
										c0.3-0.2,0.7-0.3,1-0.5s0.7-0.3,1.2-0.5c0.3-0.2,0.9-0.2,1.2-0.2c0.3,0,0.9,0,1.2,0s0.7,0,1,0.2c0.3,0,0.7,0.2,1,0.3
										c0.5,0.2,1,0.5,1.4,0.7c0.3,0.2,0.3,0.3,0.3,0.3s-0.2,0-0.5,0.2c-0.3,0-0.9,0.2-1.4,0.2c-0.3,0-0.5,0.2-0.9,0.2
										c-0.3,0-0.5,0.2-0.9,0.2c-0.3,0-0.7,0.2-1,0.2s-0.7,0.2-1,0.2c-0.3,0.2-0.7,0.2-1,0.3c-0.3,0-0.7,0.2-0.9,0.3
										c-0.3,0.2-0.7,0.2-0.9,0.3c-0.3,0.2-0.5,0.2-0.9,0.3C464.1,40.4,463.2,40.8,463.2,40.8z"/>
								</g>
							</g>
						</g>
					</g>
					<g>
						<g>
							<g>
								<g>
									<path class="st2" d="M402.1,75.5c0,0,0.3,0.9,0.7,2.1c0.2,0.3,0.2,0.7,0.3,0.9c0.2,0.3,0.3,0.7,0.3,1
										c0.2,0.3,0.2,0.7,0.3,1c0.2,0.3,0.3,0.7,0.3,1.2c0.2,0.3,0.3,0.7,0.3,1.2c0.2,0.3,0.3,0.7,0.3,1.2c0.2,0.3,0.2,0.7,0.3,1
										c0.2,0.3,0.2,0.7,0.2,1c0.2,0.7,0.2,1.2,0.2,1.6c0,0.3,0,0.7,0,0.7s-0.2-0.2-0.5-0.3c-0.3-0.3-0.7-0.7-1-1.2
										c-0.2-0.2-0.5-0.5-0.7-0.9c-0.2-0.3-0.5-0.7-0.7-1c-0.2-0.3-0.3-0.7-0.5-1.2c-0.2-0.3-0.3-0.9-0.5-1.2
										c-0.2-0.5-0.3-0.9-0.3-1.2c-0.2-0.5-0.2-0.9-0.2-1.4c0-0.3,0-0.9,0-1.2c0-0.3,0-0.7,0-1C401.8,76.3,402.1,75.5,402.1,75.5z
										"/>
								</g>
							</g>
						</g>
					</g>
					<g>
						<g>
							<g>
								<g>
									<path class="st2" d="M393.6,75.1c0,0-0.2,0.3-0.5,0.7c-0.3,0.5-0.7,1.2-1.2,2.1c-0.2,0.3-0.3,0.9-0.5,1.4
										c-0.2,0.5-0.3,1-0.5,1.6c-0.2,0.5-0.3,1.2-0.5,1.7c-0.2,0.5-0.2,1.2-0.3,1.9c-0.2,0.7-0.2,1.2-0.3,1.9
										c0,0.7-0.2,1.2-0.2,1.9c0,0.5-0.2,1.2-0.2,1.7s-0.2,1-0.2,1.6c0,1-0.2,1.9-0.2,2.4c0,0.7,0,1,0,1s-0.2-0.3-0.5-0.9
										c-0.2-0.5-0.5-1.4-0.9-2.4c-0.2-0.5-0.2-1-0.3-1.7c0-0.5-0.2-1.2-0.2-1.9c0-0.7,0-1.4,0-2.1s0.2-1.4,0.2-2.1
										c0.2-0.7,0.3-1.4,0.5-2.1c0.2-0.7,0.5-1.4,0.7-1.9c0.2-0.7,0.7-1.2,0.9-1.7c0.3-0.5,0.7-1,1-1.4c0.7-0.9,1.6-1.4,2.1-1.6
										C393.3,75.1,393.6,75.1,393.6,75.1z"/>
								</g>
							</g>
						</g>
					</g>
					<g>
						<g>
							<g>
								<g>
									<path class="st2" d="M376.3,79.8c0,0-0.2-1,0.2-2.8c0.2-0.3,0.2-0.9,0.3-1.2c0.2-0.3,0.3-0.9,0.7-1.4
										c0.3-0.5,0.5-0.9,0.9-1.4c0.3-0.3,0.7-0.9,1-1.2c0.3-0.3,0.9-0.7,1.2-1c0.3-0.3,0.9-0.7,1.2-0.9c0.5-0.3,0.9-0.5,1.4-0.7
										c0.3-0.2,0.9-0.3,1.2-0.5c0.7-0.2,1.4-0.3,1.9-0.3c0.5,0,0.7,0,0.7,0s-0.2,0.2-0.5,0.5c-0.3,0.3-0.9,0.7-1.4,1.2
										c-0.3,0.2-0.5,0.5-0.9,0.9c-0.3,0.3-0.7,0.5-1,0.9c-0.3,0.3-0.7,0.7-1,0.9c-0.3,0.3-0.7,0.7-1,1c-0.3,0.3-0.7,0.7-1,1
										c-0.3,0.3-0.7,0.7-0.9,1c-0.3,0.3-0.5,0.7-0.9,1c-0.2,0.3-0.5,0.7-0.7,0.9C376.8,78.9,376.3,79.8,376.3,79.8z"/>
								</g>
							</g>
						</g>
					</g>
					<g>
						<g>
							<g>
								<g>
									<path class="st2" d="M373.5,65.2c0,0,0-0.2-0.2-0.3c0-0.2-0.2-0.7,0-1c0-0.2,0.2-0.5,0.2-0.7c0.2-0.2,0.2-0.5,0.3-0.7
										c0.2-0.2,0.3-0.3,0.5-0.5c0.2-0.2,0.3-0.3,0.7-0.3c0.2-0.2,0.5-0.2,0.7-0.3c0.2-0.2,0.5-0.2,0.7-0.2s0.5,0,0.7,0
										s0.3,0,0.5,0c0.3,0,0.7,0.2,0.9,0.2c0.2,0.2,0.3,0.2,0.3,0.2s0,0.2-0.2,0.3c-0.2,0.2-0.3,0.5-0.5,0.7
										c-0.2,0.2-0.2,0.3-0.3,0.3c-0.2,0.2-0.3,0.3-0.5,0.3c-0.2,0.2-0.3,0.2-0.5,0.3c-0.2,0.2-0.3,0.2-0.5,0.3
										c-0.2,0-0.3,0.2-0.5,0.2c-0.2,0-0.3,0.2-0.5,0.2c-0.2,0-0.3,0.2-0.5,0.2c-0.2,0-0.3,0.2-0.3,0.2
										C373.9,64.9,373.5,65.2,373.5,65.2z"/>
								</g>
							</g>
						</g>
					</g>
				</g>
			</g>
		</g>
		<g>
			<path class="st3" d="M234.1,494c0,0,1.9,16.1,0,19.8c0,0-9-6.8-23.1-5.9c-14,0.9-24.6,9-23.1,24.5c1.6,15.4,53.6,15.4,59.1,8.7
				c5.6-6.8,0-55.5,0-55.5L234.1,494z"/>
			<path class="st3" d="M327.7,488.4c0,0,1.9,41.3,4,48.9c1.9,7.5,50,9.4,57.6,4c7.5-5.6,7.6-25.5-7.6-31.4
				c-14-5.4-24.3,0.7-38.2,5.4c0,0-1.2-22.9-1.7-26.7C341.3,484.5,327.7,488.4,327.7,488.4z"/>
		</g>
		<g>
			<path class="st4" d="M292.7,90c0,0-4.7-9.7-12.7-11.3l2.4,11.3c0,0-67.8,11.6-91.4,148.3s5.9,196.7-12,246.3
				c0,0,21.5,0,32.6-12.7c0,0,7.8,21.3,18.9,30c0,0,20.5-14.2,25.1-26c0,0,8.7,23.6,26.7,30.7c0,0,18.9-10.2,30.7-33.1
				c0,0,16,22,35.9,33.1c0,0,13.7-18.9,22.4-34.7c0,0,12.1,12.7,38.7,19.8c0,0-9.5-18.9-6.4-47.4c3.1-28.4,40.2-331.8-75.6-348.6
				c0,0,5.4-8.8,10.2-10.9c0,0-16.5-0.3-26,5c0,0,1.6-15.8,5.6-22C318,68,303.8,74.3,292.7,90z"/>
			<g>
				<path class="st5" d="M214.6,431.9c0-13.7-11.1-24.8-24.8-24.8c-2.1,0-4.2,0.3-6.1,0.9c1,18.4,1.9,34,1,48.2
					c1.7,0.3,3.5,0.5,5.2,0.5C203.5,456.7,214.6,445.6,214.6,431.9z"/>
				<path class="st5" d="M198.7,377.8c0-11.1-7.3-20.5-17.2-23.6c0.2,17.3,1,32.6,1.9,46.7C192.3,397,198.7,388.2,198.7,377.8z"/>
				<path class="st5" d="M192.3,321.8c0-7.8-3.6-14.7-9.2-19.3c-1,14.2-1.6,27.4-1.6,39.7C187.9,337.7,192.3,330.3,192.3,321.8z"/>
				<path class="st5" d="M195.7,271.5c0-6.8-2.8-13-7.3-17.5c-2.1,13.7-3.6,26.5-4.7,38.7C191,288.3,195.7,280.5,195.7,271.5z"/>
				<path class="st5" d="M375.6,436.4c0,13.7,11.1,24.8,24.8,24.8c0.9,0,1.9,0,2.8-0.2c-0.3-5-0.2-10.6,0.5-16.7
					c0.5-4.5,1.9-15.8,3.3-31.9c-2.1-0.5-4.3-0.9-6.6-0.9C386.7,411.6,375.6,422.7,375.6,436.4z"/>
				<path class="st5" d="M393.5,382.3c0,9.9,5.9,18.6,14.4,22.5c1-13.2,2.3-29,2.9-46.1C400.7,361.8,393.5,371.2,393.5,382.3z"/>
				<path class="st5" d="M402.8,328.2c0,7.5,3.3,14,8.5,18.6c0.3-12.1,0.7-24.8,0.7-37.8C406.3,313.6,402.8,320.4,402.8,328.2z"/>
				<path class="st5" d="M400.4,272.3c0,8.7,4.5,16.3,11.3,20.8c-0.3-13.4-0.9-26.7-1.9-40.1C404,257.6,400.4,264.5,400.4,272.3z"/>
			</g>
			<path class="st6" d="M300.7,118.7c51.3,2.9,83.8,41.8,91.4,124.2c6.4,68.9,14.4,170.8-91.4,175.2c-104.8,4.2-101.8-78.4-97-150
				C208,205,245,115.5,300.7,118.7z"/>
		</g>
		<g>
			<g>
				<ellipse class="st7" cx="297.7" cy="235.6" rx="44.1" ry="43.9"/>
				<g>
					<ellipse class="st8" cx="283.1" cy="221.2" rx="23.4" ry="23.2"/>
					<ellipse class="st9" cx="273.8" cy="213.4" rx="12.3" ry="12.1"/>
				</g>
			</g>
			<g>
				<g>
					<g>
						<g>
							<g>
								<path class="st10" d="M279.9,309.6c0,0,0,0.2,0.2,0.3c0.2,0.3,0.3,0.7,0.7,1.2c0.5,1,1.6,2.3,2.9,3.5
									c0.7,0.7,1.4,1.2,2.3,1.7c0.9,0.5,1.7,1,2.8,1.6c1,0.5,2.1,0.9,3.1,1c1,0.3,2.1,0.3,3.1,0.3c1,0,2.1-0.2,3.1-0.5
									c1-0.3,2.1-0.7,3.1-1c1-0.5,1.9-1,2.8-1.6s1.6-1.2,2.3-1.7c1.2-1.2,2.3-2.6,2.6-3.5c0.3-0.5,0.5-0.9,0.5-1.2
									c0.2-0.3,0.2-0.5,0.2-0.5s0,0.2,0,0.5c0,0.3,0.2,0.9,0.2,1.4c0,1.2-0.2,3.1-1.2,5c-0.5,1-1.2,1.9-2.1,2.9
									c-0.9,0.9-1.9,1.9-3.1,2.6c-1.2,0.7-2.4,1.4-4,1.9c-1.4,0.5-2.9,0.7-4.5,0.7c-1.6,0-3.1-0.3-4.5-0.7c-1.4-0.5-2.8-1-3.8-1.9
									c-1.2-0.7-2.3-1.6-3.1-2.6c-0.9-0.9-1.6-1.9-2.1-2.8c-1-1.9-1.6-3.6-1.6-4.9c0-0.5,0-1,0-1.4
									C279.9,309.8,279.9,309.6,279.9,309.6z"/>
							</g>
						</g>
					</g>
				</g>
				<g>
					<g>
						<g>
							<g>
								<path class="st10" d="M273.1,312.6c0,0,0.9-0.9,1.9-1.6c0.3-0.2,0.5-0.3,0.9-0.5s0.5-0.5,0.9-0.5c0.3-0.2,0.5-0.3,0.9-0.7
									c0.3-0.2,0.5-0.3,0.9-0.5c0.3-0.2,0.7-0.3,0.9-0.5c0.3-0.2,0.7-0.3,1-0.5c0.3-0.2,0.7-0.3,1-0.5c0.3-0.2,0.7-0.3,1-0.3
									c0.7-0.2,1.2-0.3,1.7-0.5s0.7-0.2,0.7-0.2s0,0.3,0,0.9s0,1.2-0.3,1.9c-0.2,0.3-0.3,0.7-0.5,1.2c-0.2,0.3-0.5,0.7-0.7,1.2
									c-0.3,0.3-0.7,0.7-1,1c-0.3,0.3-0.9,0.5-1.2,0.9c-0.5,0.2-0.9,0.5-1.4,0.7s-1,0.2-1.4,0.3c-0.5,0.2-1,0-1.4,0
									c-0.5,0-0.9-0.2-1.2-0.2c-0.7-0.2-1.4-0.5-1.7-0.7C273.3,312.7,273.1,312.6,273.1,312.6z"/>
							</g>
						</g>
					</g>
				</g>
				<g>
					<g>
						<g>
							<g>
								<path class="st10" d="M306.9,306c0,0,1,0.3,2.1,0.7c0.2,0.2,0.5,0.2,0.9,0.3c0.2,0.2,0.5,0.2,0.9,0.3
									c0.3,0.2,0.5,0.3,0.9,0.3c0.2,0.2,0.5,0.3,0.7,0.3c0.2,0.2,0.5,0.3,0.7,0.5c0.2,0.2,0.5,0.3,0.7,0.5
									c0.2,0.2,0.5,0.3,0.7,0.5c0.2,0.2,0.3,0.3,0.7,0.7c0.3,0.3,0.7,0.9,1,1.2s0.3,0.5,0.3,0.5s-0.2,0.2-0.5,0.5
									c-0.3,0.2-0.9,0.5-1.6,0.7c-0.3,0.2-0.7,0.2-1,0.2s-0.9,0-1.2,0c-0.3,0-0.9-0.2-1.2-0.3s-0.9-0.3-1.2-0.5
									c-0.3-0.3-0.7-0.5-1-0.9s-0.5-0.7-0.9-1c-0.2-0.3-0.3-0.7-0.5-1s-0.2-0.7-0.3-1C306.6,307,306.9,306,306.9,306z"/>
							</g>
						</g>
					</g>
				</g>
			</g>
			<g>
				<path class="st11" d="M244.3,282.7c1.4,5-4.9,9.2-16.7,10.4c-9.2,0.9-16.7-4.7-16.7-10.4s7.5-10.4,16.7-10.4
					C236.8,272.3,242.7,277.2,244.3,282.7z"/>
				<ellipse class="st11" cx="374.4" cy="280.5" rx="16.7" ry="10.4"/>
			</g>
		</g>
	</g>
</g>
</svg>
