<?xml version="1.0" encoding="utf-8"?>
<!-- Generator: Adobe Illustrator 22.0.0, SVG Export Plug-In . SVG Version: 6.00 Build 0)  -->
<svg version="1.1" id="Layer_1" xmlns="http://www.w3.org/2000/svg" xmlns:xlink="http://www.w3.org/1999/xlink" x="0px" y="0px"
	 viewBox="0 0 600 600" style="enable-background:new 0 0 600 600;" xml:space="preserve">
<style type="text/css">
	.st0{fill:#B3B3B3;}
	.st1{fill:#501627;}
	.st2{fill:#F56A82;}
	.st3{fill:#FFFFFF;}
	.st4{fill:#E7E7E7;}
	.st5{fill:#F6901B;}
	.st6{fill:#6B390B;}
</style>
<g>
	<path class="st0" d="M269.8,120h51.1c8.2,0,14.9,7,14.9,15.5V467c0,8.6-6.7,15.5-14.9,15.5h-51.1c-8.2,0-14.9-7-14.9-15.5V135.5
		C254.9,127,261.5,120,269.8,120z"/>
	<path class="st0" d="M124,317.9V275c0-9.5,7.7-17.2,17.2-17.2h313.6c9.5,0,17.2,7.7,17.2,17.2v42.9c0,9.5-7.7,17.2-17.2,17.2H141.2
		C131.7,335.1,124,327.4,124,317.9z"/>
</g>
<g>
	<path class="st1" d="M297,330.4c9.9,0,10.9-6.2,17.9-3.1c7,3.1,5.3,23.2-14.8,24.5c-20.1,1.3-29-17-21.4-23.2
		C286.9,321.9,288.8,330.4,297,330.4z"/>
	<path class="st2" d="M280.7,345.1c4.1,4.2,10.7,7.3,19.3,6.7c7-0.5,11.8-3.2,14.7-6.7c-0.1-0.1-3.1-4-17.2-4
		C283.3,341,280.7,345.1,280.7,345.1z"/>
	<path class="st3" d="M293.4,329.8c0.2,2.1,0.7,5,2.2,5c1.4,0,1.7-2.5,1.7-4.4c-0.1,0-0.2,0-0.3,0
		C295.6,330.4,294.4,330.2,293.4,329.8z"/>
	<path class="st3" d="M297,330.4C297,330.4,297,330.4,297,330.4c0,1.8,0.2,4.1,1.5,4.1c1.3,0,1.8-2.5,2-4.4
		C299.4,330.3,298.3,330.4,297,330.4z"/>
</g>
<g>
	
		<ellipse transform="matrix(0.6514 -0.7587 0.7587 0.6514 -131.5194 304.2896)" class="st3" cx="265.4" cy="295.3" rx="22.5" ry="22.5"/>
	<path class="st4" d="M287.8,294c-0.1-1.3-0.2-2.5-0.5-3.7c0,0.3,0.1,0.7,0.1,1c0.7,12.4-8.8,23-21.2,23.7
		c-11.1,0.6-20.8-7-23.2-17.5c1.2,11.9,11.6,20.8,23.6,20.1C279.1,317,288.5,306.4,287.8,294z"/>
	<path class="st5" d="M273.4,292.7c0.3,4.8-3.4,9-8.3,9.3c-4.8,0.3-9-3.4-9.3-8.3c-0.3-4.8,3.4-9,8.3-9.3
		C269,284.1,273.1,287.8,273.4,292.7z"/>
	<path class="st6" d="M269.4,292.9c0.2,2.7-1.9,5-4.6,5.1c-2.7,0.2-5-1.9-5.1-4.6c-0.2-2.7,1.9-5,4.6-5.1S269.3,290.2,269.4,292.9z"
		/>
	<path class="st3" d="M270.6,289.2c0.1,1.5-1.1,2.8-2.6,2.9c-1.5,0.1-2.8-1.1-2.9-2.6c-0.1-1.5,1.1-2.8,2.6-2.9
		C269.2,286.5,270.5,287.7,270.6,289.2z"/>
	<path class="st3" d="M350.2,294c0.7,12.4-8.8,23-21.2,23.7c-12.4,0.7-23-8.8-23.7-21.2c-0.7-12.4,8.8-23,21.2-23.7
		C338.8,272.1,349.5,281.6,350.2,294z"/>
	<path class="st4" d="M350.2,294c-0.1-1.3-0.2-2.5-0.5-3.7c0,0.3,0.1,0.7,0.1,1c0.7,12.4-8.8,23-21.2,23.7
		c-11.1,0.6-20.8-7-23.2-17.5c1.2,11.9,11.6,20.8,23.6,20.1C341.4,317,350.9,306.4,350.2,294z"/>
	<path class="st5" d="M335.7,292.7c0.3,4.8-3.4,9-8.3,9.3c-4.8,0.3-9-3.4-9.3-8.3c-0.3-4.8,3.4-9,8.3-9.3
		C331.3,284.1,335.5,287.8,335.7,292.7z"/>
	<path class="st6" d="M331.8,292.9c0.2,2.7-1.9,5-4.6,5.1c-2.7,0.2-5-1.9-5.1-4.6c-0.2-2.7,1.9-5,4.6-5.1S331.6,290.2,331.8,292.9z"
		/>
	<path class="st3" d="M333,289.2c0.1,1.5-1.1,2.8-2.6,2.9c-1.5,0.1-2.8-1.1-2.9-2.6c-0.1-1.5,1.1-2.8,2.6-2.9
		C331.6,286.5,332.9,287.7,333,289.2z"/>
</g>
<path class="st0" d="M440.9,317.9c0,0,8,0.6,10.9,3c0,0-0.4-2.6-2.6-3.8c0,0,6.1-0.4,14.1-6.9c8-6.5,10-13.5,10-13.5
	c0.8,1.9,3.5,2.4,3.5,2.4c-2-2.7-1.5-9.3-1.5-9.3c-0.4,2.3,2.9,3.9,2.9,3.9c0.8-4.2-0.9-9.8-1.9-12.6c1.1,1.7,2.9,1.9,2.9,1.9
	c0.4-6.4-6.9-15-6.9-15c2,2,5.4,2.3,5.4,2.3c-5.1-9.4-8.2-7.6-8.2-7.6c2,0.5,5.5,0.1,5.5,0.1c-5.5-5.7-20.7-4.7-20.7-4.7
	c3.4-1.3-7.2,7.4-7.2,7.4c-14.2-1.5-5.5,1.1-5.5,1.1s5.3,1.4,7.5,1.7c2.2,0.4,0.1-0.9,3.6-2.3c3.6-1.4-2.2-8.2,4.6-4
	c0,0,0.9,3.1-0.7,2.7c0,0,5.5-3.7,10.3,11.5c0,0-1.5,7.7-2.6,5.9c0,0,14.7,9.8-0.6,24.7C451.4,318.7,440.9,317.9,440.9,317.9z"/>
<path class="st0" d="M175.4,328.8c0,0-9.8,4.1-12.6,8.5c0,0-0.2-3.5,2.1-6.1c0,0-7.7,2.1-19.5-3c-11.9-5.2-16.4-13.3-16.4-13.3
	c-0.5,2.9-3.7,4.6-3.7,4.6c1.7-4.4-0.9-12.8-0.9-12.8c1.1,2.9-2.5,6.3-2.5,6.3c-2.2-5.2-1.8-13.2-1.4-17.3c-0.8,2.6-3,3.7-3,3.7
	c-2.4-8.2,4.2-22.6,4.2-22.6c-1.9,3.5-6,5.3-6,5.3c3.6-14.5,8-13.4,8-13.4c-2.3,1.4-6.8,2.5-6.8,2.5c5.1-9.7,24.3-14.9,24.3-14.9
	c-4.6-0.2,11.1,6.6,11.1,6.6c17.1-8,7.1-0.9,7.1-0.9s-6.2,4.1-8.8,5.5c-2.6,1.4-0.3-1.2-5.2-1.4c-4.8-0.3,0.3-11.6-6.8-3.3
	c0,0-0.2,4.4,1.6,3.2c0,0-7.9-2.6-9.4,19.5c0,0,4,9.4,4.9,6.6c0,0-15.3,19.1,8,32C162.5,334.2,175.4,328.8,175.4,328.8z"/>
<path class="st0" d="M333.4,176.9c-1.9-10.4-6.6-22.4-8.2-26.4c1.2,1.8,3.9,2.6,3.9,2.6c-1.7-12.7-8.1-24.6-8.1-24.6
	c1.6,2.9,4.9,3.2,4.9,3.2c-3.8-11-10.4-10.8-10.4-10.8c2.9-2.7,0.9-7,0.9-7c-1.9,5-8.8,5.7-8.8,5.7h-25.8c0,0-7-0.7-8.8-5.7
	c0,0-1.9,4.3,0.9,7c0,0-6.6-0.3-10.4,10.8c0,0,3.3-0.3,4.9-3.2c0,0-6.4,11.9-8.1,24.6c0,0,2.6-0.8,3.9-2.6c-1.6,4-6.3,16-8.2,26.4
	c0,0,2.1-0.3,3.5-1.9c-1.7,4-4.2,12.4-0.8,20.5c0,0,2-1.1,1.9-4.7c0.1,1.3,0.2,3.6,0.2,3.6s2.3,4.3,6.6,4.9c0,0-0.9-1.8-1.6-4.4l0,0
	c1.1,0.4,2.4,0.6,3.7,0.6H320c1.3,0,2.5-0.2,3.7-0.6l0,0c-0.7,2.6-1.6,4.4-1.6,4.4c4.4-0.7,6.6-4.9,6.6-4.9s0.1-2.2,0.2-3.6
	c-0.2,3.6,1.9,4.7,1.9,4.7c3.4-8.1,0.8-16.5-0.8-20.5C331.3,176.6,333.4,176.9,333.4,176.9z"/>
<path class="st0" d="M303.9,114.9c0,0-5.3,0-8.5-6.2c-1.2-2.4-2.3-7,1.7-10.6c0,0-16.1,3-12.4,16.7c3.7,13.7,25.8,6.4,27,1.4
	C311.8,116.3,307.2,114.6,303.9,114.9z"/>
<path class="st0" d="M291.3,117.7c0,0-3.9,1.4-7.9-2.4c-1.5-1.4-3.5-4.6-1.4-8.3c0,0-11.2,6.4-4.9,15.6c6.3,9.3,25.4,0.1,29.8-2.2
	C306.9,120.4,293.7,116.7,291.3,117.7z"/>
</svg>
