<?xml version="1.0" encoding="utf-8"?>
<!-- Generator: Adobe Illustrator 22.0.0, SVG Export Plug-In . SVG Version: 6.00 Build 0)  -->
<svg version="1.1" id="Layer_1" xmlns="http://www.w3.org/2000/svg" xmlns:xlink="http://www.w3.org/1999/xlink" x="0px" y="0px"
	 viewBox="0 0 600 600" style="enable-background:new 0 0 600 600;" xml:space="preserve">
<style type="text/css">
	.st0{fill:#FF9D00;}
	.st1{fill:#E65B0D;}
	.st2{fill:#F99300;}
	.st3{fill:#08549F;}
	.st4{fill:#2188DB;}
	.st5{fill:#FFBB33;}
	.st6{fill:#490808;}
	.st7{fill:#FFFCC5;}
	.st8{fill:#FF9F9F;}
	.st9{fill:#FFFFFF;}
	.st10{clip-path:url(#SVGID_2_);fill:#FFFFFF;}
	.st11{fill:#B3B3B3;}
</style>
<g>
	<g>
		<g>
			<path class="st0" d="M350.2,327.1c0,0-11.6,0-13.9-11.3c-2.4-11.3,8.8-19.7,8.8-19.7s12.4,4.7,14.6-0.4c2.2-5.1-9.3-5.6-9.3-5.6
				s6.3-15.6,2.9-16.8c-3.4-1.1-8.5,9.3-8.5,9.3s1.1-13.6-3.5-13.9c-4.6-0.3-3.5,12.3-3.5,12.3s-4.9-9.9-8.2-8.9
				c-3.4,1,3.7,16.3,7.7,20.1c0,0-11.4,12.1-9.5,24.7c1.9,12.6,12.7,15,21.8,17.7C358.5,337.2,350.2,327.1,350.2,327.1z"/>
			<g>
				<g>
					<g>
						<g>
							<path class="st1" d="M340.4,287.9c0,0,0.6-0.1,1.4,0.1c0.2,0,0.4,0.1,0.7,0.2c0.2,0.1,0.5,0.2,0.7,0.3
								c0.2,0.1,0.5,0.3,0.7,0.5c0.2,0.2,0.4,0.4,0.6,0.6c0.2,0.2,0.4,0.5,0.5,0.7c0.2,0.2,0.3,0.5,0.4,0.8c0.1,0.3,0.2,0.5,0.2,0.8
								c0.1,0.2,0.1,0.5,0.1,0.7c0,0.4,0,0.8-0.1,1c-0.1,0.2-0.1,0.4-0.1,0.4s-0.1-0.1-0.2-0.3c-0.1-0.2-0.3-0.5-0.4-0.9
								c-0.1-0.2-0.2-0.3-0.3-0.5c-0.1-0.2-0.2-0.4-0.3-0.6c-0.1-0.2-0.3-0.4-0.4-0.5c-0.1-0.2-0.3-0.4-0.4-0.5
								c-0.2-0.2-0.3-0.3-0.5-0.5c-0.2-0.2-0.3-0.3-0.5-0.5c-0.2-0.1-0.3-0.3-0.5-0.4c-0.2-0.1-0.3-0.3-0.5-0.4
								C340.9,288.3,340.4,287.9,340.4,287.9z"/>
						</g>
					</g>
				</g>
			</g>
		</g>
		<g>
			<path class="st0" d="M431.6,328.6c0,0,18.2-3.1,20.7-12.1c2.5-9-6-18.6-6-18.6s-14.6,5.6-15.5,1.1s9.9-6.9,9.9-6.9
				s-9.8-10.2-7.2-13.9c2.6-3.8,11.3,7.8,11.3,7.8s-3.8-13.6-0.5-15.1c3.4-1.4,7.4,13.3,7.4,13.3s4.6-13.4,8.5-12.9
				s-2.4,18.4-5.5,22.6c0,0,9.8,14.5,6.4,24.9c-3.3,10.4-24.4,18.1-29.9,18.1C426.7,336.9,431.6,328.6,431.6,328.6z"/>
			<g>
				<g>
					<g>
						<g>
							<path class="st1" d="M448.8,289.1c0,0-0.1,0.5-0.3,1.1c0,0.2-0.1,0.3-0.1,0.5c-0.1,0.2-0.1,0.4-0.1,0.5
								c0,0.2-0.1,0.4-0.1,0.6c-0.1,0.2-0.1,0.4-0.1,0.6c0,0.2-0.1,0.4-0.1,0.6c0,0.2,0,0.4,0,0.5c0,0.2,0,0.4,0,0.5
								c0,0.2,0,0.3,0,0.5c0,0.3,0.1,0.6,0.1,0.8c0,0.2,0,0.3,0,0.3s-0.1-0.1-0.3-0.2c-0.2-0.1-0.4-0.3-0.7-0.6
								c-0.1-0.1-0.2-0.3-0.3-0.5c-0.1-0.2-0.2-0.4-0.2-0.7c0-0.2-0.1-0.5-0.1-0.7c0-0.3,0-0.5,0-0.8c0.1-0.2,0.1-0.5,0.2-0.7
								c0.1-0.2,0.2-0.4,0.3-0.7c0.1-0.2,0.2-0.4,0.4-0.6c0.1-0.2,0.3-0.3,0.4-0.4C448.3,289.2,448.8,289.1,448.8,289.1z"/>
						</g>
					</g>
				</g>
			</g>
		</g>
	</g>
	<g>
		<path class="st2" d="M376.4,373.1c0,0-13.4,1-24.4,15.7c0,0-4-7.7-10.4-8.8c-6.4-1.1-8.7,6.1-8.7,6.1s15.3,16.2,20.3,15.4
			c0,0,7.3-10.6,14.5-16.6c7.2-6,19.5-9.9,19.5-9.9L376.4,373.1z"/>
		<path class="st2" d="M410.1,372.7c0,0,13.5,0.2,25.3,14.3c0,0,3.6-7.9,9.9-9.4c6.3-1.5,9,5.7,9,5.7s-14.3,17-19.3,16.5
			c0,0-7.9-10.2-15.5-15.7c-7.6-5.6-20.1-8.8-20.1-8.8L410.1,372.7z"/>
	</g>
	<g>
		<g>
			<g>
				<path class="st3" d="M398.1,300.8c0,0,7.2-10,8.3-9.8s3.2,12.9,3.2,12.9L398.1,300.8z"/>
				<g>
					<g>
						<g>
							<g>
								<path class="st4" d="M401.1,297.3c0,0,0.5-0.1,1.2-0.2c0.2,0,0.4,0,0.6,0c0.2,0,0.4,0,0.7,0c0.2,0,0.5,0,0.7,0.1
									c0.2,0,0.5,0.1,0.8,0.2c0.2,0.1,0.5,0.2,0.7,0.3c0.2,0.1,0.4,0.2,0.7,0.3c0.2,0.1,0.4,0.2,0.6,0.4c0.2,0.1,0.3,0.3,0.5,0.4
									c0.3,0.3,0.5,0.5,0.6,0.7c0.1,0.2,0.2,0.3,0.2,0.3s-0.1,0-0.4,0c-0.2,0-0.5-0.1-0.9-0.2c-0.2,0-0.4-0.1-0.5-0.1
									c-0.2,0-0.4-0.1-0.6-0.2c-0.2-0.1-0.4-0.1-0.6-0.2c-0.2-0.1-0.4-0.1-0.6-0.2c-0.2-0.1-0.4-0.1-0.6-0.2
									c-0.2-0.1-0.4-0.1-0.6-0.2c-0.2,0-0.4-0.1-0.6-0.2c-0.2-0.1-0.4-0.1-0.6-0.2C401.5,297.7,401.1,297.3,401.1,297.3z"/>
							</g>
						</g>
					</g>
				</g>
				<g>
					<g>
						<g>
							<g>
								<path class="st4" d="M403.2,294.6c0,0,0.3-0.3,0.8-0.4c0.1,0,0.3-0.1,0.4-0.1c0.1,0,0.3-0.1,0.5,0c0.2,0,0.3,0,0.5,0
									c0.2,0,0.3,0.1,0.5,0.1c0.2,0.1,0.3,0.1,0.5,0.2c0.2,0.1,0.3,0.1,0.4,0.2c0.1,0.1,0.3,0.2,0.4,0.3c0.1,0.1,0.2,0.2,0.3,0.3
									c0.2,0.2,0.3,0.4,0.3,0.6c0,0.2,0,0.3,0,0.3s-0.1,0-0.2,0c-0.2,0-0.4,0-0.6-0.1c-0.1,0-0.2,0-0.3,0c-0.1,0-0.2,0-0.4-0.1
									c-0.1,0-0.3,0-0.4-0.1c-0.1,0-0.3-0.1-0.4-0.1c-0.1,0-0.3-0.1-0.4-0.1c-0.1-0.1-0.3-0.1-0.4-0.1c-0.1,0-0.2-0.1-0.4-0.1
									c-0.1,0-0.2-0.1-0.3-0.1C403.5,294.8,403.2,294.6,403.2,294.6z"/>
							</g>
						</g>
					</g>
				</g>
			</g>
			<g>
				<path class="st3" d="M378.6,300.6c0,0-5.8-7.5-7.1-7.4c-2.5,0.1-2.4,10.6-2.4,10.6S375.4,302,378.6,300.6z"/>
				<g>
					<g>
						<g>
							<g>
								<path class="st4" d="M369.4,300.8c0,0,0-0.1,0-0.3c0-0.2,0.2-0.5,0.4-0.8c0.1-0.2,0.3-0.3,0.4-0.5c0.2-0.1,0.3-0.3,0.5-0.4
									c0.2-0.1,0.4-0.2,0.6-0.4c0.2-0.1,0.4-0.2,0.7-0.3c0.2-0.1,0.5-0.1,0.7-0.2c0.2-0.1,0.5-0.1,0.7-0.1c0.2,0,0.4,0,0.6-0.1
									c0.2,0,0.4,0,0.6,0c0.4,0,0.7,0.1,0.9,0.1c0.2,0,0.3,0.1,0.3,0.1s-0.1,0.1-0.3,0.2c-0.2,0.1-0.4,0.3-0.7,0.5
									c-0.2,0.1-0.3,0.2-0.5,0.2c-0.2,0.1-0.4,0.2-0.6,0.2c-0.2,0.1-0.4,0.2-0.6,0.2c-0.2,0.1-0.4,0.1-0.6,0.2
									c-0.2,0.1-0.4,0.1-0.6,0.2c-0.2,0.1-0.4,0.1-0.6,0.2c-0.2,0.1-0.4,0.1-0.5,0.2c-0.2,0.1-0.3,0.1-0.5,0.2
									c-0.3,0.1-0.5,0.3-0.7,0.4C369.5,300.7,369.4,300.8,369.4,300.8z"/>
							</g>
						</g>
					</g>
				</g>
				<g>
					<g>
						<g>
							<g>
								<path class="st4" d="M369.6,297.2c0,0,0.2-0.3,0.4-0.7c0.1-0.1,0.2-0.2,0.2-0.3c0.1-0.1,0.2-0.2,0.3-0.3
									c0.1-0.1,0.3-0.2,0.4-0.3c0.1-0.1,0.3-0.1,0.4-0.2c0.2-0.1,0.3-0.1,0.5-0.1c0.2,0,0.3,0,0.5,0c0.1,0,0.3,0,0.4,0
									c0.1,0,0.2,0,0.4,0.1c0.2,0,0.4,0.1,0.5,0.2c0.1,0.1,0.2,0.1,0.2,0.1s0,0.1-0.1,0.2c-0.1,0.1-0.3,0.3-0.5,0.4
									c-0.1,0.1-0.2,0.1-0.3,0.2c-0.1,0.1-0.2,0.1-0.4,0.2c-0.1,0-0.2,0.1-0.4,0.1c-0.1,0-0.2,0.1-0.3,0.1c-0.1,0-0.2,0.1-0.4,0.1
									c-0.1,0-0.3,0.1-0.4,0.1c-0.1,0-0.3,0.1-0.4,0.1c-0.1,0-0.3,0-0.4,0.1C370,297.3,369.6,297.2,369.6,297.2z"/>
							</g>
						</g>
					</g>
				</g>
			</g>
		</g>
		<g>
			<path class="st0" d="M387.2,299.2c0,0-4.3-5.3-6.3-5.4c-2.1-0.1,0.1,4.6,0.1,4.6s-10.7,1.4-19.9,9.2c-9.2,7.8-16.5,19-14.5,35.3
				c2,16.3,19,35.7,46.8,35.2c27.8-0.4,42-23.3,41.7-42.7c-0.2-19.5-16.9-35.6-40-36.9c0,0,2.4-4.3,0.9-5.1
				C394.5,292.6,389,296.6,387.2,299.2z"/>
			<path class="st5" d="M386.8,300.7c16-1.3,45.4,14.2,45.9,36.7c0.5,22.4-21,33.6-43.4,34.6s-38.4-14.4-39.8-34.6
				C348.2,317.2,368.9,302.1,386.8,300.7z"/>
		</g>
		<g>
			<g>
				<path class="st6" d="M370.5,345.9c5.8-2.1,12.8,4.9,20.4,4.2c7.5-0.7,10.1-7,15.9-7c5.8,0,13.9,8.5,6.2,17.5
					c-7.8,9-27.7,11.2-39.3,3.9C365.3,359.2,362.4,348.8,370.5,345.9z"/>
				<g>
					<path class="st7" d="M375.2,354.7c0.4,0.8,9.1,2.9,10.1,1.6c0.6-0.8,0.8-4.3,0.8-6.7c-3-0.8-5.9-2.2-8.6-3.2
						C376.6,349,374.9,354.1,375.2,354.7z"/>
					<path class="st7" d="M397.9,356.3c1,0.2,8.9-3.7,9.4-4.7c0.4-0.7-3.2-5.3-4.9-7.4c-2.7,1.5-5,4-8.6,5.2
						C395.1,351.9,397.2,356.2,397.9,356.3z"/>
					<path class="st8" d="M392.4,360.2c-6.3,0.8-11,5-12.9,7c9.2,3,20.8,1.9,28.4-2.5C405.1,362.9,398.7,359.4,392.4,360.2z"/>
				</g>
			</g>
			<g>
				<ellipse class="st9" cx="389.2" cy="327" rx="17.4" ry="16.7"/>
				<g>
					<defs>
						<ellipse id="SVGID_1_" cx="394.7" cy="321.6" rx="9.5" ry="9.1"/>
					</defs>
					<use xlink:href="#SVGID_1_"  style="overflow:visible;fill:#1D1D1B;"/>
					<clipPath id="SVGID_2_">
						<use xlink:href="#SVGID_1_"  style="overflow:visible;"/>
					</clipPath>
					<ellipse class="st10" cx="391" cy="318.3" rx="6" ry="5.7"/>
				</g>
			</g>
			<g>
				<path class="st1" d="M364.6,322.6c4.4,1.1-0.8,12-5,10.1C355.5,330.9,359.1,321.3,364.6,322.6z"/>
				<path class="st1" d="M356.3,317.6c3,1.3,6.3-5,3.6-6.3S353.3,316.3,356.3,317.6z"/>
				<path class="st1" d="M366.9,313.2c3.7,3.6,11.9-4,8.2-8C371.5,301.3,362.2,308.7,366.9,313.2z"/>
				<path class="st1" d="M351.9,332.1c3.6-1.5,7.7,8.4,3.1,9.6C350.4,342.9,347.4,334,351.9,332.1z"/>
				<path class="st1" d="M417.7,332.9c5-2,6.8,5.5,2.1,7.1C415.1,341.7,413.7,334.5,417.7,332.9z"/>
				<path class="st1" d="M411.1,310.7c5.4-6.2,17.6,5.7,13,10.9C419.4,326.8,405.9,316.7,411.1,310.7z"/>
				<path class="st1" d="M398.2,303.4c0.8-2.4,9.3-1.6,7.9,2.6C404.8,310.4,396.8,307.9,398.2,303.4z"/>
				<path class="st1" d="M427.5,341.5c3.8,1.1,4.1,5,0.2,5.4C423.8,347.3,425.5,340.9,427.5,341.5z"/>
			</g>
		</g>
	</g>
</g>
<g>
	<rect x="278" y="120" class="st11" width="39" height="348"/>
	<rect x="278.5" y="119.5" transform="matrix(6.123234e-17 -1 1 6.123234e-17 4.5 591.5)" class="st11" width="39" height="348"/>
</g>
</svg>
