<?xml version="1.0" encoding="utf-8"?>
<!-- Generator: Adobe Illustrator 22.0.0, SVG Export Plug-In . SVG Version: 6.00 Build 0)  -->
<svg version="1.1" id="Layer_1" xmlns="http://www.w3.org/2000/svg" xmlns:xlink="http://www.w3.org/1999/xlink" x="0px" y="0px"
	 viewBox="0 0 750 500" style="enable-background:new 0 0 750 500;" xml:space="preserve">
<style type="text/css">
	.st0{fill:url(#SVGID_1_);}
	.st1{opacity:0.6;fill:url(#SVGID_2_);}
	.st2{opacity:0.8;fill:url(#SVGID_3_);}
	.st3{opacity:0.4;fill:url(#SVGID_4_);}
	.st4{opacity:0.8;fill:url(#SVGID_5_);}
	.st5{opacity:0.72;fill:url(#SVGID_6_);}
	.st6{opacity:0.48;fill:url(#SVGID_7_);}
	.st7{opacity:0.6;fill:url(#SVGID_8_);}
	.st8{fill:url(#SVGID_9_);}
	.st9{fill:url(#SVGID_10_);}
	.st10{fill:url(#SVGID_11_);}
	.st11{fill:url(#SVGID_12_);}
	.st12{fill:url(#SVGID_13_);}
	.st13{fill:#FFFFFF;}
	.st14{fill:url(#SVGID_14_);}
	.st15{fill:url(#SVGID_15_);}
	.st16{fill:url(#SVGID_16_);}
	.st17{fill:url(#SVGID_17_);}
	.st18{fill:url(#SVGID_18_);}
</style>
<linearGradient id="SVGID_1_" gradientUnits="userSpaceOnUse" x1="372.4545" y1="403.8853" x2="372.4545" y2="19.086">
	<stop  offset="0" style="stop-color:#3DD6E2"/>
	<stop  offset="8.766034e-02" style="stop-color:#37C9D8"/>
	<stop  offset="0.2949" style="stop-color:#2AAFC4"/>
	<stop  offset="0.5099" style="stop-color:#219DB5"/>
	<stop  offset="0.7358" style="stop-color:#1C93AD"/>
	<stop  offset="0.9902" style="stop-color:#1A8FAA"/>
</linearGradient>
<rect x="-7.9" y="-10.6" class="st0" width="760.6" height="513.2"/>
<g>
	<linearGradient id="SVGID_2_" gradientUnits="userSpaceOnUse" x1="96.5784" y1="189.0148" x2="96.5784" y2="139.5788">
		<stop  offset="4.901960e-03" style="stop-color:#FFFFFF;stop-opacity:0"/>
		<stop  offset="6.081640e-02" style="stop-color:#FFFFFF;stop-opacity:5.674899e-02"/>
		<stop  offset="0.9902" style="stop-color:#FFFFFF"/>
	</linearGradient>
	<path class="st1" d="M33.7,189H161c0,0-6.2-15.4-21.5-16.3c-10.1-0.6-14.5,5.3-14.5,5.3s2.4-13.4-10.5-15.6
		c-13-2.2-20.7,7.5-20.7,7.5c3.1-15.4-10.8-30.5-29.4-30.3c-18.7,0.2-32.1,13.4-32.1,24.8c0,11.4,9.9,17.6,9.9,17.6
		C34.4,182,33.7,189,33.7,189z"/>
	<linearGradient id="SVGID_3_" gradientUnits="userSpaceOnUse" x1="69.5156" y1="289.3546" x2="69.5156" y2="265.0182">
		<stop  offset="4.901960e-03" style="stop-color:#FFFFFF;stop-opacity:0"/>
		<stop  offset="6.081640e-02" style="stop-color:#FFFFFF;stop-opacity:5.674899e-02"/>
		<stop  offset="0.9902" style="stop-color:#FFFFFF"/>
	</linearGradient>
	<path class="st2" d="M97.3,282.1c0,0,1.6-5.5-4.7-6.7c-6.4-1.2-10.1,2.8-10.1,2.8c1-11.4-11.1-16.4-19.4-11.1
		c-8.3,5.3-7.7,12.6-7.7,12.6c-24.6-13.3-33.5,9.6-33.5,9.6h95C109.6,274.3,97.3,282.1,97.3,282.1z"/>
	<linearGradient id="SVGID_4_" gradientUnits="userSpaceOnUse" x1="526.1139" y1="143.4714" x2="526.1139" y2="123.3631">
		<stop  offset="4.901960e-03" style="stop-color:#FFFFFF;stop-opacity:0"/>
		<stop  offset="6.081640e-02" style="stop-color:#FFFFFF;stop-opacity:5.674899e-02"/>
		<stop  offset="0.9902" style="stop-color:#FFFFFF"/>
	</linearGradient>
	<path class="st3" d="M551.8,137.5c0,0,1.5-4.5-4.4-5.5c-5.9-1-9.3,2.3-9.3,2.3c1-9.4-10.2-13.6-17.9-9.2s-7.1,10.4-7.1,10.4
		c-22.7-11-30.8,8-30.8,8h87.6C563.1,131,551.8,137.5,551.8,137.5z"/>
	<linearGradient id="SVGID_5_" gradientUnits="userSpaceOnUse" x1="201.8401" y1="236.2177" x2="201.8401" y2="213.2364">
		<stop  offset="4.901960e-03" style="stop-color:#FFFFFF;stop-opacity:0"/>
		<stop  offset="6.081640e-02" style="stop-color:#FFFFFF;stop-opacity:5.674899e-02"/>
		<stop  offset="0.9902" style="stop-color:#FFFFFF"/>
	</linearGradient>
	<path class="st4" d="M233.9,231.8c0,0,1.3-7.4-7.3-9.5c-8.6-2.1-10.6,4.1-10.6,4.1c1.9-14-13.8-15.3-19.2-11
		c-4.4,3.5-3.6,7.6-3.1,8.9c-1.1-2.5-5.2-5.4-12.9-2c-8.1,3.6-6.9,10.4-6.9,10.4s-5.6-5-11.9-2.7c-6.2,2.3-6,6.2-6,6.2h92
		C244.4,225.1,233.9,231.8,233.9,231.8z"/>
	<linearGradient id="SVGID_6_" gradientUnits="userSpaceOnUse" x1="354.5745" y1="163.3434" x2="354.5745" y2="136.5257">
		<stop  offset="4.901960e-03" style="stop-color:#FFFFFF;stop-opacity:0"/>
		<stop  offset="6.081640e-02" style="stop-color:#FFFFFF;stop-opacity:5.674899e-02"/>
		<stop  offset="0.9902" style="stop-color:#FFFFFF"/>
	</linearGradient>
	<path class="st5" d="M391.9,158.2c0,0,1.5-8.6-8.6-11.1c-10.1-2.4-12.4,4.8-12.4,4.8c2.3-16.4-16.1-17.8-22.4-12.9
		c-5.2,4.1-4.2,8.8-3.6,10.4c-1.3-3-6.1-6.4-15-2.4c-9.5,4.2-8.1,12.2-8.1,12.2s-6.6-5.9-13.9-3.2c-7.3,2.7-7,7.3-7,7.3h107.3
		C404.3,150.4,391.9,158.2,391.9,158.2z"/>
	<linearGradient id="SVGID_7_" gradientUnits="userSpaceOnUse" x1="217.3012" y1="148.8837" x2="217.3012" y2="118.8598">
		<stop  offset="4.901960e-03" style="stop-color:#FFFFFF;stop-opacity:0"/>
		<stop  offset="6.081640e-02" style="stop-color:#FFFFFF;stop-opacity:5.674899e-02"/>
		<stop  offset="0.9902" style="stop-color:#FFFFFF"/>
	</linearGradient>
	<path class="st6" d="M180.3,148.9h71.4c0.8-1.3,1.9-2.6,3.6-3.8c-2-2.7-5.5-5.8-10.8-6.1c-6.2-0.4-8.8,3.2-8.8,3.2s1.5-8.1-6.4-9.5
		c-7.9-1.3-12.5,4.5-12.5,4.5c1.9-9.3-6.5-18.5-17.9-18.4c-11.3,0.1-19.5,8.1-19.5,15.1c0,6.9,6,10.7,6,10.7
		C180.7,144.6,180.3,148.9,180.3,148.9z"/>
	<linearGradient id="SVGID_8_" gradientUnits="userSpaceOnUse" x1="612.389" y1="201.8155" x2="612.389" y2="160.3797">
		<stop  offset="4.901960e-03" style="stop-color:#FFFFFF;stop-opacity:0"/>
		<stop  offset="6.081640e-02" style="stop-color:#FFFFFF;stop-opacity:5.674899e-02"/>
		<stop  offset="0.9902" style="stop-color:#FFFFFF"/>
	</linearGradient>
	<path class="st7" d="M670.1,193.9c0,0,2.4-13.4-13.2-17.1c-15.6-3.8-19.2,7.4-19.2,7.4c3.5-25.3-24.9-27.5-34.6-19.9
		c-8,6.3-6.4,13.6-5.6,16c-2.1-4.6-9.4-9.8-23.2-3.6c-14.6,6.5-12.5,18.8-12.5,18.8s-10.2-9-21.4-4.9c-11.3,4.2-10.9,11.3-10.9,11.3
		h165.8C689.2,181.8,670.1,193.9,670.1,193.9z"/>
</g>
<linearGradient id="SVGID_9_" gradientUnits="userSpaceOnUse" x1="522.6618" y1="386.8046" x2="522.6618" y2="322.309">
	<stop  offset="0" style="stop-color:#9E2356"/>
	<stop  offset="0.3182" style="stop-color:#E12B71"/>
</linearGradient>
<path class="st8" d="M396,384.9l20.9-4.2c0,0,24.4-24.2,55.4-16.9s46.7,9.7,61.3,2.1s27.9-11.3,62.4,4.9s58.5,4.5,58.5,4.5
	l-11.1,30.4l-252.6,0.9L396,384.9z"/>
<linearGradient id="SVGID_10_" gradientUnits="userSpaceOnUse" x1="270.9372" y1="392.9635" x2="768.3934" y2="392.9635">
	<stop  offset="0" style="stop-color:#8F48B5"/>
	<stop  offset="1" style="stop-color:#E12B71"/>
</linearGradient>
<path class="st9" d="M292.5,386.3c0,0,22.3-2.8,35.9-8.7c13.6-5.9,35.9-27.5,107.7-0.9s116.4,18.6,116.4,18.6s86.1-54.4,175.6-31.3
	c89.5,23.1,2.1,63.8,2.1,63.8l-353.3-5.9l-105.9,2.1L292.5,386.3z"/>
<linearGradient id="SVGID_11_" gradientUnits="userSpaceOnUse" x1="588.7894" y1="421.3976" x2="588.7894" y2="356.9021">
	<stop  offset="0" style="stop-color:#9E2356"/>
	<stop  offset="1" style="stop-color:#E12B71"/>
</linearGradient>
<path class="st10" d="M400.2,415c0,0,10.8,3.8,33.1-8.9c22.3-12.7,39.4-49.7,143.9-23.5s126.5,6.6,169-15.1
	c42.5-21.7,29.3,80.5,29.3,80.5L400.2,415z"/>
<linearGradient id="SVGID_12_" gradientUnits="userSpaceOnUse" x1="-0.4725" y1="386.8474" x2="509.651" y2="386.8474">
	<stop  offset="0" style="stop-color:#8F48B5"/>
	<stop  offset="1" style="stop-color:#E12B71"/>
</linearGradient>
<path class="st11" d="M14.9,364.6c0,0,71.8-35.1,137.6-2.4s166.9,38.4,166.9,38.4s63.8-30.4,101.7-11.1s58.9,29.4,87.5,33.2
	c28.6,3.8-509,2.4-509,2.4L14.9,364.6z"/>
<linearGradient id="SVGID_13_" gradientUnits="userSpaceOnUse" x1="202.4832" y1="417.6733" x2="202.4832" y2="369.8286">
	<stop  offset="0" style="stop-color:#9E2356"/>
	<stop  offset="1" style="stop-color:#E12B71"/>
</linearGradient>
<path class="st12" d="M-4,361c0,0,30.3-5.2,72.1,12.6c41.8,17.8,77.3,14.7,110.1,4c32.8-10.7,104.9-28.3,164.8,6.5
	s50.5,37.9,71.4,41c20.9,3.1-424.7,1.7-424.7,1.7L-4,361z"/>
<rect x="-11" y="440.5" class="st13" width="773.2" height="70.8"/>
<linearGradient id="SVGID_14_" gradientUnits="userSpaceOnUse" x1="236.1913" y1="604.1008" x2="236.1913" y2="604.1008">
	<stop  offset="0.2364" style="stop-color:#CE4A00"/>
	<stop  offset="1" style="stop-color:#E12B71"/>
</linearGradient>
<path class="st14" d="M236.2,604.1"/>
<linearGradient id="SVGID_15_" gradientUnits="userSpaceOnUse" x1="-98.1292" y1="604.7721" x2="-96.9658" y2="604.7721">
	<stop  offset="0.2364" style="stop-color:#CE4A00"/>
	<stop  offset="1" style="stop-color:#E12B71"/>
</linearGradient>
<path class="st15" d="M-97,609c0.1-2.7-0.5-5.6-1.1-8.4"/>
<linearGradient id="SVGID_16_" gradientUnits="userSpaceOnUse" x1="590.5424" y1="456.0914" x2="590.1812" y2="491.1241">
	<stop  offset="0" style="stop-color:#9E2356"/>
	<stop  offset="1" style="stop-color:#E12B71"/>
</linearGradient>
<path class="st16" d="M667.2,462l18.2-2c0.8-0.1,1.3-1.1,1.1-2.2l-3.3-16.1c-0.2-0.7-0.6-1.2-1.2-1.2L555.4,444c-0.1,0-0.1,0-0.2,0
	l-40.9-7.6c-0.1,0-0.2,0-0.3,0l-14.8,2.9c-0.2,0-0.4,0.2-0.6,0.3l-1.4,1.5c-0.8,0.9-0.5,2.8,0.6,3c0,0,0,0,0,0
	c0.8,0.2,1.5,0.5,1.9,0.8c0.2,0.2,0.4,0.3,0.7,0.4h-4.4c-0.7,0-1.2,0.8-1.2,1.7v4.7c0,0.9,0.5,1.7,1.2,1.7h30.6
	c0.7,0,1.2,0.8,1.2,1.7v0.1v0.5v0.7c0.2,0.3,0.5,0.6,1,0.8c0.8,0.4,1.9,0.6,2.8,0.6c0.1,0,1-0.2,1.7-0.3c0.5-0.1,0.9,0.2,1.2,0.7
	c1.4,3-0.1,8-1.2,12c-0.6,2.2-1.1,4.1-1,5.3c0.1,3.1,3.2,5.7,5.9,5.7c2.9,0,5.9-2.7,6.1-5.7c0.2-2.4-0.7-4.9-1.5-7.4
	c-0.2-0.7-0.5-1.4-0.7-2.1c-0.1-0.3-0.2-0.6-0.3-1c-0.7-2.1-1.5-4.8-0.3-6.7c0.8-1.3,2-2,3.4-2c1.5,0,3.1,0.8,4.2,2.3
	c0.6,0.8,0.4,1.8,0.1,2.7c-0.3,0.9-0.5,2.1,0,3c0.6,1.1,2,1.9,3.7,1.9c2,0,3.7-1.2,4.2-2.4c0.2-0.5,0.1-1.2-0.1-1.9
	c-0.2-1-0.4-2.1,0.4-2.7c0.5-0.4,1.4-0.6,2.8-0.6c3.1,0,3,2.1,3,4.2c0,1.7,0,3.5,1.4,4.5c0.8,0.5,1.9,0.8,3.3,0.8
	c1.2,0,2.8-0.2,4.6-0.6l0.3-0.1c1.2-0.3,2.4-0.5,3.4-0.5c1.3,0,2.3,0.4,3.2,1.4c1.3,1.5,0.6,4.5,0.1,6.7c-0.2,0.7-0.3,1.3-0.4,1.8
	c-0.1,0.5-0.2,1.1-0.4,1.9c-0.6,3.1-1,6.1-1,9.3c0,2.6,0.3,6.2,4.8,7c3.2,0.5,6.6-0.8,7.8-2.8c1.3-2.3,1-5,0.7-7.4
	c-0.2-1.3-0.5-2.5-0.9-3.8c-0.4-1.2-0.9-2.4-1.4-3.6c-1.1-2.6-2.3-5.2-2-7.7c0.1-1.5,1.7-3.2,3.8-3.2c0.7,0,1.5,0.2,2.2,0.7
	c2.4,1.5,1.6,4,0.8,6.2c-0.3,0.9-0.6,1.7-0.6,2.5c-0.2,2,0.7,3.8,1.5,4.4c0.8,0.6,1.8,0.9,2.9,0.9c1.2,0,2.4-0.4,3.2-1.1
	c1-0.8,1.3-2.7,0.9-4c-0.1-0.4-0.3-0.9-0.5-1.5c-1.3-3.3-3.1-8.3,2.1-9.6c0.4-0.1,0.9-0.2,1.2-0.2c2.7,0,3.8,3,4.6,5.2
	c0.2,0.6,0.4,1.1,0.6,1.5c1.2,2.5,3.4,4.4,5.4,4.4c1.1,0,2.9-0.9,3.8-4.5c0-0.1,0.1-0.3,0.1-0.4c0.3-1.4,0.6-2.7,2.7-3.5
	c0.6-0.2,1.1-0.3,1.7-0.3c3.2,0,5.5,2.4,8.1,3.3c4.3,1.5,6.4-1.4,7.5-3.8c0.7-1.6,1.4-3.1,3.2-3.1c0.2,0,0.4,0,0.7,0.1
	c2.6,0.4,2.3,4.2,2.2,5.9l0,0.2c-0.1,0.9-0.3,2.1-0.5,3.5c-0.8,4.7-1.8,11.7,1.5,14.4c1,0.8,2.2,1.2,3.8,1.2c1.4,0,2.5-0.3,3.3-1.1
	c1.9-1.8,1.7-6.2,1.2-9.2c-0.6-3.6-1.9-7-2.6-8.5c-0.2-0.3-0.3-0.6-0.5-0.9l0,0c-0.9-1.7-1.7-3.2-0.4-4.9c0.8-1,1.9-1.6,3.2-1.6
	c1.9,0,3.6,1.2,3.7,2.7c0.1,0.8-0.3,1.8-0.6,2.8c-0.6,1.7-1.3,3.8,0.1,5.2c0.8,0.9,2.8,1.5,4.9,1.5c1.8,0,3.4-0.2,4.1-1.2
	c3.4-4.5-6.2-9.8-2.9-12"/>
<linearGradient id="SVGID_17_" gradientUnits="userSpaceOnUse" x1="124.2951" y1="448.7847" x2="124.2951" y2="488.4629">
	<stop  offset="0" style="stop-color:#8F48B5"/>
	<stop  offset="1" style="stop-color:#E12B71"/>
</linearGradient>
<path class="st17" d="M31.3,450.6l-21.8-6.5c-0.9-0.1-1.8,2.1-1.6,0.6l4-22.7c0.2-1,0.8-1.8,1.4-1.7l153.6,4.9c0.1,0,0.1,0,0.2,0
	l49.7-10.8c0.1,0,0.3,0,0.4,0l17.9,4c0.2,0.1,0.5,0.2,0.7,0.5l1.7,2.1c1,1.3,0.6,3.9-0.7,4.2c0,0,0,0,0,0c-1,0.3-1.9,0.7-2.3,1.1
	c-0.2,0.2-0.5,0.4-0.9,0.6h5.4c0.8,0,1.5,1.1,1.5,2.4v6.7c0,1.3-0.7,2.4-1.5,2.4H202c-0.8,0-1.5,1.1-1.5,2.4v0.2v0.7v1
	c-0.3,0.4-0.6,0.8-1.2,1.1c-1,0.5-2.3,0.9-3.5,0.8c-0.1,0-1.3-0.2-2-0.4c-0.6-0.1-1.1,0.2-1.4,1c-1.7,4.2,0.1,11.2,1.4,17
	c0.7,3.1,1.3,5.8,1.2,7.5c-0.1,4.4-3.8,8-7.2,8c-3.5,0-7.2-3.8-7.4-8c-0.2-3.4,0.8-7,1.8-10.4c0.3-1,0.6-2,0.8-3
	c0.1-0.4,0.2-0.9,0.4-1.4c0.8-3,1.8-6.7,0.4-9.4c-0.9-1.8-2.4-2.8-4.1-2.8c-1.9,0-3.7,1.2-5.1,3.3c-0.8,1.2-0.4,2.5-0.1,3.9
	c0.3,1.3,0.7,2.9,0,4.2c-0.8,1.6-2.5,2.7-4.5,2.7c-2.4,0-4.5-1.7-5-3.4c-0.2-0.8-0.1-1.7,0.1-2.7c0.2-1.4,0.5-2.9-0.5-3.8
	c-0.6-0.6-1.8-0.8-3.4-0.8c-3.7,0.1-3.7,2.9-3.7,5.9c0,2.4,0.1,4.9-1.7,6.3c-0.9,0.8-2.3,1.1-4,1.1c-1.5,0-3.4-0.3-5.6-0.8l-0.4-0.1
	c-1.5-0.4-2.9-0.7-4.1-0.7c-1.6,0-2.8,0.6-3.8,1.9c-1.6,2.1-0.7,6.4-0.1,9.5c0.2,1,0.4,1.9,0.5,2.6c0.1,0.7,0.3,1.6,0.4,2.7
	c0.8,4.4,1.2,8.7,1.2,13.1c0,3.6-0.3,8.7-5.8,9.8c-3.8,0.8-8-1.1-9.4-3.9c-1.6-3.2-1.2-7.1-0.8-10.4c0.2-1.8,0.6-3.6,1-5.3
	c0.4-1.7,1.1-3.3,1.7-5.1c1.3-3.6,2.7-7.3,2.4-10.9c-0.2-2.1-2.1-4.5-4.6-4.5c-0.9,0-1.8,0.3-2.6,1c-2.9,2.2-1.9,5.6-1,8.7
	c0.3,1.2,0.7,2.4,0.8,3.5c0.2,2.9-0.9,5.4-1.8,6.2c-0.9,0.8-2.2,1.2-3.5,1.2c-1.5,0-2.9-0.5-3.9-1.5c-1.2-1.2-1.6-3.8-1.1-5.7
	c0.2-0.6,0.4-1.3,0.6-2.1c1.5-4.6,3.8-11.7-2.6-13.5c-0.5-0.2-1-0.2-1.5-0.2c-3.3,0-4.7,4.2-5.6,7.3c-0.2,0.8-0.5,1.5-0.7,2.1
	c-1.4,3.5-4.2,6.2-6.6,6.2c-1.4,0-3.6-1.2-4.6-6.3c0-0.2-0.1-0.4-0.1-0.6c-0.4-2-0.7-3.9-3.3-4.9c-0.7-0.3-1.4-0.4-2.1-0.4
	c-3.9,0-6.7,3.3-9.8,4.6c-5.3,2.2-7.8-2-9.1-5.4c-0.8-2.2-1.6-4.3-3.9-4.3c-0.3,0-0.5,0-0.8,0.1c-3.2,0.5-2.8,6-2.7,8.3l0,0.3
	c0.1,1.3,0.3,3,0.6,4.9c0.9,6.7,2.2,16.5-1.8,20.3c-1.2,1.1-2.7,1.7-4.6,1.7c-1.7,0.1-3-0.5-4-1.5c-2.4-2.6-2.1-8.8-1.5-13
	c0.8-5.1,2.3-9.9,3.2-12c0.2-0.4,0.4-0.9,0.6-1.3l0,0c1.1-2.4,2-4.5,0.5-6.9c-0.9-1.5-2.3-2.3-3.9-2.3c-2.3,0-4.3,1.7-4.5,3.8
	c-0.1,1.2,0.3,2.5,0.8,4c0.8,2.4,1.6,5.4-0.1,7.4c-1,1.2-3.4,2.1-6,2.1c-2.2,0-4.1-0.3-5-1.7c-4.1-6.3,7.5-13.8,3.5-16.9"/>
<linearGradient id="SVGID_18_" gradientUnits="userSpaceOnUse" x1="-23.659" y1="443.236" x2="799.8372" y2="443.236">
	<stop  offset="0.2364" style="stop-color:#CE4A00"/>
	<stop  offset="1" style="stop-color:#E12B71"/>
</linearGradient>
<path class="st18" d="M783.3,396.5c-33.8,21-339.6,33-392.5,19s-53.5-9-135.9-3s-274.2-19.4-274.2-19.4s21,35.1-2.2,47.3
	c-25.4,13.4,175.4-7.8,266,6.1c0.1,0,0.1,0,0.2,0c0.2,0.2-0.4-0.2,0,0c0.9,0.4,4.4,0.4,5.7,1c0.1,0.1-0.7,0.2,0,0
	c0.5-0.1,1,0.2,1.3,0.9c1.5,3.7-0.1,9.8-1.3,14.8c-0.6,2.7-1.1,5-1.1,6.5c0.1,3.8,3.4,6.9,6.3,6.9c3.1,0,6.3-3.3,6.5-7
	c0.2-3-0.7-6.1-1.6-9c-0.3-0.9-0.5-1.7-0.7-2.6c-0.1-0.4-0.2-0.8-0.3-1.2c-0.7-2.6-1.6-5.9-0.4-8.2c0.8-1.6,2.1-2.5,3.6-2.5
	c1.6,0,3.3,1,4.5,2.9c0.7,1,0.4,2.2,0.1,3.4c-0.3,1.1-0.6,2.5,0,3.7c0.7,1.4,2.2,2.4,4,2.4c2.1,0,4-1.5,4.4-3
	c0.2-0.7,0.1-1.5-0.1-2.4c-0.2-1.3-0.4-2.6,0.4-3.3c0.6-0.5,1.5-0.7,3-0.7c3.3,0.1,3.2,2.5,3.2,5.2c0,2.1-0.1,4.2,1.5,5.5
	c0.8,0.7,2,1,3.5,1c1.3,0,3-0.2,4.9-0.7l0.3-0.1c1.3-0.3,2.5-0.6,3.6-0.6c1.4,0,2.5,0.5,3.4,1.7c1.4,1.8,0.6,5.5,0.1,8.2
	c-0.2,0.8-0.3,1.6-0.4,2.3c-0.1,0.6-0.2,1.4-0.4,2.4c-0.7,3.8-1,7.5-1.1,11.4c0,3.2,0.3,7.6,5.1,8.6c3.4,0.7,7.1-1,8.3-3.4
	c1.4-2.8,1-6.2,0.7-9.1c-0.2-1.6-0.5-3.1-0.9-4.6c-0.4-1.4-0.9-2.9-1.5-4.4c-1.2-3.1-2.4-6.4-2.1-9.4c0.2-1.9,1.9-3.9,4.1-3.9
	c0.8,0,1.6,0.3,2.3,0.8c2.5,1.9,1.7,4.9,0.9,7.6c-0.3,1.1-0.6,2.1-0.7,3c-0.2,2.5,0.8,4.7,1.6,5.4c0.8,0.7,1.9,1.1,3.1,1.1
	c1.3,0,2.5-0.5,3.4-1.3c1.1-1,1.4-3.3,1-4.9c-0.1-0.5-0.3-1.1-0.6-1.8c-1.3-4-3.3-10.1,2.3-11.8c0.5-0.1,0.9-0.2,1.3-0.2
	c2.9,0,4.1,3.7,4.9,6.4c0.2,0.7,0.4,1.3,0.6,1.9c1.2,3,3.7,5.4,5.8,5.4c1.2,0,3.1-1.1,4-5.5c0-0.2,0.1-0.3,0.1-0.5
	c0.3-1.7,0.6-3.4,2.9-4.2c0.6-0.2,1.2-0.4,1.8-0.4c3.4,0,5.9,2.9,8.6,4c4.6,1.9,6.8-1.7,8-4.7c0.7-1.9,1.4-3.7,3.4-3.7
	c0.2,0,0.5,0,0.7,0.1c2.8,0.5,2.5,5.2,2.4,7.2l0,0.3c-0.1,1.1-0.3,2.6-0.5,4.3c-0.8,5.8-1.9,14.4,1.6,17.7c1,0.9,2.4,1.4,4,1.5
	c1.5,0.1,2.6-0.4,3.5-1.3c2.1-2.3,1.8-7.7,1.3-11.3c-0.7-4.4-2-8.6-2.8-10.4c-0.2-0.4-0.3-0.8-0.5-1.1l0,0c-1-2.1-1.8-3.9-0.4-6
	c0.8-1.3,2-2,3.4-2c2,0,3.8,1.4,4,3.3c0.1,1-0.3,2.2-0.7,3.5c-0.7,2.1-1.4,4.7,0.1,6.4c0.9,1.1,3,1.8,5.2,1.8c1.9,0,3.6-0.3,4.4-1.5
	c3.6-5.5-6.6-12-3.1-14.7l2,0.1c23.7,3.4,130.5,6.8,160,8.3c116.5,6.1,237.5-14.1,237.5-14.1S817.2,375.5,783.3,396.5z"/>
</svg>
