<?xml version="1.0" encoding="utf-8"?>
<!-- Generator: Adobe Illustrator 22.0.0, SVG Export Plug-In . SVG Version: 6.00 Build 0)  -->
<svg version="1.1" xmlns="http://www.w3.org/2000/svg" xmlns:xlink="http://www.w3.org/1999/xlink" x="0px" y="0px"
	 viewBox="0 0 750 500" style="enable-background:new 0 0 750 500;" xml:space="preserve">
<style type="text/css">
	.st0{fill:#8C8C8C;}
	.st1{fill:#777777;}
	.st2{fill:#515151;}
	.st3{fill:#3F3F3F;}
</style>
<g id="BACKGROUND_2">
	<g>
		<g>
			<path class="st0" d="M185.9,433.8c-2.6-0.4-10.8-9.5-11.2-12.1c-0.4-2.6-1.7-9.9-2.6-11.6c-0.9-1.7-7.3-0.4-9.9-1.3
				c-2.6-0.9-0.4-9.5-0.4-14.2c0-4.7,3-24.6,3-27.6c0-3-4.3-10.4-4.3-10.4s2.2-25,0.9-26.7c-1.3-1.7,0.9-9.9,0.9-9.9l0.9-6.9
				l-4.3-2.2c0,0-0.4,11.2-1.3,13.8c-0.9,2.6-6,1.3-6,1.3l0.9-22.9l-10.4-1.3c0,0-3,4.7-4.3,7.8c-1.3,3,0.9,16-1.7,19
				c-2.6,3-3.9,7.3-4.7,11.2c-0.9,3.9-0.9,10.8-2.6,12.5c-1.7,1.7-4.3,4.7-6,6.5c-1.7,1.7-2.2-5.6-2.2-5.6s0-41.8,0-43.6
				s-4.7-2.6-4.7-2.6v-31.5c0,0-2.2-4.7-3.9-4.7c-1.7,0-5.6,3.5-7.3,3c-1.7-0.4-10.4,8.2-12.9,9.1c-2.6,0.9-10.8,0-15.1-2.2
				c-4.3-2.2-12.5-1.3-12.5-1.3s0.4,19.8-1.3,21.1c-1.7,1.3-13.4,1.7-13.8,5.6c-0.4,3.9,0.9,23.7,1.3,25.9c0.4,2.2-3,5.2-3.9,6.9
				c-0.9,1.7-5.6-0.4-5.6-0.4s-2.6,4.3-1.3,10.8c1.3,6.5,0,21.6,0,22.9c0,1.3-6.5,4.3-6.5,4.3s0.9,9.5-0.9,39.3
				c-1.7,29.8-35.4,31.1-35.4,31.1l196.3-2.6C192.8,444.1,188.5,434.2,185.9,433.8z"/>
			<path class="st0" d="M456,449c0,0,21.1,1.6,22-10.4c0.9-12,0-27.3,0-27.3s-0.2-9.1,1.3-11.6c1.5-2.5,7.9-7.2,7.9-7.2
				s5.5-4.3,4.9-7.4c-0.6-3.1,2.2-28,2.2-28l7.2-3.3c0,0-0.5,6,0.3,7.8c0.7,1.8,4.2-4,4.2-4l3.9,0.3c0,0-2.6,5-2.8,8.4
				c-0.3,3.4,0.9,22.1,0.9,22.1s6.2-2.1,8.4,2.8s5.2,10.8,8.3,10.2c3.1-0.6,6.8-3.4,8.3-1.1c1.6,2.3-1.1,8.6-1.5,13.7
				c-0.4,5.2,3.2,20.6,4.8,21.6c1.7,1,10.6,2.6,11.2,6.5c0.6,3.9,0.2,13.9,0.2,13.9L456,449z"/>
			<path class="st0" d="M752.7,388.2c-0.7-5.3,0.7-7.9-0.2-9.9c-0.9-2-7.1-1.6-7.7,1.3c-0.6,2.9-7.2-2-7-6.1
				c0.1-4.1-7.5-1.6-9.1-1.4c-1.6,0.1,0.8,13.1,0.6,16.4c-0.2,3.3-6.2,0.8-8.2,0.5c-2-0.3-3.7-9.6-3.9-12.9c-0.2-3.3-0.5-21-1-23.4
				c-0.5-2.4-4.1-3-6.2-4.9c-2.1-1.9,1-47.4,0.8-52c-0.3-4.5,0.8-12-0.9-14.4c-1.7-2.4-2.5-8.9-2.5-8.9s-9.1,5.1-9.3,1.4
				c-0.2-3.7-0.7-17.3-1.8-17.2c-1.2,0.1-9.2,2.3-10.7,4c-1.5,1.7-9.1,11.7-8.9,13.8c0.1,2.1,5,50.3,5.6,53.2
				c0.6,2.8-6.8,11.2-7.5,12.4c-0.7,1.3-1,9.5,0.4,12.3c1.3,2.8,1.7,8.9-1.7,10.8c-3.4,1.9-4.8-7.5-4.8-7.5s-1.4-23-1.1-24.6
				c0.3-1.7-2.6-10.5-2.3-11.8c0.3-1.3,1.5-7.9,0.3-8.7c-1.2-0.7-4.3,0.7-6.2,1.2c-1.9,0.5-3.6-7.6-3.5-13.4c0-5.8-1-9.4-1-9.4
				s-11-0.1-11.2,2.8c-0.2,2.9-6.4,10.7-8.4,10.4c-2-0.3-1,8.7-1,8.7l0.8,26.3c0,0-4.1-3.8-5.8-5c-1.6-1.1-7.4,0.1-8.9,1
				c-1.5,0.9,0.5,8.2,0.6,16.4c0.1,8.2-10.1,13.5-12.3,16.5c-2.2,3-5.3,8.6-6.4,10.3c-1.1,1.7-3.9,0.7-6.2,0.4
				c-2.4-0.3-5.1,0.3-5.1,0.3s3.4,24.1,1.4,23.8c-2-0.3-6-2.9-8-3.2c-2-0.3-5.4,1.2-5.2,4.1c0.2,2.9,0.8,19.3-3.1,25.7
				c-3.9,6.4-22.7,12.6-22.7,12.6h206C759.3,440.7,753.4,393.5,752.7,388.2z"/>
		</g>
		<g>
			<path class="st1" d="M210.2,420.1c41.7-9.8,106.7,9,127.6,14.6c21,5.7,47.9,9.6,79.1,2.8c58.1-12.6,105.8-13.1,148.7-10.1
				c71.4,5,98-18.5,129.5-26.9c31.4-8.4,70.7-9.2,95.3-9.9v144.2H-14.6V390.1C64.4,375.8,89.2,448.5,210.2,420.1z"/>
			<path class="st1" d="M397.1,442.2c0.5-2.2-0.3-4.3-1.1-6.5c0.5,0.7,1,1.4,1.4,2.1c0.4,0.7,0.8,1.5,1.3,2.2c-0.1-1-0.2-2-0.4-3
				c-0.2-1-0.5-2.1-0.7-3.1c0.1,0,0.1,0,0.2,0c0.8,1.9,1.6,3.9,2.3,5.7c0.7-1.7,1.5-3.5,2.2-5.4c0,0,0.1,0,0.1,0
				c-0.4,2.1-0.8,4.1-1.1,6.2c0.1,0,0.2,0,0.3,0.1c1.1-2.6,3.2-4.8,6.3-6.4c-2.3,2.1-4.2,4.3-4.8,7c0.4-0.6,0.7-1.2,1.1-1.8
				c0.4-0.6,0.9-1.2,1.5-1.7c-0.5,0.9-0.9,1.9-1.4,2.8c0.1,0,0.1,0,0.2,0c0.3-0.5,0.6-1,1-1.4c0.4-0.5,0.9-0.9,1.4-1.4
				c0.5-0.4,1.1-0.8,1.8-1.2c-2,2-3.8,4.1-3.4,6.8c-3.7-0.1-7.4-0.2-11.2-0.3c0.4-2.1-0.1-4.1-1-6c1.2,1.6,1.9,3.4,2.4,5.1
				c0.3-1.5-0.3-2.9-0.8-4.4C395.9,439,396.7,440.6,397.1,442.2z"/>
			<path class="st1" d="M529.3,426.1c0.5-2.2-0.3-4.3-1.2-6.4c0.5,0.7,1.1,1.4,1.5,2.1c0.5,0.7,0.9,1.5,1.5,2.2c-0.1-1-0.2-2-0.5-3
				c-0.2-1-0.5-2-0.8-3c0.1,0,0.1,0,0.2,0c0.9,1.9,1.7,3.8,2.5,5.6c0.8-1.7,1.6-3.5,2.5-5.3c0,0,0.1,0,0.1,0c-0.4,2-0.8,4-1.3,6
				c0.1,0,0.2,0,0.3,0.1c1.2-2.6,3.5-4.7,7-6.3c-2.5,2.1-4.7,4.2-5.3,6.8c0.4-0.6,0.8-1.2,1.2-1.7c0.5-0.6,1-1.1,1.6-1.7
				c-0.5,0.9-1,1.8-1.6,2.7c0.1,0,0.1,0,0.2,0c0.4-0.5,0.7-1,1.2-1.4c0.5-0.5,1-0.9,1.6-1.3c0.6-0.4,1.2-0.8,2-1.1
				c-2.2,2-4.2,4-3.8,6.6c-4.1-0.1-8.2-0.2-12.4-0.3c0.4-2-0.1-4-1.1-5.9c1.3,1.6,2.1,3.3,2.7,5c0.3-1.5-0.3-2.9-0.9-4.3
				C527.9,423.1,528.8,424.6,529.3,426.1z"/>
			<path class="st1" d="M570.7,428.8c0.4-1.5-0.2-2.9-0.8-4.4c0.4,0.5,0.7,0.9,1.1,1.4c0.3,0.5,0.6,1,1,1.5
				c-0.1-0.7-0.2-1.4-0.3-2.1c-0.1-0.7-0.4-1.4-0.6-2.1c0,0,0.1,0,0.1,0c0.6,1.3,1.2,2.6,1.7,3.8c0.5-1.1,1.1-2.4,1.7-3.6
				c0,0,0.1,0,0.1,0c-0.3,1.4-0.6,2.8-0.9,4.2c0.1,0,0.1,0,0.2,0c0.8-1.8,2.4-3.2,4.8-4.3c-1.7,1.4-3.2,2.9-3.6,4.7
				c0.3-0.4,0.5-0.8,0.8-1.2c0.3-0.4,0.7-0.8,1.1-1.2c-0.4,0.6-0.7,1.3-1.1,1.9c0,0,0.1,0,0.1,0c0.3-0.3,0.5-0.7,0.8-1
				c0.3-0.3,0.7-0.6,1.1-0.9c0.4-0.3,0.9-0.5,1.4-0.8c-1.5,1.4-2.9,2.8-2.6,4.6c-2.8-0.1-5.6-0.1-8.5-0.2c0.3-1.4-0.1-2.7-0.7-4.1
				c0.9,1.1,1.5,2.3,1.9,3.5c0.2-1-0.2-2-0.6-2.9C569.8,426.7,570.5,427.7,570.7,428.8z"/>
			<path class="st1" d="M360.7,440.3c0.3-1.3-0.2-2.5-0.7-3.7c0.3,0.4,0.6,0.8,0.9,1.2c0.3,0.4,0.5,0.9,0.9,1.3
				c-0.1-0.6-0.1-1.2-0.3-1.8c-0.1-0.6-0.3-1.2-0.5-1.8c0,0,0.1,0,0.1,0c0.5,1.1,1,2.2,1.5,3.3c0.5-1,0.9-2,1.4-3.1c0,0,0.1,0,0.1,0
				c-0.2,1.2-0.5,2.4-0.7,3.6c0.1,0,0.1,0,0.2,0c0.7-1.5,2.1-2.7,4.1-3.7c-1.5,1.2-2.7,2.5-3.1,4c0.2-0.3,0.4-0.7,0.7-1
				c0.3-0.3,0.6-0.7,0.9-1c-0.3,0.5-0.6,1.1-0.9,1.6c0,0,0.1,0,0.1,0c0.2-0.3,0.4-0.6,0.7-0.8c0.3-0.3,0.6-0.5,0.9-0.8
				c0.3-0.2,0.7-0.5,1.2-0.7c-1.3,1.2-2.5,2.4-2.2,3.9c-2.4-0.1-4.8-0.1-7.3-0.2c0.3-1.2-0.1-2.3-0.6-3.5c0.8,0.9,1.2,1.9,1.6,3
				c0.2-0.9-0.2-1.7-0.5-2.5C359.9,438.5,360.5,439.4,360.7,440.3z"/>
			<path class="st1" d="M46.2,397.4c1.1-2,0.5-4.3-0.2-6.7c0.5,0.8,1,1.7,1.5,2.5c0.4,0.8,0.8,1.7,1.4,2.6c0-1,0.1-2.1,0.1-3.1
				c-0.1-1.1-0.2-2.2-0.4-3.2c0.1,0,0.2,0,0.3,0c0.7,2.1,1.4,4.3,2,6.2c1.3-1.5,2.7-3,4.2-4.6c0.1,0,0.1,0,0.2,0.1
				c-0.9,1.9-1.9,3.8-2.8,5.7c0.1,0,0.2,0.1,0.4,0.1c2-2.2,5.4-3.7,10.1-4.4c-3.6,1.4-6.7,3-8,5.4c0.6-0.5,1.2-1,1.9-1.4
				c0.7-0.5,1.5-0.9,2.4-1.3c-0.8,0.8-1.7,1.5-2.5,2.3c0.1,0,0.1,0.1,0.2,0.1c0.6-0.4,1.1-0.8,1.7-1.1c0.7-0.3,1.4-0.7,2.2-0.9
				c0.8-0.3,1.7-0.5,2.7-0.6c-3.2,1.4-6.1,2.9-6.1,5.6c-5.1-1.2-10.2-2.4-15.3-3.6c1-1.9,0.7-4-0.1-6.2c1.3,2,1.9,3.9,2.3,5.7
				c0.7-1.4,0.2-2.9-0.2-4.5C45.2,394,46,395.7,46.2,397.4z"/>
			<path class="st1" d="M48.1,398.4c0.1-2.2,1.1-4.2,2.2-6.2c-0.5,0.6-1,1.2-1.5,1.9c-0.5,0.6-0.9,1.3-1.5,2c0.3-1,0.6-2,0.9-2.9
				c0.4-1,0.8-1.9,1.2-2.9c0,0-0.1,0-0.1-0.1c-1,1.8-2,3.5-2.9,5.2c-0.2-1.8-0.3-3.7-0.5-5.6c0,0-0.1,0-0.1,0
				c-0.1,2.1-0.3,4.1-0.4,6.2c-0.1,0-0.1,0-0.2,0c-0.3-2.7-1.3-5.1-3.4-7.3c1.2,2.4,2.2,4.9,2.1,7.6c-0.1-0.6-0.3-1.3-0.4-1.9
				c-0.2-0.6-0.4-1.3-0.7-1.9c0.2,1,0.3,2,0.5,3c0,0-0.1,0-0.1,0c-0.2-0.5-0.3-1.1-0.5-1.6c-0.2-0.5-0.5-1.1-0.8-1.6
				c-0.3-0.5-0.7-1-1.1-1.4c1,2.3,1.9,4.6,1.1,7.2c2.8,0.5,5.5,1,8.3,1.4c0.1-2.1,0.9-4,2-5.7c-1.2,1.4-2.1,3-2.9,4.6
				c0.1-1.5,0.8-2.8,1.5-4.2C49.6,395.5,48.7,396.9,48.1,398.4z"/>
			<path class="st1" d="M408.1,418.3c-0.5-0.3-2.1,0.2-2.5,0.9c-0.4,0.6-0.5,1.3-0.3,3.9c0.2,2.6,0.5,7.1,0,8.8
				c-0.5,1.7-2.7,1.4-2.7,1.4s1.2-25.1,1.2-27.5c0-2.4-0.5-4.7-1.6-4.5c-1.1,0.3-3.5,2.5-3.8,3.7c-0.3,1.2-0.3,4.9-0.1,7.9
				c0.2,3.1,0.8,17,0.8,17s-2.3-0.4-2.8-1c-0.3-0.4-0.8-1-0.5-2.8c0.3-1.7,0.8-6.7,0.8-8c0-1.2-0.9-3.5-2.1-3.2
				c-1.2,0.3-2.1,1.5-2.2,3.2c-0.1,1.7,0.4,9.2,0.8,10.3c0.5,1.5,2.4,2.4,5.9,2.6l0.6,14.8l2.4,0l0.7-11.5c5.6,0,6.1-6.9,6.4-10.2
				C409.4,421,408.6,418.6,408.1,418.3z"/>
			<path class="st1" d="M42.2,364.8c1,0.3,2.2,3.4,2,4.8c-0.2,1.4-0.3,8.6,0,10c0.3,1.4,2.2,1.9,2.2,1.9s-0.6-13.7-0.4-17
				c0.1-3.7,3.6-5.5,5.2-4.9c1.6,0.6,3.8,2.8,3.7,6.6c-0.1,3.9-1.2,22.7-1.2,22.7c1.4-0.3,2.9-1.7,2.9-2.7s-0.4-6.9-0.4-9.9
				c0-3.1,1.7-4.6,2.5-4.2c0.9,0.4,2.1,1.8,2.1,4.1c0,2.3-1,10.1-2.4,12.5c-1.5,2.4-5.1,2.6-5.1,2.6l-1.2,12.9h-4.5l-1-20.8
				c-2.1-0.4-4.7-1.8-5.4-3.7c-0.7-1.9-1.1-7.3-1.5-10.5C39.1,365.9,41.2,364.5,42.2,364.8z"/>
			<path class="st1" d="M569,406.9c0.6,0.2,1.3,2,1.2,2.8c-0.1,0.8-0.2,5,0,5.8c0.2,0.8,1.3,1.1,1.3,1.1s-0.3-8-0.3-9.9
				c0.1-2.1,2.1-3.2,3-2.8c0.9,0.4,2.2,1.6,2.1,3.8c-0.1,2.2-0.7,13.2-0.7,13.2c0.8-0.2,1.7-1,1.7-1.6c0-0.6-0.3-4-0.3-5.8
				c0-1.8,1-2.7,1.5-2.4c0.5,0.2,1.2,1.1,1.2,2.4c0,1.3-0.6,5.9-1.4,7.2c-0.9,1.4-2.9,1.5-2.9,1.5l-0.7,7.5H572l-0.6-12.1
				c-1.2-0.2-2.7-1.1-3.1-2.1c-0.4-1.1-0.7-4.2-0.9-6.1C567.2,407.6,568.5,406.7,569,406.9z"/>
			<path class="st1" d="M316.5,429c-0.5,2.7-5,4.1-10.1,3.2s-8.8-3.9-8.3-6.6c0.5-2.7,5-4.1,10.1-3.2
				C313.3,423.3,317,426.3,316.5,429z"/>
			<path class="st1" d="M140.6,425.6c-0.2,1.5-3.9,2.4-8.4,1.9c-4.5-0.5-8-2.1-7.9-3.6c0.2-1.5,3.9-2.4,8.4-1.9
				C137.2,422.5,140.8,424.1,140.6,425.6z"/>
			<path class="st1" d="M78.4,408.3c-0.7,2.1-5,2.5-9.4,0.9c-4.5-1.6-7.5-4.6-6.8-6.6c0.7-2.1,5-2.5,9.4-0.9
				C76.1,403.2,79.2,406.2,78.4,408.3z"/>
			<path class="st1" d="M86.1,411.5c-0.4,1.2-2.8,1.4-5.4,0.5c-2.5-0.9-4.3-2.6-3.8-3.8c0.4-1.2,2.8-1.4,5.4-0.5
				C84.8,408.7,86.5,410.4,86.1,411.5z"/>
			<path class="st1" d="M147,426.7c-0.1,1.1-2,1.8-4.2,1.6c-2.2-0.2-3.9-1.2-3.9-2.2c0.1-1.1,2-1.8,4.2-1.6
				C145.4,424.6,147.1,425.7,147,426.7z"/>
			<path class="st1" d="M156.9,427.2c0.1,1.1-1.4,2-3.3,2.1c-1.9,0.1-3.5-0.7-3.5-1.7c-0.1-1.1,1.4-2,3.3-2.1
				C155.3,425.4,156.8,426.1,156.9,427.2z"/>
			<path class="st1" d="M323.5,430.5c-0.4,1.2-2.6,1.7-4.9,0.9c-2.3-0.7-3.9-2.3-3.5-3.5c0.4-1.2,2.6-1.7,4.9-0.9
				C322.3,427.7,323.9,429.2,323.5,430.5z"/>
			<path class="st1" d="M297.4,424.6c-0.2,1.1-2.6,1.7-5.4,1.3c-2.8-0.4-5-1.6-4.9-2.7c0.2-1.1,2.6-1.7,5.4-1.3
				C295.4,422.3,297.6,423.5,297.4,424.6z"/>
			<path class="st1" d="M375.2,441.1c-0.1,1.1-1.8,1.9-3.9,1.8s-3.7-1.2-3.6-2.3c0.1-1.1,1.8-1.9,3.9-1.8
				C373.6,438.9,375.2,439.9,375.2,441.1z"/>
			<path class="st1" d="M515.3,425.2c0.2,3.1-4.5,5.8-10.6,6.2c-6,0.4-11.1-1.8-11.3-4.8c-0.2-3.1,4.5-5.8,10.6-6.2
				C510.1,420,515.1,422.2,515.3,425.2z"/>
			<path class="st1" d="M495,427c0.1,1.4-2.2,2.7-5,2.9c-2.9,0.2-5.3-0.8-5.4-2.2c-0.1-1.4,2.2-2.7,5-2.9
				C492.5,424.6,494.9,425.6,495,427z"/>
			
				<ellipse transform="matrix(1.923714e-02 -0.9998 0.9998 1.923714e-02 121.8344 978.3047)" class="st1" cx="559.6" cy="427.1" rx="3.2" ry="6.4"/>
			<path class="st1" d="M552.8,427c0,1.1-1.9,2-4.2,2c-2.3,0-4.1-1-4.1-2.1c0-1.1,1.9-2,4.2-2C551,424.9,552.8,425.8,552.8,427z"/>
			<path class="st1" d="M519,426c0,1.1-1.2,2-2.7,2c-1.5,0-2.6-1-2.6-2.1c0-1.1,1.2-2,2.7-2C517.9,423.9,519,424.9,519,426z"/>
			<path class="st1" d="M381.5,441.4c0,0.8-1.2,1.3-2.6,1.2c-1.4-0.1-2.5-0.8-2.4-1.5c0-0.8,1.2-1.3,2.6-1.2
				C380.4,440,381.5,440.7,381.5,441.4z"/>
		</g>
		<g>
			<path class="st2" d="M779.5,422.6c0,0-63.1-5.7-89.6,14.8c-26.5,20.5-79.3,32.5-104.2,34.2c-86,5.9-100.8-6.4-121.1-12.9
				c-23.2-7.5-67.3-13.2-114.9-9.8c-47.5,3.4-55.6,23.3-157,4.5c-32-5.9-80.9-23.8-108.7-27.3c-42.5-5.4-83.2,4.6-102.3,18.2v87.4
				h797.7V422.6z"/>
			<path class="st2" d="M88.7,417.9c2.4,3.1,4.4,6.2,4.6,9.5c-0.8-1.7-1.6-3.3-2.4-4.9c-0.1,0-0.1,0-0.2,0c0.4,1.2,0.8,2.3,1.2,3.5
				c-0.1,0-0.2,0-0.2,0c-0.4-0.7-0.6-1.3-1.1-2c-0.5-0.7-1-1.4-1.6-2c-0.6-0.6-1.2-1.2-1.9-1.8c1.3,1.8,2.5,3.7,3,5.6
				c-0.2-0.3-0.4-0.5-0.6-0.7c0.2,1.1,0.4,2.2,0.6,3.3c-0.1,0-0.2,0-0.2,0c-0.4-1.3-0.7-2.6-1.1-4c0,0,0,0-0.1,0
				c0,1.5,0.1,3,0.1,4.5c5.5,0.9,11.1,1.8,16.6,2.7c0.5-1.4,0.9-2.7,1.4-4c0,0,0,0-0.1,0c-0.7,1.1-1.4,2.2-2.2,3.2
				c-0.1,0-0.1,0-0.2-0.1c0.5-1,1.1-2,1.6-3.1c-0.6,0.5-1.1,0.9-1.6,1.4c-0.1,0-0.2-0.1-0.2-0.1c0.7-1.4,1.4-2.8,2-4.2
				c0,0,0,0-0.1,0c-0.5,0.6-1,1.2-1.5,1.7c-0.5,0.6-0.9,1.3-1.3,1.9c-0.4,0.6-0.7,1.3-1.1,2c0-1.9,0.9-3.5,2-5.1
				c-0.1,0-0.2-0.1-0.3-0.1c-1.2,1.5-2.3,3-3.4,4.4c0.1-2.4,1.4-4.7,2.9-6.8c-0.1,0-0.2-0.1-0.3-0.1c-1.3,1.6-2.7,3.2-4.1,4.8
				c0.4-2.5,1.4-4.9,2.4-7.2c-0.5,0.7-1,1.3-1.5,2c-0.5,0.7-0.9,1.4-1.4,2.2c-0.4,0.7-0.8,1.5-1.1,2.2c-0.6-2.5-1.2-5-1.8-7.5
				c-0.1,0-0.2,0-0.3,0c0.4,2.6,0.6,5.2,0.1,7.9C93.2,422.1,91.5,419.7,88.7,417.9z"/>
			<path class="st2" d="M44.1,419.6c-2.1,1.9-3.8,3.7-4.1,5.7c0.7-1,1.4-2,2.1-2.9c0.1,0,0.1,0,0.2,0c-0.4,0.7-0.7,1.4-1.1,2.1
				c0.1,0,0.1,0,0.2,0c0.3-0.4,0.6-0.8,0.9-1.2c0.4-0.4,0.9-0.8,1.4-1.2c0.5-0.4,1-0.8,1.6-1.1c-1.1,1.1-2.2,2.2-2.6,3.3
				c0.2-0.2,0.4-0.3,0.5-0.5c-0.2,0.6-0.4,1.3-0.6,1.9c0.1,0,0.1,0,0.2,0c0.3-0.8,0.7-1.5,1-2.3c0,0,0,0,0,0
				c-0.1,0.9-0.2,1.7-0.3,2.6c-4.5,0.8-9.1,1.6-13.7,2.3c-0.3-0.8-0.7-1.5-1-2.2c0,0,0,0,0.1,0c0.6,0.6,1.1,1.2,1.7,1.8
				c0.1,0,0.1,0,0.2,0c-0.4-0.6-0.8-1.1-1.2-1.7c0.4,0.2,0.9,0.5,1.3,0.7c0.1,0,0.1,0,0.2-0.1c-0.5-0.8-1-1.5-1.5-2.3c0,0,0,0,0.1,0
				c0.4,0.3,0.8,0.6,1.1,0.9c0.4,0.3,0.7,0.7,1,1c0.3,0.4,0.5,0.7,0.8,1.1c0.1-1.1-0.6-2-1.4-2.8c0.1,0,0.2-0.1,0.3-0.1
				c0.9,0.8,1.8,1.6,2.6,2.4c0-1.4-0.9-2.6-2.1-3.8c0.1,0,0.2-0.1,0.2-0.1c1,0.8,2.1,1.7,3.2,2.5c-0.2-1.4-1-2.7-1.7-4
				c0.4,0.4,0.8,0.7,1.1,1.1c0.4,0.4,0.7,0.8,1,1.2c0.3,0.4,0.6,0.8,0.8,1.2c0.6-1.4,1.1-2.9,1.7-4.3c0.1,0,0.2,0,0.3,0
				c-0.4,1.5-0.7,3-0.4,4.5C40.3,422.2,41.8,420.8,44.1,419.6z"/>
			<path class="st2" d="M366.5,439.2c-3.5,2.5-6.3,5.1-7.1,8c1.2-1.4,2.5-2.8,3.7-4.1c0.1,0,0.2,0,0.2,0c-0.7,1-1.3,2-2,3
				c0.1,0,0.2,0,0.3,0c0.5-0.5,1-1.1,1.6-1.6c0.7-0.6,1.4-1.1,2.3-1.7c0.8-0.5,1.7-1,2.7-1.4c-1.9,1.5-3.7,3-4.5,4.7
				c0.3-0.2,0.6-0.4,0.8-0.6c-0.4,0.9-0.8,1.9-1.2,2.8c0.1,0,0.2,0,0.3,0c0.7-1.1,1.3-2.2,2-3.3c0,0,0,0,0.1,0
				c-0.3,1.3-0.5,2.6-0.8,3.9c-6.9,0.5-14.1,0.9-21.1,1.4c-0.4-1.2-0.8-2.4-1.1-3.6c0,0,0.1,0,0.1,0c0.7,1,1.5,2,2.2,2.9
				c0.1,0,0.2,0,0.3,0c-0.5-0.9-1-1.8-1.6-2.8c0.6,0.4,1.2,0.9,1.8,1.3c0.1,0,0.2,0,0.3-0.1c-0.6-1.3-1.3-2.5-1.9-3.8
				c0,0,0.1,0,0.1,0c0.5,0.5,1.1,1.1,1.6,1.6c0.5,0.6,0.9,1.1,1.3,1.7c0.4,0.6,0.7,1.2,1.1,1.8c0.3-1.6-0.6-3.1-1.7-4.6
				c0.1,0,0.3-0.1,0.4-0.1c1.2,1.4,2.4,2.7,3.6,4c0.2-2.1-1-4.1-2.6-6.1c0.1,0,0.2-0.1,0.4-0.1c1.5,1.4,2.9,2.9,4.4,4.4
				c-0.1-2.2-1-4.3-1.9-6.4c0.5,0.6,1.1,1.2,1.6,1.8c0.5,0.6,1,1.3,1.4,2c0.4,0.7,0.7,1.3,1.1,2c1.1-2.1,2.2-4.2,3.3-6.3
				c0.1,0,0.3,0,0.4,0c-0.9,2.2-1.6,4.5-1.3,6.8C360.3,442.5,362.8,440.6,366.5,439.2z"/>
			<path class="st2" d="M696,436.3c1-4.9-0.6-8.8-2.3-12.8c1,1.2,2,2.3,2.9,3.5c0.9,1.3,1.6,2.6,2.8,3.8c-0.3-2-0.5-4.1-0.9-6.1
				c-0.4-2-1-4-1.5-5.9c0.1-0.1,0.3-0.1,0.4-0.2c1.6,3.5,3.3,7.1,4.8,10.4c1.4-3.9,3-8.3,4.6-12.6c0.1,0,0.2,0,0.3,0
				c-0.8,4.5-1.6,9-2.4,13.5c0.2,0,0.4,0,0.6,0c2.2-6.1,6.6-11.8,13.2-17.2c-4.7,5.8-8.8,11.5-9.9,17.4c0.7-1.5,1.4-2.9,2.3-4.4
				c0.9-1.5,1.9-3,3-4.5c-1,2.2-1.9,4.5-2.9,6.7c0.1,0,0.2,0,0.3,0c0.7-1.2,1.3-2.4,2.2-3.6c0.9-1.2,1.8-2.5,2.9-3.7
				c1.1-1.2,2.3-2.4,3.7-3.5c-4.1,5.5-7.8,10.9-7.1,16.2c-7.7,2.1-15.4,4.2-23.2,6.3c0.8-4.6-0.3-8.4-2-11.9c2.5,2.7,4,5.8,5.1,9.1
				c0.5-3.3-0.6-5.9-1.7-8.6C693.6,430.5,695.2,433.2,696,436.3z"/>
			<path class="st2" d="M529.4,474.3c0.9-3.9-0.5-7.6-2.1-11.4c0.9,1.2,1.9,2.5,2.7,3.7c0.8,1.3,1.5,2.6,2.6,3.9
				c-0.3-1.8-0.4-3.6-0.8-5.3c-0.4-1.8-0.9-3.6-1.4-5.4c0.1,0,0.2,0,0.4-0.1c1.5,3.4,3,6.8,4.4,10c1.3-3,2.8-6.2,4.3-9.5
				c0.1,0,0.2,0,0.2,0.1c-0.7,3.6-1.5,7.2-2.2,10.8c0.2,0,0.4,0.1,0.5,0.1c2.1-4.6,6.1-8.3,12.2-11.2c-4.4,3.7-8.1,7.5-9.1,12.2
				c0.7-1,1.3-2.1,2.1-3.1c0.8-1,1.8-2,2.8-3c-0.9,1.6-1.8,3.3-2.7,4.9c0.1,0,0.2,0,0.3,0.1c0.7-0.8,1.2-1.7,2-2.5
				c0.8-0.8,1.7-1.6,2.7-2.4c1-0.7,2.2-1.4,3.4-2c-3.8,3.6-7.3,7.2-6.6,11.9c-7.1-0.2-14.2-0.4-21.5-0.6c0.8-3.6-0.2-7.1-1.9-10.6
				c2.3,2.9,3.7,5.9,4.7,9c0.5-2.6-0.5-5.1-1.6-7.7C527.1,468.7,528.6,471.4,529.4,474.3z"/>
			<path class="st2" d="M105.3,400.9c-0.6-0.3-2.6,0.3-3.1,1.1c-0.5,0.8-0.6,1.6-0.3,4.8c0.2,3.2,0.6,8.8,0,11
				c-0.6,2.1-3.3,1.7-3.3,1.7s1.4-31.2,1.4-34.1c0-2.9-0.6-5.8-2.1-5.5c-1.4,0.3-4.3,3.1-4.7,4.7c-0.3,1.5-0.3,6.1-0.1,9.9
				c0.2,3.8,1.1,21.1,1.1,21.1s-2.9-0.5-3.5-1.2c-0.4-0.5-1-1.3-0.6-3.5s1-8.4,1-9.9c0-1.5-1.1-4.3-2.6-4c-1.5,0.3-2.6,1.8-2.7,4
				c-0.1,2.2,0.6,11.4,1.1,12.8c0.6,1.8,3,3,7.4,3.2l0.8,18.4h2.9l0.9-14.3c6.9,0,7.6-8.6,7.9-12.7
				C106.9,404.3,105.9,401.2,105.3,400.9z"/>
			<path class="st2" d="M525.1,415.4c1.5,0.5,3.4,5.3,3.1,7.5c-0.3,2.2-0.4,13.4,0,15.6c0.4,2.2,3.4,2.9,3.4,2.9s-0.9-21.3-0.7-26.5
				c0.2-5.7,5.6-8.6,8-7.6c2.4,1,5.8,4.3,5.7,10.3c-0.1,6-1.9,35.3-1.9,35.3c2.2-0.5,4.5-2.6,4.5-4.2c0-1.6-0.7-10.7-0.7-15.5
				c0-4.8,2.6-7.1,3.9-6.5c1.4,0.6,3.3,2.8,3.3,6.4c0,3.6-1.5,15.7-3.8,19.4c-2.3,3.7-7.9,4-7.9,4l-1.9,20.1h-7.1l-1.5-32.4
				c-3.3-0.6-7.3-2.8-8.4-5.8c-1.1-2.9-1.8-11.3-2.3-16.3C520.3,417.1,523.6,414.9,525.1,415.4z"/>
			<path class="st2" d="M713.7,389.1c-1.6-0.1-3.4,1.5-3.2,3.8c0.1,2.3,0,10.3,0.1,14c0.1,3.7-3.1,2.1-3.1,0.5
				c0-1.6-0.4-17.7,0.3-23c0.7-5.3,0.6-7.9-0.6-8.1c-1.1-0.2-3.8,0.9-3.8,4.8c0,3.9,0.4,17.2,0.6,20.7c0.1,3.4-0.4,3.9-1.4,3.9
				c-1,0-1.3-1.7-1.3-5.3s0.1-35.3,0.3-38.1c0.1-2.8-1.3-5.1-2.4-5.1s-2.3,2-2.1,5.5c0.1,3.6,1.8,36.4,2,42.1
				c0.1,5.7-1.6,5.5-2.4,5.5c-0.8,0-0.8-1.5-1-3.4c-0.2-2-0.1-17.1,0.1-19.9c0.3-2.8-0.6-4.7-2.5-4.2c-2,0.5-2.1,2.5-2,7.9
				c0.1,5.4,1.2,21.2,2.4,22.3c1.2,1,4.8,1,5.6,2.8c0.8,1.8,0.4,22.5,0.4,22.5l5.4-0.1c0,0,0.7-24.3,0.7-25.2c0-0.9,2.8-0.8,5.5-1.1
				c2.7-0.4,2.9-6.6,3.4-11.5C715.2,395.2,715.2,389.3,713.7,389.1z"/>
			
				<ellipse transform="matrix(6.189647e-02 -0.9981 0.9981 6.189647e-02 -356.6544 473.6693)" class="st2" cx="73.6" cy="426.6" rx="6.3" ry="11.9"/>
			<path class="st2" d="M64,425.4c0.2,2.2-1.9,4.1-4.6,4.3c-2.7,0.2-5.1-1.4-5.2-3.5c-0.2-2.2,1.9-4.1,4.6-4.3
				C61.5,421.7,63.8,423.3,64,425.4z"/>
			<path class="st2" d="M147.7,442.1c-0.6,2.1-8.2,1.8-17-0.6c-8.8-2.4-15.5-6-15-8.1s8.2-1.8,17,0.6
				C141.6,436.4,148.3,440.1,147.7,442.1z"/>
			<path class="st2" d="M398.6,448.8c0,2.9-6.1,5-13.6,4.9c-7.5-0.2-13.5-2.6-13.4-5.5c0-2.9,6.1-5,13.6-4.9
				C392.6,443.5,398.6,445.9,398.6,448.8z"/>
			<path class="st2" d="M413.5,449.7c-0.1,1.3-3,2.1-6.4,1.7c-3.5-0.4-6.2-1.8-6.1-3.1c0.1-1.3,3-2.1,6.4-1.7
				C410.9,447,413.6,448.4,413.5,449.7z"/>
			<path class="st2" d="M418,450.7c-0.1,1.1-1.5,1.9-3.1,1.7c-1.6-0.2-2.8-1.3-2.7-2.4s1.5-1.9,3.1-1.7
				C416.9,448.5,418.1,449.5,418,450.7z"/>
			<path class="st2" d="M593.8,472.5c0.2,5-7,9.2-16,9.5c-9,0.3-16.4-3.5-16.5-8.5c-0.2-5,7-9.2,16-9.5
				C586.2,463.7,593.6,467.5,593.8,472.5z"/>
			<ellipse class="st2" cx="558.4" cy="474.1" rx="6.2" ry="4.4"/>
			<path class="st2" d="M672.9,450.9c0.8,2.7-3,6.2-8.6,7.8c-5.5,1.6-10.6,0.7-11.4-1.9c-0.8-2.7,3-6.2,8.6-7.8
				C667,447.3,672.1,448.2,672.9,450.9z"/>
			<path class="st2" d="M680.1,445.7c0.5,1.8-2,4.1-5.8,5.2c-3.7,1.1-7.1,0.5-7.7-1.3c-0.5-1.8,2-4.1,5.8-5.2
				C676.1,443.3,679.5,443.9,680.1,445.7z"/>
			<path class="st2" d="M650.2,459.2c0.5,1.6-1.8,3.6-5.1,4.6c-3.3,1-6.3,0.5-6.7-1.1c-0.5-1.6,1.8-3.6,5.1-4.6
				C646.7,457.1,649.8,457.6,650.2,459.2z"/>
		</g>
		<g>
			<path class="st3" d="M711,445.3c-45.9,3.8-137.6,28.4-173.2,32.3c-35.6,3.8-98.3-7.7-153.5-20c-55.2-12.3-119.8-3.8-173.2,10.8
				c-53.4,14.6-155.4,10.8-180.6,0.8c-25.3-10-52.4-10.8-52.4-10.8l2.8,64.5h796.5v-73C777.5,449.9,756.9,441.5,711,445.3z"/>
			<path class="st3" d="M260.8,443.8c-4.3,5.4-7.7,11-8.3,17.1c1.5-3,2.9-5.9,4.3-8.9c0.1,0,0.2,0,0.3,0.1c-0.7,2.1-1.4,4.2-2.2,6.4
				c0.1,0,0.3,0,0.4,0.1c0.6-1.2,1.2-2.4,1.9-3.5c0.8-1.2,1.7-2.4,2.8-3.6c1-1.1,2.1-2.1,3.4-3.1c-2.3,3.3-4.4,6.5-5.3,10.1
				c0.4-0.5,0.7-0.9,1-1.3c-0.4,2-0.7,4-1.1,6c0.1,0,0.3,0,0.4,0c0.7-2.4,1.4-4.8,2.1-7.2c0,0,0.1,0,0.1,0c-0.1,2.8-0.3,5.5-0.5,8.4
				c-9.2,1.1-18.7,2.1-28,3.2c-0.7-2.6-1.4-5.1-2.1-7.6c0,0,0.1-0.1,0.1-0.1c1.1,2.1,2.3,4.2,3.4,6.2c0.1,0,0.2-0.1,0.4-0.1
				c-0.8-1.9-1.7-3.9-2.6-5.9c0.9,0.9,1.8,1.8,2.7,2.7c0.1,0,0.3-0.1,0.4-0.1c-1.1-2.7-2.1-5.3-3.2-8c0,0,0.1,0,0.1-0.1
				c0.8,1.1,1.6,2.2,2.3,3.4c0.8,1.2,1.4,2.4,2.1,3.7c0.6,1.2,1.1,2.5,1.7,3.8c0.1-3.5-1.3-6.6-3-9.7c0.2-0.1,0.4-0.1,0.6-0.2
				c1.8,2.9,3.7,5.8,5.5,8.6c-0.1-4.5-2-8.8-4.5-13c0.2-0.1,0.3-0.1,0.5-0.2c2.2,3.1,4.3,6.1,6.6,9.3c-0.5-4.7-2.1-9.1-3.6-13.6
				c0.8,1.3,1.6,2.6,2.4,3.9c0.8,1.4,1.5,2.8,2.1,4.2c0.6,1.4,1.2,2.8,1.7,4.2c1.1-4.5,2.3-9.1,3.4-13.6c0.2,0,0.4,0,0.6,0
				c-0.9,4.8-1.4,9.6-0.7,14.6C253,451,256,446.9,260.8,443.8z"/>
			<path class="st3" d="M147.6,465c6.6,4.2,12.1,8.7,14.4,14.5c-2.5-2.5-5-5-7.5-7.5c-0.1,0-0.3,0.1-0.4,0.1
				c1.4,1.9,2.8,3.7,4.3,5.6c-0.2,0.1-0.3,0.1-0.5,0.2c-1.1-1-2-2-3.2-2.9c-1.3-1-2.7-1.9-4.3-2.8c-1.5-0.8-3.1-1.5-4.9-2.1
				c3.6,2.6,7,5.2,9,8.4c-0.6-0.4-1.1-0.7-1.6-1c0.9,1.8,1.9,3.7,2.9,5.6c-0.2,0-0.3,0.1-0.5,0.1c-1.5-2.2-2.9-4.3-4.4-6.5
				c0,0-0.1,0-0.1,0.1c0.9,2.6,1.8,5.3,2.7,8c11.5-1.3,23.3-2.7,34.9-4c0.2-2.7,0.4-5.3,0.6-7.9c-0.1,0-0.1,0-0.2,0
				c-0.9,2.3-1.7,4.6-2.6,6.9c-0.2,0-0.3,0-0.5,0c0.5-2.1,1.1-4.2,1.6-6.4c-0.9,1.2-1.7,2.2-2.6,3.3c-0.2,0-0.4,0-0.5,0
				c0.6-2.9,1.2-5.7,1.8-8.6c0,0-0.1,0-0.1,0c-0.7,1.3-1.4,2.6-2,3.9c-0.6,1.4-1.1,2.7-1.6,4.1c-0.4,1.4-0.7,2.7-1.1,4.1
				c-1-3.3-0.1-6.8,1.2-10.2c-0.2,0-0.5,0-0.7,0c-1.5,3.3-3,6.6-4.5,9.7c-1-4.4,0.2-9,2.2-13.7c-0.2,0-0.4,0-0.6,0
				c-1.9,3.5-3.7,7-5.7,10.7c-0.5-4.7,0.2-9.4,0.9-14.1c-0.6,1.5-1.3,2.9-1.9,4.4c-0.6,1.5-1.1,3.1-1.5,4.6c-0.4,1.5-0.7,3-1.1,4.5
				c-2.5-4.1-5.1-8.2-7.6-12.3c-0.2,0.1-0.4,0.1-0.7,0.2c2.3,4.4,4.1,9,4.6,14C158.8,470.1,154.1,466.8,147.6,465z"/>
			<path class="st3" d="M596.9,448.3c6.6,4.2,12.1,8.7,14.4,14.5c-2.5-2.5-5-5-7.5-7.5c-0.1,0-0.3,0.1-0.4,0.1
				c1.4,1.9,2.8,3.7,4.3,5.6c-0.2,0.1-0.3,0.1-0.5,0.2c-1.1-1-2-2-3.2-2.9c-1.3-1-2.7-1.9-4.3-2.8c-1.5-0.8-3.1-1.5-4.9-2.1
				c3.6,2.6,7,5.2,9,8.4c-0.6-0.4-1.1-0.7-1.6-1c0.9,1.8,1.9,3.7,2.9,5.6c-0.2,0-0.3,0.1-0.5,0.1c-1.5-2.2-2.9-4.3-4.4-6.5
				c0,0-0.1,0-0.1,0.1c0.9,2.6,1.8,5.3,2.7,8c11.5-1.3,23.3-2.7,34.9-4c0.2-2.7,0.4-5.3,0.6-7.9c-0.1,0-0.1,0-0.2,0
				c-0.9,2.3-1.7,4.6-2.6,6.9c-0.2,0-0.3,0-0.5,0c0.5-2.1,1.1-4.2,1.6-6.4c-0.9,1.2-1.7,2.2-2.6,3.3c-0.2,0-0.4,0-0.5,0
				c0.6-2.9,1.2-5.7,1.8-8.6c0,0-0.1,0-0.1,0c-0.7,1.3-1.4,2.6-2,3.9c-0.6,1.4-1.1,2.7-1.6,4.1c-0.4,1.4-0.7,2.7-1.1,4.1
				c-1-3.3-0.1-6.8,1.2-10.2c-0.2,0-0.5,0-0.7,0c-1.5,3.3-3,6.6-4.5,9.7c-1-4.4,0.2-9,2.2-13.7c-0.2,0-0.4,0-0.6,0
				c-1.9,3.5-3.7,7-5.7,10.7c-0.5-4.7,0.2-9.4,0.9-14.1c-0.6,1.5-1.3,2.9-1.9,4.4c-0.6,1.5-1.1,3.1-1.5,4.6c-0.4,1.5-0.7,3-1.1,4.5
				c-2.5-4.1-5.1-8.2-7.6-12.3c-0.2,0.1-0.4,0.1-0.7,0.2c2.3,4.4,4.1,9,4.6,14C608.2,453.4,603.4,450.1,596.9,448.3z"/>
			<path class="st3" d="M268.6,444.6c3.2,2.8,6,5.8,7.2,9.6c-1.3-1.7-2.5-3.3-3.8-5c-0.1,0-0.1,0.1-0.2,0.1c0.7,1.2,1.4,2.5,2.2,3.7
				c-0.1,0-0.2,0.1-0.2,0.1c-0.5-0.7-1-1.3-1.6-1.9c-0.6-0.7-1.4-1.3-2.1-1.9c-0.7-0.6-1.5-1-2.4-1.5c1.8,1.7,3.5,3.5,4.5,5.6
				c-0.3-0.2-0.5-0.5-0.8-0.7c0.5,1.2,1,2.4,1.5,3.7c-0.1,0-0.1,0-0.2,0.1c-0.7-1.4-1.5-2.8-2.2-4.2c0,0,0,0,0,0
				c0.5,1.7,1,3.4,1.4,5.2c5.5-0.6,11.2-1.3,16.7-1.9c0-1.7,0.1-3.4,0.1-5.1c0,0-0.1,0-0.1,0c-0.4,1.5-0.7,3-1.1,4.4
				c-0.1,0-0.1,0-0.2,0c0.2-1.3,0.4-2.7,0.7-4.1c-0.4,0.7-0.8,1.4-1.2,2.1c-0.1,0-0.2,0-0.3,0c0.2-1.8,0.5-3.7,0.7-5.5
				c0,0,0,0-0.1,0c-0.3,0.8-0.6,1.6-0.9,2.5c-0.3,0.9-0.5,1.7-0.7,2.6c-0.2,0.9-0.3,1.7-0.5,2.6c-0.5-2.2-0.2-4.4,0.4-6.6
				c-0.1,0-0.2,0-0.4,0c-0.7,2.1-1.3,4.2-2,6.2c-0.6-2.9-0.1-5.8,0.8-8.8c-0.1,0-0.2,0-0.3,0c-0.8,2.2-1.7,4.5-2.5,6.8
				c-0.3-3.1-0.1-6.1,0.2-9.1c-0.3,0.9-0.6,1.9-0.8,2.8c-0.3,1-0.5,2-0.7,2.9c-0.2,1-0.3,1.9-0.4,2.9c-1.3-2.7-2.6-5.4-3.9-8.1
				c-0.1,0-0.2,0.1-0.3,0.1c1.2,2.9,2.1,5.9,2.5,9.1C274.1,448.1,271.7,445.9,268.6,444.6z"/>
			<path class="st3" d="M266.3,401.8c-1.3-0.7-5.5,0.7-6.6,2.3c-1.1,1.7-1.2,3.3-0.7,10.1c0.5,6.8,1.3,18.6,0,23
				c-1.3,4.5-6.9,3.6-6.9,3.6s3-65.6,3-71.8c0-6.2-1.4-12.3-4.3-11.6c-3,0.7-9.1,6.6-9.8,9.8c-0.7,3.2-0.7,12.8-0.2,20.7
				c0.5,8,2.2,44.5,2.2,44.5s-6-1.1-7.3-2.5c-0.8-1-2.1-2.7-1.4-7.3c0.7-4.6,2.2-17.6,2.2-20.8s-2.4-9.1-5.6-8.4
				c-3.2,0.7-5.5,3.9-5.7,8.4c-0.2,4.6,1.2,23.9,2.3,27c1.3,3.8,6.2,6.2,15.5,6.7l1.6,38.7h6.2l1.8-30.2c14.6,0,15.9-18.1,16.6-26.7
				C269.8,409,267.6,402.5,266.3,401.8z"/>
			<path class="st3" d="M182,430.6c-1.9-0.1-4.2,1.5-4,3.8c0.2,2.3,0,10.4,0.2,14.1c0.2,3.7-3.9,2.1-3.9,0.5
				c0-1.6-0.5-17.8,0.4-23.1c0.9-5.3,0.7-7.9-0.7-8.2c-1.4-0.2-4.8,0.9-4.8,4.8c0,4,0.5,17.3,0.7,20.8c0.2,3.5-0.5,4-1.8,4
				s-1.6-1.7-1.6-5.3c0-3.6,0.2-35.5,0.4-38.3c0.2-2.8-1.6-5.1-3-5.1c-1.4,0-2.8,2-2.6,5.6c0.2,3.6,2.3,36.6,2.5,42.3
				c0.2,5.7-1.9,5.6-3,5.6s-1-1.5-1.2-3.5c-0.3-2-0.2-17.2,0.2-20.1c0.4-2.8-0.7-4.7-3.2-4.2c-2.5,0.5-2.6,2.5-2.5,7.9
				c0.2,5.4,1.5,21.4,3,22.4c1.5,1.1,6,1,7,2.8c1.1,1.9,0.5,22.6,0.5,22.6l6.7-0.1c0,0,0.9-24.4,0.9-25.3c0-0.9,3.5-0.8,6.9-1.2
				c3.3-0.4,3.6-6.7,4.2-11.6C183.8,436.8,183.9,430.7,182,430.6z"/>
			
				<ellipse transform="matrix(6.189714e-02 -0.9981 0.9981 6.189714e-02 -371.5441 561.2534)" class="st3" cx="112.8" cy="478.3" rx="9" ry="16.9"/>
			<path class="st3" d="M475.4,472.6c-0.3,4.8-13.5,7.8-29.4,6.9c-16-1-28.6-5.7-28.3-10.4c0.3-4.8,13.5-7.8,29.4-6.9
				C463,463.1,475.7,467.8,475.4,472.6z"/>
			<path class="st3" d="M501.2,479.1c-0.3,4.8-8.1,8.2-17.3,7.6c-9.3-0.6-16.6-4.9-16.3-9.7c0.3-4.8,8.1-8.2,17.3-7.6
				C494.2,470,501.5,474.4,501.2,479.1z"/>
			<path class="st3" d="M405.7,462.3c-0.6,3.2-6.1,5-12.4,3.8c-6.3-1.1-10.9-4.6-10.3-7.9c0.6-3.2,6.1-5,12.4-3.8
				C401.7,455.5,406.3,459,405.7,462.3z"/>
			<ellipse class="st3" cx="89.9" cy="478.6" rx="11.9" ry="6.3"/>
		</g>
	</g>
</g>
<g id="DESIGNED_BY_FREEPIK_1_">
</g>
</svg>
