<?xml version="1.0" encoding="utf-8"?>
<!-- Generator: Adobe Illustrator 22.0.0, SVG Export Plug-In . SVG Version: 6.00 Build 0)  -->
<svg version="1.1" id="Layer_1" xmlns="http://www.w3.org/2000/svg" xmlns:xlink="http://www.w3.org/1999/xlink" x="0px" y="0px"
	 viewBox="0 0 600 600" style="enable-background:new 0 0 600 600;" xml:space="preserve">
<style type="text/css">
	.st0{fill:#C82D1B;}
	.st1{fill:#B4241A;}
	.st2{fill:#E63D27;}
	.st3{fill:#D73424;}
	.st4{fill:#FFFFFF;}
	.st5{fill:#E7E7E7;}
	.st6{fill:#753B95;}
	.st7{fill:#3C1A54;}
	.st8{fill:#501627;}
	.st9{fill:#F56A82;}
</style>
<path class="st0" d="M110.2,291.3l-17-18.5c0,0-44.9,48.8-23.5,131.6c18.8,73.1,65.2,32.6,50-11
	C104.7,349.7,110.2,291.3,110.2,291.3z"/>
<path class="st1" d="M119.8,393.3c-15.1-43.6-9.5-102-9.5-102l-25.6-6.5c-8.4,28.1,19.2,83.9,22.8,99.6c3.6,15.7,8.1,31.9,1.8,45.2
	c-6.3,13.2-26.6,4.6-26.6,4.6C103.8,462.1,132.1,428.7,119.8,393.3z"/>
<path class="st1" d="M411.7,316.3l-18.5-17c0,0,48.8-44.8,131.6-23.5c73.1,18.8,32.6,65.2-11,50
	C470.1,310.8,411.7,316.3,411.7,316.3z"/>
<path class="st0" d="M513.7,325.9c11,3.4,21.6,3.8,30.4,1.2c11.9-3.5,14.2-18.3,0-20.6c-5.3-0.8-17.6-2.8-25.4-0.2
	C505.8,310.6,499.4,321.4,513.7,325.9z"/>
<path class="st0" d="M210.6,429.5c0,0-8.3,105.4-23.6,112.6c-15.3,7.2-9.9,11.7,27,11.7s44-3.6,45.8-34.2
	c1.8-30.6-9.3-79.6-9.3-79.6L210.6,429.5z"/>
<path class="st0" d="M360.5,542.1c-15.3-7.2-23.6-112.6-23.6-112.6L297,440c0,0-11.1,49-9.3,79.6c1.8,30.6,9,34.2,45.8,34.2
	C370.4,553.8,375.8,549.3,360.5,542.1z"/>
<path class="st1" d="M252.2,512c-5.8,31-29.2,44.5-64.3,40.5c5.7,0.9,14.3,1.3,26.1,1.3c36.9,0,44-3.6,45.8-34.2
	c1.8-30.6-9.3-79.6-9.3-79.6l-39.9-10.5c0,0,6.5,6.4,20.4,12.5C245,448.2,258,481,252.2,512z"/>
<path class="st1" d="M338,491.7c2.7,30.2,23.4,63.4-18,61.9l0,0c4,0.2,8.5,0.3,13.5,0.3c36.9,0,42.3-4.5,27-11.7
	c-15.3-7.2-23.6-112.6-23.6-112.6L297,440c0,0,11,3.6,20.2,3.6S335.3,461.4,338,491.7z"/>
<path class="st2" d="M457.1,207.4c6.7,8.6,16.7,13.8,16.7,13.8c-3.6-42.3-58.8-90.3-58.8-90.3c18.5,6.4,18.8,0.4,18.8,0.4
	c-53.9-54.5-116.6-51.1-116.6-51.1c6.4-0.5,10.8-8.6,10.8-8.6c-26.7-8.9-49,4.6-49,4.6s-26.4-7-36-20.2c0,0-8.4,16.8,7.2,25.2
	c0,0-32.4-13.2-74.3,6c0,0,12,8.4,25.2,8.4c0,0-58.7,1.2-103.1,67.1c0,0,9,2.5,18.2-3.3c-10.7,11-29.3,34.6-34.4,68
	c0,0,7.1-1.3,12.3-9.4c-6.4,16-17.5,55.1-2.1,107.4c0,0,4.7-0.4,5.8-23.1c0,0,12.8,86,61.3,122.9c0,0,5.9-10.8-1.1-27
	c0,0,31.6,29.7,35.2,49.4c0,0,7-12.1,2.1-24.9c0,0,26.6,19.2,82.4,19.2c55.7,0,87.7-22,87.7-22c-3.1,11,6.7,22,6.7,22
	c0.9-18.3,25.4-43.7,25.4-43.7c-9.3,8.4-1.1,26.1-1.1,26.1c17.5-14.9,29.7-44,35.1-59.1c-1.2,10.5,5.4,17.8,5.4,17.8
	c23.4-25.2,22.2-86.4,22.2-86.4c1.6,15.2,14.6,28,14.6,28C484.6,267.9,457.1,207.4,457.1,207.4z"/>
<path class="st3" d="M158.1,398.3c0,0,31.6,29.7,35.2,49.4c0,0,7-12.1,2.1-24.9c0,0,26.6,19.2,82.4,19.2c55.7,0,87.7-22,87.7-22
	c-3.1,11,6.7,22,6.7,22c0.9-18.3,25.4-43.7,25.4-43.7c-9.3,8.4-1.1,26.1-1.1,26.1c17.5-14.9,29.7-44,35.1-59.1
	c-1.2,10.5,5.4,17.8,5.4,17.8c23.4-25.2,22.2-86.4,22.2-86.4c1.6,15.2,14.6,28,14.6,28c10.8-56.6-16.7-117.2-16.7-117.2
	c6.7,8.6,16.7,13.8,16.7,13.8c-3.6-42.3-58.8-90.3-58.8-90.3c18.5,6.4,18.8,0.4,18.8,0.4c-53.9-54.5-116.6-51.1-116.6-51.1
	s6.5-0.7,14.4,8.2c7.9,8.9,17.4,21.3,37,27.7c19.5,6.4,67.9,31.2,82.1,71.5c0,0-11.5-3.5-16.8-10.6c0,0,42.8,86.2,11.1,166.5
	c0,0-7.8-8.2-6.2-19.3c0,0-33.1,95.5-147.4,105.3C199.3,437.4,158.1,398.3,158.1,398.3z"/>
<g>
	<path class="st4" d="M372.6,229.4c3.1,54.3-38.4,100.8-92.6,103.9c-54.3,3.1-100.8-38.4-103.9-92.6
		c-3.1-54.3,38.4-100.8,92.6-103.9C323,133.6,369.5,175.1,372.6,229.4z"/>
	<path class="st5" d="M372.6,229.4c-0.3-5.5-1.1-10.8-2.3-16c0.2,1.5,0.3,3,0.4,4.6c3.1,54.3-38.4,100.8-92.6,103.9
		c-48.8,2.8-91.3-30.5-101.6-76.6c5.4,52,50.8,91.1,103.5,88C334.2,330.1,375.7,283.6,372.6,229.4z"/>
	<path class="st6" d="M309.3,217.7c1.2,21.2-15,39.4-36.2,40.6c-21.2,1.2-39.4-15-40.6-36.2s15-39.4,36.2-40.6
		C289.9,180.3,308.1,196.5,309.3,217.7z"/>
	<path class="st7" d="M292.1,218.7c0.7,11.7-8.3,21.7-20,22.4c-11.7,0.7-21.7-8.3-22.4-20c-0.7-11.7,8.3-21.7,20-22.4
		C281.4,198.1,291.4,207,292.1,218.7z"/>
	<path class="st4" d="M297.2,202.7c0.4,6.7-4.7,12.4-11.4,12.8c-6.7,0.4-12.4-4.7-12.8-11.4c-0.4-6.7,4.7-12.4,11.4-12.8
		C291.1,190.9,296.8,196,297.2,202.7z"/>
</g>
<path class="st2" d="M356.6,98c-24.7,34.7-57.2,59.6-96,70.6c-37.1,10.5-76,7.1-113.5-7.8c0,0,18.3-32.5,82.9-47.6
	C294.4,98,356.6,98,356.6,98z"/>
<path class="st8" d="M305.5,383.5c0.9,16-11.3,29.7-27.3,30.6c-16,0.9-29.7-11.3-30.6-27.3c-0.9-16,11.3-29.7,27.3-30.6
	C290.9,355.2,304.6,367.5,305.5,383.5z"/>
<path class="st9" d="M274.9,385.2c-10.1,0.6-18.7,6.3-23.5,14.4c5.3,9.2,15.5,15.1,26.8,14.5c10.1-0.6,18.7-6.3,23.5-14.4
	C296.4,390.5,286.2,384.5,274.9,385.2z"/>
</svg>
